%TF.GenerationSoftware,KiCad,Pcbnew,10.0.3*%
%TF.CreationDate,2026-09-20T23:16:09+02:00*%
%TF.ProjectId,stabielator,73746162-6965-46c6-9174-6f722e6b6963,rev?*%
%TF.SameCoordinates,Original*%
%TF.FileFunction,Copper,L4,Bot*%
%TF.FilePolarity,Positive*%
%FSLAX46Y46*%
G04 Gerber Fmt 4.6, Leading zero omitted, Abs format (unit mm)*
G04 Created by KiCad (PCBNEW 10.0.3) date 2026-09-20 23:16:09*
%MOMM*%
%LPD*%
G01*
G04 APERTURE LIST*
G04 Aperture macros list*
%AMHorizOval*
0 Thick line with rounded ends*
0 $1 width*
0 $2 $3 position (X,Y) of the first rounded end (center of the circle)*
0 $4 $5 position (X,Y) of the second rounded end (center of the circle)*
0 Add line between two ends*
20,1,$1,$2,$3,$4,$5,0*
0 Add two circle primitives to create the rounded ends*
1,1,$1,$2,$3*
1,1,$1,$4,$5*%
G04 Aperture macros list end*
%TA.AperFunction,HeatsinkPad*%
%ADD10C,0.500000*%
%TD*%
%TA.AperFunction,HeatsinkPad*%
%ADD11R,1.600000X1.600000*%
%TD*%
%TA.AperFunction,ComponentPad*%
%ADD12C,0.700000*%
%TD*%
%TA.AperFunction,ComponentPad*%
%ADD13C,4.400000*%
%TD*%
%TA.AperFunction,ComponentPad*%
%ADD14HorizOval,0.900000X-0.388909X0.388909X0.388909X-0.388909X0*%
%TD*%
%TA.AperFunction,ComponentPad*%
%ADD15HorizOval,0.900000X-0.282843X0.282843X0.282843X-0.282843X0*%
%TD*%
%TA.AperFunction,ComponentPad*%
%ADD16C,0.500000*%
%TD*%
%TA.AperFunction,SMDPad,CuDef*%
%ADD17C,1.000000*%
%TD*%
%TA.AperFunction,ViaPad*%
%ADD18C,0.600000*%
%TD*%
%TA.AperFunction,Conductor*%
%ADD19C,0.300000*%
%TD*%
%TA.AperFunction,Conductor*%
%ADD20C,0.200000*%
%TD*%
%TA.AperFunction,Conductor*%
%ADD21C,1.000000*%
%TD*%
G04 APERTURE END LIST*
D10*
%TO.P,U3,17,VSS_17*%
%TO.N,GND*%
X105037500Y-65450000D03*
X103937500Y-65450000D03*
D11*
X104487500Y-66000000D03*
D10*
X105037500Y-66550000D03*
X103937500Y-66550000D03*
%TD*%
D12*
%TO.P,H4,1,1_1*%
%TO.N,GND*%
X132350000Y-97570000D03*
X132833274Y-96403274D03*
X132833274Y-98736726D03*
X134000000Y-95920000D03*
D13*
X134000000Y-97570000D03*
D12*
X134000000Y-99220000D03*
X135166726Y-96403274D03*
X135166726Y-98736726D03*
X135650000Y-97570000D03*
%TD*%
%TO.P,H1,1,1_1*%
%TO.N,GND*%
X114350000Y-52430000D03*
X114833274Y-51263274D03*
X114833274Y-53596726D03*
X116000000Y-50780000D03*
D13*
X116000000Y-52430000D03*
D12*
X116000000Y-54080000D03*
X117166726Y-51263274D03*
X117166726Y-53596726D03*
X117650000Y-52430000D03*
%TD*%
%TO.P,H3,1,1_1*%
%TO.N,GND*%
X114350000Y-97570000D03*
X114833274Y-96403274D03*
X114833274Y-98736726D03*
X116000000Y-95920000D03*
D13*
X116000000Y-97570000D03*
D12*
X116000000Y-99220000D03*
X117166726Y-96403274D03*
X117166726Y-98736726D03*
X117650000Y-97570000D03*
%TD*%
D14*
%TO.P,J5,SH,SHELL_SH*%
%TO.N,Net-(J5-SHELL)*%
X138262349Y-94138828D03*
D15*
X141210984Y-97087463D03*
D14*
X144371751Y-88029426D03*
D15*
X147320386Y-90978061D03*
%TD*%
D16*
%TO.P,U4,11,Pad_11*%
%TO.N,GND*%
X116080003Y-66655086D03*
X116655002Y-65705087D03*
X116655002Y-67605085D03*
X117230001Y-66655086D03*
%TD*%
D12*
%TO.P,H2,1,1_1*%
%TO.N,GND*%
X132350000Y-52430000D03*
X132833274Y-51263274D03*
X132833274Y-53596726D03*
X134000000Y-50780000D03*
D13*
X134000000Y-52430000D03*
D12*
X134000000Y-54080000D03*
X135166726Y-51263274D03*
X135166726Y-53596726D03*
X135650000Y-52430000D03*
%TD*%
D17*
%TO.P,TP4,1,1_1*%
%TO.N,Net-(U1-GPIO20{slash}U0RXD)*%
X139425000Y-66250000D03*
%TD*%
%TO.P,TP10,1,1_1*%
%TO.N,VSYS*%
X115800000Y-91175000D03*
%TD*%
%TO.P,TP11,1,1_1*%
%TO.N,GND*%
X135225000Y-93475000D03*
%TD*%
%TO.P,TP6,1,1_1*%
%TO.N,SDA*%
X130400000Y-79760000D03*
%TD*%
%TO.P,TP8,1,1_1*%
%TO.N,SCL*%
X127220000Y-81930000D03*
%TD*%
%TO.P,TP12,1,1_1*%
%TO.N,5V*%
X132950000Y-93425000D03*
%TD*%
%TO.P,TP7,1,1_1*%
%TO.N,KILL*%
X111220000Y-81600000D03*
%TD*%
%TO.P,TP5,1,1_1*%
%TO.N,IMU_INT*%
X125100000Y-77710000D03*
%TD*%
%TO.P,TP3,1,1_1*%
%TO.N,Net-(U1-GPIO21{slash}U0TXD)*%
X140931676Y-64793324D03*
%TD*%
%TO.P,TP13,1,1_1*%
%TO.N,Net-(SW2-A)*%
X110930000Y-97360000D03*
%TD*%
%TO.P,TP2,1,1_1*%
%TO.N,CHG*%
X101360000Y-64020000D03*
%TD*%
%TO.P,TP1,1,1_1*%
%TO.N,3V3*%
X115050000Y-57300000D03*
%TD*%
%TO.P,TP9,1,1_1*%
%TO.N,3V3_EN*%
X110290000Y-89220000D03*
%TD*%
D18*
%TO.N,3V3*%
X118050000Y-65175000D03*
X116150000Y-58350000D03*
X115525000Y-62400000D03*
%TO.N,Net-(U3-TS)*%
X105925000Y-63999997D03*
X113925000Y-74150000D03*
%TO.N,GND*%
X104900000Y-78700000D03*
X146250000Y-83175000D03*
X119400000Y-61025000D03*
X127093414Y-59206586D03*
X129768414Y-55531586D03*
X107300000Y-64350000D03*
X102600000Y-64550000D03*
X128768414Y-62943414D03*
X127500000Y-64075000D03*
X135400000Y-78250000D03*
X141775000Y-72125000D03*
X136650000Y-57050000D03*
X141225000Y-69900000D03*
X141700000Y-75300000D03*
X123525001Y-87350000D03*
X122250001Y-54875000D03*
X119850000Y-63575000D03*
X130800000Y-84450000D03*
X113150000Y-63750000D03*
X147850000Y-82425000D03*
X142100000Y-77175000D03*
X136750000Y-59025000D03*
X124100000Y-87350000D03*
X106000000Y-67825000D03*
X135275000Y-85500000D03*
X111850000Y-94900000D03*
X119443414Y-63168414D03*
X142525000Y-64275000D03*
X116800001Y-74900000D03*
X137425000Y-90725000D03*
X138500000Y-62925000D03*
X111475001Y-73175000D03*
X121875000Y-76175000D03*
X145675001Y-83175000D03*
X129175000Y-63350000D03*
X138050000Y-66225000D03*
X103225000Y-64575001D03*
X134700000Y-60950000D03*
X120800001Y-54900000D03*
X141775000Y-72700000D03*
X140400000Y-61975000D03*
X114050000Y-82100000D03*
X113100000Y-83800000D03*
X137000000Y-75675000D03*
X127200001Y-95350000D03*
X124600000Y-74300000D03*
X148450001Y-82425000D03*
X111600000Y-69950000D03*
X125600000Y-71475000D03*
X122225000Y-59650000D03*
X130175000Y-55125000D03*
X129274999Y-95325000D03*
X112525001Y-83800000D03*
X119400000Y-60450000D03*
X125325000Y-60125000D03*
X116200000Y-76400000D03*
X136725000Y-72025000D03*
X131675000Y-54225000D03*
X139431586Y-60981586D03*
X121850000Y-76775000D03*
X124725000Y-58300000D03*
X122825000Y-54875000D03*
X119400000Y-61650000D03*
X117425000Y-70050000D03*
X115025000Y-59025000D03*
X137643414Y-66631586D03*
X119400000Y-62225000D03*
X121843414Y-78643414D03*
X111600000Y-70525001D03*
X130325000Y-74125000D03*
X127850000Y-78600000D03*
X139275000Y-86900000D03*
X118800000Y-72125000D03*
X111075000Y-63175000D03*
X111019885Y-60694885D03*
X112725000Y-59050000D03*
X117650000Y-80025000D03*
X107000000Y-84250000D03*
X138660000Y-87520000D03*
X111443414Y-94493414D03*
X103225000Y-64000000D03*
X116400000Y-57350000D03*
X119000000Y-67975000D03*
X127775000Y-95350000D03*
X110226472Y-62326472D03*
X140006586Y-89268414D03*
X127850000Y-91000000D03*
X112275000Y-61950000D03*
X111426472Y-61101472D03*
X105450000Y-86500000D03*
X122750000Y-68600000D03*
X124700000Y-91675000D03*
X119000000Y-65350000D03*
X149100000Y-64925000D03*
X133318414Y-62331586D03*
X137425000Y-79575000D03*
X145550000Y-64000000D03*
X145100000Y-72800000D03*
X107000000Y-84825000D03*
X132100000Y-71925000D03*
X109575000Y-77250000D03*
X127093414Y-63668414D03*
X122250000Y-79050000D03*
X139025000Y-60575000D03*
X119175000Y-55575000D03*
X145125000Y-71400000D03*
X114425000Y-92325000D03*
X149025000Y-82425000D03*
X104900000Y-77825000D03*
X112050000Y-73175000D03*
X122825000Y-59675000D03*
X139600000Y-89675000D03*
X125299454Y-91675000D03*
X147275001Y-82425000D03*
X135106586Y-60543414D03*
X107375000Y-69400001D03*
X120525000Y-82800000D03*
X135950000Y-54500000D03*
X137475000Y-92455826D03*
X131268414Y-54631586D03*
X136850001Y-79575000D03*
X146725000Y-64900000D03*
X108325000Y-74725546D03*
X104900000Y-79275000D03*
X145100000Y-70775000D03*
X133350000Y-82300000D03*
X109575000Y-77825000D03*
X135675000Y-62925000D03*
X114375000Y-70600000D03*
X145100000Y-72225000D03*
X106950000Y-70875000D03*
X108325000Y-75325000D03*
X116225000Y-74900000D03*
X127025000Y-66475000D03*
X125175000Y-74300000D03*
X116250001Y-73250000D03*
X137324999Y-59025000D03*
X111868414Y-61543414D03*
X119000000Y-67400000D03*
X140806586Y-62381586D03*
X137075000Y-64325000D03*
X135543414Y-54906586D03*
X137925000Y-84425000D03*
X136075001Y-57050000D03*
X127275001Y-91000000D03*
X122900000Y-64725000D03*
X102225000Y-62350000D03*
X117425000Y-69475000D03*
X137050000Y-61525000D03*
X130225000Y-84450000D03*
X102225000Y-62925001D03*
X116825000Y-73250000D03*
X106925000Y-81875000D03*
X109100000Y-79925000D03*
X139550000Y-64800000D03*
X133725000Y-61925000D03*
X108025000Y-92475000D03*
X116775001Y-76400000D03*
X137000000Y-76250000D03*
X122050000Y-73450000D03*
X107875001Y-64350000D03*
X128700000Y-95325000D03*
X107375000Y-68825000D03*
X108300000Y-88025000D03*
X121675000Y-73925000D03*
X118600001Y-55575000D03*
X114075000Y-66675000D03*
X125324454Y-58300000D03*
X105450000Y-81275000D03*
X107618414Y-92068414D03*
X109850000Y-67500000D03*
X145143414Y-64406586D03*
X127850000Y-79225000D03*
X138875000Y-77325000D03*
X141700000Y-74700546D03*
X119000000Y-65925000D03*
X109819885Y-61919885D03*
X104900000Y-77250000D03*
X142375000Y-87600000D03*
X125600000Y-72050000D03*
X104050000Y-73600000D03*
X121375000Y-54900000D03*
X110668414Y-62768414D03*
X127500000Y-58800000D03*
X123550000Y-75675000D03*
X135275000Y-86074999D03*
X113375000Y-89625000D03*
X131825000Y-74050000D03*
%TO.N,5V*%
X108750000Y-67125000D03*
X102137729Y-65484404D03*
X134125000Y-89675000D03*
%TO.N,CHG*%
X101310000Y-65410000D03*
%TO.N,VSYS*%
X114112500Y-90212500D03*
%TO.N,Net-(U3-TMR)*%
X106700127Y-66256873D03*
X113925000Y-77125000D03*
%TO.N,Net-(U3-ISET)*%
X113950000Y-75650000D03*
X105925000Y-64800000D03*
%TO.N,Net-(U5-SCL)*%
X110125000Y-76040270D03*
X132749144Y-87061755D03*
%TO.N,Net-(U5-SDA)*%
X131886775Y-87061755D03*
X110125000Y-75092692D03*
%TO.N,BATTERY*%
X118100000Y-57925000D03*
X133525000Y-60400000D03*
%TO.N,LED_R*%
X130400000Y-67800000D03*
X134250000Y-68800000D03*
%TO.N,KILL*%
X111250000Y-87050000D03*
X111275000Y-79300000D03*
X120625000Y-71600000D03*
X130275000Y-64500000D03*
%TO.N,Net-(J5-CC1)*%
X139064819Y-91010709D03*
X140700000Y-87600000D03*
%TO.N,IMU_RST*%
X133825000Y-59650000D03*
X124737500Y-80637500D03*
%TO.N,Net-(U2-SDA)*%
X125197359Y-62530439D03*
X133611514Y-87061755D03*
%TO.N,Net-(U2-SCL)*%
X124325232Y-62538482D03*
X134473883Y-87061755D03*
%TO.N,Net-(U10-SDA)*%
X124957644Y-87241916D03*
X133400000Y-78700000D03*
%TO.N,Net-(U10-SCL)*%
X125642681Y-86828724D03*
X132599997Y-78700000D03*
%TO.N,SCL*%
X132225000Y-66500000D03*
X128450000Y-74250000D03*
X131470000Y-81725000D03*
%TO.N,SDA*%
X127800000Y-73300000D03*
X132850000Y-67150000D03*
X130550000Y-81725000D03*
%TO.N,Net-(U1-GPIO2{slash}ADC1_CH2)*%
X143875000Y-66850000D03*
X134325000Y-59000000D03*
%TO.N,/Logic/CHIP_EN*%
X132325000Y-60425000D03*
X128900000Y-56700000D03*
%TO.N,IMU_INT*%
X131450000Y-65725000D03*
X126750000Y-77700000D03*
%TO.N,LED_G*%
X135150000Y-69675000D03*
X129625000Y-70050000D03*
%TO.N,IO9_BOOT*%
X147925000Y-69850000D03*
X138175000Y-67450000D03*
%TO.N,USB_D-*%
X139500000Y-81825000D03*
X139684313Y-70065687D03*
%TO.N,USB_D+*%
X140250000Y-69500000D03*
X139550000Y-83275000D03*
%TO.N,Net-(U1-GPIO20{slash}U0RXD)*%
X140600000Y-66450000D03*
%TO.N,Net-(U1-GPIO21{slash}U0TXD)*%
X141175000Y-65875000D03*
%TO.N,Net-(SW2-A)*%
X110660000Y-96270000D03*
%TO.N,3V3_EN*%
X110337547Y-90961802D03*
X118050000Y-68075000D03*
%TD*%
%TO.N,3V3*%
D19*
X118050000Y-65175000D02*
X118050000Y-64925000D01*
X118050000Y-64925000D02*
X115525000Y-62400000D01*
D20*
X116100000Y-58350000D02*
X115050000Y-57300000D01*
X116150000Y-58350000D02*
X116100000Y-58350000D01*
%TO.N,Net-(U3-TS)*%
X110156372Y-65125000D02*
X113725000Y-68693629D01*
X107098529Y-65125000D02*
X110156372Y-65125000D01*
X113725000Y-68693629D02*
X113725000Y-73950000D01*
X113725000Y-73950000D02*
X113925000Y-74150000D01*
X105925000Y-63999997D02*
X105973526Y-63999997D01*
X105973526Y-63999997D02*
X107098529Y-65125000D01*
%TO.N,5V*%
D21*
X108750000Y-68850000D02*
X108750000Y-67125000D01*
D20*
X103700000Y-70225000D02*
X108750000Y-70225000D01*
D21*
X133000000Y-93400000D02*
X110800000Y-93400000D01*
X108750000Y-70725000D02*
X108750000Y-68850000D01*
X103500000Y-86100000D02*
X103500000Y-75975000D01*
X134125000Y-89675000D02*
X134125000Y-92275000D01*
X134125000Y-92275000D02*
X133000000Y-93400000D01*
D20*
X101650000Y-65972133D02*
X101650000Y-68175000D01*
X108750000Y-70225000D02*
X108750000Y-68850000D01*
X102137729Y-65484404D02*
X101650000Y-65972133D01*
D21*
X110800000Y-93400000D02*
X103500000Y-86100000D01*
D20*
X101650000Y-68175000D02*
X103700000Y-70225000D01*
D21*
X103500000Y-75975000D02*
X108750000Y-70725000D01*
%TO.N,CHG*%
D20*
X101310000Y-65410000D02*
X101310000Y-64070000D01*
X101310000Y-64070000D02*
X101360000Y-64020000D01*
%TO.N,VSYS*%
X115025000Y-91175000D02*
X114112500Y-90262500D01*
X115800000Y-91175000D02*
X115025000Y-91175000D01*
X114112500Y-90262500D02*
X114112500Y-90212500D01*
%TO.N,Net-(U3-TMR)*%
X109825000Y-65925000D02*
X106975000Y-65925000D01*
X112925000Y-76100000D02*
X112925000Y-69025000D01*
X106700127Y-66199873D02*
X106700127Y-66256873D01*
X106975000Y-65925000D02*
X106700127Y-66199873D01*
X113925000Y-77125000D02*
X113925000Y-77100000D01*
X113925000Y-77100000D02*
X112925000Y-76100000D01*
X112925000Y-69025000D02*
X109825000Y-65925000D01*
%TO.N,Net-(U3-ISET)*%
X113325000Y-68859314D02*
X109990686Y-65525000D01*
X106650000Y-65525000D02*
X105925000Y-64800000D01*
X109990686Y-65525000D02*
X106650000Y-65525000D01*
X113325000Y-75025000D02*
X113325000Y-68859314D01*
X113950000Y-75650000D02*
X113325000Y-75025000D01*
%TO.N,Net-(U5-SCL)*%
X129485899Y-90325000D02*
X132749144Y-87061755D01*
X110300000Y-76475000D02*
X124150000Y-90325000D01*
X124150000Y-90325000D02*
X129485899Y-90325000D01*
X110300000Y-76215270D02*
X110300000Y-76475000D01*
X110125000Y-76040270D02*
X110300000Y-76215270D01*
%TO.N,Net-(U5-SDA)*%
X110725000Y-75625000D02*
X110725000Y-76275000D01*
X110158778Y-75092692D02*
X110125000Y-75092692D01*
X124375000Y-89925000D02*
X129023530Y-89925000D01*
X110125000Y-75092692D02*
X110192692Y-75092692D01*
X129023530Y-89925000D02*
X131886775Y-87061755D01*
X110725000Y-76275000D02*
X124375000Y-89925000D01*
X110192692Y-75092692D02*
X110725000Y-75625000D01*
%TO.N,BATTERY*%
X121200000Y-61025000D02*
X118100000Y-57925000D01*
X133209314Y-61025000D02*
X121200000Y-61025000D01*
X133525000Y-60400000D02*
X133525000Y-60709314D01*
X133525000Y-60709314D02*
X133209314Y-61025000D01*
%TO.N,LED_R*%
X131400000Y-68800000D02*
X134250000Y-68800000D01*
X130400000Y-67800000D02*
X131400000Y-68800000D01*
%TO.N,KILL*%
X127550000Y-64725000D02*
X120675000Y-71600000D01*
X130050000Y-64725000D02*
X127550000Y-64725000D01*
X130275000Y-64500000D02*
X130050000Y-64725000D01*
X120675000Y-71600000D02*
X120625000Y-71600000D01*
X111250000Y-87050000D02*
X111250000Y-79325000D01*
X111250000Y-79325000D02*
X111275000Y-79300000D01*
%TO.N,Net-(J5-CC1)*%
X140700000Y-87600000D02*
X140700000Y-89550000D01*
X139239291Y-91010709D02*
X139064819Y-91010709D01*
X140700000Y-89550000D02*
X139239291Y-91010709D01*
%TO.N,IMU_RST*%
X133825000Y-59650000D02*
X134125000Y-59950000D01*
X123000000Y-61425000D02*
X119600000Y-64825000D01*
X119600000Y-75500000D02*
X124737500Y-80637500D01*
X134125000Y-59950000D02*
X134125000Y-60675000D01*
X133375000Y-61425000D02*
X123000000Y-61425000D01*
X134125000Y-60675000D02*
X133375000Y-61425000D01*
X119600000Y-64825000D02*
X119600000Y-75500000D01*
%TO.N,Net-(U2-SDA)*%
X131109314Y-62225000D02*
X125502798Y-62225000D01*
X137650000Y-77000000D02*
X137650000Y-68765686D01*
X125502798Y-62225000D02*
X125197359Y-62530439D01*
X133611514Y-87061755D02*
X134025000Y-86648269D01*
X134025000Y-86648269D02*
X134025000Y-80625000D01*
X134025000Y-80625000D02*
X137650000Y-77000000D01*
X137650000Y-68765686D02*
X131109314Y-62225000D01*
%TO.N,Net-(U2-SCL)*%
X138050000Y-77175000D02*
X138050000Y-68600000D01*
X134473883Y-87061755D02*
X134473883Y-80751117D01*
X125038714Y-61825000D02*
X124325232Y-62538482D01*
X131275000Y-61825000D02*
X125038714Y-61825000D01*
X134473883Y-80751117D02*
X138050000Y-77175000D01*
X138050000Y-68600000D02*
X131275000Y-61825000D01*
%TO.N,Net-(U10-SDA)*%
X131365686Y-83325000D02*
X132999997Y-81690689D01*
X126450000Y-86587091D02*
X129712091Y-83325000D01*
X132999997Y-81625003D02*
X133000000Y-81625000D01*
X125024780Y-87309052D02*
X125190728Y-87475000D01*
X132999997Y-81690689D02*
X132999997Y-81625003D01*
X124957644Y-87241916D02*
X125091916Y-87241916D01*
X125950000Y-87475000D02*
X126450000Y-86975000D01*
X129712091Y-83325000D02*
X131365686Y-83325000D01*
X125091916Y-87241916D02*
X125024780Y-87309052D01*
X126450000Y-86975000D02*
X126450000Y-86587091D01*
X133400000Y-78950000D02*
X133400000Y-78700000D01*
X125190728Y-87475000D02*
X125950000Y-87475000D01*
X133000000Y-79350000D02*
X133400000Y-78950000D01*
X133000000Y-81625000D02*
X133000000Y-79350000D01*
%TO.N,Net-(U10-SCL)*%
X131200000Y-82925000D02*
X129546405Y-82925000D01*
X132599997Y-81525003D02*
X131200000Y-82925000D01*
X132599997Y-78700000D02*
X132599997Y-81525003D01*
X129546405Y-82925000D02*
X125642681Y-86828724D01*
%TO.N,SCL*%
X128450000Y-74250000D02*
X128650000Y-74450000D01*
X128675000Y-80975000D02*
X130050000Y-82350000D01*
X128675000Y-80840685D02*
X128675000Y-80975000D01*
X127200000Y-73548529D02*
X127901471Y-74250000D01*
X131975000Y-66750000D02*
X129350000Y-66750000D01*
X128240000Y-80910000D02*
X127220000Y-81930000D01*
X130845000Y-82350000D02*
X131470000Y-81725000D01*
X127200000Y-68900000D02*
X127200000Y-73548529D01*
X128675000Y-80840685D02*
X128675000Y-80910000D01*
X127901471Y-74250000D02*
X128450000Y-74250000D01*
X128675000Y-80910000D02*
X128240000Y-80910000D01*
X129350000Y-66750000D02*
X127200000Y-68900000D01*
X128650000Y-74450000D02*
X128650000Y-80815686D01*
X132225000Y-66500000D02*
X131975000Y-66750000D01*
X128650000Y-80815686D02*
X128675000Y-80840685D01*
X130050000Y-82350000D02*
X130845000Y-82350000D01*
%TO.N,SDA*%
X129060000Y-79760000D02*
X130400000Y-79760000D01*
X129050000Y-80650000D02*
X129050000Y-79750000D01*
X132850000Y-67150000D02*
X129550000Y-67150000D01*
X129050000Y-79750000D02*
X129060000Y-79760000D01*
X130125000Y-81725000D02*
X129050000Y-80650000D01*
X129050000Y-79750000D02*
X129050000Y-74000000D01*
X129550000Y-67150000D02*
X127600000Y-69100000D01*
X129050000Y-74000000D02*
X128350000Y-73300000D01*
X128350000Y-73300000D02*
X127800000Y-73300000D01*
X127600000Y-73100000D02*
X127800000Y-73300000D01*
X127600000Y-69100000D02*
X127600000Y-73100000D01*
X130550000Y-81725000D02*
X130125000Y-81725000D01*
%TO.N,Net-(U1-GPIO2{slash}ADC1_CH2)*%
X143875000Y-66850000D02*
X143875000Y-64425000D01*
X135250000Y-58075000D02*
X134325000Y-59000000D01*
X137525000Y-58075000D02*
X135250000Y-58075000D01*
X143875000Y-64425000D02*
X137525000Y-58075000D01*
%TO.N,/Logic/CHIP_EN*%
X132325000Y-60275000D02*
X128900000Y-56850000D01*
X128900000Y-56850000D02*
X128900000Y-56700000D01*
X132325000Y-60425000D02*
X132325000Y-60275000D01*
%TO.N,IMU_INT*%
X130825000Y-66350000D02*
X129184314Y-66350000D01*
X126750000Y-77700000D02*
X125110000Y-77700000D01*
X129184314Y-66350000D02*
X126750000Y-68784315D01*
X131450000Y-65725000D02*
X130825000Y-66350000D01*
X125110000Y-77700000D02*
X125100000Y-77710000D01*
X126750000Y-68784315D02*
X126750000Y-77700000D01*
%TO.N,LED_G*%
X130000000Y-69675000D02*
X135150000Y-69675000D01*
X129625000Y-70050000D02*
X130000000Y-69675000D01*
%TO.N,IO9_BOOT*%
X138850000Y-68125000D02*
X146200000Y-68125000D01*
X146200000Y-68125000D02*
X147925000Y-69850000D01*
X138175000Y-67450000D02*
X138850000Y-68125000D01*
%TO.N,USB_D-*%
X139799999Y-81525001D02*
X139500000Y-81825000D01*
X139375000Y-81700000D02*
X139500000Y-81825000D01*
X139799999Y-70181373D02*
X139799999Y-81525001D01*
X139684313Y-70065687D02*
X139799999Y-70181373D01*
%TO.N,USB_D+*%
X140250000Y-69782845D02*
X140284313Y-69817158D01*
X139875000Y-83275000D02*
X139550000Y-83275000D01*
X140250000Y-69500000D02*
X140250000Y-69782845D01*
X140284313Y-82865687D02*
X139875000Y-83275000D01*
X140284313Y-69817158D02*
X140284313Y-82865687D01*
%TO.N,Net-(U1-GPIO20{slash}U0RXD)*%
X139625000Y-66450000D02*
X139425000Y-66250000D01*
X140600000Y-66450000D02*
X139625000Y-66450000D01*
%TO.N,Net-(U1-GPIO21{slash}U0TXD)*%
X141175000Y-65036648D02*
X140931676Y-64793324D01*
X141175000Y-65875000D02*
X141175000Y-65036648D01*
%TO.N,Net-(SW2-A)*%
D19*
X110660000Y-96270000D02*
X110930000Y-96540000D01*
X110930000Y-97200000D02*
X110770000Y-97360000D01*
X110770000Y-97360000D02*
X110930000Y-97360000D01*
X110930000Y-96540000D02*
X110930000Y-97200000D01*
%TO.N,3V3_EN*%
D20*
X106050000Y-86674255D02*
X109447872Y-90072128D01*
X118050000Y-68075000D02*
X118050000Y-77525000D01*
X109855837Y-73975000D02*
X107675000Y-73975000D01*
X106050000Y-75600000D02*
X106050000Y-86674255D01*
X109447872Y-90072128D02*
X110337547Y-90961802D01*
X118050000Y-77525000D02*
X117317099Y-78257901D01*
X109447872Y-90062128D02*
X110290000Y-89220000D01*
X117317099Y-78257901D02*
X114138738Y-78257901D01*
X114138738Y-78257901D02*
X109855837Y-73975000D01*
X107675000Y-73975000D02*
X106050000Y-75600000D01*
X109447872Y-90072128D02*
X109447872Y-90062128D01*
%TD*%
%TA.AperFunction,Conductor*%
%TO.N,GND*%
G36*
X133707272Y-50219407D02*
G01*
X133732088Y-50245548D01*
X136362385Y-54292435D01*
X145696194Y-63626244D01*
X149700474Y-63625137D01*
X149758669Y-63644028D01*
X149794646Y-63693518D01*
X149799500Y-63724137D01*
X149799500Y-89875941D01*
X149780593Y-89934132D01*
X149770504Y-89945945D01*
X148422732Y-91293717D01*
X148368215Y-91321494D01*
X148307783Y-91311923D01*
X148264518Y-91268658D01*
X148253728Y-91223713D01*
X148253728Y-91196836D01*
X148253727Y-91196832D01*
X148228730Y-91071161D01*
X148187106Y-90970672D01*
X148179695Y-90952779D01*
X148136618Y-90888309D01*
X148108506Y-90846235D01*
X147452212Y-90189941D01*
X147345670Y-90118753D01*
X147345669Y-90118752D01*
X147345667Y-90118751D01*
X147227287Y-90069717D01*
X147101614Y-90044719D01*
X147101612Y-90044719D01*
X146973474Y-90044719D01*
X146973471Y-90044719D01*
X146847799Y-90069717D01*
X146847797Y-90069717D01*
X146729418Y-90118751D01*
X146622877Y-90189938D01*
X146532263Y-90280552D01*
X146461076Y-90387093D01*
X146412042Y-90505472D01*
X146412042Y-90505474D01*
X146387044Y-90631146D01*
X146387044Y-90759289D01*
X146412042Y-90884961D01*
X146412042Y-90884963D01*
X146461076Y-91003342D01*
X146529673Y-91106007D01*
X146532266Y-91109887D01*
X147188560Y-91766181D01*
X147295102Y-91837369D01*
X147413486Y-91886405D01*
X147539160Y-91911403D01*
X147539161Y-91911403D01*
X147566038Y-91911403D01*
X147624229Y-91930310D01*
X147660193Y-91979810D01*
X147660193Y-92040996D01*
X147636042Y-92080407D01*
X142313330Y-97403119D01*
X142258813Y-97430896D01*
X142198381Y-97421325D01*
X142155116Y-97378060D01*
X142144326Y-97333115D01*
X142144326Y-97306238D01*
X142144325Y-97306234D01*
X142119328Y-97180563D01*
X142070292Y-97062179D01*
X141999104Y-96955637D01*
X141342810Y-96299343D01*
X141332501Y-96292455D01*
X141236265Y-96228153D01*
X141117885Y-96179119D01*
X140992212Y-96154121D01*
X140992210Y-96154121D01*
X140864072Y-96154121D01*
X140864069Y-96154121D01*
X140738397Y-96179119D01*
X140738395Y-96179119D01*
X140620016Y-96228153D01*
X140513475Y-96299340D01*
X140422861Y-96389954D01*
X140351674Y-96496495D01*
X140302640Y-96614874D01*
X140302640Y-96614876D01*
X140277642Y-96740548D01*
X140277642Y-96868691D01*
X140302640Y-96994363D01*
X140302640Y-96994365D01*
X140351674Y-97112744D01*
X140396988Y-97180563D01*
X140422864Y-97219289D01*
X141079158Y-97875583D01*
X141185700Y-97946771D01*
X141304084Y-97995807D01*
X141429758Y-98020805D01*
X141429759Y-98020805D01*
X141456636Y-98020805D01*
X141514827Y-98039712D01*
X141550791Y-98089212D01*
X141550791Y-98150398D01*
X141526640Y-98189809D01*
X139945946Y-99770504D01*
X139891429Y-99798281D01*
X139875942Y-99799500D01*
X110124058Y-99799500D01*
X110065867Y-99780593D01*
X110054054Y-99770504D01*
X106487658Y-96204108D01*
X110159500Y-96204108D01*
X110159500Y-96335892D01*
X110173985Y-96389951D01*
X110193609Y-96463190D01*
X110259496Y-96577309D01*
X110259498Y-96577311D01*
X110259500Y-96577314D01*
X110352686Y-96670500D01*
X110416029Y-96707071D01*
X110456969Y-96752540D01*
X110463365Y-96813390D01*
X110436532Y-96862810D01*
X110385894Y-96913448D01*
X110385885Y-96913458D01*
X110309228Y-97028182D01*
X110309222Y-97028193D01*
X110256420Y-97155670D01*
X110256420Y-97155672D01*
X110229500Y-97291004D01*
X110229500Y-97428995D01*
X110256420Y-97564327D01*
X110256420Y-97564329D01*
X110309222Y-97691806D01*
X110309228Y-97691817D01*
X110385885Y-97806541D01*
X110483458Y-97904114D01*
X110598182Y-97980771D01*
X110598193Y-97980777D01*
X110645283Y-98000282D01*
X110725672Y-98033580D01*
X110861007Y-98060500D01*
X110861008Y-98060500D01*
X110998992Y-98060500D01*
X110998993Y-98060500D01*
X111134328Y-98033580D01*
X111261811Y-97980775D01*
X111376542Y-97904114D01*
X111474114Y-97806542D01*
X111550775Y-97691811D01*
X111603580Y-97564328D01*
X111630500Y-97428993D01*
X111630500Y-97291007D01*
X111603580Y-97155672D01*
X111550775Y-97028189D01*
X111550774Y-97028187D01*
X111550771Y-97028182D01*
X111474114Y-96913458D01*
X111376543Y-96815887D01*
X111372806Y-96813390D01*
X111324497Y-96781110D01*
X111286619Y-96733059D01*
X111280500Y-96698795D01*
X111280500Y-96493857D01*
X111272283Y-96463190D01*
X111256614Y-96404712D01*
X111233172Y-96364110D01*
X111210470Y-96324788D01*
X111184188Y-96298506D01*
X111179739Y-96292455D01*
X111172364Y-96270190D01*
X111161719Y-96249295D01*
X111160557Y-96234539D01*
X111160502Y-96234372D01*
X111160535Y-96234265D01*
X111160500Y-96233810D01*
X111160500Y-96204109D01*
X111147106Y-96154121D01*
X111126392Y-96076814D01*
X111126390Y-96076811D01*
X111126390Y-96076809D01*
X111060503Y-95962690D01*
X111060501Y-95962688D01*
X111060500Y-95962686D01*
X110967314Y-95869500D01*
X110967311Y-95869498D01*
X110967309Y-95869496D01*
X110853189Y-95803609D01*
X110853191Y-95803609D01*
X110803799Y-95790375D01*
X110725892Y-95769500D01*
X110594108Y-95769500D01*
X110516200Y-95790375D01*
X110466809Y-95803609D01*
X110352690Y-95869496D01*
X110259496Y-95962690D01*
X110193609Y-96076809D01*
X110193608Y-96076814D01*
X110159500Y-96204108D01*
X106487658Y-96204108D01*
X105527346Y-95243796D01*
X107109500Y-95243796D01*
X107109500Y-95381787D01*
X107136420Y-95517119D01*
X107136420Y-95517121D01*
X107189222Y-95644598D01*
X107189228Y-95644609D01*
X107265885Y-95759333D01*
X107363458Y-95856906D01*
X107478182Y-95933563D01*
X107478193Y-95933569D01*
X107525283Y-95953074D01*
X107605672Y-95986372D01*
X107741007Y-96013292D01*
X107741008Y-96013292D01*
X107878992Y-96013292D01*
X107878993Y-96013292D01*
X108014328Y-95986372D01*
X108141811Y-95933567D01*
X108256542Y-95856906D01*
X108354114Y-95759334D01*
X108430775Y-95644603D01*
X108483580Y-95517120D01*
X108510500Y-95381785D01*
X108510500Y-95243799D01*
X108483580Y-95108464D01*
X108430775Y-94980981D01*
X108430774Y-94980979D01*
X108430771Y-94980974D01*
X108354114Y-94866250D01*
X108256541Y-94768677D01*
X108141817Y-94692020D01*
X108141806Y-94692014D01*
X108014328Y-94639212D01*
X107878995Y-94612292D01*
X107878993Y-94612292D01*
X107741007Y-94612292D01*
X107741004Y-94612292D01*
X107605672Y-94639212D01*
X107605670Y-94639212D01*
X107478193Y-94692014D01*
X107478182Y-94692020D01*
X107363458Y-94768677D01*
X107265885Y-94866250D01*
X107189228Y-94980974D01*
X107189222Y-94980985D01*
X107136420Y-95108462D01*
X107136420Y-95108464D01*
X107109500Y-95243796D01*
X105527346Y-95243796D01*
X102522142Y-92238592D01*
X104104296Y-92238592D01*
X104104296Y-92376583D01*
X104131216Y-92511915D01*
X104131216Y-92511917D01*
X104184018Y-92639394D01*
X104184024Y-92639405D01*
X104260681Y-92754129D01*
X104358254Y-92851702D01*
X104472978Y-92928359D01*
X104472989Y-92928365D01*
X104520079Y-92947870D01*
X104600468Y-92981168D01*
X104735803Y-93008088D01*
X104735804Y-93008088D01*
X104873788Y-93008088D01*
X104873789Y-93008088D01*
X105009124Y-92981168D01*
X105136607Y-92928363D01*
X105251338Y-92851702D01*
X105348910Y-92754130D01*
X105425571Y-92639399D01*
X105478376Y-92511916D01*
X105505296Y-92376581D01*
X105505296Y-92238595D01*
X105478376Y-92103260D01*
X105460774Y-92060765D01*
X105425573Y-91975781D01*
X105425567Y-91975770D01*
X105348910Y-91861046D01*
X105251337Y-91763473D01*
X105136613Y-91686816D01*
X105136602Y-91686810D01*
X105009124Y-91634008D01*
X104873791Y-91607088D01*
X104873789Y-91607088D01*
X104735803Y-91607088D01*
X104735800Y-91607088D01*
X104600468Y-91634008D01*
X104600466Y-91634008D01*
X104472989Y-91686810D01*
X104472978Y-91686816D01*
X104358254Y-91763473D01*
X104260681Y-91861046D01*
X104184024Y-91975770D01*
X104184018Y-91975781D01*
X104131216Y-92103258D01*
X104131216Y-92103260D01*
X104104296Y-92238592D01*
X102522142Y-92238592D01*
X100229496Y-89945946D01*
X100201719Y-89891429D01*
X100200500Y-89875942D01*
X100200500Y-63951004D01*
X100659500Y-63951004D01*
X100659500Y-64088995D01*
X100686420Y-64224327D01*
X100686420Y-64224329D01*
X100739222Y-64351806D01*
X100739228Y-64351817D01*
X100815885Y-64466541D01*
X100815893Y-64466550D01*
X100913460Y-64564116D01*
X100965500Y-64598887D01*
X101003380Y-64646936D01*
X101009500Y-64681203D01*
X101009500Y-64961679D01*
X100990593Y-65019870D01*
X100980509Y-65031676D01*
X100928937Y-65083249D01*
X100909497Y-65102689D01*
X100909496Y-65102690D01*
X100843609Y-65216809D01*
X100824539Y-65287978D01*
X100809500Y-65344108D01*
X100809500Y-65475892D01*
X100824483Y-65531809D01*
X100843609Y-65603190D01*
X100909496Y-65717309D01*
X100909498Y-65717311D01*
X100909500Y-65717314D01*
X101002686Y-65810500D01*
X101002688Y-65810501D01*
X101002690Y-65810503D01*
X101116810Y-65876390D01*
X101116808Y-65876390D01*
X101116812Y-65876391D01*
X101116814Y-65876392D01*
X101244108Y-65910500D01*
X101250500Y-65910500D01*
X101308691Y-65929407D01*
X101344655Y-65978907D01*
X101349500Y-66009500D01*
X101349500Y-68214564D01*
X101369978Y-68290988D01*
X101387256Y-68320913D01*
X101387257Y-68320916D01*
X101409535Y-68359505D01*
X101409538Y-68359508D01*
X101409540Y-68359511D01*
X103459540Y-70409511D01*
X103459539Y-70409511D01*
X103515489Y-70465460D01*
X103584007Y-70505019D01*
X103584011Y-70505021D01*
X103660435Y-70525499D01*
X103660437Y-70525500D01*
X103660438Y-70525500D01*
X103739562Y-70525500D01*
X107719835Y-70525500D01*
X107778026Y-70544407D01*
X107813990Y-70593907D01*
X107813990Y-70655093D01*
X107789839Y-70694504D01*
X102955883Y-75528460D01*
X102879223Y-75643191D01*
X102826420Y-75770670D01*
X102826420Y-75770672D01*
X102811996Y-75843190D01*
X102802594Y-75890457D01*
X102802593Y-75890459D01*
X102799500Y-75906003D01*
X102799500Y-86168996D01*
X102826420Y-86304327D01*
X102826420Y-86304329D01*
X102879223Y-86431808D01*
X102938448Y-86520446D01*
X102955886Y-86546543D01*
X110353457Y-93944114D01*
X110468189Y-94020775D01*
X110595672Y-94073580D01*
X110731006Y-94100500D01*
X110731007Y-94100500D01*
X132745572Y-94100500D01*
X132764885Y-94102401D01*
X132881007Y-94125500D01*
X132881008Y-94125500D01*
X133018992Y-94125500D01*
X133018993Y-94125500D01*
X133075254Y-94114309D01*
X134939243Y-94114309D01*
X134939243Y-94114310D01*
X135020816Y-94148098D01*
X135156055Y-94174999D01*
X135156057Y-94175000D01*
X135293943Y-94175000D01*
X135293944Y-94174999D01*
X135429183Y-94148098D01*
X135510755Y-94114310D01*
X135224999Y-93828554D01*
X134939243Y-94114309D01*
X133075254Y-94114309D01*
X133154328Y-94098580D01*
X133281811Y-94045775D01*
X133290598Y-94039902D01*
X133297667Y-94035596D01*
X133302549Y-94032894D01*
X133331811Y-94020775D01*
X133446543Y-93944114D01*
X133984602Y-93406055D01*
X134525000Y-93406055D01*
X134525000Y-93543944D01*
X134551902Y-93679185D01*
X134551903Y-93679190D01*
X134585688Y-93760755D01*
X134585689Y-93760756D01*
X134871446Y-93474999D01*
X135578554Y-93474999D01*
X135864310Y-93760755D01*
X135895338Y-93685847D01*
X137222941Y-93685847D01*
X137222941Y-93813990D01*
X137247939Y-93939662D01*
X137247939Y-93939664D01*
X137296973Y-94058043D01*
X137342045Y-94125500D01*
X137368163Y-94164588D01*
X138236589Y-95033014D01*
X138343131Y-95104202D01*
X138343132Y-95104202D01*
X138343133Y-95104203D01*
X138353420Y-95108464D01*
X138461515Y-95153238D01*
X138587189Y-95178237D01*
X138587190Y-95178237D01*
X138715326Y-95178237D01*
X138715327Y-95178237D01*
X138841002Y-95153238D01*
X138959385Y-95104202D01*
X138959385Y-95104201D01*
X138959387Y-95104201D01*
X139065922Y-95033018D01*
X139065921Y-95033018D01*
X139065928Y-95033014D01*
X139156535Y-94942407D01*
X139227723Y-94835864D01*
X139276759Y-94717481D01*
X139301758Y-94591806D01*
X139301758Y-94463668D01*
X139276759Y-94337994D01*
X139227723Y-94219610D01*
X139156535Y-94113068D01*
X138438069Y-93394602D01*
X139062423Y-93394602D01*
X139062423Y-93539552D01*
X139067949Y-93560175D01*
X139099940Y-93679566D01*
X139172410Y-93805087D01*
X139172412Y-93805089D01*
X139172414Y-93805092D01*
X139274908Y-93907586D01*
X139274910Y-93907587D01*
X139274912Y-93907589D01*
X139400434Y-93980059D01*
X139400435Y-93980059D01*
X139400438Y-93980061D01*
X139540448Y-94017577D01*
X139540449Y-94017577D01*
X139685397Y-94017577D01*
X139685398Y-94017577D01*
X139825408Y-93980061D01*
X139825410Y-93980059D01*
X139825412Y-93980059D01*
X139950933Y-93907589D01*
X139950933Y-93907588D01*
X139950938Y-93907586D01*
X140053432Y-93805092D01*
X140053435Y-93805087D01*
X140125905Y-93679566D01*
X140125905Y-93679564D01*
X140125907Y-93679562D01*
X140163423Y-93539552D01*
X140163423Y-93394602D01*
X140125907Y-93254592D01*
X140125905Y-93254589D01*
X140125905Y-93254587D01*
X140053435Y-93129066D01*
X140053433Y-93129064D01*
X140053432Y-93129062D01*
X139950938Y-93026568D01*
X139950935Y-93026566D01*
X139950933Y-93026564D01*
X139825411Y-92954094D01*
X139825412Y-92954094D01*
X139795819Y-92946164D01*
X139685398Y-92916577D01*
X139540448Y-92916577D01*
X139496463Y-92928363D01*
X139400433Y-92954094D01*
X139274912Y-93026564D01*
X139172410Y-93129066D01*
X139099940Y-93254587D01*
X139078326Y-93335253D01*
X139062423Y-93394602D01*
X138438069Y-93394602D01*
X138288109Y-93244642D01*
X138181567Y-93173454D01*
X138181566Y-93173453D01*
X138181564Y-93173452D01*
X138063184Y-93124418D01*
X137937511Y-93099420D01*
X137937509Y-93099420D01*
X137809371Y-93099420D01*
X137809368Y-93099420D01*
X137683696Y-93124418D01*
X137683694Y-93124418D01*
X137565315Y-93173452D01*
X137458774Y-93244639D01*
X137368160Y-93335253D01*
X137296973Y-93441794D01*
X137247939Y-93560173D01*
X137247939Y-93560175D01*
X137222941Y-93685847D01*
X135895338Y-93685847D01*
X135898098Y-93679183D01*
X135898100Y-93679175D01*
X135901582Y-93661675D01*
X135901582Y-93661673D01*
X135924999Y-93543946D01*
X135925000Y-93543942D01*
X135925000Y-93406057D01*
X135924999Y-93406055D01*
X135898098Y-93270816D01*
X135864310Y-93189243D01*
X135864309Y-93189243D01*
X135578554Y-93474999D01*
X134871446Y-93474999D01*
X134585689Y-93189242D01*
X134585688Y-93189243D01*
X134551901Y-93270816D01*
X134525000Y-93406055D01*
X133984602Y-93406055D01*
X134554968Y-92835689D01*
X134939242Y-92835689D01*
X135224999Y-93121445D01*
X135510756Y-92835689D01*
X135510755Y-92835688D01*
X135429190Y-92801903D01*
X135429185Y-92801902D01*
X135293944Y-92775000D01*
X135156055Y-92775000D01*
X135020816Y-92801901D01*
X134939243Y-92835688D01*
X134939242Y-92835689D01*
X134554968Y-92835689D01*
X134669114Y-92721543D01*
X134745775Y-92606811D01*
X134798580Y-92479329D01*
X134803934Y-92452409D01*
X134825500Y-92343993D01*
X134825500Y-90944817D01*
X138564319Y-90944817D01*
X138564319Y-91076601D01*
X138583283Y-91147375D01*
X138598428Y-91203899D01*
X138664315Y-91318018D01*
X138664317Y-91318020D01*
X138664319Y-91318023D01*
X138757505Y-91411209D01*
X138757507Y-91411210D01*
X138757509Y-91411212D01*
X138871629Y-91477099D01*
X138871627Y-91477099D01*
X138871631Y-91477100D01*
X138871633Y-91477101D01*
X138998927Y-91511209D01*
X138998929Y-91511209D01*
X139130709Y-91511209D01*
X139130711Y-91511209D01*
X139258005Y-91477101D01*
X139258007Y-91477099D01*
X139258009Y-91477099D01*
X139372128Y-91411212D01*
X139372128Y-91411211D01*
X139372133Y-91411209D01*
X139465319Y-91318023D01*
X139531211Y-91203895D01*
X139546355Y-91147372D01*
X139571975Y-91102994D01*
X140940460Y-89734511D01*
X140949984Y-89718015D01*
X140980021Y-89665989D01*
X141000500Y-89589562D01*
X141000500Y-89307525D01*
X143149500Y-89307525D01*
X143149500Y-89452475D01*
X143154376Y-89470672D01*
X143187017Y-89592489D01*
X143259487Y-89718010D01*
X143259489Y-89718012D01*
X143259491Y-89718015D01*
X143361985Y-89820509D01*
X143361987Y-89820510D01*
X143361989Y-89820512D01*
X143487511Y-89892982D01*
X143487512Y-89892982D01*
X143487515Y-89892984D01*
X143627525Y-89930500D01*
X143627526Y-89930500D01*
X143772474Y-89930500D01*
X143772475Y-89930500D01*
X143912485Y-89892984D01*
X143912487Y-89892982D01*
X143912489Y-89892982D01*
X144038010Y-89820512D01*
X144038010Y-89820511D01*
X144038015Y-89820509D01*
X144140509Y-89718015D01*
X144170546Y-89665990D01*
X144212982Y-89592489D01*
X144212982Y-89592487D01*
X144212984Y-89592485D01*
X144250500Y-89452475D01*
X144250500Y-89307525D01*
X144212984Y-89167515D01*
X144212982Y-89167512D01*
X144212982Y-89167510D01*
X144140512Y-89041989D01*
X144140510Y-89041987D01*
X144140509Y-89041985D01*
X144038015Y-88939491D01*
X144038012Y-88939489D01*
X144038010Y-88939487D01*
X143912488Y-88867017D01*
X143912489Y-88867017D01*
X143882896Y-88859087D01*
X143772475Y-88829500D01*
X143627525Y-88829500D01*
X143565790Y-88846041D01*
X143487510Y-88867017D01*
X143361989Y-88939487D01*
X143259487Y-89041989D01*
X143187017Y-89167510D01*
X143187016Y-89167515D01*
X143149500Y-89307525D01*
X141000500Y-89307525D01*
X141000500Y-88048321D01*
X141019407Y-87990130D01*
X141029490Y-87978323D01*
X141100500Y-87907314D01*
X141144987Y-87830261D01*
X141166390Y-87793190D01*
X141166390Y-87793188D01*
X141166392Y-87793186D01*
X141200500Y-87665892D01*
X141200500Y-87576445D01*
X143332343Y-87576445D01*
X143332343Y-87704588D01*
X143357341Y-87830260D01*
X143357341Y-87830262D01*
X143406375Y-87948641D01*
X143441025Y-88000500D01*
X143477565Y-88055186D01*
X144345991Y-88923612D01*
X144452533Y-88994800D01*
X144570917Y-89043836D01*
X144696591Y-89068835D01*
X144696592Y-89068835D01*
X144824728Y-89068835D01*
X144824729Y-89068835D01*
X144950404Y-89043836D01*
X145068787Y-88994800D01*
X145068787Y-88994799D01*
X145068789Y-88994799D01*
X145175324Y-88923616D01*
X145175323Y-88923616D01*
X145175330Y-88923612D01*
X145265937Y-88833005D01*
X145337125Y-88726462D01*
X145386161Y-88608079D01*
X145411160Y-88482404D01*
X145411160Y-88354266D01*
X145386161Y-88228592D01*
X145337125Y-88110208D01*
X145265937Y-88003666D01*
X144397511Y-87135240D01*
X144386147Y-87127647D01*
X144290966Y-87064050D01*
X144172586Y-87015016D01*
X144046913Y-86990018D01*
X144046911Y-86990018D01*
X143918773Y-86990018D01*
X143918770Y-86990018D01*
X143793098Y-87015016D01*
X143793096Y-87015016D01*
X143674717Y-87064050D01*
X143568176Y-87135237D01*
X143477562Y-87225851D01*
X143406375Y-87332392D01*
X143357341Y-87450771D01*
X143357341Y-87450773D01*
X143332343Y-87576445D01*
X141200500Y-87576445D01*
X141200500Y-87534108D01*
X141166392Y-87406814D01*
X141166390Y-87406811D01*
X141166390Y-87406809D01*
X141100503Y-87292690D01*
X141100501Y-87292688D01*
X141100500Y-87292686D01*
X141007314Y-87199500D01*
X141007311Y-87199498D01*
X141007309Y-87199496D01*
X140893189Y-87133609D01*
X140893191Y-87133609D01*
X140827068Y-87115892D01*
X140765892Y-87099500D01*
X140634108Y-87099500D01*
X140572932Y-87115892D01*
X140506809Y-87133609D01*
X140392690Y-87199496D01*
X140299496Y-87292690D01*
X140233609Y-87406809D01*
X140233186Y-87408388D01*
X140199500Y-87534108D01*
X140199500Y-87665892D01*
X140222717Y-87752538D01*
X140233609Y-87793190D01*
X140299496Y-87907309D01*
X140299498Y-87907311D01*
X140299500Y-87907314D01*
X140370505Y-87978319D01*
X140398281Y-88032834D01*
X140399500Y-88048321D01*
X140399500Y-89384520D01*
X140380593Y-89442711D01*
X140370504Y-89454524D01*
X139316328Y-90508699D01*
X139261811Y-90536476D01*
X139220703Y-90534322D01*
X139130711Y-90510209D01*
X138998927Y-90510209D01*
X138921019Y-90531084D01*
X138871628Y-90544318D01*
X138757509Y-90610205D01*
X138664315Y-90703399D01*
X138598428Y-90817518D01*
X138598427Y-90817523D01*
X138564319Y-90944817D01*
X134825500Y-90944817D01*
X134825500Y-89606007D01*
X134798580Y-89470672D01*
X134745775Y-89343189D01*
X134745774Y-89343187D01*
X134745771Y-89343182D01*
X134669114Y-89228458D01*
X134571541Y-89130885D01*
X134456817Y-89054228D01*
X134456806Y-89054222D01*
X134329328Y-89001420D01*
X134193995Y-88974500D01*
X134193993Y-88974500D01*
X134056007Y-88974500D01*
X134056004Y-88974500D01*
X133920672Y-89001420D01*
X133920670Y-89001420D01*
X133793193Y-89054222D01*
X133793182Y-89054228D01*
X133678458Y-89130885D01*
X133580885Y-89228458D01*
X133504228Y-89343182D01*
X133504222Y-89343193D01*
X133451420Y-89470670D01*
X133451420Y-89470672D01*
X133424500Y-89606004D01*
X133424500Y-91943835D01*
X133405593Y-92002026D01*
X133395504Y-92013839D01*
X132738839Y-92670504D01*
X132684322Y-92698281D01*
X132668835Y-92699500D01*
X111131165Y-92699500D01*
X111072974Y-92680593D01*
X111061161Y-92670504D01*
X104229496Y-85838839D01*
X104201719Y-85784322D01*
X104200500Y-85768835D01*
X104200500Y-76306164D01*
X104219407Y-76247973D01*
X104229490Y-76236166D01*
X109294114Y-71171543D01*
X109370775Y-71056811D01*
X109423580Y-70929329D01*
X109428934Y-70902409D01*
X109450500Y-70793993D01*
X109450500Y-68781007D01*
X109450500Y-67056007D01*
X109423580Y-66920672D01*
X109371158Y-66794114D01*
X109370777Y-66793193D01*
X109370771Y-66793182D01*
X109294114Y-66678458D01*
X109196541Y-66580885D01*
X109081817Y-66504228D01*
X109081806Y-66504222D01*
X108954328Y-66451420D01*
X108818995Y-66424500D01*
X108818993Y-66424500D01*
X108681007Y-66424500D01*
X108681004Y-66424500D01*
X108545672Y-66451420D01*
X108545670Y-66451420D01*
X108418193Y-66504222D01*
X108418182Y-66504228D01*
X108303458Y-66580885D01*
X108205885Y-66678458D01*
X108129228Y-66793182D01*
X108129222Y-66793193D01*
X108076420Y-66920670D01*
X108076420Y-66920672D01*
X108049500Y-67056004D01*
X108049500Y-69825500D01*
X108030593Y-69883691D01*
X107981093Y-69919655D01*
X107950500Y-69924500D01*
X103865479Y-69924500D01*
X103807288Y-69905593D01*
X103795475Y-69895504D01*
X101979496Y-68079525D01*
X101951719Y-68025008D01*
X101950500Y-68009521D01*
X101950500Y-66137610D01*
X101952968Y-66130012D01*
X101951719Y-66122123D01*
X101962243Y-66101467D01*
X101969407Y-66079419D01*
X101979485Y-66067617D01*
X102033204Y-66013898D01*
X102087719Y-65986123D01*
X102103206Y-65984904D01*
X102203619Y-65984904D01*
X102203621Y-65984904D01*
X102330915Y-65950796D01*
X102330917Y-65950794D01*
X102330919Y-65950794D01*
X102445038Y-65884907D01*
X102445038Y-65884906D01*
X102445043Y-65884904D01*
X102538229Y-65791718D01*
X102556818Y-65759521D01*
X102604119Y-65677594D01*
X102604119Y-65677592D01*
X102604121Y-65677590D01*
X102638229Y-65550296D01*
X102638229Y-65418512D01*
X102604121Y-65291218D01*
X102604119Y-65291215D01*
X102604119Y-65291213D01*
X102538232Y-65177094D01*
X102538230Y-65177092D01*
X102538229Y-65177090D01*
X102445043Y-65083904D01*
X102445040Y-65083902D01*
X102445038Y-65083900D01*
X102330918Y-65018013D01*
X102330920Y-65018013D01*
X102281528Y-65004779D01*
X102203621Y-64983904D01*
X102071837Y-64983904D01*
X101993929Y-65004779D01*
X101944538Y-65018013D01*
X101830413Y-65083904D01*
X101825265Y-65087855D01*
X101824357Y-65086671D01*
X101817095Y-65090370D01*
X101806011Y-65101455D01*
X101790517Y-65103908D01*
X101776541Y-65111028D01*
X101761060Y-65108574D01*
X101745579Y-65111026D01*
X101731602Y-65103904D01*
X101716110Y-65101449D01*
X101691065Y-65083251D01*
X101639494Y-65031680D01*
X101611719Y-64977166D01*
X101610500Y-64961679D01*
X101610500Y-64740604D01*
X101629407Y-64682413D01*
X101671613Y-64649140D01*
X101691811Y-64640775D01*
X101806542Y-64564114D01*
X101904114Y-64466542D01*
X101980775Y-64351811D01*
X102033580Y-64224328D01*
X102060500Y-64088993D01*
X102060500Y-63951007D01*
X102057138Y-63934105D01*
X105424500Y-63934105D01*
X105424500Y-64065889D01*
X105453078Y-64172546D01*
X105458609Y-64193187D01*
X105524496Y-64307306D01*
X105524498Y-64307308D01*
X105524500Y-64307311D01*
X105547185Y-64329996D01*
X105574961Y-64384511D01*
X105565390Y-64444943D01*
X105547185Y-64470000D01*
X105524499Y-64492686D01*
X105458609Y-64606809D01*
X105449508Y-64640775D01*
X105424500Y-64734108D01*
X105424500Y-64865892D01*
X105442291Y-64932288D01*
X105458609Y-64993190D01*
X105524496Y-65107309D01*
X105524498Y-65107311D01*
X105524500Y-65107314D01*
X105617686Y-65200500D01*
X105617688Y-65200501D01*
X105617690Y-65200503D01*
X105731810Y-65266390D01*
X105731808Y-65266390D01*
X105731812Y-65266391D01*
X105731814Y-65266392D01*
X105859108Y-65300500D01*
X105859110Y-65300500D01*
X105959521Y-65300500D01*
X106017712Y-65319407D01*
X106029525Y-65329496D01*
X106405551Y-65705522D01*
X106433328Y-65760039D01*
X106423757Y-65820471D01*
X106395827Y-65854058D01*
X106392823Y-65856363D01*
X106299623Y-65949563D01*
X106233736Y-66063682D01*
X106229132Y-66080866D01*
X106199627Y-66190981D01*
X106199627Y-66322765D01*
X106226887Y-66424500D01*
X106233736Y-66450063D01*
X106299623Y-66564182D01*
X106299625Y-66564184D01*
X106299627Y-66564187D01*
X106392813Y-66657373D01*
X106392815Y-66657374D01*
X106392817Y-66657376D01*
X106506937Y-66723263D01*
X106506935Y-66723263D01*
X106506939Y-66723264D01*
X106506941Y-66723265D01*
X106634235Y-66757373D01*
X106634237Y-66757373D01*
X106766017Y-66757373D01*
X106766019Y-66757373D01*
X106893313Y-66723265D01*
X106893315Y-66723263D01*
X106893317Y-66723263D01*
X107007436Y-66657376D01*
X107007436Y-66657375D01*
X107007441Y-66657373D01*
X107100627Y-66564187D01*
X107128510Y-66515892D01*
X107166517Y-66450063D01*
X107166517Y-66450061D01*
X107166519Y-66450059D01*
X107200627Y-66322765D01*
X107200627Y-66322762D01*
X107201474Y-66316331D01*
X107203207Y-66316559D01*
X107219534Y-66266309D01*
X107269034Y-66230345D01*
X107299627Y-66225500D01*
X109659521Y-66225500D01*
X109717712Y-66244407D01*
X109729525Y-66254496D01*
X112595504Y-69120475D01*
X112623281Y-69174992D01*
X112624500Y-69190479D01*
X112624500Y-76079684D01*
X112605593Y-76137875D01*
X112556093Y-76173839D01*
X112494907Y-76173839D01*
X112455496Y-76149688D01*
X111332608Y-75026800D01*
X110040348Y-73734540D01*
X110015128Y-73719979D01*
X110015126Y-73719978D01*
X109971826Y-73694979D01*
X109971823Y-73694978D01*
X109895401Y-73674500D01*
X109895399Y-73674500D01*
X107635438Y-73674500D01*
X107635435Y-73674500D01*
X107559011Y-73694978D01*
X107521513Y-73716628D01*
X107515710Y-73719979D01*
X107507303Y-73724832D01*
X107490491Y-73734538D01*
X105865489Y-75359540D01*
X105865488Y-75359539D01*
X105809539Y-75415489D01*
X105769980Y-75484007D01*
X105769978Y-75484011D01*
X105749500Y-75560435D01*
X105749500Y-86713819D01*
X105769977Y-86790240D01*
X105769979Y-86790245D01*
X105791516Y-86827549D01*
X105791517Y-86827549D01*
X105791518Y-86827551D01*
X105809540Y-86858766D01*
X109207411Y-90256638D01*
X109207412Y-90256639D01*
X109516233Y-90565460D01*
X109808051Y-90857277D01*
X109835828Y-90911794D01*
X109837047Y-90927281D01*
X109837047Y-91027694D01*
X109857223Y-91102992D01*
X109871156Y-91154992D01*
X109933299Y-91262626D01*
X109933301Y-91262628D01*
X109937047Y-91269116D01*
X110030233Y-91362302D01*
X110036720Y-91366047D01*
X110036721Y-91366048D01*
X110144357Y-91428192D01*
X110144355Y-91428192D01*
X110144359Y-91428193D01*
X110144361Y-91428194D01*
X110271655Y-91462302D01*
X110271657Y-91462302D01*
X110403437Y-91462302D01*
X110403439Y-91462302D01*
X110530733Y-91428194D01*
X110530735Y-91428192D01*
X110530737Y-91428192D01*
X110644856Y-91362305D01*
X110644856Y-91362304D01*
X110644861Y-91362302D01*
X110738047Y-91269116D01*
X110738050Y-91269111D01*
X110803937Y-91154992D01*
X110803937Y-91154990D01*
X110803939Y-91154988D01*
X110838047Y-91027694D01*
X110838047Y-90895910D01*
X110803939Y-90768616D01*
X110803937Y-90768613D01*
X110803937Y-90768611D01*
X110738050Y-90654492D01*
X110738048Y-90654490D01*
X110738047Y-90654488D01*
X110644861Y-90561302D01*
X110644858Y-90561300D01*
X110644856Y-90561298D01*
X110530736Y-90495411D01*
X110530738Y-90495411D01*
X110481346Y-90482177D01*
X110403439Y-90461302D01*
X110303026Y-90461302D01*
X110244835Y-90442395D01*
X110233022Y-90432306D01*
X109947324Y-90146608D01*
X113612000Y-90146608D01*
X113612000Y-90278392D01*
X113612578Y-90280549D01*
X113646109Y-90405690D01*
X113711996Y-90519809D01*
X113711998Y-90519811D01*
X113712000Y-90519814D01*
X113805186Y-90613000D01*
X113805188Y-90613001D01*
X113805190Y-90613003D01*
X113919310Y-90678890D01*
X113919308Y-90678890D01*
X113919312Y-90678891D01*
X113919314Y-90678892D01*
X114046608Y-90713000D01*
X114097021Y-90713000D01*
X114155212Y-90731907D01*
X114167025Y-90741996D01*
X114784540Y-91359511D01*
X114784539Y-91359511D01*
X114840489Y-91415460D01*
X114909007Y-91455019D01*
X114909011Y-91455021D01*
X114985435Y-91475499D01*
X114985437Y-91475500D01*
X114985438Y-91475500D01*
X115105387Y-91475500D01*
X115163578Y-91494407D01*
X115187702Y-91519498D01*
X115255886Y-91621542D01*
X115255889Y-91621545D01*
X115353458Y-91719114D01*
X115468182Y-91795771D01*
X115468193Y-91795777D01*
X115515283Y-91815282D01*
X115595672Y-91848580D01*
X115731007Y-91875500D01*
X115731008Y-91875500D01*
X115868992Y-91875500D01*
X115868993Y-91875500D01*
X116004328Y-91848580D01*
X116131811Y-91795775D01*
X116246542Y-91719114D01*
X116344114Y-91621542D01*
X116420775Y-91506811D01*
X116473580Y-91379328D01*
X116500500Y-91243993D01*
X116500500Y-91106007D01*
X116473580Y-90970672D01*
X116438078Y-90884962D01*
X116420777Y-90843193D01*
X116420771Y-90843182D01*
X116344114Y-90728458D01*
X116246541Y-90630885D01*
X116131817Y-90554228D01*
X116131806Y-90554222D01*
X116004328Y-90501420D01*
X115868995Y-90474500D01*
X115868993Y-90474500D01*
X115731007Y-90474500D01*
X115731004Y-90474500D01*
X115595672Y-90501420D01*
X115595670Y-90501420D01*
X115468193Y-90554222D01*
X115468182Y-90554228D01*
X115353458Y-90630885D01*
X115255889Y-90728454D01*
X115255886Y-90728457D01*
X115255886Y-90728458D01*
X115229057Y-90768611D01*
X115221785Y-90779494D01*
X115173734Y-90817372D01*
X115112596Y-90819774D01*
X115069466Y-90794495D01*
X114640583Y-90365612D01*
X114612806Y-90311095D01*
X114612435Y-90282679D01*
X114613000Y-90278389D01*
X114613000Y-90146609D01*
X114613000Y-90146608D01*
X114578892Y-90019314D01*
X114578890Y-90019311D01*
X114578890Y-90019309D01*
X114513003Y-89905190D01*
X114513001Y-89905188D01*
X114513000Y-89905186D01*
X114419814Y-89812000D01*
X114419811Y-89811998D01*
X114419809Y-89811996D01*
X114305689Y-89746109D01*
X114305691Y-89746109D01*
X114256299Y-89732875D01*
X114178392Y-89712000D01*
X114046608Y-89712000D01*
X113968700Y-89732875D01*
X113919309Y-89746109D01*
X113805190Y-89811996D01*
X113711996Y-89905190D01*
X113646109Y-90019309D01*
X113644718Y-90024500D01*
X113612000Y-90146608D01*
X109947324Y-90146608D01*
X109937847Y-90137131D01*
X109910070Y-90082614D01*
X109919641Y-90022182D01*
X109937847Y-89997124D01*
X110011319Y-89923651D01*
X110065835Y-89895873D01*
X110100632Y-89896555D01*
X110221007Y-89920500D01*
X110221008Y-89920500D01*
X110358992Y-89920500D01*
X110358993Y-89920500D01*
X110494328Y-89893580D01*
X110621811Y-89840775D01*
X110736542Y-89764114D01*
X110834114Y-89666542D01*
X110910775Y-89551811D01*
X110963580Y-89424328D01*
X110990500Y-89288993D01*
X110990500Y-89151007D01*
X110963580Y-89015672D01*
X110925449Y-88923616D01*
X110910777Y-88888193D01*
X110910771Y-88888182D01*
X110834114Y-88773458D01*
X110736541Y-88675885D01*
X110621817Y-88599228D01*
X110621806Y-88599222D01*
X110494328Y-88546420D01*
X110358995Y-88519500D01*
X110358993Y-88519500D01*
X110221007Y-88519500D01*
X110221004Y-88519500D01*
X110085672Y-88546420D01*
X110085670Y-88546420D01*
X109958193Y-88599222D01*
X109958182Y-88599228D01*
X109843458Y-88675885D01*
X109745885Y-88773458D01*
X109669228Y-88888182D01*
X109669222Y-88888193D01*
X109616420Y-89015670D01*
X109616420Y-89015672D01*
X109589500Y-89151004D01*
X109589500Y-89288996D01*
X109613442Y-89409361D01*
X109611376Y-89426809D01*
X109614125Y-89444161D01*
X109607869Y-89456437D01*
X109606250Y-89470123D01*
X109586348Y-89498678D01*
X109512876Y-89572151D01*
X109458360Y-89599929D01*
X109397928Y-89590358D01*
X109372868Y-89572152D01*
X106379496Y-86578780D01*
X106351719Y-86524263D01*
X106350500Y-86508776D01*
X106350500Y-81531004D01*
X110519500Y-81531004D01*
X110519500Y-81668995D01*
X110546420Y-81804327D01*
X110546420Y-81804329D01*
X110599222Y-81931806D01*
X110599228Y-81931817D01*
X110675885Y-82046541D01*
X110675886Y-82046542D01*
X110773458Y-82144114D01*
X110841857Y-82189817D01*
X110888182Y-82220771D01*
X110888186Y-82220773D01*
X110888189Y-82220775D01*
X110888384Y-82220855D01*
X110888455Y-82220916D01*
X110892475Y-82223065D01*
X110892003Y-82223946D01*
X110934909Y-82260589D01*
X110949500Y-82312320D01*
X110949500Y-86601679D01*
X110930593Y-86659870D01*
X110920509Y-86671676D01*
X110880624Y-86711562D01*
X110849497Y-86742689D01*
X110849496Y-86742690D01*
X110783609Y-86856809D01*
X110780458Y-86868569D01*
X110749500Y-86984108D01*
X110749500Y-87115892D01*
X110778962Y-87225848D01*
X110783609Y-87243190D01*
X110849496Y-87357309D01*
X110849498Y-87357311D01*
X110849500Y-87357314D01*
X110942686Y-87450500D01*
X110942688Y-87450501D01*
X110942690Y-87450503D01*
X111056810Y-87516390D01*
X111056808Y-87516390D01*
X111056812Y-87516391D01*
X111056814Y-87516392D01*
X111184108Y-87550500D01*
X111184110Y-87550500D01*
X111315890Y-87550500D01*
X111315892Y-87550500D01*
X111443186Y-87516392D01*
X111443188Y-87516390D01*
X111443190Y-87516390D01*
X111557309Y-87450503D01*
X111557309Y-87450502D01*
X111557314Y-87450500D01*
X111650500Y-87357314D01*
X111674398Y-87315922D01*
X111716390Y-87243190D01*
X111716390Y-87243188D01*
X111716392Y-87243186D01*
X111750500Y-87115892D01*
X111750500Y-86984108D01*
X111716392Y-86856814D01*
X111716390Y-86856811D01*
X111716390Y-86856809D01*
X111650503Y-86742690D01*
X111650501Y-86742688D01*
X111650500Y-86742686D01*
X111579494Y-86671680D01*
X111551719Y-86617166D01*
X111550500Y-86601679D01*
X111550500Y-82274567D01*
X111569407Y-82216376D01*
X111594496Y-82192253D01*
X111666542Y-82144114D01*
X111764114Y-82046542D01*
X111840775Y-81931811D01*
X111893580Y-81804328D01*
X111920500Y-81668993D01*
X111920500Y-81531007D01*
X111893580Y-81395672D01*
X111864986Y-81326640D01*
X111840777Y-81268193D01*
X111840771Y-81268182D01*
X111764114Y-81153458D01*
X111666541Y-81055885D01*
X111594498Y-81007747D01*
X111556619Y-80959696D01*
X111550500Y-80925432D01*
X111550500Y-79773321D01*
X111569407Y-79715130D01*
X111579496Y-79703317D01*
X111582311Y-79700501D01*
X111582314Y-79700500D01*
X111675500Y-79607314D01*
X111705317Y-79555670D01*
X111741390Y-79493190D01*
X111741390Y-79493188D01*
X111741392Y-79493186D01*
X111775500Y-79365892D01*
X111775500Y-79234108D01*
X111741392Y-79106814D01*
X111741390Y-79106811D01*
X111741390Y-79106809D01*
X111675503Y-78992690D01*
X111675501Y-78992688D01*
X111675500Y-78992686D01*
X111582314Y-78899500D01*
X111582311Y-78899498D01*
X111582309Y-78899496D01*
X111468189Y-78833609D01*
X111468191Y-78833609D01*
X111418799Y-78820375D01*
X111340892Y-78799500D01*
X111209108Y-78799500D01*
X111131200Y-78820375D01*
X111081809Y-78833609D01*
X110967690Y-78899496D01*
X110874496Y-78992690D01*
X110808609Y-79106809D01*
X110799923Y-79139228D01*
X110774500Y-79234108D01*
X110774500Y-79365892D01*
X110798989Y-79457286D01*
X110808609Y-79493190D01*
X110874496Y-79607309D01*
X110874498Y-79607311D01*
X110874500Y-79607314D01*
X110920505Y-79653319D01*
X110948281Y-79707834D01*
X110949500Y-79723321D01*
X110949500Y-80887679D01*
X110930593Y-80945870D01*
X110892100Y-80976216D01*
X110892482Y-80976930D01*
X110888485Y-80979066D01*
X110888391Y-80979141D01*
X110888190Y-80979223D01*
X110773458Y-81055886D01*
X110773454Y-81055889D01*
X110675885Y-81153458D01*
X110599228Y-81268182D01*
X110599222Y-81268193D01*
X110546420Y-81395670D01*
X110546420Y-81395672D01*
X110519500Y-81531004D01*
X106350500Y-81531004D01*
X106350500Y-75765479D01*
X106369407Y-75707288D01*
X106379496Y-75695475D01*
X107770475Y-74304496D01*
X107824992Y-74276719D01*
X107840479Y-74275500D01*
X109690358Y-74275500D01*
X109748549Y-74294407D01*
X109760362Y-74304496D01*
X109935902Y-74480036D01*
X109963679Y-74534553D01*
X109954108Y-74594985D01*
X109915399Y-74635776D01*
X109817688Y-74692190D01*
X109724496Y-74785382D01*
X109658609Y-74899501D01*
X109639539Y-74970670D01*
X109624500Y-75026800D01*
X109624500Y-75158584D01*
X109648860Y-75249496D01*
X109658609Y-75285882D01*
X109724496Y-75400001D01*
X109724498Y-75400003D01*
X109724500Y-75400006D01*
X109817686Y-75493192D01*
X109817688Y-75493193D01*
X109820972Y-75496477D01*
X109848749Y-75550994D01*
X109839178Y-75611426D01*
X109820972Y-75636485D01*
X109817688Y-75639768D01*
X109817686Y-75639770D01*
X109761981Y-75695475D01*
X109724497Y-75732959D01*
X109724496Y-75732960D01*
X109658609Y-75847079D01*
X109642821Y-75906003D01*
X109624500Y-75974378D01*
X109624500Y-76106162D01*
X109653928Y-76215989D01*
X109658609Y-76233460D01*
X109724496Y-76347579D01*
X109724498Y-76347581D01*
X109724500Y-76347584D01*
X109817686Y-76440770D01*
X109817688Y-76440771D01*
X109817690Y-76440773D01*
X109931810Y-76506660D01*
X109931811Y-76506660D01*
X109931814Y-76506662D01*
X109947245Y-76510796D01*
X109998559Y-76544120D01*
X110017248Y-76580798D01*
X110019979Y-76590989D01*
X110053229Y-76648580D01*
X110059540Y-76659511D01*
X123909540Y-90509511D01*
X123909539Y-90509511D01*
X123965489Y-90565460D01*
X124034007Y-90605019D01*
X124034011Y-90605021D01*
X124110435Y-90625499D01*
X124110437Y-90625500D01*
X124110438Y-90625500D01*
X129525462Y-90625500D01*
X129525462Y-90625499D01*
X129601888Y-90605021D01*
X129670410Y-90565460D01*
X129726359Y-90509511D01*
X132644618Y-87591250D01*
X132699135Y-87563474D01*
X132714622Y-87562255D01*
X132815034Y-87562255D01*
X132815036Y-87562255D01*
X132942330Y-87528147D01*
X132942332Y-87528145D01*
X132942334Y-87528145D01*
X133056453Y-87462258D01*
X133056453Y-87462257D01*
X133056458Y-87462255D01*
X133110327Y-87408385D01*
X133164842Y-87380610D01*
X133225274Y-87390181D01*
X133250329Y-87408384D01*
X133304200Y-87462255D01*
X133304202Y-87462256D01*
X133304204Y-87462258D01*
X133418324Y-87528145D01*
X133418322Y-87528145D01*
X133418326Y-87528146D01*
X133418328Y-87528147D01*
X133545622Y-87562255D01*
X133545624Y-87562255D01*
X133677404Y-87562255D01*
X133677406Y-87562255D01*
X133804700Y-87528147D01*
X133804702Y-87528145D01*
X133804704Y-87528145D01*
X133918823Y-87462258D01*
X133918823Y-87462257D01*
X133918828Y-87462255D01*
X133972696Y-87408386D01*
X134027210Y-87380610D01*
X134087642Y-87390181D01*
X134112698Y-87408384D01*
X134166569Y-87462255D01*
X134166571Y-87462256D01*
X134166573Y-87462258D01*
X134280693Y-87528145D01*
X134280691Y-87528145D01*
X134280695Y-87528146D01*
X134280697Y-87528147D01*
X134407991Y-87562255D01*
X134407993Y-87562255D01*
X134539773Y-87562255D01*
X134539775Y-87562255D01*
X134667069Y-87528147D01*
X134667071Y-87528145D01*
X134667073Y-87528145D01*
X134781192Y-87462258D01*
X134781192Y-87462257D01*
X134781197Y-87462255D01*
X134874383Y-87369069D01*
X134909752Y-87307808D01*
X134940273Y-87254945D01*
X134940273Y-87254943D01*
X134940275Y-87254941D01*
X134974383Y-87127647D01*
X134974383Y-86995863D01*
X134940275Y-86868569D01*
X134940273Y-86868566D01*
X134940273Y-86868564D01*
X134874386Y-86754445D01*
X134874384Y-86754443D01*
X134874383Y-86754441D01*
X134803377Y-86683435D01*
X134775602Y-86628921D01*
X134774383Y-86613434D01*
X134774383Y-81759108D01*
X138999500Y-81759108D01*
X138999500Y-81890892D01*
X139010463Y-81931806D01*
X139033609Y-82018190D01*
X139099496Y-82132309D01*
X139099498Y-82132311D01*
X139099500Y-82132314D01*
X139192686Y-82225500D01*
X139192688Y-82225501D01*
X139192690Y-82225503D01*
X139306810Y-82291390D01*
X139306808Y-82291390D01*
X139306812Y-82291391D01*
X139306814Y-82291392D01*
X139434108Y-82325500D01*
X139434110Y-82325500D01*
X139565890Y-82325500D01*
X139565892Y-82325500D01*
X139693186Y-82291392D01*
X139693188Y-82291390D01*
X139693190Y-82291390D01*
X139807309Y-82225503D01*
X139807309Y-82225502D01*
X139807314Y-82225500D01*
X139814811Y-82218002D01*
X139869326Y-82190227D01*
X139929758Y-82199798D01*
X139973023Y-82243063D01*
X139983813Y-82288008D01*
X139983813Y-82700208D01*
X139981344Y-82707805D01*
X139982594Y-82715696D01*
X139972070Y-82736349D01*
X139964906Y-82758399D01*
X139954816Y-82770212D01*
X139906727Y-82818300D01*
X139852210Y-82846077D01*
X139791778Y-82836505D01*
X139787225Y-82834033D01*
X139743187Y-82808608D01*
X139700754Y-82797238D01*
X139615892Y-82774500D01*
X139484108Y-82774500D01*
X139406200Y-82795375D01*
X139356809Y-82808609D01*
X139242690Y-82874496D01*
X139149496Y-82967690D01*
X139083609Y-83081809D01*
X139083608Y-83081814D01*
X139049500Y-83209108D01*
X139049500Y-83340892D01*
X139079579Y-83453151D01*
X139083609Y-83468190D01*
X139149496Y-83582309D01*
X139149498Y-83582311D01*
X139149500Y-83582314D01*
X139242686Y-83675500D01*
X139242688Y-83675501D01*
X139242690Y-83675503D01*
X139356810Y-83741390D01*
X139356808Y-83741390D01*
X139356812Y-83741391D01*
X139356814Y-83741392D01*
X139484108Y-83775500D01*
X139484110Y-83775500D01*
X139615890Y-83775500D01*
X139615892Y-83775500D01*
X139743186Y-83741392D01*
X139743188Y-83741390D01*
X139743190Y-83741390D01*
X139857309Y-83675503D01*
X139857309Y-83675502D01*
X139857314Y-83675500D01*
X139950500Y-83582314D01*
X139950501Y-83582311D01*
X139954536Y-83578277D01*
X139986657Y-83556815D01*
X139990985Y-83555022D01*
X139990984Y-83555022D01*
X139990989Y-83555021D01*
X140059511Y-83515460D01*
X140087487Y-83487484D01*
X140115461Y-83459511D01*
X140365863Y-83209108D01*
X140524773Y-83050198D01*
X140536961Y-83029087D01*
X140564334Y-82981676D01*
X140584813Y-82905249D01*
X140584813Y-69914008D01*
X140603720Y-69855817D01*
X140613803Y-69844010D01*
X140650500Y-69807314D01*
X140654727Y-69799992D01*
X140716390Y-69693190D01*
X140716390Y-69693188D01*
X140716392Y-69693186D01*
X140750500Y-69565892D01*
X140750500Y-69434108D01*
X140716392Y-69306814D01*
X140716390Y-69306811D01*
X140716390Y-69306809D01*
X140650503Y-69192690D01*
X140650501Y-69192688D01*
X140650500Y-69192686D01*
X140557314Y-69099500D01*
X140557311Y-69099498D01*
X140557309Y-69099496D01*
X140443189Y-69033609D01*
X140443191Y-69033609D01*
X140393799Y-69020375D01*
X140315892Y-68999500D01*
X140184108Y-68999500D01*
X140106200Y-69020375D01*
X140056809Y-69033609D01*
X139942690Y-69099496D01*
X139849496Y-69192690D01*
X139783609Y-69306809D01*
X139768373Y-69363673D01*
X139750846Y-69429087D01*
X139749500Y-69434109D01*
X139749500Y-69466187D01*
X139730593Y-69524378D01*
X139681093Y-69560342D01*
X139650500Y-69565187D01*
X139618421Y-69565187D01*
X139549672Y-69583608D01*
X139491122Y-69599296D01*
X139377003Y-69665183D01*
X139283809Y-69758377D01*
X139217922Y-69872496D01*
X139205286Y-69919655D01*
X139183813Y-69999795D01*
X139183813Y-70131579D01*
X139213718Y-70243186D01*
X139217922Y-70258877D01*
X139283809Y-70372996D01*
X139283811Y-70372998D01*
X139283813Y-70373001D01*
X139376999Y-70466187D01*
X139450000Y-70508334D01*
X139490940Y-70553803D01*
X139499499Y-70594070D01*
X139499499Y-81231013D01*
X139480592Y-81289204D01*
X139431092Y-81325168D01*
X139426128Y-81326638D01*
X139401053Y-81333357D01*
X139306809Y-81358609D01*
X139192690Y-81424496D01*
X139099496Y-81517690D01*
X139033609Y-81631809D01*
X139023646Y-81668993D01*
X138999500Y-81759108D01*
X134774383Y-81759108D01*
X134774383Y-80916595D01*
X134793290Y-80858404D01*
X134803373Y-80846597D01*
X138290460Y-77359511D01*
X138301459Y-77340460D01*
X138330021Y-77290989D01*
X138350500Y-77214562D01*
X138350500Y-68560438D01*
X138330021Y-68484011D01*
X138327378Y-68479434D01*
X138290460Y-68415489D01*
X138234511Y-68359539D01*
X138234511Y-68359540D01*
X137982910Y-68107939D01*
X137955133Y-68053422D01*
X137964704Y-67992990D01*
X138007969Y-67949725D01*
X138060205Y-67939204D01*
X138069516Y-67939891D01*
X138109108Y-67950500D01*
X138213169Y-67950500D01*
X138216812Y-67950769D01*
X138241915Y-67961025D01*
X138267712Y-67969407D01*
X138272555Y-67973543D01*
X138273452Y-67973910D01*
X138273977Y-67974757D01*
X138279525Y-67979496D01*
X138609540Y-68309511D01*
X138609539Y-68309511D01*
X138665489Y-68365460D01*
X138734007Y-68405019D01*
X138734011Y-68405021D01*
X138810435Y-68425499D01*
X138810437Y-68425500D01*
X138810438Y-68425500D01*
X138889562Y-68425500D01*
X146034521Y-68425500D01*
X146092712Y-68444407D01*
X146104525Y-68454496D01*
X147395504Y-69745475D01*
X147423281Y-69799992D01*
X147424500Y-69815479D01*
X147424500Y-69915892D01*
X147440472Y-69975500D01*
X147458609Y-70043190D01*
X147524496Y-70157309D01*
X147524498Y-70157311D01*
X147524500Y-70157314D01*
X147617686Y-70250500D01*
X147617688Y-70250501D01*
X147617690Y-70250503D01*
X147731810Y-70316390D01*
X147731808Y-70316390D01*
X147731812Y-70316391D01*
X147731814Y-70316392D01*
X147859108Y-70350500D01*
X147859110Y-70350500D01*
X147990890Y-70350500D01*
X147990892Y-70350500D01*
X148118186Y-70316392D01*
X148118188Y-70316390D01*
X148118190Y-70316390D01*
X148232309Y-70250503D01*
X148232309Y-70250502D01*
X148232314Y-70250500D01*
X148325500Y-70157314D01*
X148372734Y-70075503D01*
X148391390Y-70043190D01*
X148391390Y-70043188D01*
X148391392Y-70043186D01*
X148425500Y-69915892D01*
X148425500Y-69784108D01*
X148391392Y-69656814D01*
X148391390Y-69656811D01*
X148391390Y-69656809D01*
X148325503Y-69542690D01*
X148325501Y-69542688D01*
X148325500Y-69542686D01*
X148232314Y-69449500D01*
X148232311Y-69449498D01*
X148232309Y-69449496D01*
X148118189Y-69383609D01*
X148118191Y-69383609D01*
X148068799Y-69370375D01*
X147990892Y-69349500D01*
X147890479Y-69349500D01*
X147832288Y-69330593D01*
X147820475Y-69320504D01*
X147106780Y-68606809D01*
X146384511Y-67884540D01*
X146384508Y-67884538D01*
X146367121Y-67874499D01*
X146367121Y-67874500D01*
X146315989Y-67844979D01*
X146315988Y-67844978D01*
X146315987Y-67844978D01*
X146239564Y-67824500D01*
X146239562Y-67824500D01*
X139015479Y-67824500D01*
X138957288Y-67805593D01*
X138945475Y-67795504D01*
X138704496Y-67554525D01*
X138676719Y-67500008D01*
X138675500Y-67484521D01*
X138675500Y-67384109D01*
X138675500Y-67384108D01*
X138641392Y-67256814D01*
X138641390Y-67256811D01*
X138641390Y-67256809D01*
X138575503Y-67142690D01*
X138575501Y-67142688D01*
X138575500Y-67142686D01*
X138482314Y-67049500D01*
X138482311Y-67049498D01*
X138482309Y-67049496D01*
X138368189Y-66983609D01*
X138368191Y-66983609D01*
X138318799Y-66970375D01*
X138240892Y-66949500D01*
X138109108Y-66949500D01*
X138031200Y-66970375D01*
X137981809Y-66983609D01*
X137867690Y-67049496D01*
X137774496Y-67142690D01*
X137708609Y-67256809D01*
X137674500Y-67384109D01*
X137674500Y-67515894D01*
X137682691Y-67546464D01*
X137679488Y-67607565D01*
X137640982Y-67655114D01*
X137581881Y-67670949D01*
X137524760Y-67649021D01*
X137517060Y-67642089D01*
X136055975Y-66181004D01*
X138724500Y-66181004D01*
X138724500Y-66318995D01*
X138737452Y-66384108D01*
X138743857Y-66416309D01*
X138751420Y-66454327D01*
X138751420Y-66454329D01*
X138804222Y-66581806D01*
X138804228Y-66581817D01*
X138880885Y-66696541D01*
X138978458Y-66794114D01*
X139093182Y-66870771D01*
X139093193Y-66870777D01*
X139140283Y-66890282D01*
X139220672Y-66923580D01*
X139356007Y-66950500D01*
X139356008Y-66950500D01*
X139493992Y-66950500D01*
X139493993Y-66950500D01*
X139629328Y-66923580D01*
X139756811Y-66870775D01*
X139871542Y-66794114D01*
X139886160Y-66779496D01*
X139893277Y-66775869D01*
X139897973Y-66769407D01*
X139920021Y-66762243D01*
X139940677Y-66751719D01*
X139956164Y-66750500D01*
X140151679Y-66750500D01*
X140209870Y-66769407D01*
X140221676Y-66779490D01*
X140292686Y-66850500D01*
X140292688Y-66850501D01*
X140292690Y-66850503D01*
X140406810Y-66916390D01*
X140406808Y-66916390D01*
X140406812Y-66916391D01*
X140406814Y-66916392D01*
X140534108Y-66950500D01*
X140534110Y-66950500D01*
X140665890Y-66950500D01*
X140665892Y-66950500D01*
X140793186Y-66916392D01*
X140793188Y-66916390D01*
X140793190Y-66916390D01*
X140907309Y-66850503D01*
X140907309Y-66850502D01*
X140907314Y-66850500D01*
X141000500Y-66757314D01*
X141004434Y-66750500D01*
X141066390Y-66643190D01*
X141066390Y-66643188D01*
X141066392Y-66643186D01*
X141100500Y-66515892D01*
X141100500Y-66474500D01*
X141119407Y-66416309D01*
X141168907Y-66380345D01*
X141199500Y-66375500D01*
X141240890Y-66375500D01*
X141240892Y-66375500D01*
X141368186Y-66341392D01*
X141368188Y-66341390D01*
X141368190Y-66341390D01*
X141482309Y-66275503D01*
X141482309Y-66275502D01*
X141482314Y-66275500D01*
X141575500Y-66182314D01*
X141608302Y-66125500D01*
X141641390Y-66068190D01*
X141641390Y-66068188D01*
X141641392Y-66068186D01*
X141675500Y-65940892D01*
X141675500Y-65809108D01*
X141641392Y-65681814D01*
X141641390Y-65681811D01*
X141641390Y-65681809D01*
X141575503Y-65567690D01*
X141575501Y-65567688D01*
X141575500Y-65567686D01*
X141504494Y-65496680D01*
X141500869Y-65489565D01*
X141494407Y-65484870D01*
X141487243Y-65462821D01*
X141476719Y-65442166D01*
X141475500Y-65426679D01*
X141475500Y-65270330D01*
X141492183Y-65215331D01*
X141552451Y-65125135D01*
X141605256Y-64997652D01*
X141632176Y-64862317D01*
X141632176Y-64724331D01*
X141605256Y-64588996D01*
X141561989Y-64484540D01*
X141552453Y-64461517D01*
X141552447Y-64461506D01*
X141475790Y-64346782D01*
X141378217Y-64249209D01*
X141263493Y-64172552D01*
X141263482Y-64172546D01*
X141136004Y-64119744D01*
X141000671Y-64092824D01*
X141000669Y-64092824D01*
X140862683Y-64092824D01*
X140862680Y-64092824D01*
X140727348Y-64119744D01*
X140727346Y-64119744D01*
X140599869Y-64172546D01*
X140599858Y-64172552D01*
X140485134Y-64249209D01*
X140387561Y-64346782D01*
X140310904Y-64461506D01*
X140310898Y-64461517D01*
X140258096Y-64588994D01*
X140258096Y-64588996D01*
X140231176Y-64724328D01*
X140231176Y-64862319D01*
X140242588Y-64919689D01*
X140257208Y-64993190D01*
X140258096Y-64997651D01*
X140258096Y-64997653D01*
X140310898Y-65125130D01*
X140310904Y-65125141D01*
X140387561Y-65239865D01*
X140485134Y-65337438D01*
X140599858Y-65414095D01*
X140599869Y-65414101D01*
X140708061Y-65458915D01*
X140754587Y-65498651D01*
X140768871Y-65558146D01*
X140755913Y-65599879D01*
X140708608Y-65681812D01*
X140699097Y-65717309D01*
X140679382Y-65790890D01*
X140674500Y-65809109D01*
X140674500Y-65850500D01*
X140655593Y-65908691D01*
X140606093Y-65944655D01*
X140575500Y-65949500D01*
X140534108Y-65949500D01*
X140456200Y-65970375D01*
X140406809Y-65983609D01*
X140292690Y-66049496D01*
X140261320Y-66080866D01*
X140206803Y-66108642D01*
X140146371Y-66099070D01*
X140103107Y-66055805D01*
X140099853Y-66048746D01*
X140045777Y-65918193D01*
X140045771Y-65918182D01*
X139969114Y-65803458D01*
X139871541Y-65705885D01*
X139756817Y-65629228D01*
X139756806Y-65629222D01*
X139629328Y-65576420D01*
X139493995Y-65549500D01*
X139493993Y-65549500D01*
X139356007Y-65549500D01*
X139356004Y-65549500D01*
X139220672Y-65576420D01*
X139220670Y-65576420D01*
X139093193Y-65629222D01*
X139093182Y-65629228D01*
X138978458Y-65705885D01*
X138880885Y-65803458D01*
X138804228Y-65918182D01*
X138804222Y-65918193D01*
X138751420Y-66045670D01*
X138751420Y-66045672D01*
X138724500Y-66181004D01*
X136055975Y-66181004D01*
X131769475Y-61894504D01*
X131741698Y-61839987D01*
X131751269Y-61779555D01*
X131794534Y-61736290D01*
X131839479Y-61725500D01*
X133414563Y-61725500D01*
X133414563Y-61725499D01*
X133490989Y-61705021D01*
X133559511Y-61665460D01*
X133615460Y-61609511D01*
X134365460Y-60859511D01*
X134385210Y-60825302D01*
X134405021Y-60790989D01*
X134425500Y-60714562D01*
X134425500Y-59910438D01*
X134405021Y-59834011D01*
X134402639Y-59829886D01*
X134365459Y-59765488D01*
X134354494Y-59754522D01*
X134350868Y-59747406D01*
X134344407Y-59742712D01*
X134337242Y-59720662D01*
X134326718Y-59700005D01*
X134325500Y-59684521D01*
X134325500Y-59593986D01*
X134344407Y-59535795D01*
X134393907Y-59499831D01*
X134398836Y-59498371D01*
X134518186Y-59466392D01*
X134632314Y-59400500D01*
X134725500Y-59307314D01*
X134758879Y-59249500D01*
X134791390Y-59193190D01*
X134791390Y-59193188D01*
X134791392Y-59193186D01*
X134825500Y-59065892D01*
X134825500Y-58965478D01*
X134844407Y-58907287D01*
X134854496Y-58895474D01*
X135345475Y-58404496D01*
X135399992Y-58376719D01*
X135415479Y-58375500D01*
X137359521Y-58375500D01*
X137417712Y-58394407D01*
X137429525Y-58404496D01*
X143545504Y-64520475D01*
X143573281Y-64574992D01*
X143574500Y-64590479D01*
X143574500Y-66401679D01*
X143555593Y-66459870D01*
X143545509Y-66471676D01*
X143501296Y-66515890D01*
X143474497Y-66542689D01*
X143474496Y-66542690D01*
X143408609Y-66656809D01*
X143401428Y-66683609D01*
X143374500Y-66784108D01*
X143374500Y-66915892D01*
X143383773Y-66950499D01*
X143408609Y-67043190D01*
X143474496Y-67157309D01*
X143474498Y-67157311D01*
X143474500Y-67157314D01*
X143567686Y-67250500D01*
X143567688Y-67250501D01*
X143567690Y-67250503D01*
X143681810Y-67316390D01*
X143681808Y-67316390D01*
X143681812Y-67316391D01*
X143681814Y-67316392D01*
X143809108Y-67350500D01*
X143809110Y-67350500D01*
X143940890Y-67350500D01*
X143940892Y-67350500D01*
X144068186Y-67316392D01*
X144068188Y-67316390D01*
X144068190Y-67316390D01*
X144182309Y-67250503D01*
X144182309Y-67250502D01*
X144182314Y-67250500D01*
X144275500Y-67157314D01*
X144341392Y-67043186D01*
X144375500Y-66915892D01*
X144375500Y-66784108D01*
X144341392Y-66656814D01*
X144341390Y-66656811D01*
X144341390Y-66656809D01*
X144275503Y-66542690D01*
X144275501Y-66542688D01*
X144275500Y-66542686D01*
X144204494Y-66471680D01*
X144176719Y-66417166D01*
X144175500Y-66401679D01*
X144175500Y-64385437D01*
X144175499Y-64385435D01*
X144175251Y-64384511D01*
X144155021Y-64309011D01*
X144120494Y-64249209D01*
X144115460Y-64240489D01*
X144059511Y-64184539D01*
X144059511Y-64184540D01*
X137709511Y-57834540D01*
X137709508Y-57834538D01*
X137640992Y-57794980D01*
X137640988Y-57794978D01*
X137564564Y-57774500D01*
X137564562Y-57774500D01*
X135289562Y-57774500D01*
X135210438Y-57774500D01*
X135163661Y-57787033D01*
X135134007Y-57794979D01*
X135065493Y-57834536D01*
X135065488Y-57834540D01*
X134429523Y-58470504D01*
X134375007Y-58498281D01*
X134359520Y-58499500D01*
X134259108Y-58499500D01*
X134181200Y-58520375D01*
X134131809Y-58533609D01*
X134017690Y-58599496D01*
X133924496Y-58692690D01*
X133858609Y-58806809D01*
X133824500Y-58934109D01*
X133824500Y-59056013D01*
X133805593Y-59114204D01*
X133756093Y-59150168D01*
X133751138Y-59151635D01*
X133683394Y-59169787D01*
X133631809Y-59183609D01*
X133517690Y-59249496D01*
X133424496Y-59342690D01*
X133358609Y-59456809D01*
X133347476Y-59498359D01*
X133324500Y-59584108D01*
X133324500Y-59715892D01*
X133331686Y-59742712D01*
X133356339Y-59834720D01*
X133353136Y-59895821D01*
X133314631Y-59943371D01*
X133310213Y-59946078D01*
X133217688Y-59999498D01*
X133124496Y-60092690D01*
X133058609Y-60206809D01*
X133051909Y-60231814D01*
X133024500Y-60334108D01*
X133024500Y-60465892D01*
X133058608Y-60593186D01*
X133058608Y-60593187D01*
X133060288Y-60599454D01*
X133057302Y-60600253D01*
X133061091Y-60648652D01*
X133029099Y-60700808D01*
X132972561Y-60724198D01*
X132964836Y-60724500D01*
X132891924Y-60724500D01*
X132833733Y-60705593D01*
X132797769Y-60656093D01*
X132796297Y-60599879D01*
X132825500Y-60490892D01*
X132825500Y-60359108D01*
X132791392Y-60231814D01*
X132791390Y-60231811D01*
X132791390Y-60231809D01*
X132725503Y-60117690D01*
X132725501Y-60117688D01*
X132725500Y-60117686D01*
X132632314Y-60024500D01*
X132632311Y-60024498D01*
X132632309Y-60024496D01*
X132518189Y-59958609D01*
X132518185Y-59958607D01*
X132428233Y-59934504D01*
X132383853Y-59908882D01*
X129407180Y-56932209D01*
X129379403Y-56877692D01*
X129381557Y-56836583D01*
X129400500Y-56765892D01*
X129400500Y-56634108D01*
X129366392Y-56506814D01*
X129366390Y-56506811D01*
X129366390Y-56506809D01*
X129300503Y-56392690D01*
X129300501Y-56392688D01*
X129300500Y-56392686D01*
X129207314Y-56299500D01*
X129207311Y-56299498D01*
X129207309Y-56299496D01*
X129093189Y-56233609D01*
X129093191Y-56233609D01*
X129043799Y-56220375D01*
X128965892Y-56199500D01*
X128834108Y-56199500D01*
X128756200Y-56220375D01*
X128706809Y-56233609D01*
X128592690Y-56299496D01*
X128499496Y-56392690D01*
X128433609Y-56506809D01*
X128433608Y-56506814D01*
X128399500Y-56634108D01*
X128399500Y-56765892D01*
X128418441Y-56836580D01*
X128433609Y-56893190D01*
X128499496Y-57007309D01*
X128499498Y-57007311D01*
X128499500Y-57007314D01*
X128592686Y-57100500D01*
X128706814Y-57166392D01*
X128796764Y-57190493D01*
X128841144Y-57216115D01*
X131817818Y-60192789D01*
X131845595Y-60247306D01*
X131843441Y-60288414D01*
X131824500Y-60359105D01*
X131824500Y-60359108D01*
X131824500Y-60490892D01*
X131853702Y-60599879D01*
X131850500Y-60660978D01*
X131811995Y-60708528D01*
X131758076Y-60724500D01*
X121365479Y-60724500D01*
X121307288Y-60705593D01*
X121295475Y-60695504D01*
X118629496Y-58029525D01*
X118601719Y-57975008D01*
X118600500Y-57959521D01*
X118600500Y-57859109D01*
X118598077Y-57850066D01*
X118566392Y-57731814D01*
X118566390Y-57731811D01*
X118566390Y-57731809D01*
X118500503Y-57617690D01*
X118500501Y-57617688D01*
X118500500Y-57617686D01*
X118407314Y-57524500D01*
X118407311Y-57524498D01*
X118407309Y-57524496D01*
X118293189Y-57458609D01*
X118293191Y-57458609D01*
X118231487Y-57442076D01*
X118165892Y-57424500D01*
X118034108Y-57424500D01*
X117968513Y-57442076D01*
X117906809Y-57458609D01*
X117792690Y-57524496D01*
X117699496Y-57617690D01*
X117633609Y-57731809D01*
X117622170Y-57774500D01*
X117599500Y-57859108D01*
X117599500Y-57990892D01*
X117609852Y-58029525D01*
X117633609Y-58118190D01*
X117699496Y-58232309D01*
X117699498Y-58232311D01*
X117699500Y-58232314D01*
X117792686Y-58325500D01*
X117792688Y-58325501D01*
X117792690Y-58325503D01*
X117906810Y-58391390D01*
X117906808Y-58391390D01*
X117906812Y-58391391D01*
X117906814Y-58391392D01*
X118034108Y-58425500D01*
X118034110Y-58425500D01*
X118134521Y-58425500D01*
X118192712Y-58444407D01*
X118204525Y-58454496D01*
X120959540Y-61209511D01*
X120959539Y-61209511D01*
X121015489Y-61265460D01*
X121084007Y-61305019D01*
X121084011Y-61305021D01*
X121160435Y-61325499D01*
X121160437Y-61325500D01*
X121160438Y-61325500D01*
X122435521Y-61325500D01*
X122493712Y-61344407D01*
X122529676Y-61393907D01*
X122529676Y-61455093D01*
X122505525Y-61494504D01*
X119415489Y-64584540D01*
X119415488Y-64584539D01*
X119359539Y-64640489D01*
X119319980Y-64709007D01*
X119319978Y-64709011D01*
X119299500Y-64785435D01*
X119299500Y-75539564D01*
X119319978Y-75615988D01*
X119319980Y-75615992D01*
X119359538Y-75684508D01*
X119359540Y-75684511D01*
X124208005Y-80532976D01*
X124235781Y-80587491D01*
X124237000Y-80602978D01*
X124237000Y-80703392D01*
X124267079Y-80815651D01*
X124271109Y-80830690D01*
X124336996Y-80944809D01*
X124336998Y-80944811D01*
X124337000Y-80944814D01*
X124430186Y-81038000D01*
X124430188Y-81038001D01*
X124430190Y-81038003D01*
X124544310Y-81103890D01*
X124544308Y-81103890D01*
X124544312Y-81103891D01*
X124544314Y-81103892D01*
X124671608Y-81138000D01*
X124671610Y-81138000D01*
X124803390Y-81138000D01*
X124803392Y-81138000D01*
X124930686Y-81103892D01*
X124930688Y-81103890D01*
X124930690Y-81103890D01*
X125044809Y-81038003D01*
X125044809Y-81038002D01*
X125044814Y-81038000D01*
X125138000Y-80944814D01*
X125187889Y-80858404D01*
X125203890Y-80830690D01*
X125203890Y-80830688D01*
X125203892Y-80830686D01*
X125238000Y-80703392D01*
X125238000Y-80571608D01*
X125203892Y-80444314D01*
X125203890Y-80444311D01*
X125203890Y-80444309D01*
X125138003Y-80330190D01*
X125138001Y-80330188D01*
X125138000Y-80330186D01*
X125044814Y-80237000D01*
X125044811Y-80236998D01*
X125044809Y-80236996D01*
X124930689Y-80171109D01*
X124930691Y-80171109D01*
X124881299Y-80157875D01*
X124803392Y-80137000D01*
X124702979Y-80137000D01*
X124644788Y-80118093D01*
X124632975Y-80108004D01*
X122165975Y-77641004D01*
X124399500Y-77641004D01*
X124399500Y-77778995D01*
X124426420Y-77914327D01*
X124426420Y-77914329D01*
X124479222Y-78041806D01*
X124479228Y-78041817D01*
X124555885Y-78156541D01*
X124653458Y-78254114D01*
X124768182Y-78330771D01*
X124768193Y-78330777D01*
X124791399Y-78340389D01*
X124895672Y-78383580D01*
X125031007Y-78410500D01*
X125031008Y-78410500D01*
X125168992Y-78410500D01*
X125168993Y-78410500D01*
X125304328Y-78383580D01*
X125431811Y-78330775D01*
X125546542Y-78254114D01*
X125644114Y-78156542D01*
X125718980Y-78044497D01*
X125767028Y-78006619D01*
X125801294Y-78000500D01*
X126301679Y-78000500D01*
X126359870Y-78019407D01*
X126371676Y-78029490D01*
X126442686Y-78100500D01*
X126442688Y-78100501D01*
X126442690Y-78100503D01*
X126556810Y-78166390D01*
X126556808Y-78166390D01*
X126556812Y-78166391D01*
X126556814Y-78166392D01*
X126684108Y-78200500D01*
X126684110Y-78200500D01*
X126815890Y-78200500D01*
X126815892Y-78200500D01*
X126943186Y-78166392D01*
X126943188Y-78166390D01*
X126943190Y-78166390D01*
X127057309Y-78100503D01*
X127057309Y-78100502D01*
X127057314Y-78100500D01*
X127150500Y-78007314D01*
X127154434Y-78000500D01*
X127216390Y-77893190D01*
X127216390Y-77893188D01*
X127216392Y-77893186D01*
X127250500Y-77765892D01*
X127250500Y-77634108D01*
X127216392Y-77506814D01*
X127216390Y-77506811D01*
X127216390Y-77506809D01*
X127150503Y-77392690D01*
X127150501Y-77392688D01*
X127150500Y-77392686D01*
X127079494Y-77321680D01*
X127051719Y-77267166D01*
X127050500Y-77251679D01*
X127050500Y-74063008D01*
X127069407Y-74004817D01*
X127118907Y-73968853D01*
X127180093Y-73968853D01*
X127219504Y-73993004D01*
X127661011Y-74434511D01*
X127661010Y-74434511D01*
X127716960Y-74490460D01*
X127785478Y-74530019D01*
X127785482Y-74530021D01*
X127861906Y-74550499D01*
X127861908Y-74550500D01*
X127861909Y-74550500D01*
X128001679Y-74550500D01*
X128059870Y-74569407D01*
X128071676Y-74579490D01*
X128142686Y-74650500D01*
X128256814Y-74716392D01*
X128276120Y-74721564D01*
X128327435Y-74754886D01*
X128349364Y-74812007D01*
X128349500Y-74817192D01*
X128349500Y-80510500D01*
X128330593Y-80568691D01*
X128281093Y-80604655D01*
X128250500Y-80609500D01*
X128200435Y-80609500D01*
X128124011Y-80629978D01*
X128078642Y-80656173D01*
X128078641Y-80656173D01*
X128055489Y-80669539D01*
X127498678Y-81226349D01*
X127444162Y-81254126D01*
X127409361Y-81253443D01*
X127377544Y-81247114D01*
X127288995Y-81229500D01*
X127288993Y-81229500D01*
X127151007Y-81229500D01*
X127151004Y-81229500D01*
X127015672Y-81256420D01*
X127015670Y-81256420D01*
X126888193Y-81309222D01*
X126888182Y-81309228D01*
X126773458Y-81385885D01*
X126675885Y-81483458D01*
X126599228Y-81598182D01*
X126599222Y-81598193D01*
X126546420Y-81725670D01*
X126546420Y-81725672D01*
X126519500Y-81861004D01*
X126519500Y-81998995D01*
X126528958Y-82046541D01*
X126546019Y-82132314D01*
X126546420Y-82134327D01*
X126546420Y-82134329D01*
X126599222Y-82261806D01*
X126599228Y-82261817D01*
X126675885Y-82376541D01*
X126773458Y-82474114D01*
X126888182Y-82550771D01*
X126888193Y-82550777D01*
X126935283Y-82570282D01*
X127015672Y-82603580D01*
X127151007Y-82630500D01*
X127151008Y-82630500D01*
X127288992Y-82630500D01*
X127288993Y-82630500D01*
X127424328Y-82603580D01*
X127551811Y-82550775D01*
X127666542Y-82474114D01*
X127764114Y-82376542D01*
X127840775Y-82261811D01*
X127893580Y-82134328D01*
X127920500Y-81998993D01*
X127920500Y-81861007D01*
X127896556Y-81740634D01*
X127903748Y-81679875D01*
X127923648Y-81651321D01*
X128335475Y-81239496D01*
X128342591Y-81235870D01*
X128347287Y-81229407D01*
X128369336Y-81222242D01*
X128389991Y-81211719D01*
X128405478Y-81210500D01*
X128444521Y-81210500D01*
X128502712Y-81229407D01*
X128514525Y-81239496D01*
X129730527Y-82455498D01*
X129758303Y-82510013D01*
X129748732Y-82570445D01*
X129705467Y-82613710D01*
X129660522Y-82624500D01*
X129506840Y-82624500D01*
X129430416Y-82644978D01*
X129430412Y-82644980D01*
X129367723Y-82681174D01*
X129361901Y-82684534D01*
X129361894Y-82684540D01*
X125747205Y-86299228D01*
X125692688Y-86327005D01*
X125677201Y-86328224D01*
X125576789Y-86328224D01*
X125498881Y-86349099D01*
X125449490Y-86362333D01*
X125335371Y-86428220D01*
X125242177Y-86521414D01*
X125176290Y-86635534D01*
X125176288Y-86635538D01*
X125165209Y-86676886D01*
X125131885Y-86728200D01*
X125074763Y-86750126D01*
X125043963Y-86746889D01*
X125023536Y-86741416D01*
X124891752Y-86741416D01*
X124813844Y-86762291D01*
X124764453Y-86775525D01*
X124650334Y-86841412D01*
X124557140Y-86934606D01*
X124491253Y-87048725D01*
X124479929Y-87090988D01*
X124457144Y-87176024D01*
X124457144Y-87307808D01*
X124473559Y-87369069D01*
X124491253Y-87435106D01*
X124557140Y-87549225D01*
X124557142Y-87549227D01*
X124557144Y-87549230D01*
X124650330Y-87642416D01*
X124650332Y-87642417D01*
X124650334Y-87642419D01*
X124764454Y-87708306D01*
X124764452Y-87708306D01*
X124764456Y-87708307D01*
X124764458Y-87708308D01*
X124891752Y-87742416D01*
X124891754Y-87742416D01*
X125026380Y-87742416D01*
X125068287Y-87753645D01*
X125068746Y-87752538D01*
X125074735Y-87755018D01*
X125074739Y-87755021D01*
X125151166Y-87775500D01*
X125151168Y-87775500D01*
X125989563Y-87775500D01*
X125989563Y-87775499D01*
X126065989Y-87755021D01*
X126134511Y-87715460D01*
X126190460Y-87659511D01*
X126690460Y-87159511D01*
X126730022Y-87090988D01*
X126750500Y-87014562D01*
X126750500Y-86935438D01*
X126750500Y-86752570D01*
X126769407Y-86694379D01*
X126779496Y-86682566D01*
X129807566Y-83654496D01*
X129862083Y-83626719D01*
X129877570Y-83625500D01*
X131405249Y-83625500D01*
X131405249Y-83625499D01*
X131481675Y-83605021D01*
X131550197Y-83565460D01*
X131606146Y-83509511D01*
X133240457Y-81875200D01*
X133248651Y-81861008D01*
X133280017Y-81806681D01*
X133280017Y-81806679D01*
X133280019Y-81806677D01*
X133300497Y-81730251D01*
X133300497Y-81671183D01*
X133300500Y-81671138D01*
X133300500Y-79515477D01*
X133319407Y-79457286D01*
X133329490Y-79445480D01*
X133620393Y-79154576D01*
X133640888Y-79138849D01*
X133707314Y-79100500D01*
X133800500Y-79007314D01*
X133866392Y-78893186D01*
X133900500Y-78765892D01*
X133900500Y-78634108D01*
X133866392Y-78506814D01*
X133866390Y-78506811D01*
X133866390Y-78506809D01*
X133800503Y-78392690D01*
X133800501Y-78392688D01*
X133800500Y-78392686D01*
X133707314Y-78299500D01*
X133707311Y-78299498D01*
X133707309Y-78299496D01*
X133593189Y-78233609D01*
X133593191Y-78233609D01*
X133543799Y-78220375D01*
X133465892Y-78199500D01*
X133334108Y-78199500D01*
X133256200Y-78220375D01*
X133206809Y-78233609D01*
X133092686Y-78299499D01*
X133070000Y-78322185D01*
X133015483Y-78349961D01*
X132955051Y-78340389D01*
X132929997Y-78322186D01*
X132907311Y-78299500D01*
X132907308Y-78299498D01*
X132907306Y-78299496D01*
X132793186Y-78233609D01*
X132793188Y-78233609D01*
X132743796Y-78220375D01*
X132665889Y-78199500D01*
X132534105Y-78199500D01*
X132456197Y-78220375D01*
X132406806Y-78233609D01*
X132292687Y-78299496D01*
X132199493Y-78392690D01*
X132133606Y-78506809D01*
X132133605Y-78506814D01*
X132099497Y-78634108D01*
X132099497Y-78765892D01*
X132117641Y-78833608D01*
X132133606Y-78893190D01*
X132199493Y-79007309D01*
X132199495Y-79007311D01*
X132199497Y-79007314D01*
X132270502Y-79078319D01*
X132298278Y-79132834D01*
X132299497Y-79148321D01*
X132299497Y-81359524D01*
X132280590Y-81417715D01*
X132270500Y-81429528D01*
X132106630Y-81593397D01*
X132052114Y-81621174D01*
X131991682Y-81611603D01*
X131948417Y-81568338D01*
X131941000Y-81549013D01*
X131936392Y-81531814D01*
X131935926Y-81531007D01*
X131870503Y-81417690D01*
X131870501Y-81417688D01*
X131870500Y-81417686D01*
X131777314Y-81324500D01*
X131777311Y-81324498D01*
X131777309Y-81324496D01*
X131663189Y-81258609D01*
X131663191Y-81258609D01*
X131591858Y-81239496D01*
X131535892Y-81224500D01*
X131404108Y-81224500D01*
X131348142Y-81239496D01*
X131276809Y-81258609D01*
X131162690Y-81324496D01*
X131162689Y-81324497D01*
X131162686Y-81324499D01*
X131162686Y-81324500D01*
X131080001Y-81407184D01*
X131025487Y-81434960D01*
X130965055Y-81425389D01*
X130939999Y-81407185D01*
X130857314Y-81324500D01*
X130857311Y-81324498D01*
X130857309Y-81324496D01*
X130743189Y-81258609D01*
X130743191Y-81258609D01*
X130671858Y-81239496D01*
X130615892Y-81224500D01*
X130484108Y-81224500D01*
X130428142Y-81239496D01*
X130356812Y-81258608D01*
X130249378Y-81320636D01*
X130189529Y-81333357D01*
X130133634Y-81308470D01*
X130129874Y-81304903D01*
X129379496Y-80554525D01*
X129351719Y-80500008D01*
X129350500Y-80484521D01*
X129350500Y-80159500D01*
X129369407Y-80101309D01*
X129418907Y-80065345D01*
X129449500Y-80060500D01*
X129705387Y-80060500D01*
X129763578Y-80079407D01*
X129787702Y-80104498D01*
X129855886Y-80206542D01*
X129855889Y-80206545D01*
X129953458Y-80304114D01*
X130068182Y-80380771D01*
X130068193Y-80380777D01*
X130115283Y-80400282D01*
X130195672Y-80433580D01*
X130331007Y-80460500D01*
X130331008Y-80460500D01*
X130468992Y-80460500D01*
X130468993Y-80460500D01*
X130604328Y-80433580D01*
X130731811Y-80380775D01*
X130846542Y-80304114D01*
X130944114Y-80206542D01*
X131020775Y-80091811D01*
X131073580Y-79964328D01*
X131100500Y-79828993D01*
X131100500Y-79691007D01*
X131073580Y-79555672D01*
X131039946Y-79474471D01*
X131020777Y-79428193D01*
X131020771Y-79428182D01*
X130944114Y-79313458D01*
X130846541Y-79215885D01*
X130731817Y-79139228D01*
X130731806Y-79139222D01*
X130604328Y-79086420D01*
X130468995Y-79059500D01*
X130468993Y-79059500D01*
X130331007Y-79059500D01*
X130331004Y-79059500D01*
X130195672Y-79086420D01*
X130195670Y-79086420D01*
X130068193Y-79139222D01*
X130068182Y-79139228D01*
X129953458Y-79215885D01*
X129855889Y-79313454D01*
X129855886Y-79313458D01*
X129787702Y-79415502D01*
X129739652Y-79453381D01*
X129705387Y-79459500D01*
X129449500Y-79459500D01*
X129391309Y-79440593D01*
X129355345Y-79391093D01*
X129350500Y-79360500D01*
X129350500Y-73960437D01*
X129350499Y-73960435D01*
X129349527Y-73956809D01*
X129330021Y-73884011D01*
X129306164Y-73842690D01*
X129290460Y-73815489D01*
X129234511Y-73759539D01*
X129234511Y-73759540D01*
X128534511Y-73059540D01*
X128525066Y-73054087D01*
X128465989Y-73019979D01*
X128465988Y-73019978D01*
X128465987Y-73019978D01*
X128389564Y-72999500D01*
X128389562Y-72999500D01*
X128248321Y-72999500D01*
X128190130Y-72980593D01*
X128178323Y-72970509D01*
X128107314Y-72899500D01*
X128107311Y-72899498D01*
X128107309Y-72899496D01*
X127993189Y-72833609D01*
X127993186Y-72833608D01*
X127973875Y-72828433D01*
X127922561Y-72795108D01*
X127900636Y-72737986D01*
X127900500Y-72732807D01*
X127900500Y-69265479D01*
X127919407Y-69207288D01*
X127929496Y-69195475D01*
X129645475Y-67479496D01*
X129652592Y-67475869D01*
X129657288Y-67469407D01*
X129679336Y-67462243D01*
X129699992Y-67451719D01*
X129715479Y-67450500D01*
X129852383Y-67450500D01*
X129910574Y-67469407D01*
X129946538Y-67518907D01*
X129946538Y-67580093D01*
X129938118Y-67599002D01*
X129933609Y-67606810D01*
X129933608Y-67606814D01*
X129899500Y-67734108D01*
X129899500Y-67865892D01*
X129928345Y-67973543D01*
X129933609Y-67993190D01*
X129999496Y-68107309D01*
X129999498Y-68107311D01*
X129999500Y-68107314D01*
X130092686Y-68200500D01*
X130092688Y-68200501D01*
X130092690Y-68200503D01*
X130206810Y-68266390D01*
X130206808Y-68266390D01*
X130206812Y-68266391D01*
X130206814Y-68266392D01*
X130334108Y-68300500D01*
X130334110Y-68300500D01*
X130434521Y-68300500D01*
X130492712Y-68319407D01*
X130504525Y-68329496D01*
X131215489Y-69040460D01*
X131215491Y-69040461D01*
X131215492Y-69040462D01*
X131215493Y-69040463D01*
X131284008Y-69080020D01*
X131284006Y-69080020D01*
X131284010Y-69080021D01*
X131284012Y-69080022D01*
X131360438Y-69100500D01*
X131439562Y-69100500D01*
X133801679Y-69100500D01*
X133809237Y-69102955D01*
X133817086Y-69101706D01*
X133837727Y-69112212D01*
X133859870Y-69119407D01*
X133871625Y-69129439D01*
X133942686Y-69200500D01*
X133942960Y-69200658D01*
X133947749Y-69205439D01*
X133958864Y-69227210D01*
X133972719Y-69247358D01*
X133972546Y-69254009D01*
X133975571Y-69259933D01*
X133971766Y-69284079D01*
X133971133Y-69308523D01*
X133967084Y-69313802D01*
X133966049Y-69320373D01*
X133948776Y-69337674D01*
X133933898Y-69357074D01*
X133927389Y-69359095D01*
X133922820Y-69363673D01*
X133901967Y-69366993D01*
X133877803Y-69374500D01*
X129960435Y-69374500D01*
X129884012Y-69394978D01*
X129824934Y-69429087D01*
X129815488Y-69434540D01*
X129729524Y-69520504D01*
X129675007Y-69548281D01*
X129659521Y-69549500D01*
X129559108Y-69549500D01*
X129497932Y-69565892D01*
X129431809Y-69583609D01*
X129317690Y-69649496D01*
X129224496Y-69742690D01*
X129158609Y-69856809D01*
X129151406Y-69883691D01*
X129124500Y-69984108D01*
X129124500Y-70115892D01*
X129131333Y-70141392D01*
X129158609Y-70243190D01*
X129224496Y-70357309D01*
X129224498Y-70357311D01*
X129224500Y-70357314D01*
X129317686Y-70450500D01*
X129317688Y-70450501D01*
X129317690Y-70450503D01*
X129431810Y-70516390D01*
X129431808Y-70516390D01*
X129431812Y-70516391D01*
X129431814Y-70516392D01*
X129559108Y-70550500D01*
X129559110Y-70550500D01*
X129690890Y-70550500D01*
X129690892Y-70550500D01*
X129818186Y-70516392D01*
X129818188Y-70516390D01*
X129818190Y-70516390D01*
X129932309Y-70450503D01*
X129932309Y-70450502D01*
X129932314Y-70450500D01*
X130025500Y-70357314D01*
X130029434Y-70350500D01*
X130091390Y-70243190D01*
X130091390Y-70243188D01*
X130091392Y-70243186D01*
X130125500Y-70115892D01*
X130125500Y-70074500D01*
X130144407Y-70016309D01*
X130193907Y-69980345D01*
X130224500Y-69975500D01*
X134701679Y-69975500D01*
X134759870Y-69994407D01*
X134771676Y-70004490D01*
X134842686Y-70075500D01*
X134842688Y-70075501D01*
X134842690Y-70075503D01*
X134956810Y-70141390D01*
X134956808Y-70141390D01*
X134956812Y-70141391D01*
X134956814Y-70141392D01*
X135084108Y-70175500D01*
X135084110Y-70175500D01*
X135215890Y-70175500D01*
X135215892Y-70175500D01*
X135343186Y-70141392D01*
X135343188Y-70141390D01*
X135343190Y-70141390D01*
X135457309Y-70075503D01*
X135457309Y-70075502D01*
X135457314Y-70075500D01*
X135550500Y-69982314D01*
X135583879Y-69924500D01*
X135616390Y-69868190D01*
X135616390Y-69868188D01*
X135616392Y-69868186D01*
X135650500Y-69740892D01*
X135650500Y-69609108D01*
X135616392Y-69481814D01*
X135616390Y-69481811D01*
X135616390Y-69481809D01*
X135550503Y-69367690D01*
X135550501Y-69367688D01*
X135550500Y-69367686D01*
X135457314Y-69274500D01*
X135457311Y-69274498D01*
X135457309Y-69274496D01*
X135343189Y-69208609D01*
X135343191Y-69208609D01*
X135293799Y-69195375D01*
X135215892Y-69174500D01*
X135084108Y-69174500D01*
X135006200Y-69195375D01*
X134956809Y-69208609D01*
X134842690Y-69274496D01*
X134842689Y-69274497D01*
X134842686Y-69274499D01*
X134842686Y-69274500D01*
X134771680Y-69345505D01*
X134764565Y-69349130D01*
X134759870Y-69355593D01*
X134737821Y-69362756D01*
X134717166Y-69373281D01*
X134701679Y-69374500D01*
X134622197Y-69374500D01*
X134564006Y-69355593D01*
X134528042Y-69306093D01*
X134528042Y-69244907D01*
X134554755Y-69207118D01*
X134552725Y-69205088D01*
X134557311Y-69200501D01*
X134557314Y-69200500D01*
X134650500Y-69107314D01*
X134654434Y-69100500D01*
X134716390Y-68993190D01*
X134716390Y-68993188D01*
X134716392Y-68993186D01*
X134750500Y-68865892D01*
X134750500Y-68734108D01*
X134716392Y-68606814D01*
X134716390Y-68606811D01*
X134716390Y-68606809D01*
X134650503Y-68492690D01*
X134650501Y-68492688D01*
X134650500Y-68492686D01*
X134557314Y-68399500D01*
X134557311Y-68399498D01*
X134557309Y-68399496D01*
X134443189Y-68333609D01*
X134443191Y-68333609D01*
X134390187Y-68319407D01*
X134315892Y-68299500D01*
X134184108Y-68299500D01*
X134109813Y-68319407D01*
X134056809Y-68333609D01*
X133942690Y-68399496D01*
X133942689Y-68399497D01*
X133942686Y-68399499D01*
X133942686Y-68399500D01*
X133871680Y-68470505D01*
X133817166Y-68498281D01*
X133801679Y-68499500D01*
X131565479Y-68499500D01*
X131507288Y-68480593D01*
X131495475Y-68470504D01*
X130929496Y-67904525D01*
X130901719Y-67850008D01*
X130900500Y-67834521D01*
X130900500Y-67734109D01*
X130884527Y-67674496D01*
X130866392Y-67606814D01*
X130861882Y-67599002D01*
X130849159Y-67539154D01*
X130874044Y-67483258D01*
X130927031Y-67452664D01*
X130947617Y-67450500D01*
X132401679Y-67450500D01*
X132459870Y-67469407D01*
X132471676Y-67479490D01*
X132542686Y-67550500D01*
X132542688Y-67550501D01*
X132542690Y-67550503D01*
X132656810Y-67616390D01*
X132656808Y-67616390D01*
X132656812Y-67616391D01*
X132656814Y-67616392D01*
X132784108Y-67650500D01*
X132784110Y-67650500D01*
X132915890Y-67650500D01*
X132915892Y-67650500D01*
X133043186Y-67616392D01*
X133043188Y-67616390D01*
X133043190Y-67616390D01*
X133157309Y-67550503D01*
X133157309Y-67550502D01*
X133157314Y-67550500D01*
X133250500Y-67457314D01*
X133292766Y-67384108D01*
X133316390Y-67343190D01*
X133316390Y-67343188D01*
X133316392Y-67343186D01*
X133350500Y-67215892D01*
X133350500Y-67084108D01*
X133316392Y-66956814D01*
X133316390Y-66956811D01*
X133316390Y-66956809D01*
X133250503Y-66842690D01*
X133250501Y-66842688D01*
X133250500Y-66842686D01*
X133157314Y-66749500D01*
X133157311Y-66749498D01*
X133157309Y-66749496D01*
X133043189Y-66683609D01*
X133043191Y-66683609D01*
X132993799Y-66670375D01*
X132915892Y-66649500D01*
X132824500Y-66649500D01*
X132766309Y-66630593D01*
X132730345Y-66581093D01*
X132725500Y-66550500D01*
X132725500Y-66434109D01*
X132724558Y-66430593D01*
X132691392Y-66306814D01*
X132691390Y-66306811D01*
X132691390Y-66306809D01*
X132625503Y-66192690D01*
X132625501Y-66192688D01*
X132625500Y-66192686D01*
X132532314Y-66099500D01*
X132532311Y-66099498D01*
X132532309Y-66099496D01*
X132418189Y-66033609D01*
X132418191Y-66033609D01*
X132368799Y-66020375D01*
X132290892Y-65999500D01*
X132159108Y-65999500D01*
X132121787Y-66009500D01*
X132039773Y-66031475D01*
X131978672Y-66028272D01*
X131931122Y-65989767D01*
X131915287Y-65930666D01*
X131918522Y-65910235D01*
X131950500Y-65790892D01*
X131950500Y-65659108D01*
X131916392Y-65531814D01*
X131916390Y-65531811D01*
X131916390Y-65531809D01*
X131850503Y-65417690D01*
X131850501Y-65417688D01*
X131850500Y-65417686D01*
X131757314Y-65324500D01*
X131757311Y-65324498D01*
X131757309Y-65324496D01*
X131643189Y-65258609D01*
X131643191Y-65258609D01*
X131577068Y-65240892D01*
X131515892Y-65224500D01*
X131384108Y-65224500D01*
X131322932Y-65240892D01*
X131256809Y-65258609D01*
X131142690Y-65324496D01*
X131049496Y-65417690D01*
X130983609Y-65531809D01*
X130983608Y-65531814D01*
X130954248Y-65641390D01*
X130949500Y-65659109D01*
X130949500Y-65759521D01*
X130930593Y-65817712D01*
X130920504Y-65829524D01*
X130729526Y-66020503D01*
X130675009Y-66048281D01*
X130659522Y-66049500D01*
X129223876Y-66049500D01*
X129144752Y-66049500D01*
X129097975Y-66062033D01*
X129068321Y-66069979D01*
X128999807Y-66109536D01*
X128999806Y-66109537D01*
X128999803Y-66109539D01*
X128999803Y-66109540D01*
X126565489Y-68543855D01*
X126565488Y-68543854D01*
X126509539Y-68599804D01*
X126469980Y-68668322D01*
X126469978Y-68668326D01*
X126449500Y-68744750D01*
X126449500Y-77251679D01*
X126447031Y-77259276D01*
X126448281Y-77267166D01*
X126437756Y-77287821D01*
X126430593Y-77309870D01*
X126420509Y-77321676D01*
X126371680Y-77370505D01*
X126317166Y-77398281D01*
X126301679Y-77399500D01*
X125787931Y-77399500D01*
X125729740Y-77380593D01*
X125705616Y-77355502D01*
X125695565Y-77340460D01*
X125644114Y-77263458D01*
X125546542Y-77165886D01*
X125546541Y-77165885D01*
X125431817Y-77089228D01*
X125431806Y-77089222D01*
X125304328Y-77036420D01*
X125168995Y-77009500D01*
X125168993Y-77009500D01*
X125031007Y-77009500D01*
X125031004Y-77009500D01*
X124895672Y-77036420D01*
X124895670Y-77036420D01*
X124768193Y-77089222D01*
X124768182Y-77089228D01*
X124653458Y-77165885D01*
X124555885Y-77263458D01*
X124479228Y-77378182D01*
X124479222Y-77378193D01*
X124426420Y-77505670D01*
X124426420Y-77505672D01*
X124399500Y-77641004D01*
X122165975Y-77641004D01*
X119929496Y-75404525D01*
X119901719Y-75350008D01*
X119900500Y-75334521D01*
X119900500Y-71534108D01*
X120124500Y-71534108D01*
X120124500Y-71665892D01*
X120154579Y-71778151D01*
X120158609Y-71793190D01*
X120224496Y-71907309D01*
X120224498Y-71907311D01*
X120224500Y-71907314D01*
X120317686Y-72000500D01*
X120317688Y-72000501D01*
X120317690Y-72000503D01*
X120431810Y-72066390D01*
X120431808Y-72066390D01*
X120431812Y-72066391D01*
X120431814Y-72066392D01*
X120559108Y-72100500D01*
X120559110Y-72100500D01*
X120690890Y-72100500D01*
X120690892Y-72100500D01*
X120818186Y-72066392D01*
X120818188Y-72066390D01*
X120818190Y-72066390D01*
X120932309Y-72000503D01*
X120932309Y-72000502D01*
X120932314Y-72000500D01*
X121025500Y-71907314D01*
X121091392Y-71793186D01*
X121125500Y-71665892D01*
X121125500Y-71615479D01*
X121144407Y-71557288D01*
X121154496Y-71545475D01*
X127645475Y-65054496D01*
X127699992Y-65026719D01*
X127715479Y-65025500D01*
X130089560Y-65025500D01*
X130089562Y-65025500D01*
X130165989Y-65005021D01*
X130165990Y-65005020D01*
X130172257Y-65003341D01*
X130172914Y-65005795D01*
X130202619Y-65001854D01*
X130202619Y-65000500D01*
X130340890Y-65000500D01*
X130340892Y-65000500D01*
X130468186Y-64966392D01*
X130468188Y-64966390D01*
X130468190Y-64966390D01*
X130582309Y-64900503D01*
X130582309Y-64900502D01*
X130582314Y-64900500D01*
X130675500Y-64807314D01*
X130723410Y-64724332D01*
X130741390Y-64693190D01*
X130741390Y-64693188D01*
X130741392Y-64693186D01*
X130775500Y-64565892D01*
X130775500Y-64434108D01*
X130741392Y-64306814D01*
X130741390Y-64306811D01*
X130741390Y-64306809D01*
X130675503Y-64192690D01*
X130675501Y-64192688D01*
X130675500Y-64192686D01*
X130582314Y-64099500D01*
X130582311Y-64099498D01*
X130582309Y-64099496D01*
X130468189Y-64033609D01*
X130468191Y-64033609D01*
X130418799Y-64020375D01*
X130340892Y-63999500D01*
X130209108Y-63999500D01*
X130131200Y-64020375D01*
X130081809Y-64033609D01*
X129967690Y-64099496D01*
X129874496Y-64192690D01*
X129808609Y-64306809D01*
X129808020Y-64309007D01*
X129796734Y-64351124D01*
X129763412Y-64402437D01*
X129706290Y-64424364D01*
X129701109Y-64424500D01*
X127510435Y-64424500D01*
X127434011Y-64444978D01*
X127401898Y-64463519D01*
X127396928Y-64466389D01*
X127365489Y-64484540D01*
X120778111Y-71071916D01*
X120723594Y-71099693D01*
X120695187Y-71100065D01*
X120690895Y-71099500D01*
X120690892Y-71099500D01*
X120559108Y-71099500D01*
X120481200Y-71120375D01*
X120431809Y-71133609D01*
X120317690Y-71199496D01*
X120224496Y-71292690D01*
X120158609Y-71406809D01*
X120158608Y-71406814D01*
X120124500Y-71534108D01*
X119900500Y-71534108D01*
X119900500Y-64990479D01*
X119919407Y-64932288D01*
X119929496Y-64920475D01*
X123095475Y-61754496D01*
X123149992Y-61726719D01*
X123165479Y-61725500D01*
X124474235Y-61725500D01*
X124496282Y-61732663D01*
X124519180Y-61736290D01*
X124524828Y-61741938D01*
X124532426Y-61744407D01*
X124546053Y-61763163D01*
X124562445Y-61779555D01*
X124563694Y-61787444D01*
X124568390Y-61793907D01*
X124568390Y-61817092D01*
X124572016Y-61839987D01*
X124568390Y-61847103D01*
X124568390Y-61855093D01*
X124544239Y-61894502D01*
X124429755Y-62008986D01*
X124375240Y-62036763D01*
X124359753Y-62037982D01*
X124259340Y-62037982D01*
X124181432Y-62058857D01*
X124132041Y-62072091D01*
X124017922Y-62137978D01*
X123924728Y-62231172D01*
X123858841Y-62345291D01*
X123842891Y-62404818D01*
X123824732Y-62472590D01*
X123824732Y-62604374D01*
X123852313Y-62707309D01*
X123858841Y-62731672D01*
X123924728Y-62845791D01*
X123924730Y-62845793D01*
X123924732Y-62845796D01*
X124017918Y-62938982D01*
X124017920Y-62938983D01*
X124017922Y-62938985D01*
X124132042Y-63004872D01*
X124132040Y-63004872D01*
X124132044Y-63004873D01*
X124132046Y-63004874D01*
X124259340Y-63038982D01*
X124259342Y-63038982D01*
X124391122Y-63038982D01*
X124391124Y-63038982D01*
X124518418Y-63004874D01*
X124518420Y-63004872D01*
X124518422Y-63004872D01*
X124632541Y-62938985D01*
X124632541Y-62938984D01*
X124632546Y-62938982D01*
X124695315Y-62876212D01*
X124749830Y-62848437D01*
X124810262Y-62858008D01*
X124835317Y-62876211D01*
X124890045Y-62930939D01*
X124890047Y-62930940D01*
X124890049Y-62930942D01*
X125004169Y-62996829D01*
X125004167Y-62996829D01*
X125004171Y-62996830D01*
X125004173Y-62996831D01*
X125131467Y-63030939D01*
X125131469Y-63030939D01*
X125263249Y-63030939D01*
X125263251Y-63030939D01*
X125390545Y-62996831D01*
X125390547Y-62996829D01*
X125390549Y-62996829D01*
X125504668Y-62930942D01*
X125504668Y-62930941D01*
X125504673Y-62930939D01*
X125597859Y-62837753D01*
X125597862Y-62837748D01*
X125663749Y-62723629D01*
X125663749Y-62723627D01*
X125663751Y-62723625D01*
X125697177Y-62598874D01*
X125730500Y-62547563D01*
X125787621Y-62525636D01*
X125792803Y-62525500D01*
X130943835Y-62525500D01*
X131002026Y-62544407D01*
X131013839Y-62554496D01*
X137320504Y-68861161D01*
X137348281Y-68915678D01*
X137349500Y-68931165D01*
X137349500Y-76834521D01*
X137330593Y-76892712D01*
X137320504Y-76904525D01*
X133840489Y-80384540D01*
X133840488Y-80384539D01*
X133784539Y-80440489D01*
X133744980Y-80509007D01*
X133744978Y-80509011D01*
X133724500Y-80585435D01*
X133724500Y-86462255D01*
X133705593Y-86520446D01*
X133656093Y-86556410D01*
X133625500Y-86561255D01*
X133545622Y-86561255D01*
X133467714Y-86582130D01*
X133418323Y-86595364D01*
X133304204Y-86661251D01*
X133304203Y-86661252D01*
X133304200Y-86661254D01*
X133304200Y-86661255D01*
X133250330Y-86715124D01*
X133195816Y-86742900D01*
X133135384Y-86733329D01*
X133110328Y-86715125D01*
X133056458Y-86661255D01*
X133056455Y-86661253D01*
X133056453Y-86661251D01*
X132942333Y-86595364D01*
X132942335Y-86595364D01*
X132892943Y-86582130D01*
X132815036Y-86561255D01*
X132683252Y-86561255D01*
X132605344Y-86582130D01*
X132555953Y-86595364D01*
X132441834Y-86661251D01*
X132441829Y-86661255D01*
X132387962Y-86715122D01*
X132333445Y-86742899D01*
X132273013Y-86733327D01*
X132247958Y-86715124D01*
X132194089Y-86661255D01*
X132194086Y-86661253D01*
X132194084Y-86661251D01*
X132079964Y-86595364D01*
X132079966Y-86595364D01*
X132030574Y-86582130D01*
X131952667Y-86561255D01*
X131820883Y-86561255D01*
X131742975Y-86582130D01*
X131693584Y-86595364D01*
X131579465Y-86661251D01*
X131486271Y-86754445D01*
X131420384Y-86868564D01*
X131420383Y-86868569D01*
X131389425Y-86984109D01*
X131386275Y-86995864D01*
X131386275Y-87096275D01*
X131367368Y-87154466D01*
X131357279Y-87166279D01*
X128928055Y-89595504D01*
X128873538Y-89623281D01*
X128858051Y-89624500D01*
X124540479Y-89624500D01*
X124482288Y-89605593D01*
X124470475Y-89595504D01*
X111054496Y-76179525D01*
X111026719Y-76125008D01*
X111025500Y-76109521D01*
X111025500Y-75808641D01*
X111044407Y-75750450D01*
X111093907Y-75714486D01*
X111155093Y-75714486D01*
X111194501Y-75738635D01*
X113954227Y-78498361D01*
X113954229Y-78498362D01*
X113954231Y-78498364D01*
X114022746Y-78537921D01*
X114022744Y-78537921D01*
X114022748Y-78537922D01*
X114022750Y-78537923D01*
X114099176Y-78558401D01*
X114099178Y-78558401D01*
X117356662Y-78558401D01*
X117356662Y-78558400D01*
X117433088Y-78537922D01*
X117501610Y-78498361D01*
X117557559Y-78442412D01*
X118290460Y-77709511D01*
X118330022Y-77640988D01*
X118350500Y-77564562D01*
X118350500Y-77485438D01*
X118350500Y-68523321D01*
X118369407Y-68465130D01*
X118379490Y-68453323D01*
X118450500Y-68382314D01*
X118463649Y-68359539D01*
X118516390Y-68268190D01*
X118516390Y-68268188D01*
X118516392Y-68268186D01*
X118550500Y-68140892D01*
X118550500Y-68009108D01*
X118516392Y-67881814D01*
X118516390Y-67881811D01*
X118516390Y-67881809D01*
X118450503Y-67767690D01*
X118450501Y-67767688D01*
X118450500Y-67767686D01*
X118357314Y-67674500D01*
X118357311Y-67674498D01*
X118357309Y-67674496D01*
X118243189Y-67608609D01*
X118243191Y-67608609D01*
X118193799Y-67595375D01*
X118115892Y-67574500D01*
X117984108Y-67574500D01*
X117906200Y-67595375D01*
X117856809Y-67608609D01*
X117742690Y-67674496D01*
X117649496Y-67767690D01*
X117583609Y-67881809D01*
X117565750Y-67948463D01*
X117549500Y-68009108D01*
X117549500Y-68140892D01*
X117565472Y-68200500D01*
X117583609Y-68268190D01*
X117649496Y-68382309D01*
X117649498Y-68382311D01*
X117649500Y-68382314D01*
X117720505Y-68453319D01*
X117748281Y-68507834D01*
X117749500Y-68523321D01*
X117749500Y-77359521D01*
X117730593Y-77417712D01*
X117720504Y-77429525D01*
X117221624Y-77928405D01*
X117167107Y-77956182D01*
X117151620Y-77957401D01*
X114304217Y-77957401D01*
X114246026Y-77938494D01*
X114234213Y-77928405D01*
X114065149Y-77759341D01*
X114037372Y-77704824D01*
X114046943Y-77644392D01*
X114090208Y-77601127D01*
X114109526Y-77593712D01*
X114118186Y-77591392D01*
X114118189Y-77591390D01*
X114118190Y-77591390D01*
X114232309Y-77525503D01*
X114232309Y-77525502D01*
X114232314Y-77525500D01*
X114325500Y-77432314D01*
X114327110Y-77429525D01*
X114391390Y-77318190D01*
X114391390Y-77318188D01*
X114391392Y-77318186D01*
X114425500Y-77190892D01*
X114425500Y-77059108D01*
X114391392Y-76931814D01*
X114391390Y-76931811D01*
X114391390Y-76931809D01*
X114325503Y-76817690D01*
X114325501Y-76817688D01*
X114325500Y-76817686D01*
X114232314Y-76724500D01*
X114232311Y-76724498D01*
X114232309Y-76724496D01*
X114118189Y-76658609D01*
X114118191Y-76658609D01*
X114068799Y-76645375D01*
X113990892Y-76624500D01*
X113990890Y-76624500D01*
X113915479Y-76624500D01*
X113857288Y-76605593D01*
X113845475Y-76595504D01*
X113254496Y-76004525D01*
X113226719Y-75950008D01*
X113225500Y-75934521D01*
X113225500Y-75589479D01*
X113232663Y-75567431D01*
X113236290Y-75544534D01*
X113241938Y-75538885D01*
X113244407Y-75531288D01*
X113263163Y-75517660D01*
X113279555Y-75501269D01*
X113287444Y-75500019D01*
X113293907Y-75495324D01*
X113317092Y-75495324D01*
X113339987Y-75491698D01*
X113347104Y-75495324D01*
X113355093Y-75495324D01*
X113394504Y-75519475D01*
X113420504Y-75545475D01*
X113448281Y-75599992D01*
X113449500Y-75615479D01*
X113449500Y-75715892D01*
X113458760Y-75750450D01*
X113483609Y-75843190D01*
X113549496Y-75957309D01*
X113549498Y-75957311D01*
X113549500Y-75957314D01*
X113642686Y-76050500D01*
X113642688Y-76050501D01*
X113642690Y-76050503D01*
X113756810Y-76116390D01*
X113756808Y-76116390D01*
X113756812Y-76116391D01*
X113756814Y-76116392D01*
X113884108Y-76150500D01*
X113884110Y-76150500D01*
X114015890Y-76150500D01*
X114015892Y-76150500D01*
X114143186Y-76116392D01*
X114143188Y-76116390D01*
X114143190Y-76116390D01*
X114257309Y-76050503D01*
X114257309Y-76050502D01*
X114257314Y-76050500D01*
X114350500Y-75957314D01*
X114380122Y-75906007D01*
X114416390Y-75843190D01*
X114416390Y-75843188D01*
X114416392Y-75843186D01*
X114450500Y-75715892D01*
X114450500Y-75584108D01*
X114416392Y-75456814D01*
X114416390Y-75456811D01*
X114416390Y-75456809D01*
X114350503Y-75342690D01*
X114350501Y-75342688D01*
X114350500Y-75342686D01*
X114257314Y-75249500D01*
X114257311Y-75249498D01*
X114257309Y-75249496D01*
X114143189Y-75183609D01*
X114143191Y-75183609D01*
X114093799Y-75170375D01*
X114015892Y-75149500D01*
X113915479Y-75149500D01*
X113857288Y-75130593D01*
X113845475Y-75120504D01*
X113654496Y-74929525D01*
X113650869Y-74922407D01*
X113644407Y-74917712D01*
X113637243Y-74895663D01*
X113626719Y-74875008D01*
X113625500Y-74859521D01*
X113625500Y-74716924D01*
X113644407Y-74658733D01*
X113693907Y-74622769D01*
X113750120Y-74621297D01*
X113859108Y-74650500D01*
X113859110Y-74650500D01*
X113990890Y-74650500D01*
X113990892Y-74650500D01*
X114118186Y-74616392D01*
X114118188Y-74616390D01*
X114118190Y-74616390D01*
X114232309Y-74550503D01*
X114232309Y-74550502D01*
X114232314Y-74550500D01*
X114325500Y-74457314D01*
X114325503Y-74457309D01*
X114391390Y-74343190D01*
X114391390Y-74343188D01*
X114391392Y-74343186D01*
X114425500Y-74215892D01*
X114425500Y-74084108D01*
X114391392Y-73956814D01*
X114391390Y-73956811D01*
X114391390Y-73956809D01*
X114325503Y-73842690D01*
X114325501Y-73842688D01*
X114325500Y-73842686D01*
X114232314Y-73749500D01*
X114232311Y-73749498D01*
X114232309Y-73749496D01*
X114118189Y-73683609D01*
X114118186Y-73683608D01*
X114098875Y-73678433D01*
X114047561Y-73645108D01*
X114025636Y-73587986D01*
X114025500Y-73582807D01*
X114025500Y-68654066D01*
X114025499Y-68654064D01*
X114005021Y-68577640D01*
X114005019Y-68577636D01*
X113965460Y-68509118D01*
X113909511Y-68453168D01*
X113909511Y-68453169D01*
X110340883Y-64884540D01*
X110340880Y-64884538D01*
X110331039Y-64878856D01*
X110272361Y-64844979D01*
X110272357Y-64844977D01*
X110195936Y-64824500D01*
X110195934Y-64824500D01*
X107264008Y-64824500D01*
X107205817Y-64805593D01*
X107194004Y-64795504D01*
X106454496Y-64055996D01*
X106426719Y-64001479D01*
X106425500Y-63985992D01*
X106425500Y-63934106D01*
X106393766Y-63815672D01*
X106391392Y-63806811D01*
X106391390Y-63806808D01*
X106391390Y-63806806D01*
X106325503Y-63692687D01*
X106325501Y-63692685D01*
X106325500Y-63692683D01*
X106232314Y-63599497D01*
X106232311Y-63599495D01*
X106232309Y-63599493D01*
X106118189Y-63533606D01*
X106118191Y-63533606D01*
X106068799Y-63520372D01*
X105990892Y-63499497D01*
X105859108Y-63499497D01*
X105781200Y-63520372D01*
X105731809Y-63533606D01*
X105617690Y-63599493D01*
X105524496Y-63692687D01*
X105458609Y-63806806D01*
X105439539Y-63877975D01*
X105424500Y-63934105D01*
X102057138Y-63934105D01*
X102033580Y-63815672D01*
X101995665Y-63724137D01*
X101980777Y-63688193D01*
X101980771Y-63688182D01*
X101904114Y-63573458D01*
X101806541Y-63475885D01*
X101691817Y-63399228D01*
X101691806Y-63399222D01*
X101564328Y-63346420D01*
X101428995Y-63319500D01*
X101428993Y-63319500D01*
X101291007Y-63319500D01*
X101291004Y-63319500D01*
X101155672Y-63346420D01*
X101155670Y-63346420D01*
X101028193Y-63399222D01*
X101028182Y-63399228D01*
X100913458Y-63475885D01*
X100815885Y-63573458D01*
X100739228Y-63688182D01*
X100739222Y-63688193D01*
X100686420Y-63815670D01*
X100686420Y-63815672D01*
X100659500Y-63951004D01*
X100200500Y-63951004D01*
X100200500Y-62334108D01*
X115024500Y-62334108D01*
X115024500Y-62465892D01*
X115048241Y-62554496D01*
X115058609Y-62593190D01*
X115124496Y-62707309D01*
X115124498Y-62707311D01*
X115124500Y-62707314D01*
X115217686Y-62800500D01*
X115217688Y-62800501D01*
X115217690Y-62800503D01*
X115331810Y-62866390D01*
X115331808Y-62866390D01*
X115331812Y-62866391D01*
X115331814Y-62866392D01*
X115459108Y-62900500D01*
X115488810Y-62900500D01*
X115547001Y-62919407D01*
X115558814Y-62929496D01*
X117549008Y-64919689D01*
X117576785Y-64974206D01*
X117574631Y-65015315D01*
X117564133Y-65054496D01*
X117549500Y-65109108D01*
X117549500Y-65240892D01*
X117573241Y-65329496D01*
X117583609Y-65368190D01*
X117649496Y-65482309D01*
X117649498Y-65482311D01*
X117649500Y-65482314D01*
X117742686Y-65575500D01*
X117742688Y-65575501D01*
X117742690Y-65575503D01*
X117856810Y-65641390D01*
X117856808Y-65641390D01*
X117856812Y-65641391D01*
X117856814Y-65641392D01*
X117984108Y-65675500D01*
X117984110Y-65675500D01*
X118115890Y-65675500D01*
X118115892Y-65675500D01*
X118243186Y-65641392D01*
X118243188Y-65641390D01*
X118243190Y-65641390D01*
X118357309Y-65575503D01*
X118357309Y-65575502D01*
X118357314Y-65575500D01*
X118450500Y-65482314D01*
X118454209Y-65475890D01*
X118516390Y-65368190D01*
X118516390Y-65368188D01*
X118516392Y-65368186D01*
X118550500Y-65240892D01*
X118550500Y-65109108D01*
X118516392Y-64981814D01*
X118516390Y-64981811D01*
X118516390Y-64981809D01*
X118450503Y-64867690D01*
X118450499Y-64867685D01*
X118391412Y-64808597D01*
X118375680Y-64788094D01*
X118330472Y-64709792D01*
X118330468Y-64709787D01*
X118265212Y-64644530D01*
X118265212Y-64644531D01*
X116054496Y-62433814D01*
X116026719Y-62379297D01*
X116025500Y-62363810D01*
X116025500Y-62334109D01*
X116025500Y-62334108D01*
X115991392Y-62206814D01*
X115991390Y-62206811D01*
X115991390Y-62206809D01*
X115925503Y-62092690D01*
X115925501Y-62092688D01*
X115925500Y-62092686D01*
X115832314Y-61999500D01*
X115832311Y-61999498D01*
X115832309Y-61999496D01*
X115718189Y-61933609D01*
X115718191Y-61933609D01*
X115668799Y-61920375D01*
X115590892Y-61899500D01*
X115459108Y-61899500D01*
X115381200Y-61920375D01*
X115331809Y-61933609D01*
X115217690Y-61999496D01*
X115124496Y-62092690D01*
X115058609Y-62206809D01*
X115058608Y-62206814D01*
X115024500Y-62334108D01*
X100200500Y-62334108D01*
X100200500Y-60124663D01*
X100219407Y-60066472D01*
X100229735Y-60054422D01*
X102832442Y-57469664D01*
X102887053Y-57442076D01*
X102947452Y-57451856D01*
X102971217Y-57468932D01*
X103848976Y-58322532D01*
X103875889Y-58349616D01*
X103877532Y-58350303D01*
X103878809Y-58351544D01*
X103913004Y-58365152D01*
X103913454Y-58365331D01*
X103915019Y-58365969D01*
X103949484Y-58380373D01*
X103949492Y-58380373D01*
X103952044Y-58380889D01*
X103952053Y-58380891D01*
X103952786Y-58381039D01*
X103960578Y-58380930D01*
X103990252Y-58380515D01*
X103991823Y-58380506D01*
X104029248Y-58380625D01*
X104029250Y-58380623D01*
X104029251Y-58380624D01*
X104031679Y-58380148D01*
X104031780Y-58380128D01*
X104032556Y-58379976D01*
X104049196Y-58372808D01*
X104067749Y-58364819D01*
X104103036Y-58350334D01*
X104104287Y-58349088D01*
X104105924Y-58348384D01*
X104105931Y-58348376D01*
X104105935Y-58348375D01*
X104132097Y-58321470D01*
X104133045Y-58320512D01*
X105229464Y-57231004D01*
X114349500Y-57231004D01*
X114349500Y-57368995D01*
X114376420Y-57504327D01*
X114376420Y-57504329D01*
X114429222Y-57631806D01*
X114429228Y-57631817D01*
X114505885Y-57746541D01*
X114603458Y-57844114D01*
X114718182Y-57920771D01*
X114718193Y-57920777D01*
X114765283Y-57940282D01*
X114845672Y-57973580D01*
X114981007Y-58000500D01*
X114981008Y-58000500D01*
X115118992Y-58000500D01*
X115118993Y-58000500D01*
X115239364Y-57976556D01*
X115300121Y-57983747D01*
X115328679Y-58003650D01*
X115620504Y-58295475D01*
X115648281Y-58349992D01*
X115649500Y-58365479D01*
X115649500Y-58415892D01*
X115672448Y-58501536D01*
X115683609Y-58543190D01*
X115749496Y-58657309D01*
X115749498Y-58657311D01*
X115749500Y-58657314D01*
X115842686Y-58750500D01*
X115842688Y-58750501D01*
X115842690Y-58750503D01*
X115956810Y-58816390D01*
X115956808Y-58816390D01*
X115956812Y-58816391D01*
X115956814Y-58816392D01*
X116084108Y-58850500D01*
X116084110Y-58850500D01*
X116215890Y-58850500D01*
X116215892Y-58850500D01*
X116343186Y-58816392D01*
X116343188Y-58816390D01*
X116343190Y-58816390D01*
X116457309Y-58750503D01*
X116457309Y-58750502D01*
X116457314Y-58750500D01*
X116550500Y-58657314D01*
X116583879Y-58599500D01*
X116616390Y-58543190D01*
X116616390Y-58543188D01*
X116616392Y-58543186D01*
X116650500Y-58415892D01*
X116650500Y-58284108D01*
X116616392Y-58156814D01*
X116616390Y-58156811D01*
X116616390Y-58156809D01*
X116550503Y-58042690D01*
X116550501Y-58042688D01*
X116550500Y-58042686D01*
X116457314Y-57949500D01*
X116457311Y-57949498D01*
X116457309Y-57949496D01*
X116343189Y-57883609D01*
X116343191Y-57883609D01*
X116293799Y-57870375D01*
X116215892Y-57849500D01*
X116084108Y-57849500D01*
X116084106Y-57849500D01*
X116079809Y-57850066D01*
X116019648Y-57838913D01*
X115996887Y-57821916D01*
X115753650Y-57578679D01*
X115725873Y-57524162D01*
X115726555Y-57489367D01*
X115750500Y-57368993D01*
X115750500Y-57231007D01*
X115723580Y-57095672D01*
X115686979Y-57007309D01*
X115670777Y-56968193D01*
X115670771Y-56968182D01*
X115594114Y-56853458D01*
X115496541Y-56755885D01*
X115381817Y-56679228D01*
X115381806Y-56679222D01*
X115254328Y-56626420D01*
X115118995Y-56599500D01*
X115118993Y-56599500D01*
X114981007Y-56599500D01*
X114981004Y-56599500D01*
X114845672Y-56626420D01*
X114845670Y-56626420D01*
X114718193Y-56679222D01*
X114718182Y-56679228D01*
X114603458Y-56755885D01*
X114505885Y-56853458D01*
X114429228Y-56968182D01*
X114429222Y-56968193D01*
X114376420Y-57095670D01*
X114376420Y-57095672D01*
X114349500Y-57231004D01*
X105229464Y-57231004D01*
X108891308Y-53592240D01*
X108919460Y-53564342D01*
X108919514Y-53564211D01*
X108919616Y-53564111D01*
X108934936Y-53527451D01*
X108950318Y-53490789D01*
X108950318Y-53490646D01*
X108950373Y-53490516D01*
X108950497Y-53451172D01*
X108950497Y-53451170D01*
X108950507Y-53451170D01*
X108950497Y-53451042D01*
X108950679Y-53411025D01*
X108950624Y-53410891D01*
X108950625Y-53410752D01*
X108935672Y-53374328D01*
X108920488Y-53337196D01*
X108920486Y-53337194D01*
X108920486Y-53337193D01*
X108920401Y-53337064D01*
X108920401Y-53337065D01*
X108920335Y-53336966D01*
X108920334Y-53336964D01*
X108892480Y-53308933D01*
X108892416Y-53308807D01*
X108892386Y-53308838D01*
X108002727Y-52411092D01*
X107975198Y-52356451D01*
X107985043Y-52296063D01*
X108003191Y-52271257D01*
X109528543Y-50752396D01*
X110053829Y-50229347D01*
X110108405Y-50201686D01*
X110123683Y-50200500D01*
X133649081Y-50200500D01*
X133707272Y-50219407D01*
G37*
%TD.AperFunction*%
%TD*%
M02*
