%TF.GenerationSoftware,KiCad,Pcbnew,10.0.3*%
%TF.CreationDate,2026-09-20T23:16:09+02:00*%
%TF.ProjectId,stabielator,73746162-6965-46c6-9174-6f722e6b6963,rev?*%
%TF.SameCoordinates,Original*%
%TF.FileFunction,Copper,L2,Inr*%
%TF.FilePolarity,Positive*%
%FSLAX46Y46*%
G04 Gerber Fmt 4.6, Leading zero omitted, Abs format (unit mm)*
G04 Created by KiCad (PCBNEW 10.0.3) date 2026-09-20 23:16:09*
%MOMM*%
%LPD*%
G01*
G04 APERTURE LIST*
G04 Aperture macros list*
%AMHorizOval*
0 Thick line with rounded ends*
0 $1 width*
0 $2 $3 position (X,Y) of the first rounded end (center of the circle)*
0 $4 $5 position (X,Y) of the second rounded end (center of the circle)*
0 Add line between two ends*
20,1,$1,$2,$3,$4,$5,0*
0 Add two circle primitives to create the rounded ends*
1,1,$1,$2,$3*
1,1,$1,$4,$5*%
G04 Aperture macros list end*
%TA.AperFunction,HeatsinkPad*%
%ADD10C,0.500000*%
%TD*%
%TA.AperFunction,ComponentPad*%
%ADD11C,0.700000*%
%TD*%
%TA.AperFunction,ComponentPad*%
%ADD12C,4.400000*%
%TD*%
%TA.AperFunction,ComponentPad*%
%ADD13HorizOval,0.900000X-0.388909X0.388909X0.388909X-0.388909X0*%
%TD*%
%TA.AperFunction,ComponentPad*%
%ADD14HorizOval,0.900000X-0.282843X0.282843X0.282843X-0.282843X0*%
%TD*%
%TA.AperFunction,ComponentPad*%
%ADD15C,0.500000*%
%TD*%
%TA.AperFunction,ViaPad*%
%ADD16C,0.600000*%
%TD*%
G04 APERTURE END LIST*
D10*
%TO.N,GND*%
%TO.C,U3*%
X105037500Y-65450000D03*
X103937500Y-65450000D03*
X105037500Y-66550000D03*
X103937500Y-66550000D03*
%TD*%
D11*
%TO.N,GND*%
%TO.C,H4*%
X132350000Y-97570000D03*
X132833274Y-96403274D03*
X132833274Y-98736726D03*
X134000000Y-95920000D03*
D12*
X134000000Y-97570000D03*
D11*
X134000000Y-99220000D03*
X135166726Y-96403274D03*
X135166726Y-98736726D03*
X135650000Y-97570000D03*
%TD*%
%TO.N,GND*%
%TO.C,H1*%
X114350000Y-52430000D03*
X114833274Y-51263274D03*
X114833274Y-53596726D03*
X116000000Y-50780000D03*
D12*
X116000000Y-52430000D03*
D11*
X116000000Y-54080000D03*
X117166726Y-51263274D03*
X117166726Y-53596726D03*
X117650000Y-52430000D03*
%TD*%
%TO.N,GND*%
%TO.C,H3*%
X114350000Y-97570000D03*
X114833274Y-96403274D03*
X114833274Y-98736726D03*
X116000000Y-95920000D03*
D12*
X116000000Y-97570000D03*
D11*
X116000000Y-99220000D03*
X117166726Y-96403274D03*
X117166726Y-98736726D03*
X117650000Y-97570000D03*
%TD*%
D13*
%TO.N,Net-(J5-SHELL)*%
%TO.C,J5*%
X138262349Y-94138828D03*
D14*
X141210984Y-97087463D03*
D13*
X144371751Y-88029426D03*
D14*
X147320386Y-90978061D03*
%TD*%
D15*
%TO.N,GND*%
%TO.C,U4*%
X116080003Y-66655086D03*
X116655002Y-65705087D03*
X116655002Y-67605085D03*
X117230001Y-66655086D03*
%TD*%
D11*
%TO.N,GND*%
%TO.C,H2*%
X132350000Y-52430000D03*
X132833274Y-51263274D03*
X132833274Y-53596726D03*
X134000000Y-50780000D03*
D12*
X134000000Y-52430000D03*
D11*
X134000000Y-54080000D03*
X135166726Y-51263274D03*
X135166726Y-53596726D03*
X135650000Y-52430000D03*
%TD*%
D16*
%TO.N,3V3*%
X118050000Y-65175000D03*
X116150000Y-58350000D03*
X115525000Y-62400000D03*
%TO.N,Net-(U3-TS)*%
X105925000Y-63999997D03*
X113925000Y-74150000D03*
%TO.N,GND*%
X104900000Y-78700000D03*
X146250000Y-83175000D03*
X119400000Y-61025000D03*
X127093414Y-59206586D03*
X129768414Y-55531586D03*
X107300000Y-64350000D03*
X102600000Y-64550000D03*
X128768414Y-62943414D03*
X127500000Y-64075000D03*
X135400000Y-78250000D03*
X141775000Y-72125000D03*
X136650000Y-57050000D03*
X141225000Y-69900000D03*
X141700000Y-75300000D03*
X123525001Y-87350000D03*
X122250001Y-54875000D03*
X119850000Y-63575000D03*
X130800000Y-84450000D03*
X113150000Y-63750000D03*
X147850000Y-82425000D03*
X142100000Y-77175000D03*
X136750000Y-59025000D03*
X124100000Y-87350000D03*
X106000000Y-67825000D03*
X135275000Y-85500000D03*
X111850000Y-94900000D03*
X119443414Y-63168414D03*
X142525000Y-64275000D03*
X116800001Y-74900000D03*
X137425000Y-90725000D03*
X138500000Y-62925000D03*
X111475001Y-73175000D03*
X121875000Y-76175000D03*
X145675001Y-83175000D03*
X129175000Y-63350000D03*
X138050000Y-66225000D03*
X103225000Y-64575001D03*
X134700000Y-60950000D03*
X120800001Y-54900000D03*
X141775000Y-72700000D03*
X140400000Y-61975000D03*
X114050000Y-82100000D03*
X113100000Y-83800000D03*
X137000000Y-75675000D03*
X127200001Y-95350000D03*
X124600000Y-74300000D03*
X148450001Y-82425000D03*
X111600000Y-69950000D03*
X125600000Y-71475000D03*
X122225000Y-59650000D03*
X130175000Y-55125000D03*
X129274999Y-95325000D03*
X112525001Y-83800000D03*
X119400000Y-60450000D03*
X125325000Y-60125000D03*
X116200000Y-76400000D03*
X136725000Y-72025000D03*
X131675000Y-54225000D03*
X139431586Y-60981586D03*
X121850000Y-76775000D03*
X124725000Y-58300000D03*
X122825000Y-54875000D03*
X119400000Y-61650000D03*
X117425000Y-70050000D03*
X115025000Y-59025000D03*
X137643414Y-66631586D03*
X119400000Y-62225000D03*
X121843414Y-78643414D03*
X111600000Y-70525001D03*
X130325000Y-74125000D03*
X127850000Y-78600000D03*
X139275000Y-86900000D03*
X118800000Y-72125000D03*
X111075000Y-63175000D03*
X111019885Y-60694885D03*
X112725000Y-59050000D03*
X117650000Y-80025000D03*
X107000000Y-84250000D03*
X138660000Y-87520000D03*
X111443414Y-94493414D03*
X103225000Y-64000000D03*
X116400000Y-57350000D03*
X119000000Y-67975000D03*
X127775000Y-95350000D03*
X110226472Y-62326472D03*
X140006586Y-89268414D03*
X127850000Y-91000000D03*
X112275000Y-61950000D03*
X111426472Y-61101472D03*
X105450000Y-86500000D03*
X122750000Y-68600000D03*
X124700000Y-91675000D03*
X119000000Y-65350000D03*
X149100000Y-64925000D03*
X133318414Y-62331586D03*
X137425000Y-79575000D03*
X145550000Y-64000000D03*
X145100000Y-72800000D03*
X107000000Y-84825000D03*
X132100000Y-71925000D03*
X109575000Y-77250000D03*
X127093414Y-63668414D03*
X122250000Y-79050000D03*
X139025000Y-60575000D03*
X119175000Y-55575000D03*
X145125000Y-71400000D03*
X114425000Y-92325000D03*
X149025000Y-82425000D03*
X104900000Y-77825000D03*
X112050000Y-73175000D03*
X122825000Y-59675000D03*
X139600000Y-89675000D03*
X125299454Y-91675000D03*
X147275001Y-82425000D03*
X135106586Y-60543414D03*
X107375000Y-69400001D03*
X120525000Y-82800000D03*
X135950000Y-54500000D03*
X137475000Y-92455826D03*
X131268414Y-54631586D03*
X136850001Y-79575000D03*
X146725000Y-64900000D03*
X108325000Y-74725546D03*
X104900000Y-79275000D03*
X145100000Y-70775000D03*
X133350000Y-82300000D03*
X109575000Y-77825000D03*
X135675000Y-62925000D03*
X114375000Y-70600000D03*
X145100000Y-72225000D03*
X106950000Y-70875000D03*
X108325000Y-75325000D03*
X116225000Y-74900000D03*
X127025000Y-66475000D03*
X125175000Y-74300000D03*
X116250001Y-73250000D03*
X137324999Y-59025000D03*
X111868414Y-61543414D03*
X119000000Y-67400000D03*
X140806586Y-62381586D03*
X137075000Y-64325000D03*
X135543414Y-54906586D03*
X137925000Y-84425000D03*
X136075001Y-57050000D03*
X127275001Y-91000000D03*
X122900000Y-64725000D03*
X102225000Y-62350000D03*
X117425000Y-69475000D03*
X137050000Y-61525000D03*
X130225000Y-84450000D03*
X102225000Y-62925001D03*
X116825000Y-73250000D03*
X106925000Y-81875000D03*
X109100000Y-79925000D03*
X139550000Y-64800000D03*
X133725000Y-61925000D03*
X108025000Y-92475000D03*
X116775001Y-76400000D03*
X137000000Y-76250000D03*
X122050000Y-73450000D03*
X107875001Y-64350000D03*
X128700000Y-95325000D03*
X107375000Y-68825000D03*
X108300000Y-88025000D03*
X121675000Y-73925000D03*
X118600001Y-55575000D03*
X114075000Y-66675000D03*
X125324454Y-58300000D03*
X105450000Y-81275000D03*
X107618414Y-92068414D03*
X109850000Y-67500000D03*
X145143414Y-64406586D03*
X127850000Y-79225000D03*
X138875000Y-77325000D03*
X141700000Y-74700546D03*
X119000000Y-65925000D03*
X109819885Y-61919885D03*
X104900000Y-77250000D03*
X142375000Y-87600000D03*
X125600000Y-72050000D03*
X104050000Y-73600000D03*
X121375000Y-54900000D03*
X110668414Y-62768414D03*
X127500000Y-58800000D03*
X123550000Y-75675000D03*
X135275000Y-86074999D03*
X113375000Y-89625000D03*
X131825000Y-74050000D03*
%TO.N,5V*%
X108750000Y-67125000D03*
X102137729Y-65484404D03*
X134125000Y-89675000D03*
%TO.N,CHG*%
X101310000Y-65410000D03*
%TO.N,VSYS*%
X114112500Y-90212500D03*
%TO.N,Net-(U3-TMR)*%
X106700127Y-66256873D03*
X113925000Y-77125000D03*
%TO.N,Net-(U3-ISET)*%
X113950000Y-75650000D03*
X105925000Y-64800000D03*
%TO.N,Net-(U5-SCL)*%
X110125000Y-76040270D03*
X132749144Y-87061755D03*
%TO.N,Net-(U5-SDA)*%
X131886775Y-87061755D03*
X110125000Y-75092692D03*
%TO.N,BATTERY*%
X118100000Y-57925000D03*
X133525000Y-60400000D03*
%TO.N,LED_R*%
X130400000Y-67800000D03*
X134250000Y-68800000D03*
%TO.N,KILL*%
X111250000Y-87050000D03*
X111275000Y-79300000D03*
X120625000Y-71600000D03*
X130275000Y-64500000D03*
%TO.N,Net-(J5-CC1)*%
X139064819Y-91010709D03*
X140700000Y-87600000D03*
%TO.N,IMU_RST*%
X133825000Y-59650000D03*
X124737500Y-80637500D03*
%TO.N,Net-(U2-SDA)*%
X125197359Y-62530439D03*
X133611514Y-87061755D03*
%TO.N,Net-(U2-SCL)*%
X124325232Y-62538482D03*
X134473883Y-87061755D03*
%TO.N,Net-(U10-SDA)*%
X124957644Y-87241916D03*
X133400000Y-78700000D03*
%TO.N,Net-(U10-SCL)*%
X125642681Y-86828724D03*
X132599997Y-78700000D03*
%TO.N,SCL*%
X132225000Y-66500000D03*
X128450000Y-74250000D03*
X131470000Y-81725000D03*
%TO.N,SDA*%
X127800000Y-73300000D03*
X132850000Y-67150000D03*
X130550000Y-81725000D03*
%TO.N,Net-(U1-GPIO2{slash}ADC1_CH2)*%
X143875000Y-66850000D03*
X134325000Y-59000000D03*
%TO.N,/Logic/CHIP_EN*%
X132325000Y-60425000D03*
X128900000Y-56700000D03*
%TO.N,IMU_INT*%
X131450000Y-65725000D03*
X126750000Y-77700000D03*
%TO.N,LED_G*%
X135150000Y-69675000D03*
X129625000Y-70050000D03*
%TO.N,IO9_BOOT*%
X147925000Y-69850000D03*
X138175000Y-67450000D03*
%TO.N,USB_D-*%
X139500000Y-81825000D03*
X139684313Y-70065687D03*
%TO.N,USB_D+*%
X140250000Y-69500000D03*
X139550000Y-83275000D03*
%TO.N,Net-(U1-GPIO20{slash}U0RXD)*%
X140600000Y-66450000D03*
%TO.N,Net-(U1-GPIO21{slash}U0TXD)*%
X141175000Y-65875000D03*
%TO.N,Net-(SW2-A)*%
X110660000Y-96270000D03*
%TO.N,3V3_EN*%
X110337547Y-90961802D03*
X118050000Y-68075000D03*
%TD*%
%TA.AperFunction,Conductor*%
%TO.N,GND*%
G36*
X133707272Y-50219407D02*
G01*
X133732088Y-50245548D01*
X136362385Y-54292435D01*
X145696194Y-63626244D01*
X149700474Y-63625137D01*
X149758669Y-63644028D01*
X149794646Y-63693518D01*
X149799500Y-63724137D01*
X149799500Y-89875941D01*
X149780593Y-89934132D01*
X149770504Y-89945945D01*
X148422732Y-91293717D01*
X148368215Y-91321494D01*
X148307783Y-91311923D01*
X148264518Y-91268658D01*
X148253728Y-91223713D01*
X148253728Y-91196836D01*
X148253727Y-91196832D01*
X148228730Y-91071161D01*
X148179694Y-90952777D01*
X148108506Y-90846235D01*
X147452212Y-90189941D01*
X147430599Y-90175500D01*
X147345667Y-90118751D01*
X147227287Y-90069717D01*
X147101614Y-90044719D01*
X147101612Y-90044719D01*
X146973474Y-90044719D01*
X146973471Y-90044719D01*
X146847799Y-90069717D01*
X146847797Y-90069717D01*
X146729418Y-90118751D01*
X146622877Y-90189938D01*
X146532263Y-90280552D01*
X146461076Y-90387093D01*
X146412042Y-90505472D01*
X146412042Y-90505474D01*
X146387044Y-90631146D01*
X146387044Y-90759289D01*
X146412042Y-90884961D01*
X146412042Y-90884963D01*
X146461076Y-91003342D01*
X146506390Y-91071161D01*
X146532266Y-91109887D01*
X147188560Y-91766181D01*
X147295102Y-91837369D01*
X147413486Y-91886405D01*
X147539160Y-91911403D01*
X147539161Y-91911403D01*
X147566038Y-91911403D01*
X147624229Y-91930310D01*
X147660193Y-91979810D01*
X147660193Y-92040996D01*
X147636042Y-92080407D01*
X142313330Y-97403119D01*
X142258813Y-97430896D01*
X142198381Y-97421325D01*
X142155116Y-97378060D01*
X142144326Y-97333115D01*
X142144326Y-97306238D01*
X142144325Y-97306234D01*
X142119328Y-97180563D01*
X142070292Y-97062179D01*
X141999104Y-96955637D01*
X141342810Y-96299343D01*
X141236268Y-96228155D01*
X141236267Y-96228154D01*
X141236265Y-96228153D01*
X141117885Y-96179119D01*
X140992212Y-96154121D01*
X140992210Y-96154121D01*
X140864072Y-96154121D01*
X140864069Y-96154121D01*
X140738397Y-96179119D01*
X140738395Y-96179119D01*
X140620016Y-96228153D01*
X140513475Y-96299340D01*
X140422861Y-96389954D01*
X140351674Y-96496495D01*
X140302640Y-96614874D01*
X140302640Y-96614876D01*
X140277642Y-96740548D01*
X140277642Y-96868691D01*
X140302640Y-96994363D01*
X140302640Y-96994365D01*
X140351674Y-97112744D01*
X140396988Y-97180563D01*
X140422864Y-97219289D01*
X141079158Y-97875583D01*
X141185700Y-97946771D01*
X141304084Y-97995807D01*
X141429758Y-98020805D01*
X141429759Y-98020805D01*
X141456636Y-98020805D01*
X141514827Y-98039712D01*
X141550791Y-98089212D01*
X141550791Y-98150398D01*
X141526640Y-98189809D01*
X139945946Y-99770504D01*
X139891429Y-99798281D01*
X139875942Y-99799500D01*
X110124058Y-99799500D01*
X110065867Y-99780593D01*
X110054054Y-99770504D01*
X106487658Y-96204108D01*
X110159500Y-96204108D01*
X110159500Y-96335892D01*
X110173985Y-96389951D01*
X110193609Y-96463190D01*
X110259496Y-96577309D01*
X110259498Y-96577311D01*
X110259500Y-96577314D01*
X110352686Y-96670500D01*
X110352688Y-96670501D01*
X110352690Y-96670503D01*
X110466810Y-96736390D01*
X110466808Y-96736390D01*
X110466812Y-96736391D01*
X110466814Y-96736392D01*
X110594108Y-96770500D01*
X110594110Y-96770500D01*
X110725890Y-96770500D01*
X110725892Y-96770500D01*
X110853186Y-96736392D01*
X110853188Y-96736390D01*
X110853190Y-96736390D01*
X110967309Y-96670503D01*
X110967309Y-96670502D01*
X110967314Y-96670500D01*
X111060500Y-96577314D01*
X111126392Y-96463186D01*
X111160500Y-96335892D01*
X111160500Y-96204108D01*
X111126392Y-96076814D01*
X111126390Y-96076811D01*
X111126390Y-96076809D01*
X111060503Y-95962690D01*
X111060501Y-95962688D01*
X111060500Y-95962686D01*
X110967314Y-95869500D01*
X110967311Y-95869498D01*
X110967309Y-95869496D01*
X110853189Y-95803609D01*
X110853191Y-95803609D01*
X110803799Y-95790375D01*
X110725892Y-95769500D01*
X110594108Y-95769500D01*
X110516200Y-95790375D01*
X110466809Y-95803609D01*
X110352690Y-95869496D01*
X110259496Y-95962690D01*
X110193609Y-96076809D01*
X110193608Y-96076814D01*
X110159500Y-96204108D01*
X106487658Y-96204108D01*
X105527346Y-95243796D01*
X107109500Y-95243796D01*
X107109500Y-95381787D01*
X107136420Y-95517119D01*
X107136420Y-95517121D01*
X107189222Y-95644598D01*
X107189228Y-95644609D01*
X107265885Y-95759333D01*
X107363458Y-95856906D01*
X107478182Y-95933563D01*
X107478193Y-95933569D01*
X107525283Y-95953074D01*
X107605672Y-95986372D01*
X107741007Y-96013292D01*
X107741008Y-96013292D01*
X107878992Y-96013292D01*
X107878993Y-96013292D01*
X108014328Y-95986372D01*
X108141811Y-95933567D01*
X108256542Y-95856906D01*
X108354114Y-95759334D01*
X108430775Y-95644603D01*
X108483580Y-95517120D01*
X108510500Y-95381785D01*
X108510500Y-95243799D01*
X108483580Y-95108464D01*
X108430775Y-94980981D01*
X108430774Y-94980979D01*
X108430771Y-94980974D01*
X108354114Y-94866250D01*
X108256541Y-94768677D01*
X108141817Y-94692020D01*
X108141806Y-94692014D01*
X108014328Y-94639212D01*
X107878995Y-94612292D01*
X107878993Y-94612292D01*
X107741007Y-94612292D01*
X107741004Y-94612292D01*
X107605672Y-94639212D01*
X107605670Y-94639212D01*
X107478193Y-94692014D01*
X107478182Y-94692020D01*
X107363458Y-94768677D01*
X107265885Y-94866250D01*
X107189228Y-94980974D01*
X107189222Y-94980985D01*
X107136420Y-95108462D01*
X107136420Y-95108464D01*
X107109500Y-95243796D01*
X105527346Y-95243796D01*
X103969397Y-93685847D01*
X137222941Y-93685847D01*
X137222941Y-93813990D01*
X137247939Y-93939662D01*
X137247939Y-93939664D01*
X137296973Y-94058043D01*
X137296974Y-94058045D01*
X137296975Y-94058046D01*
X137368163Y-94164588D01*
X138236589Y-95033014D01*
X138343131Y-95104202D01*
X138343132Y-95104202D01*
X138343133Y-95104203D01*
X138353420Y-95108464D01*
X138461515Y-95153238D01*
X138587189Y-95178237D01*
X138587190Y-95178237D01*
X138715326Y-95178237D01*
X138715327Y-95178237D01*
X138841002Y-95153238D01*
X138959385Y-95104202D01*
X138959385Y-95104201D01*
X138959387Y-95104201D01*
X139065922Y-95033018D01*
X139065921Y-95033018D01*
X139065928Y-95033014D01*
X139156535Y-94942407D01*
X139227723Y-94835864D01*
X139276759Y-94717481D01*
X139301758Y-94591806D01*
X139301758Y-94463668D01*
X139276759Y-94337994D01*
X139227723Y-94219610D01*
X139156535Y-94113068D01*
X138438069Y-93394602D01*
X139062423Y-93394602D01*
X139062423Y-93539552D01*
X139067949Y-93560175D01*
X139099940Y-93679566D01*
X139172410Y-93805087D01*
X139172412Y-93805089D01*
X139172414Y-93805092D01*
X139274908Y-93907586D01*
X139274910Y-93907587D01*
X139274912Y-93907589D01*
X139400434Y-93980059D01*
X139400435Y-93980059D01*
X139400438Y-93980061D01*
X139540448Y-94017577D01*
X139540449Y-94017577D01*
X139685397Y-94017577D01*
X139685398Y-94017577D01*
X139825408Y-93980061D01*
X139825410Y-93980059D01*
X139825412Y-93980059D01*
X139950933Y-93907589D01*
X139950933Y-93907588D01*
X139950938Y-93907586D01*
X140053432Y-93805092D01*
X140122277Y-93685850D01*
X140125905Y-93679566D01*
X140125905Y-93679564D01*
X140125907Y-93679562D01*
X140163423Y-93539552D01*
X140163423Y-93394602D01*
X140125907Y-93254592D01*
X140125905Y-93254589D01*
X140125905Y-93254587D01*
X140053435Y-93129066D01*
X140053433Y-93129064D01*
X140053432Y-93129062D01*
X139950938Y-93026568D01*
X139950935Y-93026566D01*
X139950933Y-93026564D01*
X139825411Y-92954094D01*
X139825412Y-92954094D01*
X139795819Y-92946164D01*
X139685398Y-92916577D01*
X139540448Y-92916577D01*
X139496463Y-92928363D01*
X139400433Y-92954094D01*
X139274912Y-93026564D01*
X139172410Y-93129066D01*
X139099940Y-93254587D01*
X139078326Y-93335253D01*
X139062423Y-93394602D01*
X138438069Y-93394602D01*
X138288109Y-93244642D01*
X138181567Y-93173454D01*
X138181566Y-93173453D01*
X138181564Y-93173452D01*
X138063184Y-93124418D01*
X137937511Y-93099420D01*
X137937509Y-93099420D01*
X137809371Y-93099420D01*
X137809368Y-93099420D01*
X137683696Y-93124418D01*
X137683694Y-93124418D01*
X137565315Y-93173452D01*
X137458774Y-93244639D01*
X137368160Y-93335253D01*
X137296973Y-93441794D01*
X137247939Y-93560173D01*
X137247939Y-93560175D01*
X137222941Y-93685847D01*
X103969397Y-93685847D01*
X102522142Y-92238592D01*
X104104296Y-92238592D01*
X104104296Y-92376583D01*
X104131216Y-92511915D01*
X104131216Y-92511917D01*
X104184018Y-92639394D01*
X104184024Y-92639405D01*
X104260681Y-92754129D01*
X104358254Y-92851702D01*
X104472978Y-92928359D01*
X104472989Y-92928365D01*
X104520079Y-92947870D01*
X104600468Y-92981168D01*
X104735803Y-93008088D01*
X104735804Y-93008088D01*
X104873788Y-93008088D01*
X104873789Y-93008088D01*
X105009124Y-92981168D01*
X105136607Y-92928363D01*
X105251338Y-92851702D01*
X105348910Y-92754130D01*
X105425571Y-92639399D01*
X105478376Y-92511916D01*
X105505296Y-92376581D01*
X105505296Y-92238595D01*
X105478376Y-92103260D01*
X105460774Y-92060765D01*
X105425573Y-91975781D01*
X105425567Y-91975770D01*
X105348910Y-91861046D01*
X105251337Y-91763473D01*
X105136613Y-91686816D01*
X105136602Y-91686810D01*
X105009124Y-91634008D01*
X104873791Y-91607088D01*
X104873789Y-91607088D01*
X104735803Y-91607088D01*
X104735800Y-91607088D01*
X104600468Y-91634008D01*
X104600466Y-91634008D01*
X104472989Y-91686810D01*
X104472978Y-91686816D01*
X104358254Y-91763473D01*
X104260681Y-91861046D01*
X104184024Y-91975770D01*
X104184018Y-91975781D01*
X104131216Y-92103258D01*
X104131216Y-92103260D01*
X104104296Y-92238592D01*
X102522142Y-92238592D01*
X101179460Y-90895910D01*
X109837047Y-90895910D01*
X109837047Y-91027694D01*
X109859069Y-91109883D01*
X109871156Y-91154992D01*
X109937043Y-91269111D01*
X109937045Y-91269113D01*
X109937047Y-91269116D01*
X110030233Y-91362302D01*
X110030235Y-91362303D01*
X110030237Y-91362305D01*
X110144357Y-91428192D01*
X110144355Y-91428192D01*
X110144359Y-91428193D01*
X110144361Y-91428194D01*
X110271655Y-91462302D01*
X110271657Y-91462302D01*
X110403437Y-91462302D01*
X110403439Y-91462302D01*
X110530733Y-91428194D01*
X110530735Y-91428192D01*
X110530737Y-91428192D01*
X110644856Y-91362305D01*
X110644856Y-91362304D01*
X110644861Y-91362302D01*
X110738047Y-91269116D01*
X110738050Y-91269111D01*
X110803937Y-91154992D01*
X110803937Y-91154990D01*
X110803939Y-91154988D01*
X110838047Y-91027694D01*
X110838047Y-90944817D01*
X138564319Y-90944817D01*
X138564319Y-91076601D01*
X138573237Y-91109883D01*
X138598428Y-91203899D01*
X138664315Y-91318018D01*
X138664317Y-91318020D01*
X138664319Y-91318023D01*
X138757505Y-91411209D01*
X138757507Y-91411210D01*
X138757509Y-91411212D01*
X138871629Y-91477099D01*
X138871627Y-91477099D01*
X138871631Y-91477100D01*
X138871633Y-91477101D01*
X138998927Y-91511209D01*
X138998929Y-91511209D01*
X139130709Y-91511209D01*
X139130711Y-91511209D01*
X139258005Y-91477101D01*
X139258007Y-91477099D01*
X139258009Y-91477099D01*
X139372128Y-91411212D01*
X139372128Y-91411211D01*
X139372133Y-91411209D01*
X139465319Y-91318023D01*
X139493556Y-91269116D01*
X139531209Y-91203899D01*
X139531209Y-91203897D01*
X139531211Y-91203895D01*
X139565319Y-91076601D01*
X139565319Y-90944817D01*
X139531211Y-90817523D01*
X139531209Y-90817520D01*
X139531209Y-90817518D01*
X139465322Y-90703399D01*
X139465320Y-90703397D01*
X139465319Y-90703395D01*
X139372133Y-90610209D01*
X139372130Y-90610207D01*
X139372128Y-90610205D01*
X139258008Y-90544318D01*
X139258010Y-90544318D01*
X139208618Y-90531084D01*
X139130711Y-90510209D01*
X138998927Y-90510209D01*
X138921019Y-90531084D01*
X138871628Y-90544318D01*
X138757509Y-90610205D01*
X138664315Y-90703399D01*
X138598428Y-90817518D01*
X138598427Y-90817523D01*
X138564319Y-90944817D01*
X110838047Y-90944817D01*
X110838047Y-90895910D01*
X110803939Y-90768616D01*
X110803937Y-90768613D01*
X110803937Y-90768611D01*
X110738050Y-90654492D01*
X110738048Y-90654490D01*
X110738047Y-90654488D01*
X110644861Y-90561302D01*
X110644858Y-90561300D01*
X110644856Y-90561298D01*
X110530736Y-90495411D01*
X110530738Y-90495411D01*
X110481346Y-90482177D01*
X110403439Y-90461302D01*
X110271655Y-90461302D01*
X110193747Y-90482177D01*
X110144356Y-90495411D01*
X110030237Y-90561298D01*
X109937043Y-90654492D01*
X109871156Y-90768611D01*
X109852086Y-90839780D01*
X109837047Y-90895910D01*
X101179460Y-90895910D01*
X100430158Y-90146608D01*
X113612000Y-90146608D01*
X113612000Y-90278392D01*
X113612578Y-90280549D01*
X113646109Y-90405690D01*
X113711996Y-90519809D01*
X113711998Y-90519811D01*
X113712000Y-90519814D01*
X113805186Y-90613000D01*
X113805188Y-90613001D01*
X113805190Y-90613003D01*
X113919310Y-90678890D01*
X113919308Y-90678890D01*
X113919312Y-90678891D01*
X113919314Y-90678892D01*
X114046608Y-90713000D01*
X114046610Y-90713000D01*
X114178390Y-90713000D01*
X114178392Y-90713000D01*
X114305686Y-90678892D01*
X114305688Y-90678890D01*
X114305690Y-90678890D01*
X114419809Y-90613003D01*
X114419809Y-90613002D01*
X114419814Y-90613000D01*
X114513000Y-90519814D01*
X114513003Y-90519809D01*
X114578890Y-90405690D01*
X114578890Y-90405688D01*
X114578892Y-90405686D01*
X114613000Y-90278392D01*
X114613000Y-90146608D01*
X114578892Y-90019314D01*
X114578890Y-90019311D01*
X114578890Y-90019309D01*
X114513003Y-89905190D01*
X114513001Y-89905188D01*
X114513000Y-89905186D01*
X114419814Y-89812000D01*
X114419811Y-89811998D01*
X114419809Y-89811996D01*
X114305689Y-89746109D01*
X114305691Y-89746109D01*
X114256299Y-89732875D01*
X114178392Y-89712000D01*
X114046608Y-89712000D01*
X113968700Y-89732875D01*
X113919309Y-89746109D01*
X113805190Y-89811996D01*
X113711996Y-89905190D01*
X113646109Y-90019309D01*
X113646108Y-90019314D01*
X113612000Y-90146608D01*
X100430158Y-90146608D01*
X100229496Y-89945946D01*
X100201719Y-89891429D01*
X100200500Y-89875942D01*
X100200500Y-89609108D01*
X133624500Y-89609108D01*
X133624500Y-89740892D01*
X133625898Y-89746108D01*
X133658609Y-89868190D01*
X133724496Y-89982309D01*
X133724498Y-89982311D01*
X133724500Y-89982314D01*
X133817686Y-90075500D01*
X133817688Y-90075501D01*
X133817690Y-90075503D01*
X133931810Y-90141390D01*
X133931808Y-90141390D01*
X133931812Y-90141391D01*
X133931814Y-90141392D01*
X134059108Y-90175500D01*
X134059110Y-90175500D01*
X134190890Y-90175500D01*
X134190892Y-90175500D01*
X134318186Y-90141392D01*
X134318188Y-90141390D01*
X134318190Y-90141390D01*
X134432309Y-90075503D01*
X134432309Y-90075502D01*
X134432314Y-90075500D01*
X134525500Y-89982314D01*
X134538315Y-89960118D01*
X134591390Y-89868190D01*
X134591390Y-89868188D01*
X134591392Y-89868186D01*
X134625500Y-89740892D01*
X134625500Y-89609108D01*
X134591392Y-89481814D01*
X134591390Y-89481811D01*
X134591390Y-89481809D01*
X134525503Y-89367690D01*
X134525501Y-89367688D01*
X134525500Y-89367686D01*
X134465339Y-89307525D01*
X143149500Y-89307525D01*
X143149500Y-89452475D01*
X143179087Y-89562896D01*
X143187017Y-89592489D01*
X143259487Y-89718010D01*
X143259489Y-89718012D01*
X143259491Y-89718015D01*
X143361985Y-89820509D01*
X143361987Y-89820510D01*
X143361989Y-89820512D01*
X143487511Y-89892982D01*
X143487512Y-89892982D01*
X143487515Y-89892984D01*
X143627525Y-89930500D01*
X143627526Y-89930500D01*
X143772474Y-89930500D01*
X143772475Y-89930500D01*
X143912485Y-89892984D01*
X143912487Y-89892982D01*
X143912489Y-89892982D01*
X144038010Y-89820512D01*
X144038010Y-89820511D01*
X144038015Y-89820509D01*
X144140509Y-89718015D01*
X144212984Y-89592485D01*
X144250500Y-89452475D01*
X144250500Y-89307525D01*
X144212984Y-89167515D01*
X144212982Y-89167512D01*
X144212982Y-89167510D01*
X144140512Y-89041989D01*
X144140510Y-89041987D01*
X144140509Y-89041985D01*
X144038015Y-88939491D01*
X144038012Y-88939489D01*
X144038010Y-88939487D01*
X143912488Y-88867017D01*
X143912489Y-88867017D01*
X143882896Y-88859087D01*
X143772475Y-88829500D01*
X143627525Y-88829500D01*
X143565790Y-88846041D01*
X143487510Y-88867017D01*
X143361989Y-88939487D01*
X143259487Y-89041989D01*
X143187017Y-89167510D01*
X143187016Y-89167515D01*
X143149500Y-89307525D01*
X134465339Y-89307525D01*
X134432314Y-89274500D01*
X134432311Y-89274498D01*
X134432309Y-89274496D01*
X134318189Y-89208609D01*
X134318191Y-89208609D01*
X134268799Y-89195375D01*
X134190892Y-89174500D01*
X134059108Y-89174500D01*
X133981200Y-89195375D01*
X133931809Y-89208609D01*
X133817690Y-89274496D01*
X133724496Y-89367690D01*
X133658609Y-89481809D01*
X133658608Y-89481814D01*
X133624500Y-89609108D01*
X100200500Y-89609108D01*
X100200500Y-86984108D01*
X110749500Y-86984108D01*
X110749500Y-87115892D01*
X110778962Y-87225848D01*
X110783609Y-87243190D01*
X110849496Y-87357309D01*
X110849498Y-87357311D01*
X110849500Y-87357314D01*
X110942686Y-87450500D01*
X110942688Y-87450501D01*
X110942690Y-87450503D01*
X111056810Y-87516390D01*
X111056808Y-87516390D01*
X111056812Y-87516391D01*
X111056814Y-87516392D01*
X111184108Y-87550500D01*
X111184110Y-87550500D01*
X111315890Y-87550500D01*
X111315892Y-87550500D01*
X111443186Y-87516392D01*
X111443188Y-87516390D01*
X111443190Y-87516390D01*
X111557309Y-87450503D01*
X111557309Y-87450502D01*
X111557314Y-87450500D01*
X111650500Y-87357314D01*
X111666718Y-87329224D01*
X111716390Y-87243190D01*
X111716390Y-87243188D01*
X111716392Y-87243186D01*
X111734388Y-87176024D01*
X124457144Y-87176024D01*
X124457144Y-87307808D01*
X124473558Y-87369065D01*
X124491253Y-87435106D01*
X124557140Y-87549225D01*
X124557142Y-87549227D01*
X124557144Y-87549230D01*
X124650330Y-87642416D01*
X124650332Y-87642417D01*
X124650334Y-87642419D01*
X124764454Y-87708306D01*
X124764452Y-87708306D01*
X124764456Y-87708307D01*
X124764458Y-87708308D01*
X124891752Y-87742416D01*
X124891754Y-87742416D01*
X125023534Y-87742416D01*
X125023536Y-87742416D01*
X125150830Y-87708308D01*
X125150832Y-87708306D01*
X125150834Y-87708306D01*
X125264953Y-87642419D01*
X125264953Y-87642418D01*
X125264958Y-87642416D01*
X125358144Y-87549230D01*
X125370318Y-87528145D01*
X125415146Y-87450500D01*
X125424036Y-87435102D01*
X125435115Y-87393752D01*
X125468437Y-87342440D01*
X125525558Y-87320513D01*
X125556362Y-87323750D01*
X125576789Y-87329224D01*
X125576790Y-87329224D01*
X125708571Y-87329224D01*
X125708573Y-87329224D01*
X125835867Y-87295116D01*
X125835869Y-87295114D01*
X125835871Y-87295114D01*
X125949990Y-87229227D01*
X125949990Y-87229226D01*
X125949995Y-87229224D01*
X126043181Y-87136038D01*
X126043642Y-87135240D01*
X126109071Y-87021914D01*
X126109071Y-87021912D01*
X126109073Y-87021910D01*
X126116052Y-86995863D01*
X131386275Y-86995863D01*
X131386275Y-87127647D01*
X131399238Y-87176025D01*
X131420384Y-87254945D01*
X131486271Y-87369064D01*
X131486273Y-87369066D01*
X131486275Y-87369069D01*
X131579461Y-87462255D01*
X131579463Y-87462256D01*
X131579465Y-87462258D01*
X131693585Y-87528145D01*
X131693583Y-87528145D01*
X131693587Y-87528146D01*
X131693589Y-87528147D01*
X131820883Y-87562255D01*
X131820885Y-87562255D01*
X131952665Y-87562255D01*
X131952667Y-87562255D01*
X132079961Y-87528147D01*
X132079963Y-87528145D01*
X132079965Y-87528145D01*
X132194084Y-87462258D01*
X132194084Y-87462257D01*
X132194089Y-87462255D01*
X132247957Y-87408386D01*
X132302471Y-87380610D01*
X132362903Y-87390181D01*
X132387959Y-87408384D01*
X132441830Y-87462255D01*
X132441832Y-87462256D01*
X132441834Y-87462258D01*
X132555954Y-87528145D01*
X132555952Y-87528145D01*
X132555956Y-87528146D01*
X132555958Y-87528147D01*
X132683252Y-87562255D01*
X132683254Y-87562255D01*
X132815034Y-87562255D01*
X132815036Y-87562255D01*
X132942330Y-87528147D01*
X132942332Y-87528145D01*
X132942334Y-87528145D01*
X133056453Y-87462258D01*
X133056453Y-87462257D01*
X133056458Y-87462255D01*
X133110327Y-87408385D01*
X133164842Y-87380610D01*
X133225274Y-87390181D01*
X133250329Y-87408384D01*
X133304200Y-87462255D01*
X133304202Y-87462256D01*
X133304204Y-87462258D01*
X133418324Y-87528145D01*
X133418322Y-87528145D01*
X133418326Y-87528146D01*
X133418328Y-87528147D01*
X133545622Y-87562255D01*
X133545624Y-87562255D01*
X133677404Y-87562255D01*
X133677406Y-87562255D01*
X133804700Y-87528147D01*
X133804702Y-87528145D01*
X133804704Y-87528145D01*
X133918823Y-87462258D01*
X133918823Y-87462257D01*
X133918828Y-87462255D01*
X133972696Y-87408386D01*
X134027210Y-87380610D01*
X134087642Y-87390181D01*
X134112698Y-87408384D01*
X134166569Y-87462255D01*
X134166571Y-87462256D01*
X134166573Y-87462258D01*
X134280693Y-87528145D01*
X134280691Y-87528145D01*
X134280695Y-87528146D01*
X134280697Y-87528147D01*
X134407991Y-87562255D01*
X134407993Y-87562255D01*
X134539773Y-87562255D01*
X134539775Y-87562255D01*
X134644822Y-87534108D01*
X140199500Y-87534108D01*
X140199500Y-87665892D01*
X140229579Y-87778151D01*
X140233609Y-87793190D01*
X140299496Y-87907309D01*
X140299498Y-87907311D01*
X140299500Y-87907314D01*
X140392686Y-88000500D01*
X140392688Y-88000501D01*
X140392690Y-88000503D01*
X140506810Y-88066390D01*
X140506808Y-88066390D01*
X140506812Y-88066391D01*
X140506814Y-88066392D01*
X140634108Y-88100500D01*
X140634110Y-88100500D01*
X140765890Y-88100500D01*
X140765892Y-88100500D01*
X140893186Y-88066392D01*
X140893188Y-88066390D01*
X140893190Y-88066390D01*
X141007309Y-88000503D01*
X141007309Y-88000502D01*
X141007314Y-88000500D01*
X141100500Y-87907314D01*
X141144987Y-87830261D01*
X141166390Y-87793190D01*
X141166390Y-87793188D01*
X141166392Y-87793186D01*
X141200500Y-87665892D01*
X141200500Y-87576445D01*
X143332343Y-87576445D01*
X143332343Y-87704588D01*
X143357341Y-87830260D01*
X143357341Y-87830262D01*
X143406375Y-87948641D01*
X143441027Y-88000503D01*
X143477565Y-88055186D01*
X144345991Y-88923612D01*
X144452533Y-88994800D01*
X144570917Y-89043836D01*
X144696591Y-89068835D01*
X144696592Y-89068835D01*
X144824728Y-89068835D01*
X144824729Y-89068835D01*
X144950404Y-89043836D01*
X145068787Y-88994800D01*
X145068787Y-88994799D01*
X145068789Y-88994799D01*
X145175324Y-88923616D01*
X145175323Y-88923616D01*
X145175330Y-88923612D01*
X145265937Y-88833005D01*
X145337125Y-88726462D01*
X145386161Y-88608079D01*
X145411160Y-88482404D01*
X145411160Y-88354266D01*
X145386161Y-88228592D01*
X145337125Y-88110208D01*
X145265937Y-88003666D01*
X144397511Y-87135240D01*
X144386147Y-87127647D01*
X144290966Y-87064050D01*
X144172586Y-87015016D01*
X144046913Y-86990018D01*
X144046911Y-86990018D01*
X143918773Y-86990018D01*
X143918770Y-86990018D01*
X143793098Y-87015016D01*
X143793096Y-87015016D01*
X143674717Y-87064050D01*
X143568176Y-87135237D01*
X143477562Y-87225851D01*
X143406375Y-87332392D01*
X143357341Y-87450771D01*
X143357341Y-87450773D01*
X143332343Y-87576445D01*
X141200500Y-87576445D01*
X141200500Y-87534108D01*
X141166392Y-87406814D01*
X141166390Y-87406811D01*
X141166390Y-87406809D01*
X141100503Y-87292690D01*
X141100501Y-87292688D01*
X141100500Y-87292686D01*
X141007314Y-87199500D01*
X141007311Y-87199498D01*
X141007309Y-87199496D01*
X140893189Y-87133609D01*
X140893191Y-87133609D01*
X140827068Y-87115892D01*
X140765892Y-87099500D01*
X140634108Y-87099500D01*
X140572932Y-87115892D01*
X140506809Y-87133609D01*
X140392690Y-87199496D01*
X140299496Y-87292690D01*
X140233609Y-87406809D01*
X140226027Y-87435106D01*
X140199500Y-87534108D01*
X134644822Y-87534108D01*
X134667069Y-87528147D01*
X134667071Y-87528145D01*
X134667073Y-87528145D01*
X134781192Y-87462258D01*
X134781192Y-87462257D01*
X134781197Y-87462255D01*
X134874383Y-87369069D01*
X134897388Y-87329223D01*
X134940273Y-87254945D01*
X134940273Y-87254943D01*
X134940275Y-87254941D01*
X134974383Y-87127647D01*
X134974383Y-86995863D01*
X134940275Y-86868569D01*
X134940273Y-86868566D01*
X134940273Y-86868564D01*
X134874386Y-86754445D01*
X134874384Y-86754443D01*
X134874383Y-86754441D01*
X134781197Y-86661255D01*
X134781194Y-86661253D01*
X134781192Y-86661251D01*
X134667072Y-86595364D01*
X134667074Y-86595364D01*
X134617682Y-86582130D01*
X134539775Y-86561255D01*
X134407991Y-86561255D01*
X134330083Y-86582130D01*
X134280692Y-86595364D01*
X134166573Y-86661251D01*
X134166568Y-86661255D01*
X134112701Y-86715122D01*
X134058184Y-86742899D01*
X133997752Y-86733327D01*
X133972697Y-86715124D01*
X133918828Y-86661255D01*
X133918825Y-86661253D01*
X133918823Y-86661251D01*
X133804703Y-86595364D01*
X133804705Y-86595364D01*
X133755313Y-86582130D01*
X133677406Y-86561255D01*
X133545622Y-86561255D01*
X133467714Y-86582130D01*
X133418323Y-86595364D01*
X133304204Y-86661251D01*
X133304203Y-86661252D01*
X133304200Y-86661254D01*
X133304200Y-86661255D01*
X133250330Y-86715124D01*
X133195816Y-86742900D01*
X133135384Y-86733329D01*
X133110328Y-86715125D01*
X133056458Y-86661255D01*
X133056455Y-86661253D01*
X133056453Y-86661251D01*
X132942333Y-86595364D01*
X132942335Y-86595364D01*
X132892943Y-86582130D01*
X132815036Y-86561255D01*
X132683252Y-86561255D01*
X132605344Y-86582130D01*
X132555953Y-86595364D01*
X132441834Y-86661251D01*
X132441829Y-86661255D01*
X132387962Y-86715122D01*
X132333445Y-86742899D01*
X132273013Y-86733327D01*
X132247958Y-86715124D01*
X132194089Y-86661255D01*
X132194086Y-86661253D01*
X132194084Y-86661251D01*
X132079964Y-86595364D01*
X132079966Y-86595364D01*
X132030574Y-86582130D01*
X131952667Y-86561255D01*
X131820883Y-86561255D01*
X131742975Y-86582130D01*
X131693584Y-86595364D01*
X131579465Y-86661251D01*
X131486271Y-86754445D01*
X131420384Y-86868564D01*
X131420383Y-86868569D01*
X131386275Y-86995863D01*
X126116052Y-86995863D01*
X126143181Y-86894616D01*
X126143181Y-86762832D01*
X126109073Y-86635538D01*
X126109071Y-86635534D01*
X126109071Y-86635533D01*
X126043184Y-86521414D01*
X126043182Y-86521412D01*
X126043181Y-86521410D01*
X125949995Y-86428224D01*
X125949992Y-86428222D01*
X125949990Y-86428220D01*
X125835870Y-86362333D01*
X125835872Y-86362333D01*
X125786480Y-86349099D01*
X125708573Y-86328224D01*
X125576789Y-86328224D01*
X125498881Y-86349099D01*
X125449490Y-86362333D01*
X125335371Y-86428220D01*
X125242177Y-86521414D01*
X125176290Y-86635534D01*
X125176288Y-86635538D01*
X125165209Y-86676886D01*
X125131885Y-86728200D01*
X125074763Y-86750126D01*
X125043963Y-86746889D01*
X125023536Y-86741416D01*
X124891752Y-86741416D01*
X124843142Y-86754441D01*
X124764453Y-86775525D01*
X124650334Y-86841412D01*
X124557140Y-86934606D01*
X124491253Y-87048725D01*
X124477648Y-87099500D01*
X124457144Y-87176024D01*
X111734388Y-87176024D01*
X111750500Y-87115892D01*
X111750500Y-86984108D01*
X111716392Y-86856814D01*
X111716390Y-86856811D01*
X111716390Y-86856809D01*
X111650503Y-86742690D01*
X111650501Y-86742688D01*
X111650500Y-86742686D01*
X111557314Y-86649500D01*
X111557311Y-86649498D01*
X111557309Y-86649496D01*
X111443189Y-86583609D01*
X111443191Y-86583609D01*
X111393799Y-86570375D01*
X111315892Y-86549500D01*
X111184108Y-86549500D01*
X111106200Y-86570375D01*
X111056809Y-86583609D01*
X110942690Y-86649496D01*
X110849496Y-86742690D01*
X110783609Y-86856809D01*
X110773479Y-86894616D01*
X110749500Y-86984108D01*
X100200500Y-86984108D01*
X100200500Y-83209108D01*
X139049500Y-83209108D01*
X139049500Y-83340892D01*
X139079579Y-83453151D01*
X139083609Y-83468190D01*
X139149496Y-83582309D01*
X139149498Y-83582311D01*
X139149500Y-83582314D01*
X139242686Y-83675500D01*
X139242688Y-83675501D01*
X139242690Y-83675503D01*
X139356810Y-83741390D01*
X139356808Y-83741390D01*
X139356812Y-83741391D01*
X139356814Y-83741392D01*
X139484108Y-83775500D01*
X139484110Y-83775500D01*
X139615890Y-83775500D01*
X139615892Y-83775500D01*
X139743186Y-83741392D01*
X139743188Y-83741390D01*
X139743190Y-83741390D01*
X139857309Y-83675503D01*
X139857309Y-83675502D01*
X139857314Y-83675500D01*
X139950500Y-83582314D01*
X140016392Y-83468186D01*
X140050500Y-83340892D01*
X140050500Y-83209108D01*
X140016392Y-83081814D01*
X140016390Y-83081811D01*
X140016390Y-83081809D01*
X139950503Y-82967690D01*
X139950501Y-82967688D01*
X139950500Y-82967686D01*
X139857314Y-82874500D01*
X139857311Y-82874498D01*
X139857309Y-82874496D01*
X139743189Y-82808609D01*
X139743191Y-82808609D01*
X139693799Y-82795375D01*
X139615892Y-82774500D01*
X139484108Y-82774500D01*
X139406200Y-82795375D01*
X139356809Y-82808609D01*
X139242690Y-82874496D01*
X139149496Y-82967690D01*
X139083609Y-83081809D01*
X139083608Y-83081814D01*
X139049500Y-83209108D01*
X100200500Y-83209108D01*
X100200500Y-81659108D01*
X130049500Y-81659108D01*
X130049500Y-81790892D01*
X130076294Y-81890890D01*
X130083609Y-81918190D01*
X130149496Y-82032309D01*
X130149498Y-82032311D01*
X130149500Y-82032314D01*
X130242686Y-82125500D01*
X130242688Y-82125501D01*
X130242690Y-82125503D01*
X130356810Y-82191390D01*
X130356808Y-82191390D01*
X130356812Y-82191391D01*
X130356814Y-82191392D01*
X130484108Y-82225500D01*
X130484110Y-82225500D01*
X130615890Y-82225500D01*
X130615892Y-82225500D01*
X130743186Y-82191392D01*
X130743188Y-82191390D01*
X130743190Y-82191390D01*
X130857309Y-82125503D01*
X130857309Y-82125502D01*
X130857314Y-82125500D01*
X130939998Y-82042815D01*
X130994513Y-82015040D01*
X131054945Y-82024611D01*
X131080000Y-82042814D01*
X131162686Y-82125500D01*
X131162688Y-82125501D01*
X131162690Y-82125503D01*
X131276810Y-82191390D01*
X131276808Y-82191390D01*
X131276812Y-82191391D01*
X131276814Y-82191392D01*
X131404108Y-82225500D01*
X131404110Y-82225500D01*
X131535890Y-82225500D01*
X131535892Y-82225500D01*
X131663186Y-82191392D01*
X131663188Y-82191390D01*
X131663190Y-82191390D01*
X131777309Y-82125503D01*
X131777309Y-82125502D01*
X131777314Y-82125500D01*
X131870500Y-82032314D01*
X131936392Y-81918186D01*
X131970500Y-81790892D01*
X131970500Y-81759108D01*
X138999500Y-81759108D01*
X138999500Y-81890892D01*
X139009780Y-81929257D01*
X139033609Y-82018190D01*
X139099496Y-82132309D01*
X139099498Y-82132311D01*
X139099500Y-82132314D01*
X139192686Y-82225500D01*
X139192688Y-82225501D01*
X139192690Y-82225503D01*
X139306810Y-82291390D01*
X139306808Y-82291390D01*
X139306812Y-82291391D01*
X139306814Y-82291392D01*
X139434108Y-82325500D01*
X139434110Y-82325500D01*
X139565890Y-82325500D01*
X139565892Y-82325500D01*
X139693186Y-82291392D01*
X139693188Y-82291390D01*
X139693190Y-82291390D01*
X139807309Y-82225503D01*
X139807309Y-82225502D01*
X139807314Y-82225500D01*
X139900500Y-82132314D01*
X139904434Y-82125500D01*
X139966390Y-82018190D01*
X139966390Y-82018188D01*
X139966392Y-82018186D01*
X140000500Y-81890892D01*
X140000500Y-81759108D01*
X139966392Y-81631814D01*
X139966390Y-81631811D01*
X139966390Y-81631809D01*
X139900503Y-81517690D01*
X139900501Y-81517688D01*
X139900500Y-81517686D01*
X139807314Y-81424500D01*
X139807311Y-81424498D01*
X139807309Y-81424496D01*
X139693189Y-81358609D01*
X139693191Y-81358609D01*
X139643799Y-81345375D01*
X139565892Y-81324500D01*
X139434108Y-81324500D01*
X139356200Y-81345375D01*
X139306809Y-81358609D01*
X139192690Y-81424496D01*
X139099496Y-81517690D01*
X139033609Y-81631809D01*
X139026294Y-81659109D01*
X138999500Y-81759108D01*
X131970500Y-81759108D01*
X131970500Y-81659108D01*
X131936392Y-81531814D01*
X131936390Y-81531811D01*
X131936390Y-81531809D01*
X131870503Y-81417690D01*
X131870501Y-81417688D01*
X131870500Y-81417686D01*
X131777314Y-81324500D01*
X131777311Y-81324498D01*
X131777309Y-81324496D01*
X131663189Y-81258609D01*
X131663191Y-81258609D01*
X131613799Y-81245375D01*
X131535892Y-81224500D01*
X131404108Y-81224500D01*
X131326200Y-81245375D01*
X131276809Y-81258609D01*
X131162690Y-81324496D01*
X131162689Y-81324497D01*
X131162686Y-81324499D01*
X131162686Y-81324500D01*
X131080001Y-81407184D01*
X131025487Y-81434960D01*
X130965055Y-81425389D01*
X130939999Y-81407185D01*
X130857314Y-81324500D01*
X130857311Y-81324498D01*
X130857309Y-81324496D01*
X130743189Y-81258609D01*
X130743191Y-81258609D01*
X130693799Y-81245375D01*
X130615892Y-81224500D01*
X130484108Y-81224500D01*
X130406200Y-81245375D01*
X130356809Y-81258609D01*
X130242690Y-81324496D01*
X130149496Y-81417690D01*
X130083609Y-81531809D01*
X130083608Y-81531814D01*
X130049500Y-81659108D01*
X100200500Y-81659108D01*
X100200500Y-80571608D01*
X124237000Y-80571608D01*
X124237000Y-80703392D01*
X124267079Y-80815651D01*
X124271109Y-80830690D01*
X124336996Y-80944809D01*
X124336998Y-80944811D01*
X124337000Y-80944814D01*
X124430186Y-81038000D01*
X124430188Y-81038001D01*
X124430190Y-81038003D01*
X124544310Y-81103890D01*
X124544308Y-81103890D01*
X124544312Y-81103891D01*
X124544314Y-81103892D01*
X124671608Y-81138000D01*
X124671610Y-81138000D01*
X124803390Y-81138000D01*
X124803392Y-81138000D01*
X124930686Y-81103892D01*
X124930688Y-81103890D01*
X124930690Y-81103890D01*
X125044809Y-81038003D01*
X125044809Y-81038002D01*
X125044814Y-81038000D01*
X125138000Y-80944814D01*
X125203892Y-80830686D01*
X125238000Y-80703392D01*
X125238000Y-80571608D01*
X125203892Y-80444314D01*
X125203890Y-80444311D01*
X125203890Y-80444309D01*
X125138003Y-80330190D01*
X125138001Y-80330188D01*
X125138000Y-80330186D01*
X125044814Y-80237000D01*
X125044811Y-80236998D01*
X125044809Y-80236996D01*
X124930689Y-80171109D01*
X124930691Y-80171109D01*
X124881299Y-80157875D01*
X124803392Y-80137000D01*
X124671608Y-80137000D01*
X124593700Y-80157875D01*
X124544309Y-80171109D01*
X124430190Y-80236996D01*
X124336996Y-80330190D01*
X124271109Y-80444309D01*
X124271108Y-80444314D01*
X124237000Y-80571608D01*
X100200500Y-80571608D01*
X100200500Y-79234108D01*
X110774500Y-79234108D01*
X110774500Y-79365892D01*
X110804579Y-79478151D01*
X110808609Y-79493190D01*
X110874496Y-79607309D01*
X110874498Y-79607311D01*
X110874500Y-79607314D01*
X110967686Y-79700500D01*
X110967688Y-79700501D01*
X110967690Y-79700503D01*
X111081810Y-79766390D01*
X111081808Y-79766390D01*
X111081812Y-79766391D01*
X111081814Y-79766392D01*
X111209108Y-79800500D01*
X111209110Y-79800500D01*
X111340890Y-79800500D01*
X111340892Y-79800500D01*
X111468186Y-79766392D01*
X111468188Y-79766390D01*
X111468190Y-79766390D01*
X111582309Y-79700503D01*
X111582309Y-79700502D01*
X111582314Y-79700500D01*
X111675500Y-79607314D01*
X111741392Y-79493186D01*
X111775500Y-79365892D01*
X111775500Y-79234108D01*
X111741392Y-79106814D01*
X111741390Y-79106811D01*
X111741390Y-79106809D01*
X111675503Y-78992690D01*
X111675501Y-78992688D01*
X111675500Y-78992686D01*
X111582314Y-78899500D01*
X111582311Y-78899498D01*
X111582309Y-78899496D01*
X111468189Y-78833609D01*
X111468191Y-78833609D01*
X111418799Y-78820375D01*
X111340892Y-78799500D01*
X111209108Y-78799500D01*
X111131200Y-78820375D01*
X111081809Y-78833609D01*
X110967690Y-78899496D01*
X110874496Y-78992690D01*
X110808609Y-79106809D01*
X110808608Y-79106814D01*
X110774500Y-79234108D01*
X100200500Y-79234108D01*
X100200500Y-78634108D01*
X132099497Y-78634108D01*
X132099497Y-78765892D01*
X132117641Y-78833608D01*
X132133606Y-78893190D01*
X132199493Y-79007309D01*
X132199495Y-79007311D01*
X132199497Y-79007314D01*
X132292683Y-79100500D01*
X132292685Y-79100501D01*
X132292687Y-79100503D01*
X132406807Y-79166390D01*
X132406805Y-79166390D01*
X132406809Y-79166391D01*
X132406811Y-79166392D01*
X132534105Y-79200500D01*
X132534107Y-79200500D01*
X132665887Y-79200500D01*
X132665889Y-79200500D01*
X132793183Y-79166392D01*
X132793185Y-79166390D01*
X132793187Y-79166390D01*
X132833006Y-79143399D01*
X132907311Y-79100500D01*
X132929993Y-79077817D01*
X132984507Y-79050038D01*
X133044940Y-79059608D01*
X133069998Y-79077812D01*
X133092686Y-79100500D01*
X133092688Y-79100501D01*
X133092690Y-79100503D01*
X133206810Y-79166390D01*
X133206808Y-79166390D01*
X133206812Y-79166391D01*
X133206814Y-79166392D01*
X133334108Y-79200500D01*
X133334110Y-79200500D01*
X133465890Y-79200500D01*
X133465892Y-79200500D01*
X133593186Y-79166392D01*
X133593188Y-79166390D01*
X133593190Y-79166390D01*
X133707309Y-79100503D01*
X133707309Y-79100502D01*
X133707314Y-79100500D01*
X133800500Y-79007314D01*
X133866392Y-78893186D01*
X133900500Y-78765892D01*
X133900500Y-78634108D01*
X133866392Y-78506814D01*
X133866390Y-78506811D01*
X133866390Y-78506809D01*
X133800503Y-78392690D01*
X133800501Y-78392688D01*
X133800500Y-78392686D01*
X133707314Y-78299500D01*
X133707311Y-78299498D01*
X133707309Y-78299496D01*
X133593189Y-78233609D01*
X133593191Y-78233609D01*
X133543799Y-78220375D01*
X133465892Y-78199500D01*
X133334108Y-78199500D01*
X133256200Y-78220375D01*
X133206809Y-78233609D01*
X133092686Y-78299499D01*
X133070000Y-78322185D01*
X133015483Y-78349961D01*
X132955051Y-78340389D01*
X132929997Y-78322186D01*
X132907311Y-78299500D01*
X132907308Y-78299498D01*
X132907306Y-78299496D01*
X132793186Y-78233609D01*
X132793188Y-78233609D01*
X132743796Y-78220375D01*
X132665889Y-78199500D01*
X132534105Y-78199500D01*
X132456197Y-78220375D01*
X132406806Y-78233609D01*
X132292687Y-78299496D01*
X132199493Y-78392690D01*
X132133606Y-78506809D01*
X132133605Y-78506814D01*
X132099497Y-78634108D01*
X100200500Y-78634108D01*
X100200500Y-77634108D01*
X126249500Y-77634108D01*
X126249500Y-77765892D01*
X126279579Y-77878151D01*
X126283609Y-77893190D01*
X126349496Y-78007309D01*
X126349498Y-78007311D01*
X126349500Y-78007314D01*
X126442686Y-78100500D01*
X126442688Y-78100501D01*
X126442690Y-78100503D01*
X126556810Y-78166390D01*
X126556808Y-78166390D01*
X126556812Y-78166391D01*
X126556814Y-78166392D01*
X126684108Y-78200500D01*
X126684110Y-78200500D01*
X126815890Y-78200500D01*
X126815892Y-78200500D01*
X126943186Y-78166392D01*
X126943188Y-78166390D01*
X126943190Y-78166390D01*
X127057309Y-78100503D01*
X127057309Y-78100502D01*
X127057314Y-78100500D01*
X127150500Y-78007314D01*
X127216392Y-77893186D01*
X127250500Y-77765892D01*
X127250500Y-77634108D01*
X127216392Y-77506814D01*
X127216390Y-77506811D01*
X127216390Y-77506809D01*
X127150503Y-77392690D01*
X127150501Y-77392688D01*
X127150500Y-77392686D01*
X127057314Y-77299500D01*
X127057311Y-77299498D01*
X127057309Y-77299496D01*
X126943189Y-77233609D01*
X126943191Y-77233609D01*
X126893799Y-77220375D01*
X126815892Y-77199500D01*
X126684108Y-77199500D01*
X126606200Y-77220375D01*
X126556809Y-77233609D01*
X126442690Y-77299496D01*
X126349496Y-77392690D01*
X126283609Y-77506809D01*
X126274209Y-77541891D01*
X126249500Y-77634108D01*
X100200500Y-77634108D01*
X100200500Y-77059108D01*
X113424500Y-77059108D01*
X113424500Y-77190892D01*
X113435946Y-77233608D01*
X113458609Y-77318190D01*
X113524496Y-77432309D01*
X113524498Y-77432311D01*
X113524500Y-77432314D01*
X113617686Y-77525500D01*
X113617688Y-77525501D01*
X113617690Y-77525503D01*
X113731810Y-77591390D01*
X113731808Y-77591390D01*
X113731812Y-77591391D01*
X113731814Y-77591392D01*
X113859108Y-77625500D01*
X113859110Y-77625500D01*
X113990890Y-77625500D01*
X113990892Y-77625500D01*
X114118186Y-77591392D01*
X114118188Y-77591390D01*
X114118190Y-77591390D01*
X114203925Y-77541891D01*
X114203933Y-77541885D01*
X114232314Y-77525500D01*
X114325500Y-77432314D01*
X114391392Y-77318186D01*
X114425500Y-77190892D01*
X114425500Y-77059108D01*
X114391392Y-76931814D01*
X114391390Y-76931811D01*
X114391390Y-76931809D01*
X114325503Y-76817690D01*
X114325501Y-76817688D01*
X114325500Y-76817686D01*
X114232314Y-76724500D01*
X114232311Y-76724498D01*
X114232309Y-76724496D01*
X114118189Y-76658609D01*
X114118191Y-76658609D01*
X114068799Y-76645375D01*
X113990892Y-76624500D01*
X113859108Y-76624500D01*
X113781200Y-76645375D01*
X113731809Y-76658609D01*
X113617690Y-76724496D01*
X113524496Y-76817690D01*
X113458609Y-76931809D01*
X113458608Y-76931814D01*
X113424500Y-77059108D01*
X100200500Y-77059108D01*
X100200500Y-75026800D01*
X109624500Y-75026800D01*
X109624500Y-75158584D01*
X109648860Y-75249496D01*
X109658609Y-75285882D01*
X109724496Y-75400001D01*
X109724498Y-75400003D01*
X109724500Y-75400006D01*
X109817686Y-75493192D01*
X109817688Y-75493193D01*
X109820972Y-75496477D01*
X109848749Y-75550994D01*
X109839178Y-75611426D01*
X109820972Y-75636485D01*
X109817688Y-75639768D01*
X109817686Y-75639770D01*
X109741566Y-75715890D01*
X109724497Y-75732959D01*
X109724496Y-75732960D01*
X109658609Y-75847079D01*
X109658608Y-75847084D01*
X109624500Y-75974378D01*
X109624500Y-76106162D01*
X109654579Y-76218421D01*
X109658609Y-76233460D01*
X109724496Y-76347579D01*
X109724498Y-76347581D01*
X109724500Y-76347584D01*
X109817686Y-76440770D01*
X109817688Y-76440771D01*
X109817690Y-76440773D01*
X109931810Y-76506660D01*
X109931808Y-76506660D01*
X109931812Y-76506661D01*
X109931814Y-76506662D01*
X110059108Y-76540770D01*
X110059110Y-76540770D01*
X110190890Y-76540770D01*
X110190892Y-76540770D01*
X110318186Y-76506662D01*
X110318188Y-76506660D01*
X110318190Y-76506660D01*
X110432309Y-76440773D01*
X110432309Y-76440772D01*
X110432314Y-76440770D01*
X110525500Y-76347584D01*
X110591392Y-76233456D01*
X110625500Y-76106162D01*
X110625500Y-75974378D01*
X110591392Y-75847084D01*
X110591390Y-75847081D01*
X110591390Y-75847079D01*
X110525503Y-75732960D01*
X110525501Y-75732958D01*
X110525500Y-75732956D01*
X110432314Y-75639770D01*
X110432311Y-75639768D01*
X110429028Y-75636485D01*
X110402341Y-75584108D01*
X113449500Y-75584108D01*
X113449500Y-75715892D01*
X113479579Y-75828151D01*
X113483609Y-75843190D01*
X113549496Y-75957309D01*
X113549498Y-75957311D01*
X113549500Y-75957314D01*
X113642686Y-76050500D01*
X113642688Y-76050501D01*
X113642690Y-76050503D01*
X113756810Y-76116390D01*
X113756808Y-76116390D01*
X113756812Y-76116391D01*
X113756814Y-76116392D01*
X113884108Y-76150500D01*
X113884110Y-76150500D01*
X114015890Y-76150500D01*
X114015892Y-76150500D01*
X114143186Y-76116392D01*
X114143188Y-76116390D01*
X114143190Y-76116390D01*
X114257309Y-76050503D01*
X114257309Y-76050502D01*
X114257314Y-76050500D01*
X114350500Y-75957314D01*
X114350503Y-75957309D01*
X114416390Y-75843190D01*
X114416390Y-75843188D01*
X114416392Y-75843186D01*
X114450500Y-75715892D01*
X114450500Y-75584108D01*
X114416392Y-75456814D01*
X114416390Y-75456811D01*
X114416390Y-75456809D01*
X114350503Y-75342690D01*
X114350501Y-75342688D01*
X114350500Y-75342686D01*
X114257314Y-75249500D01*
X114257311Y-75249498D01*
X114257309Y-75249496D01*
X114143189Y-75183609D01*
X114143191Y-75183609D01*
X114093799Y-75170375D01*
X114015892Y-75149500D01*
X113884108Y-75149500D01*
X113806200Y-75170375D01*
X113756809Y-75183609D01*
X113642690Y-75249496D01*
X113549496Y-75342690D01*
X113483609Y-75456809D01*
X113472980Y-75496477D01*
X113449500Y-75584108D01*
X110402341Y-75584108D01*
X110401251Y-75581968D01*
X110410822Y-75521536D01*
X110429028Y-75496477D01*
X110432311Y-75493193D01*
X110432314Y-75493192D01*
X110525500Y-75400006D01*
X110525503Y-75400001D01*
X110591390Y-75285882D01*
X110591390Y-75285880D01*
X110591392Y-75285878D01*
X110625500Y-75158584D01*
X110625500Y-75026800D01*
X110591392Y-74899506D01*
X110591390Y-74899503D01*
X110591390Y-74899501D01*
X110525503Y-74785382D01*
X110525501Y-74785380D01*
X110525500Y-74785378D01*
X110432314Y-74692192D01*
X110432311Y-74692190D01*
X110432309Y-74692188D01*
X110318189Y-74626301D01*
X110318191Y-74626301D01*
X110268799Y-74613067D01*
X110190892Y-74592192D01*
X110059108Y-74592192D01*
X109981200Y-74613067D01*
X109931809Y-74626301D01*
X109817690Y-74692188D01*
X109724496Y-74785382D01*
X109658609Y-74899501D01*
X109658608Y-74899506D01*
X109624500Y-75026800D01*
X100200500Y-75026800D01*
X100200500Y-74084108D01*
X113424500Y-74084108D01*
X113424500Y-74215892D01*
X113451294Y-74315890D01*
X113458609Y-74343190D01*
X113524496Y-74457309D01*
X113524498Y-74457311D01*
X113524500Y-74457314D01*
X113617686Y-74550500D01*
X113617688Y-74550501D01*
X113617690Y-74550503D01*
X113731810Y-74616390D01*
X113731808Y-74616390D01*
X113731812Y-74616391D01*
X113731814Y-74616392D01*
X113859108Y-74650500D01*
X113859110Y-74650500D01*
X113990890Y-74650500D01*
X113990892Y-74650500D01*
X114118186Y-74616392D01*
X114118188Y-74616390D01*
X114118190Y-74616390D01*
X114232309Y-74550503D01*
X114232309Y-74550502D01*
X114232314Y-74550500D01*
X114325500Y-74457314D01*
X114391392Y-74343186D01*
X114425500Y-74215892D01*
X114425500Y-74084108D01*
X114391392Y-73956814D01*
X114391390Y-73956811D01*
X114391390Y-73956809D01*
X114325503Y-73842690D01*
X114325501Y-73842688D01*
X114325500Y-73842686D01*
X114232314Y-73749500D01*
X114232311Y-73749498D01*
X114232309Y-73749496D01*
X114118189Y-73683609D01*
X114118191Y-73683609D01*
X114068799Y-73670375D01*
X113990892Y-73649500D01*
X113859108Y-73649500D01*
X113781200Y-73670375D01*
X113731809Y-73683609D01*
X113617690Y-73749496D01*
X113524496Y-73842690D01*
X113458609Y-73956809D01*
X113458608Y-73956814D01*
X113424500Y-74084108D01*
X100200500Y-74084108D01*
X100200500Y-73234108D01*
X127299500Y-73234108D01*
X127299500Y-73365892D01*
X127329579Y-73478151D01*
X127333609Y-73493190D01*
X127399496Y-73607309D01*
X127399498Y-73607311D01*
X127399500Y-73607314D01*
X127492686Y-73700500D01*
X127492688Y-73700501D01*
X127492690Y-73700503D01*
X127606810Y-73766390D01*
X127606808Y-73766390D01*
X127606812Y-73766391D01*
X127606814Y-73766392D01*
X127734108Y-73800500D01*
X127734110Y-73800500D01*
X127865890Y-73800500D01*
X127865892Y-73800500D01*
X127954054Y-73776877D01*
X128015152Y-73780079D01*
X128062702Y-73818584D01*
X128078538Y-73877685D01*
X128056612Y-73934806D01*
X128049685Y-73942500D01*
X128049503Y-73942681D01*
X128049496Y-73942690D01*
X127983609Y-74056809D01*
X127976294Y-74084109D01*
X127949500Y-74184108D01*
X127949500Y-74315892D01*
X127979579Y-74428151D01*
X127983609Y-74443190D01*
X128049496Y-74557309D01*
X128049498Y-74557311D01*
X128049500Y-74557314D01*
X128142686Y-74650500D01*
X128142688Y-74650501D01*
X128142690Y-74650503D01*
X128256810Y-74716390D01*
X128256808Y-74716390D01*
X128256812Y-74716391D01*
X128256814Y-74716392D01*
X128384108Y-74750500D01*
X128384110Y-74750500D01*
X128515890Y-74750500D01*
X128515892Y-74750500D01*
X128643186Y-74716392D01*
X128643188Y-74716390D01*
X128643190Y-74716390D01*
X128757309Y-74650503D01*
X128757309Y-74650502D01*
X128757314Y-74650500D01*
X128850500Y-74557314D01*
X128916392Y-74443186D01*
X128950500Y-74315892D01*
X128950500Y-74184108D01*
X128916392Y-74056814D01*
X128916390Y-74056811D01*
X128916390Y-74056809D01*
X128850503Y-73942690D01*
X128850501Y-73942688D01*
X128850500Y-73942686D01*
X128757314Y-73849500D01*
X128757311Y-73849498D01*
X128757309Y-73849496D01*
X128643189Y-73783609D01*
X128643191Y-73783609D01*
X128578927Y-73766390D01*
X128515892Y-73749500D01*
X128384108Y-73749500D01*
X128350929Y-73758390D01*
X128295947Y-73773122D01*
X128234846Y-73769919D01*
X128187296Y-73731414D01*
X128171461Y-73672313D01*
X128193388Y-73615192D01*
X128200319Y-73607494D01*
X128200500Y-73607314D01*
X128266392Y-73493186D01*
X128300500Y-73365892D01*
X128300500Y-73234108D01*
X128266392Y-73106814D01*
X128266390Y-73106811D01*
X128266390Y-73106809D01*
X128200503Y-72992690D01*
X128200501Y-72992688D01*
X128200500Y-72992686D01*
X128107314Y-72899500D01*
X128107311Y-72899498D01*
X128107309Y-72899496D01*
X127993189Y-72833609D01*
X127993191Y-72833609D01*
X127943799Y-72820375D01*
X127865892Y-72799500D01*
X127734108Y-72799500D01*
X127656200Y-72820375D01*
X127606809Y-72833609D01*
X127492690Y-72899496D01*
X127399496Y-72992690D01*
X127333609Y-73106809D01*
X127333608Y-73106814D01*
X127299500Y-73234108D01*
X100200500Y-73234108D01*
X100200500Y-71534108D01*
X120124500Y-71534108D01*
X120124500Y-71665892D01*
X120154579Y-71778151D01*
X120158609Y-71793190D01*
X120224496Y-71907309D01*
X120224498Y-71907311D01*
X120224500Y-71907314D01*
X120317686Y-72000500D01*
X120317688Y-72000501D01*
X120317690Y-72000503D01*
X120431810Y-72066390D01*
X120431808Y-72066390D01*
X120431812Y-72066391D01*
X120431814Y-72066392D01*
X120559108Y-72100500D01*
X120559110Y-72100500D01*
X120690890Y-72100500D01*
X120690892Y-72100500D01*
X120818186Y-72066392D01*
X120818188Y-72066390D01*
X120818190Y-72066390D01*
X120932309Y-72000503D01*
X120932309Y-72000502D01*
X120932314Y-72000500D01*
X121025500Y-71907314D01*
X121091392Y-71793186D01*
X121125500Y-71665892D01*
X121125500Y-71534108D01*
X121091392Y-71406814D01*
X121091390Y-71406811D01*
X121091390Y-71406809D01*
X121025503Y-71292690D01*
X121025501Y-71292688D01*
X121025500Y-71292686D01*
X120932314Y-71199500D01*
X120932311Y-71199498D01*
X120932309Y-71199496D01*
X120818189Y-71133609D01*
X120818191Y-71133609D01*
X120768799Y-71120375D01*
X120690892Y-71099500D01*
X120559108Y-71099500D01*
X120481200Y-71120375D01*
X120431809Y-71133609D01*
X120317690Y-71199496D01*
X120224496Y-71292690D01*
X120158609Y-71406809D01*
X120158608Y-71406814D01*
X120124500Y-71534108D01*
X100200500Y-71534108D01*
X100200500Y-69984108D01*
X129124500Y-69984108D01*
X129124500Y-70115892D01*
X129131333Y-70141392D01*
X129158609Y-70243190D01*
X129224496Y-70357309D01*
X129224498Y-70357311D01*
X129224500Y-70357314D01*
X129317686Y-70450500D01*
X129317688Y-70450501D01*
X129317690Y-70450503D01*
X129431810Y-70516390D01*
X129431808Y-70516390D01*
X129431812Y-70516391D01*
X129431814Y-70516392D01*
X129559108Y-70550500D01*
X129559110Y-70550500D01*
X129690890Y-70550500D01*
X129690892Y-70550500D01*
X129818186Y-70516392D01*
X129818188Y-70516390D01*
X129818190Y-70516390D01*
X129932309Y-70450503D01*
X129932309Y-70450502D01*
X129932314Y-70450500D01*
X130025500Y-70357314D01*
X130029434Y-70350500D01*
X130091390Y-70243190D01*
X130091390Y-70243188D01*
X130091392Y-70243186D01*
X130125500Y-70115892D01*
X130125500Y-69984108D01*
X130091392Y-69856814D01*
X130091390Y-69856811D01*
X130091390Y-69856809D01*
X130025503Y-69742690D01*
X130025501Y-69742688D01*
X130025500Y-69742686D01*
X129932314Y-69649500D01*
X129932311Y-69649498D01*
X129932309Y-69649496D01*
X129862355Y-69609108D01*
X134649500Y-69609108D01*
X134649500Y-69740892D01*
X134649981Y-69742686D01*
X134683609Y-69868190D01*
X134749496Y-69982309D01*
X134749498Y-69982311D01*
X134749500Y-69982314D01*
X134842686Y-70075500D01*
X134842688Y-70075501D01*
X134842690Y-70075503D01*
X134956810Y-70141390D01*
X134956808Y-70141390D01*
X134956812Y-70141391D01*
X134956814Y-70141392D01*
X135084108Y-70175500D01*
X135084110Y-70175500D01*
X135215890Y-70175500D01*
X135215892Y-70175500D01*
X135343186Y-70141392D01*
X135343188Y-70141390D01*
X135343190Y-70141390D01*
X135457309Y-70075503D01*
X135457309Y-70075502D01*
X135457314Y-70075500D01*
X135533019Y-69999795D01*
X139183813Y-69999795D01*
X139183813Y-70131579D01*
X139213718Y-70243186D01*
X139217922Y-70258877D01*
X139283809Y-70372996D01*
X139283811Y-70372998D01*
X139283813Y-70373001D01*
X139376999Y-70466187D01*
X139377001Y-70466188D01*
X139377003Y-70466190D01*
X139491123Y-70532077D01*
X139491121Y-70532077D01*
X139491125Y-70532078D01*
X139491127Y-70532079D01*
X139618421Y-70566187D01*
X139618423Y-70566187D01*
X139750203Y-70566187D01*
X139750205Y-70566187D01*
X139877499Y-70532079D01*
X139877501Y-70532077D01*
X139877503Y-70532077D01*
X139991622Y-70466190D01*
X139991622Y-70466189D01*
X139991627Y-70466187D01*
X140084813Y-70373001D01*
X140097804Y-70350500D01*
X140150703Y-70258877D01*
X140150703Y-70258875D01*
X140150705Y-70258873D01*
X140184813Y-70131579D01*
X140184813Y-70099500D01*
X140203720Y-70041309D01*
X140253220Y-70005345D01*
X140283813Y-70000500D01*
X140315890Y-70000500D01*
X140315892Y-70000500D01*
X140443186Y-69966392D01*
X140443188Y-69966390D01*
X140443190Y-69966390D01*
X140557309Y-69900503D01*
X140557309Y-69900502D01*
X140557314Y-69900500D01*
X140650500Y-69807314D01*
X140650503Y-69807309D01*
X140663898Y-69784108D01*
X147424500Y-69784108D01*
X147424500Y-69915892D01*
X147448469Y-70005345D01*
X147458609Y-70043190D01*
X147524496Y-70157309D01*
X147524498Y-70157311D01*
X147524500Y-70157314D01*
X147617686Y-70250500D01*
X147617688Y-70250501D01*
X147617690Y-70250503D01*
X147731810Y-70316390D01*
X147731808Y-70316390D01*
X147731812Y-70316391D01*
X147731814Y-70316392D01*
X147859108Y-70350500D01*
X147859110Y-70350500D01*
X147990890Y-70350500D01*
X147990892Y-70350500D01*
X148118186Y-70316392D01*
X148118188Y-70316390D01*
X148118190Y-70316390D01*
X148232309Y-70250503D01*
X148232309Y-70250502D01*
X148232314Y-70250500D01*
X148325500Y-70157314D01*
X148372734Y-70075503D01*
X148391390Y-70043190D01*
X148391390Y-70043188D01*
X148391392Y-70043186D01*
X148425500Y-69915892D01*
X148425500Y-69784108D01*
X148391392Y-69656814D01*
X148391390Y-69656811D01*
X148391390Y-69656809D01*
X148325503Y-69542690D01*
X148325501Y-69542688D01*
X148325500Y-69542686D01*
X148232314Y-69449500D01*
X148232311Y-69449498D01*
X148232309Y-69449496D01*
X148118189Y-69383609D01*
X148118191Y-69383609D01*
X148068799Y-69370375D01*
X147990892Y-69349500D01*
X147859108Y-69349500D01*
X147781200Y-69370375D01*
X147731809Y-69383609D01*
X147617690Y-69449496D01*
X147524496Y-69542690D01*
X147458609Y-69656809D01*
X147456364Y-69665187D01*
X147424500Y-69784108D01*
X140663898Y-69784108D01*
X140696224Y-69728119D01*
X140716390Y-69693190D01*
X140716390Y-69693188D01*
X140716392Y-69693186D01*
X140750500Y-69565892D01*
X140750500Y-69434108D01*
X140716392Y-69306814D01*
X140716390Y-69306811D01*
X140716390Y-69306809D01*
X140650503Y-69192690D01*
X140650501Y-69192688D01*
X140650500Y-69192686D01*
X140557314Y-69099500D01*
X140557311Y-69099498D01*
X140557309Y-69099496D01*
X140443189Y-69033609D01*
X140443191Y-69033609D01*
X140393799Y-69020375D01*
X140315892Y-68999500D01*
X140184108Y-68999500D01*
X140106200Y-69020375D01*
X140056809Y-69033609D01*
X139942690Y-69099496D01*
X139849496Y-69192690D01*
X139783609Y-69306809D01*
X139749500Y-69434109D01*
X139749500Y-69466187D01*
X139730593Y-69524378D01*
X139681093Y-69560342D01*
X139650500Y-69565187D01*
X139618421Y-69565187D01*
X139549672Y-69583608D01*
X139491122Y-69599296D01*
X139377003Y-69665183D01*
X139283809Y-69758377D01*
X139217922Y-69872496D01*
X139198852Y-69943665D01*
X139183813Y-69999795D01*
X135533019Y-69999795D01*
X135550500Y-69982314D01*
X135616392Y-69868186D01*
X135650500Y-69740892D01*
X135650500Y-69609108D01*
X135616392Y-69481814D01*
X135616390Y-69481811D01*
X135616390Y-69481809D01*
X135550503Y-69367690D01*
X135550501Y-69367688D01*
X135550500Y-69367686D01*
X135457314Y-69274500D01*
X135457311Y-69274498D01*
X135457309Y-69274496D01*
X135343189Y-69208609D01*
X135343191Y-69208609D01*
X135293799Y-69195375D01*
X135215892Y-69174500D01*
X135084108Y-69174500D01*
X135006200Y-69195375D01*
X134956809Y-69208609D01*
X134842690Y-69274496D01*
X134749496Y-69367690D01*
X134683609Y-69481809D01*
X134683608Y-69481814D01*
X134649500Y-69609108D01*
X129862355Y-69609108D01*
X129818189Y-69583609D01*
X129818191Y-69583609D01*
X129752068Y-69565892D01*
X129690892Y-69549500D01*
X129559108Y-69549500D01*
X129497932Y-69565892D01*
X129431809Y-69583609D01*
X129317690Y-69649496D01*
X129224496Y-69742690D01*
X129158609Y-69856809D01*
X129146902Y-69900500D01*
X129124500Y-69984108D01*
X100200500Y-69984108D01*
X100200500Y-68734108D01*
X133749500Y-68734108D01*
X133749500Y-68865892D01*
X133779579Y-68978151D01*
X133783609Y-68993190D01*
X133849496Y-69107309D01*
X133849498Y-69107311D01*
X133849500Y-69107314D01*
X133942686Y-69200500D01*
X133942688Y-69200501D01*
X133942690Y-69200503D01*
X134056810Y-69266390D01*
X134056808Y-69266390D01*
X134056812Y-69266391D01*
X134056814Y-69266392D01*
X134184108Y-69300500D01*
X134184110Y-69300500D01*
X134315890Y-69300500D01*
X134315892Y-69300500D01*
X134443186Y-69266392D01*
X134443188Y-69266390D01*
X134443190Y-69266390D01*
X134557309Y-69200503D01*
X134557309Y-69200502D01*
X134557314Y-69200500D01*
X134650500Y-69107314D01*
X134650503Y-69107309D01*
X134716390Y-68993190D01*
X134716390Y-68993188D01*
X134716392Y-68993186D01*
X134750500Y-68865892D01*
X134750500Y-68734108D01*
X134716392Y-68606814D01*
X134716390Y-68606811D01*
X134716390Y-68606809D01*
X134650503Y-68492690D01*
X134650501Y-68492688D01*
X134650500Y-68492686D01*
X134557314Y-68399500D01*
X134557311Y-68399498D01*
X134557309Y-68399496D01*
X134443189Y-68333609D01*
X134443191Y-68333609D01*
X134393799Y-68320375D01*
X134315892Y-68299500D01*
X134184108Y-68299500D01*
X134106200Y-68320375D01*
X134056809Y-68333609D01*
X133942690Y-68399496D01*
X133849496Y-68492690D01*
X133783609Y-68606809D01*
X133783608Y-68606814D01*
X133749500Y-68734108D01*
X100200500Y-68734108D01*
X100200500Y-68009108D01*
X117549500Y-68009108D01*
X117549500Y-68140892D01*
X117565472Y-68200500D01*
X117583609Y-68268190D01*
X117649496Y-68382309D01*
X117649498Y-68382311D01*
X117649500Y-68382314D01*
X117742686Y-68475500D01*
X117742688Y-68475501D01*
X117742690Y-68475503D01*
X117856810Y-68541390D01*
X117856808Y-68541390D01*
X117856812Y-68541391D01*
X117856814Y-68541392D01*
X117984108Y-68575500D01*
X117984110Y-68575500D01*
X118115890Y-68575500D01*
X118115892Y-68575500D01*
X118243186Y-68541392D01*
X118243188Y-68541390D01*
X118243190Y-68541390D01*
X118357309Y-68475503D01*
X118357309Y-68475502D01*
X118357314Y-68475500D01*
X118450500Y-68382314D01*
X118478620Y-68333609D01*
X118516390Y-68268190D01*
X118516390Y-68268188D01*
X118516392Y-68268186D01*
X118550500Y-68140892D01*
X118550500Y-68009108D01*
X118516392Y-67881814D01*
X118516390Y-67881811D01*
X118516390Y-67881809D01*
X118455948Y-67777121D01*
X118455947Y-67777120D01*
X118450501Y-67767688D01*
X118450500Y-67767686D01*
X118416922Y-67734108D01*
X129899500Y-67734108D01*
X129899500Y-67865892D01*
X129929579Y-67978151D01*
X129933609Y-67993190D01*
X129999496Y-68107309D01*
X129999498Y-68107311D01*
X129999500Y-68107314D01*
X130092686Y-68200500D01*
X130092688Y-68200501D01*
X130092690Y-68200503D01*
X130206810Y-68266390D01*
X130206808Y-68266390D01*
X130206812Y-68266391D01*
X130206814Y-68266392D01*
X130334108Y-68300500D01*
X130334110Y-68300500D01*
X130465890Y-68300500D01*
X130465892Y-68300500D01*
X130593186Y-68266392D01*
X130593188Y-68266390D01*
X130593190Y-68266390D01*
X130707309Y-68200503D01*
X130707309Y-68200502D01*
X130707314Y-68200500D01*
X130800500Y-68107314D01*
X130857199Y-68009109D01*
X130866390Y-67993190D01*
X130866390Y-67993188D01*
X130866392Y-67993186D01*
X130900500Y-67865892D01*
X130900500Y-67734108D01*
X130866392Y-67606814D01*
X130866390Y-67606811D01*
X130866390Y-67606809D01*
X130800503Y-67492690D01*
X130800501Y-67492688D01*
X130800500Y-67492686D01*
X130707314Y-67399500D01*
X130707311Y-67399498D01*
X130707309Y-67399496D01*
X130593189Y-67333609D01*
X130593191Y-67333609D01*
X130543799Y-67320375D01*
X130465892Y-67299500D01*
X130334108Y-67299500D01*
X130256200Y-67320375D01*
X130206809Y-67333609D01*
X130092690Y-67399496D01*
X129999496Y-67492690D01*
X129933609Y-67606809D01*
X129928601Y-67625500D01*
X129899500Y-67734108D01*
X118416922Y-67734108D01*
X118357314Y-67674500D01*
X118357311Y-67674498D01*
X118357309Y-67674496D01*
X118243189Y-67608609D01*
X118243191Y-67608609D01*
X118178927Y-67591390D01*
X118115892Y-67574500D01*
X117984108Y-67574500D01*
X117921073Y-67591390D01*
X117856809Y-67608609D01*
X117742690Y-67674496D01*
X117649496Y-67767690D01*
X117583609Y-67881809D01*
X117583608Y-67881814D01*
X117549500Y-68009108D01*
X100200500Y-68009108D01*
X100200500Y-67059108D01*
X108249500Y-67059108D01*
X108249500Y-67190892D01*
X108256199Y-67215892D01*
X108283609Y-67318190D01*
X108349496Y-67432309D01*
X108349498Y-67432311D01*
X108349500Y-67432314D01*
X108442686Y-67525500D01*
X108442688Y-67525501D01*
X108442690Y-67525503D01*
X108556810Y-67591390D01*
X108556808Y-67591390D01*
X108556812Y-67591391D01*
X108556814Y-67591392D01*
X108684108Y-67625500D01*
X108684110Y-67625500D01*
X108815890Y-67625500D01*
X108815892Y-67625500D01*
X108943186Y-67591392D01*
X108943188Y-67591390D01*
X108943190Y-67591390D01*
X109057309Y-67525503D01*
X109057309Y-67525502D01*
X109057314Y-67525500D01*
X109150500Y-67432314D01*
X109178332Y-67384108D01*
X109216390Y-67318190D01*
X109216390Y-67318188D01*
X109216392Y-67318186D01*
X109250500Y-67190892D01*
X109250500Y-67059108D01*
X109216392Y-66931814D01*
X109216390Y-66931811D01*
X109216390Y-66931809D01*
X109150503Y-66817690D01*
X109150501Y-66817688D01*
X109150500Y-66817686D01*
X109057314Y-66724500D01*
X109057311Y-66724498D01*
X109057309Y-66724496D01*
X108943189Y-66658609D01*
X108943191Y-66658609D01*
X108893799Y-66645375D01*
X108815892Y-66624500D01*
X108684108Y-66624500D01*
X108606200Y-66645375D01*
X108556809Y-66658609D01*
X108442690Y-66724496D01*
X108349496Y-66817690D01*
X108283609Y-66931809D01*
X108276909Y-66956814D01*
X108249500Y-67059108D01*
X100200500Y-67059108D01*
X100200500Y-66190981D01*
X106199627Y-66190981D01*
X106199627Y-66322765D01*
X106215930Y-66383608D01*
X106233736Y-66450063D01*
X106299623Y-66564182D01*
X106299625Y-66564184D01*
X106299627Y-66564187D01*
X106392813Y-66657373D01*
X106392815Y-66657374D01*
X106392817Y-66657376D01*
X106506937Y-66723263D01*
X106506935Y-66723263D01*
X106506939Y-66723264D01*
X106506941Y-66723265D01*
X106634235Y-66757373D01*
X106634237Y-66757373D01*
X106766017Y-66757373D01*
X106766019Y-66757373D01*
X106893313Y-66723265D01*
X106893315Y-66723263D01*
X106893317Y-66723263D01*
X107007436Y-66657376D01*
X107007436Y-66657375D01*
X107007441Y-66657373D01*
X107100627Y-66564187D01*
X107128510Y-66515892D01*
X107166517Y-66450063D01*
X107166517Y-66450061D01*
X107166519Y-66450059D01*
X107200627Y-66322765D01*
X107200627Y-66190981D01*
X107166519Y-66063687D01*
X107166517Y-66063684D01*
X107166517Y-66063682D01*
X107100630Y-65949563D01*
X107100628Y-65949561D01*
X107100627Y-65949559D01*
X107007441Y-65856373D01*
X107007438Y-65856371D01*
X107007436Y-65856369D01*
X106893316Y-65790482D01*
X106893318Y-65790482D01*
X106843926Y-65777248D01*
X106766019Y-65756373D01*
X106634235Y-65756373D01*
X106556327Y-65777248D01*
X106506936Y-65790482D01*
X106392817Y-65856369D01*
X106299623Y-65949563D01*
X106233736Y-66063682D01*
X106232528Y-66068190D01*
X106199627Y-66190981D01*
X100200500Y-66190981D01*
X100200500Y-65344108D01*
X100809500Y-65344108D01*
X100809500Y-65475892D01*
X100811221Y-65482314D01*
X100843609Y-65603190D01*
X100909496Y-65717309D01*
X100909498Y-65717311D01*
X100909500Y-65717314D01*
X101002686Y-65810500D01*
X101002688Y-65810501D01*
X101002690Y-65810503D01*
X101116810Y-65876390D01*
X101116808Y-65876390D01*
X101116812Y-65876391D01*
X101116814Y-65876392D01*
X101244108Y-65910500D01*
X101244110Y-65910500D01*
X101375890Y-65910500D01*
X101375892Y-65910500D01*
X101503186Y-65876392D01*
X101503188Y-65876390D01*
X101503190Y-65876390D01*
X101616181Y-65811154D01*
X101617314Y-65810500D01*
X101617314Y-65810499D01*
X101617317Y-65810498D01*
X101622465Y-65806549D01*
X101623377Y-65807737D01*
X101671150Y-65783381D01*
X101731585Y-65792937D01*
X101756662Y-65811151D01*
X101830415Y-65884904D01*
X101830417Y-65884905D01*
X101830419Y-65884907D01*
X101944539Y-65950794D01*
X101944537Y-65950794D01*
X101944541Y-65950795D01*
X101944543Y-65950796D01*
X102071837Y-65984904D01*
X102071839Y-65984904D01*
X102203619Y-65984904D01*
X102203621Y-65984904D01*
X102330915Y-65950796D01*
X102330917Y-65950794D01*
X102330919Y-65950794D01*
X102445038Y-65884907D01*
X102445038Y-65884906D01*
X102445043Y-65884904D01*
X102538229Y-65791718D01*
X102538943Y-65790481D01*
X102604119Y-65677594D01*
X102604119Y-65677592D01*
X102604121Y-65677590D01*
X102638229Y-65550296D01*
X102638229Y-65418512D01*
X102604121Y-65291218D01*
X102604119Y-65291215D01*
X102604119Y-65291213D01*
X102538232Y-65177094D01*
X102538230Y-65177092D01*
X102538229Y-65177090D01*
X102445043Y-65083904D01*
X102445040Y-65083902D01*
X102445038Y-65083900D01*
X102330918Y-65018013D01*
X102330920Y-65018013D01*
X102281528Y-65004779D01*
X102203621Y-64983904D01*
X102071837Y-64983904D01*
X101993929Y-65004779D01*
X101944538Y-65018013D01*
X101830413Y-65083904D01*
X101825265Y-65087855D01*
X101824357Y-65086671D01*
X101776541Y-65111028D01*
X101716110Y-65101449D01*
X101691065Y-65083251D01*
X101617314Y-65009500D01*
X101617311Y-65009498D01*
X101617309Y-65009496D01*
X101503189Y-64943609D01*
X101503191Y-64943609D01*
X101453799Y-64930375D01*
X101375892Y-64909500D01*
X101244108Y-64909500D01*
X101166200Y-64930375D01*
X101116809Y-64943609D01*
X101002690Y-65009496D01*
X100909496Y-65102690D01*
X100843609Y-65216809D01*
X100837157Y-65240890D01*
X100809500Y-65344108D01*
X100200500Y-65344108D01*
X100200500Y-63934105D01*
X105424500Y-63934105D01*
X105424500Y-64065889D01*
X105433505Y-64099496D01*
X105458609Y-64193187D01*
X105524496Y-64307306D01*
X105524498Y-64307308D01*
X105524500Y-64307311D01*
X105547185Y-64329996D01*
X105574961Y-64384511D01*
X105565390Y-64444943D01*
X105547185Y-64470000D01*
X105524499Y-64492686D01*
X105458609Y-64606809D01*
X105458608Y-64606814D01*
X105424500Y-64734108D01*
X105424500Y-64865892D01*
X105424981Y-64867686D01*
X105458609Y-64993190D01*
X105524496Y-65107309D01*
X105524498Y-65107311D01*
X105524500Y-65107314D01*
X105617686Y-65200500D01*
X105617688Y-65200501D01*
X105617690Y-65200503D01*
X105731810Y-65266390D01*
X105731808Y-65266390D01*
X105731812Y-65266391D01*
X105731814Y-65266392D01*
X105859108Y-65300500D01*
X105859110Y-65300500D01*
X105990890Y-65300500D01*
X105990892Y-65300500D01*
X106118186Y-65266392D01*
X106118188Y-65266390D01*
X106118190Y-65266390D01*
X106232309Y-65200503D01*
X106232309Y-65200502D01*
X106232314Y-65200500D01*
X106323706Y-65109108D01*
X117549500Y-65109108D01*
X117549500Y-65240892D01*
X117577156Y-65344108D01*
X117583609Y-65368190D01*
X117649496Y-65482309D01*
X117649498Y-65482311D01*
X117649500Y-65482314D01*
X117742686Y-65575500D01*
X117742688Y-65575501D01*
X117742690Y-65575503D01*
X117856810Y-65641390D01*
X117856808Y-65641390D01*
X117856812Y-65641391D01*
X117856814Y-65641392D01*
X117984108Y-65675500D01*
X117984110Y-65675500D01*
X118115890Y-65675500D01*
X118115892Y-65675500D01*
X118177068Y-65659108D01*
X130949500Y-65659108D01*
X130949500Y-65790892D01*
X130974690Y-65884904D01*
X130983609Y-65918190D01*
X131049496Y-66032309D01*
X131049498Y-66032311D01*
X131049500Y-66032314D01*
X131142686Y-66125500D01*
X131142688Y-66125501D01*
X131142690Y-66125503D01*
X131256810Y-66191390D01*
X131256808Y-66191390D01*
X131256812Y-66191391D01*
X131256814Y-66191392D01*
X131384108Y-66225500D01*
X131384110Y-66225500D01*
X131515890Y-66225500D01*
X131515892Y-66225500D01*
X131635228Y-66193524D01*
X131696326Y-66196726D01*
X131743876Y-66235232D01*
X131759712Y-66294332D01*
X131756475Y-66314773D01*
X131738031Y-66383608D01*
X131724500Y-66434108D01*
X131724500Y-66565892D01*
X131748861Y-66656809D01*
X131758609Y-66693190D01*
X131824496Y-66807309D01*
X131824498Y-66807311D01*
X131824500Y-66807314D01*
X131917686Y-66900500D01*
X131917688Y-66900501D01*
X131917690Y-66900503D01*
X132031810Y-66966390D01*
X132031808Y-66966390D01*
X132031812Y-66966391D01*
X132031814Y-66966392D01*
X132159108Y-67000500D01*
X132159110Y-67000500D01*
X132250500Y-67000500D01*
X132308691Y-67019407D01*
X132344655Y-67068907D01*
X132349500Y-67099500D01*
X132349500Y-67215892D01*
X132376428Y-67316390D01*
X132383609Y-67343190D01*
X132449496Y-67457309D01*
X132449498Y-67457311D01*
X132449500Y-67457314D01*
X132542686Y-67550500D01*
X132542688Y-67550501D01*
X132542690Y-67550503D01*
X132656810Y-67616390D01*
X132656808Y-67616390D01*
X132656812Y-67616391D01*
X132656814Y-67616392D01*
X132784108Y-67650500D01*
X132784110Y-67650500D01*
X132915890Y-67650500D01*
X132915892Y-67650500D01*
X133043186Y-67616392D01*
X133043188Y-67616390D01*
X133043190Y-67616390D01*
X133157309Y-67550503D01*
X133157309Y-67550502D01*
X133157314Y-67550500D01*
X133250500Y-67457314D01*
X133292766Y-67384108D01*
X137674500Y-67384108D01*
X137674500Y-67515892D01*
X137694730Y-67591392D01*
X137708609Y-67643190D01*
X137774496Y-67757309D01*
X137774498Y-67757311D01*
X137774500Y-67757314D01*
X137867686Y-67850500D01*
X137867688Y-67850501D01*
X137867690Y-67850503D01*
X137981810Y-67916390D01*
X137981808Y-67916390D01*
X137981812Y-67916391D01*
X137981814Y-67916392D01*
X138109108Y-67950500D01*
X138109110Y-67950500D01*
X138240890Y-67950500D01*
X138240892Y-67950500D01*
X138368186Y-67916392D01*
X138368188Y-67916390D01*
X138368190Y-67916390D01*
X138482309Y-67850503D01*
X138482309Y-67850502D01*
X138482314Y-67850500D01*
X138575500Y-67757314D01*
X138575503Y-67757309D01*
X138641390Y-67643190D01*
X138641390Y-67643188D01*
X138641392Y-67643186D01*
X138675500Y-67515892D01*
X138675500Y-67384108D01*
X138641392Y-67256814D01*
X138641390Y-67256811D01*
X138641390Y-67256809D01*
X138575503Y-67142690D01*
X138575501Y-67142688D01*
X138575500Y-67142686D01*
X138482314Y-67049500D01*
X138482311Y-67049498D01*
X138482309Y-67049496D01*
X138368189Y-66983609D01*
X138368191Y-66983609D01*
X138303927Y-66966390D01*
X138240892Y-66949500D01*
X138109108Y-66949500D01*
X138046073Y-66966390D01*
X137981809Y-66983609D01*
X137867690Y-67049496D01*
X137774496Y-67142690D01*
X137708609Y-67256809D01*
X137689539Y-67327978D01*
X137674500Y-67384108D01*
X133292766Y-67384108D01*
X133316392Y-67343186D01*
X133350500Y-67215892D01*
X133350500Y-67084108D01*
X133316392Y-66956814D01*
X133316390Y-66956811D01*
X133316390Y-66956809D01*
X133250503Y-66842690D01*
X133250501Y-66842688D01*
X133250500Y-66842686D01*
X133157314Y-66749500D01*
X133157311Y-66749498D01*
X133157309Y-66749496D01*
X133043189Y-66683609D01*
X133043191Y-66683609D01*
X132993799Y-66670375D01*
X132915892Y-66649500D01*
X132824500Y-66649500D01*
X132812692Y-66645663D01*
X132800304Y-66646498D01*
X132784294Y-66636436D01*
X132766309Y-66630593D01*
X132759009Y-66620546D01*
X132748499Y-66613941D01*
X132742810Y-66598250D01*
X132730345Y-66581093D01*
X132725724Y-66557153D01*
X132725500Y-66553827D01*
X132725500Y-66434108D01*
X132712103Y-66384108D01*
X140099500Y-66384108D01*
X140099500Y-66515892D01*
X140121568Y-66598250D01*
X140133609Y-66643190D01*
X140199496Y-66757309D01*
X140199498Y-66757311D01*
X140199500Y-66757314D01*
X140292686Y-66850500D01*
X140292688Y-66850501D01*
X140292690Y-66850503D01*
X140406810Y-66916390D01*
X140406808Y-66916390D01*
X140406812Y-66916391D01*
X140406814Y-66916392D01*
X140534108Y-66950500D01*
X140534110Y-66950500D01*
X140665890Y-66950500D01*
X140665892Y-66950500D01*
X140793186Y-66916392D01*
X140793188Y-66916390D01*
X140793190Y-66916390D01*
X140907309Y-66850503D01*
X140907309Y-66850502D01*
X140907314Y-66850500D01*
X140973706Y-66784108D01*
X143374500Y-66784108D01*
X143374500Y-66915892D01*
X143404579Y-67028151D01*
X143408609Y-67043190D01*
X143474496Y-67157309D01*
X143474498Y-67157311D01*
X143474500Y-67157314D01*
X143567686Y-67250500D01*
X143567688Y-67250501D01*
X143567690Y-67250503D01*
X143681810Y-67316390D01*
X143681808Y-67316390D01*
X143681812Y-67316391D01*
X143681814Y-67316392D01*
X143809108Y-67350500D01*
X143809110Y-67350500D01*
X143940890Y-67350500D01*
X143940892Y-67350500D01*
X144068186Y-67316392D01*
X144068188Y-67316390D01*
X144068190Y-67316390D01*
X144182309Y-67250503D01*
X144182309Y-67250502D01*
X144182314Y-67250500D01*
X144275500Y-67157314D01*
X144332199Y-67059109D01*
X144341390Y-67043190D01*
X144341390Y-67043188D01*
X144341392Y-67043186D01*
X144375500Y-66915892D01*
X144375500Y-66784108D01*
X144341392Y-66656814D01*
X144341390Y-66656811D01*
X144341390Y-66656809D01*
X144275503Y-66542690D01*
X144275501Y-66542688D01*
X144275500Y-66542686D01*
X144182314Y-66449500D01*
X144182311Y-66449498D01*
X144182309Y-66449496D01*
X144068189Y-66383609D01*
X144068191Y-66383609D01*
X144018799Y-66370375D01*
X143940892Y-66349500D01*
X143809108Y-66349500D01*
X143731200Y-66370375D01*
X143681809Y-66383609D01*
X143567690Y-66449496D01*
X143474496Y-66542690D01*
X143408609Y-66656809D01*
X143401428Y-66683609D01*
X143374500Y-66784108D01*
X140973706Y-66784108D01*
X141000500Y-66757314D01*
X141009504Y-66741717D01*
X141017357Y-66728118D01*
X141049245Y-66672885D01*
X141066392Y-66643186D01*
X141100500Y-66515892D01*
X141100500Y-66474500D01*
X141119407Y-66416309D01*
X141168907Y-66380345D01*
X141199500Y-66375500D01*
X141240890Y-66375500D01*
X141240892Y-66375500D01*
X141368186Y-66341392D01*
X141368188Y-66341390D01*
X141368190Y-66341390D01*
X141482309Y-66275503D01*
X141482309Y-66275502D01*
X141482314Y-66275500D01*
X141575500Y-66182314D01*
X141641392Y-66068186D01*
X141675500Y-65940892D01*
X141675500Y-65809108D01*
X141641392Y-65681814D01*
X141641390Y-65681811D01*
X141641390Y-65681809D01*
X141575503Y-65567690D01*
X141575501Y-65567688D01*
X141575500Y-65567686D01*
X141482314Y-65474500D01*
X141482311Y-65474498D01*
X141482309Y-65474496D01*
X141368189Y-65408609D01*
X141368191Y-65408609D01*
X141318799Y-65395375D01*
X141240892Y-65374500D01*
X141109108Y-65374500D01*
X141031200Y-65395375D01*
X140981809Y-65408609D01*
X140867690Y-65474496D01*
X140774496Y-65567690D01*
X140708609Y-65681809D01*
X140708608Y-65681814D01*
X140674868Y-65807737D01*
X140674500Y-65809109D01*
X140674500Y-65850500D01*
X140655593Y-65908691D01*
X140606093Y-65944655D01*
X140575500Y-65949500D01*
X140534108Y-65949500D01*
X140456200Y-65970375D01*
X140406809Y-65983609D01*
X140292690Y-66049496D01*
X140199496Y-66142690D01*
X140133609Y-66256809D01*
X140133608Y-66256814D01*
X140099500Y-66384108D01*
X132712103Y-66384108D01*
X132691392Y-66306814D01*
X132691390Y-66306811D01*
X132691390Y-66306809D01*
X132625503Y-66192690D01*
X132625501Y-66192688D01*
X132625500Y-66192686D01*
X132532314Y-66099500D01*
X132532311Y-66099498D01*
X132532309Y-66099496D01*
X132418189Y-66033609D01*
X132418191Y-66033609D01*
X132368799Y-66020375D01*
X132290892Y-65999500D01*
X132159108Y-65999500D01*
X132112128Y-66012088D01*
X132039773Y-66031475D01*
X131978672Y-66028272D01*
X131931122Y-65989767D01*
X131915287Y-65930666D01*
X131918522Y-65910235D01*
X131950500Y-65790892D01*
X131950500Y-65659108D01*
X131916392Y-65531814D01*
X131916390Y-65531811D01*
X131916390Y-65531809D01*
X131850503Y-65417690D01*
X131850501Y-65417688D01*
X131850500Y-65417686D01*
X131757314Y-65324500D01*
X131757311Y-65324498D01*
X131757309Y-65324496D01*
X131643189Y-65258609D01*
X131643191Y-65258609D01*
X131577068Y-65240892D01*
X131515892Y-65224500D01*
X131384108Y-65224500D01*
X131322932Y-65240892D01*
X131256809Y-65258609D01*
X131142690Y-65324496D01*
X131049496Y-65417690D01*
X130983609Y-65531809D01*
X130983608Y-65531814D01*
X130949500Y-65659108D01*
X118177068Y-65659108D01*
X118243186Y-65641392D01*
X118243188Y-65641390D01*
X118243190Y-65641390D01*
X118357309Y-65575503D01*
X118357309Y-65575502D01*
X118357314Y-65575500D01*
X118450500Y-65482314D01*
X118454209Y-65475890D01*
X118516390Y-65368190D01*
X118516390Y-65368188D01*
X118516392Y-65368186D01*
X118550500Y-65240892D01*
X118550500Y-65109108D01*
X118516392Y-64981814D01*
X118516390Y-64981811D01*
X118516390Y-64981809D01*
X118450503Y-64867690D01*
X118450501Y-64867688D01*
X118450500Y-64867686D01*
X118357314Y-64774500D01*
X118357311Y-64774498D01*
X118357309Y-64774496D01*
X118243189Y-64708609D01*
X118243191Y-64708609D01*
X118193799Y-64695375D01*
X118115892Y-64674500D01*
X117984108Y-64674500D01*
X117906200Y-64695375D01*
X117856809Y-64708609D01*
X117742690Y-64774496D01*
X117649496Y-64867690D01*
X117583609Y-64981809D01*
X117564539Y-65052978D01*
X117549500Y-65109108D01*
X106323706Y-65109108D01*
X106325500Y-65107314D01*
X106391392Y-64993186D01*
X106425500Y-64865892D01*
X106425500Y-64734108D01*
X106391392Y-64606814D01*
X106391390Y-64606811D01*
X106391390Y-64606809D01*
X106325593Y-64492846D01*
X106325591Y-64492844D01*
X106325500Y-64492686D01*
X106302713Y-64469899D01*
X106288981Y-64442851D01*
X106284526Y-64434108D01*
X129774500Y-64434108D01*
X129774500Y-64565892D01*
X129785464Y-64606809D01*
X129808609Y-64693190D01*
X129874496Y-64807309D01*
X129874498Y-64807311D01*
X129874500Y-64807314D01*
X129967686Y-64900500D01*
X129967688Y-64900501D01*
X129967690Y-64900503D01*
X130081810Y-64966390D01*
X130081808Y-64966390D01*
X130081812Y-64966391D01*
X130081814Y-64966392D01*
X130209108Y-65000500D01*
X130209110Y-65000500D01*
X130340890Y-65000500D01*
X130340892Y-65000500D01*
X130468186Y-64966392D01*
X130468188Y-64966390D01*
X130468190Y-64966390D01*
X130582309Y-64900503D01*
X130582309Y-64900502D01*
X130582314Y-64900500D01*
X130675500Y-64807314D01*
X130741392Y-64693186D01*
X130775500Y-64565892D01*
X130775500Y-64434108D01*
X130741392Y-64306814D01*
X130741390Y-64306811D01*
X130741390Y-64306809D01*
X130675503Y-64192690D01*
X130675501Y-64192688D01*
X130675500Y-64192686D01*
X130582314Y-64099500D01*
X130582311Y-64099498D01*
X130582309Y-64099496D01*
X130468189Y-64033609D01*
X130468191Y-64033609D01*
X130418799Y-64020375D01*
X130340892Y-63999500D01*
X130209108Y-63999500D01*
X130131200Y-64020375D01*
X130081809Y-64033609D01*
X129967690Y-64099496D01*
X129874496Y-64192690D01*
X129808609Y-64306809D01*
X129789539Y-64377978D01*
X129774500Y-64434108D01*
X106284526Y-64434108D01*
X106275038Y-64415485D01*
X106275049Y-64415409D01*
X106275015Y-64415341D01*
X106279944Y-64384511D01*
X106284609Y-64355053D01*
X106284666Y-64354973D01*
X106284675Y-64354923D01*
X106284778Y-64354820D01*
X106302815Y-64329994D01*
X106325500Y-64307311D01*
X106391392Y-64193183D01*
X106425500Y-64065889D01*
X106425500Y-63934105D01*
X106391392Y-63806811D01*
X106391390Y-63806808D01*
X106391390Y-63806806D01*
X106325503Y-63692687D01*
X106325501Y-63692685D01*
X106325500Y-63692683D01*
X106232314Y-63599497D01*
X106232311Y-63599495D01*
X106232309Y-63599493D01*
X106118189Y-63533606D01*
X106118191Y-63533606D01*
X106068799Y-63520372D01*
X105990892Y-63499497D01*
X105859108Y-63499497D01*
X105781200Y-63520372D01*
X105731809Y-63533606D01*
X105617690Y-63599493D01*
X105524496Y-63692687D01*
X105458609Y-63806806D01*
X105458608Y-63806811D01*
X105424500Y-63934105D01*
X100200500Y-63934105D01*
X100200500Y-62334108D01*
X115024500Y-62334108D01*
X115024500Y-62465892D01*
X115026295Y-62472590D01*
X115058609Y-62593190D01*
X115124496Y-62707309D01*
X115124498Y-62707311D01*
X115124500Y-62707314D01*
X115217686Y-62800500D01*
X115217688Y-62800501D01*
X115217690Y-62800503D01*
X115331810Y-62866390D01*
X115331808Y-62866390D01*
X115331812Y-62866391D01*
X115331814Y-62866392D01*
X115459108Y-62900500D01*
X115459110Y-62900500D01*
X115590890Y-62900500D01*
X115590892Y-62900500D01*
X115718186Y-62866392D01*
X115718188Y-62866390D01*
X115718190Y-62866390D01*
X115832309Y-62800503D01*
X115832309Y-62800502D01*
X115832314Y-62800500D01*
X115925500Y-62707314D01*
X115984934Y-62604372D01*
X115991390Y-62593190D01*
X115991390Y-62593188D01*
X115991392Y-62593186D01*
X116023705Y-62472590D01*
X123824732Y-62472590D01*
X123824732Y-62604374D01*
X123852313Y-62707309D01*
X123858841Y-62731672D01*
X123924728Y-62845791D01*
X123924730Y-62845793D01*
X123924732Y-62845796D01*
X124017918Y-62938982D01*
X124017920Y-62938983D01*
X124017922Y-62938985D01*
X124132042Y-63004872D01*
X124132040Y-63004872D01*
X124132044Y-63004873D01*
X124132046Y-63004874D01*
X124259340Y-63038982D01*
X124259342Y-63038982D01*
X124391122Y-63038982D01*
X124391124Y-63038982D01*
X124518418Y-63004874D01*
X124518420Y-63004872D01*
X124518422Y-63004872D01*
X124632541Y-62938985D01*
X124632541Y-62938984D01*
X124632546Y-62938982D01*
X124695315Y-62876212D01*
X124749830Y-62848437D01*
X124810262Y-62858008D01*
X124835317Y-62876211D01*
X124890045Y-62930939D01*
X124890047Y-62930940D01*
X124890049Y-62930942D01*
X125004169Y-62996829D01*
X125004167Y-62996829D01*
X125004171Y-62996830D01*
X125004173Y-62996831D01*
X125131467Y-63030939D01*
X125131469Y-63030939D01*
X125263249Y-63030939D01*
X125263251Y-63030939D01*
X125390545Y-62996831D01*
X125390547Y-62996829D01*
X125390549Y-62996829D01*
X125504668Y-62930942D01*
X125504668Y-62930941D01*
X125504673Y-62930939D01*
X125597859Y-62837753D01*
X125597862Y-62837748D01*
X125663749Y-62723629D01*
X125663749Y-62723627D01*
X125663751Y-62723625D01*
X125697859Y-62596331D01*
X125697859Y-62464547D01*
X125663751Y-62337253D01*
X125663749Y-62337250D01*
X125663749Y-62337248D01*
X125597862Y-62223129D01*
X125597860Y-62223127D01*
X125597859Y-62223125D01*
X125504673Y-62129939D01*
X125504670Y-62129937D01*
X125504668Y-62129935D01*
X125390548Y-62064048D01*
X125390550Y-62064048D01*
X125341158Y-62050814D01*
X125263251Y-62029939D01*
X125131467Y-62029939D01*
X125053559Y-62050814D01*
X125004168Y-62064048D01*
X124890049Y-62129935D01*
X124890048Y-62129936D01*
X124890045Y-62129938D01*
X124890045Y-62129939D01*
X124827275Y-62192708D01*
X124772761Y-62220484D01*
X124712329Y-62210913D01*
X124687273Y-62192709D01*
X124632546Y-62137982D01*
X124632543Y-62137980D01*
X124632541Y-62137978D01*
X124518421Y-62072091D01*
X124518423Y-62072091D01*
X124469031Y-62058857D01*
X124391124Y-62037982D01*
X124259340Y-62037982D01*
X124181432Y-62058857D01*
X124132041Y-62072091D01*
X124017922Y-62137978D01*
X123924728Y-62231172D01*
X123858841Y-62345291D01*
X123858840Y-62345296D01*
X123824732Y-62472590D01*
X116023705Y-62472590D01*
X116025500Y-62465892D01*
X116025500Y-62334108D01*
X115991392Y-62206814D01*
X115991390Y-62206811D01*
X115991390Y-62206809D01*
X115925503Y-62092690D01*
X115925501Y-62092688D01*
X115925500Y-62092686D01*
X115832314Y-61999500D01*
X115832311Y-61999498D01*
X115832309Y-61999496D01*
X115718189Y-61933609D01*
X115718191Y-61933609D01*
X115668799Y-61920375D01*
X115590892Y-61899500D01*
X115459108Y-61899500D01*
X115381200Y-61920375D01*
X115331809Y-61933609D01*
X115217690Y-61999496D01*
X115124496Y-62092690D01*
X115058609Y-62206809D01*
X115054236Y-62223129D01*
X115024500Y-62334108D01*
X100200500Y-62334108D01*
X100200500Y-60359108D01*
X131824500Y-60359108D01*
X131824500Y-60490892D01*
X131851909Y-60593186D01*
X131858609Y-60618190D01*
X131924496Y-60732309D01*
X131924498Y-60732311D01*
X131924500Y-60732314D01*
X132017686Y-60825500D01*
X132017688Y-60825501D01*
X132017690Y-60825503D01*
X132131810Y-60891390D01*
X132131808Y-60891390D01*
X132131812Y-60891391D01*
X132131814Y-60891392D01*
X132259108Y-60925500D01*
X132259110Y-60925500D01*
X132390890Y-60925500D01*
X132390892Y-60925500D01*
X132518186Y-60891392D01*
X132518188Y-60891390D01*
X132518190Y-60891390D01*
X132632309Y-60825503D01*
X132632309Y-60825502D01*
X132632314Y-60825500D01*
X132725500Y-60732314D01*
X132791392Y-60618186D01*
X132825500Y-60490892D01*
X132825500Y-60359108D01*
X132818801Y-60334108D01*
X133024500Y-60334108D01*
X133024500Y-60465892D01*
X133031199Y-60490892D01*
X133058609Y-60593190D01*
X133124496Y-60707309D01*
X133124498Y-60707311D01*
X133124500Y-60707314D01*
X133217686Y-60800500D01*
X133217688Y-60800501D01*
X133217690Y-60800503D01*
X133331810Y-60866390D01*
X133331808Y-60866390D01*
X133331812Y-60866391D01*
X133331814Y-60866392D01*
X133459108Y-60900500D01*
X133459110Y-60900500D01*
X133590890Y-60900500D01*
X133590892Y-60900500D01*
X133718186Y-60866392D01*
X133718188Y-60866390D01*
X133718190Y-60866390D01*
X133832309Y-60800503D01*
X133832309Y-60800502D01*
X133832314Y-60800500D01*
X133925500Y-60707314D01*
X133991392Y-60593186D01*
X134025500Y-60465892D01*
X134025500Y-60334108D01*
X133993659Y-60215275D01*
X133996861Y-60154179D01*
X134035366Y-60106629D01*
X134039769Y-60103930D01*
X134132314Y-60050500D01*
X134225500Y-59957314D01*
X134261003Y-59895821D01*
X134291390Y-59843190D01*
X134291390Y-59843188D01*
X134291392Y-59843186D01*
X134325500Y-59715892D01*
X134325500Y-59593986D01*
X134344407Y-59535795D01*
X134393907Y-59499831D01*
X134398836Y-59498371D01*
X134518186Y-59466392D01*
X134632314Y-59400500D01*
X134725500Y-59307314D01*
X134758879Y-59249500D01*
X134791390Y-59193190D01*
X134791390Y-59193188D01*
X134791392Y-59193186D01*
X134825500Y-59065892D01*
X134825500Y-58934108D01*
X134791392Y-58806814D01*
X134791390Y-58806811D01*
X134791390Y-58806809D01*
X134725503Y-58692690D01*
X134725501Y-58692688D01*
X134725500Y-58692686D01*
X134632314Y-58599500D01*
X134632311Y-58599498D01*
X134632309Y-58599496D01*
X134518189Y-58533609D01*
X134518191Y-58533609D01*
X134468799Y-58520375D01*
X134390892Y-58499500D01*
X134259108Y-58499500D01*
X134181200Y-58520375D01*
X134131809Y-58533609D01*
X134017690Y-58599496D01*
X133924496Y-58692690D01*
X133858609Y-58806809D01*
X133824500Y-58934109D01*
X133824500Y-59056013D01*
X133805593Y-59114204D01*
X133756093Y-59150168D01*
X133751138Y-59151635D01*
X133683394Y-59169787D01*
X133631809Y-59183609D01*
X133517690Y-59249496D01*
X133424496Y-59342690D01*
X133358609Y-59456809D01*
X133324500Y-59584109D01*
X133324500Y-59715891D01*
X133356339Y-59834720D01*
X133353136Y-59895821D01*
X133314631Y-59943371D01*
X133310213Y-59946078D01*
X133217688Y-59999498D01*
X133124496Y-60092690D01*
X133058609Y-60206809D01*
X133051909Y-60231814D01*
X133024500Y-60334108D01*
X132818801Y-60334108D01*
X132791392Y-60231814D01*
X132791390Y-60231811D01*
X132791390Y-60231809D01*
X132725503Y-60117690D01*
X132725501Y-60117688D01*
X132725500Y-60117686D01*
X132632314Y-60024500D01*
X132632311Y-60024498D01*
X132632309Y-60024496D01*
X132518189Y-59958609D01*
X132518191Y-59958609D01*
X132461320Y-59943371D01*
X132390892Y-59924500D01*
X132259108Y-59924500D01*
X132188680Y-59943371D01*
X132131809Y-59958609D01*
X132017690Y-60024496D01*
X131924496Y-60117690D01*
X131858609Y-60231809D01*
X131858608Y-60231814D01*
X131824500Y-60359108D01*
X100200500Y-60359108D01*
X100200500Y-60124663D01*
X100219407Y-60066472D01*
X100229735Y-60054422D01*
X102832442Y-57469664D01*
X102887053Y-57442076D01*
X102947452Y-57451856D01*
X102971217Y-57468932D01*
X103848976Y-58322532D01*
X103875889Y-58349616D01*
X103877532Y-58350303D01*
X103878809Y-58351544D01*
X103913004Y-58365152D01*
X103913454Y-58365331D01*
X103915019Y-58365969D01*
X103949484Y-58380373D01*
X103949492Y-58380373D01*
X103952044Y-58380889D01*
X103952053Y-58380891D01*
X103952786Y-58381039D01*
X103960578Y-58380930D01*
X103990252Y-58380515D01*
X103991823Y-58380506D01*
X104029248Y-58380625D01*
X104029250Y-58380623D01*
X104029251Y-58380624D01*
X104031679Y-58380148D01*
X104031780Y-58380128D01*
X104032556Y-58379976D01*
X104049196Y-58372808D01*
X104067749Y-58364819D01*
X104103036Y-58350334D01*
X104104287Y-58349088D01*
X104105924Y-58348384D01*
X104105931Y-58348376D01*
X104105935Y-58348375D01*
X104132097Y-58321470D01*
X104133045Y-58320512D01*
X104169680Y-58284108D01*
X115649500Y-58284108D01*
X115649500Y-58415892D01*
X115679579Y-58528151D01*
X115683609Y-58543190D01*
X115749496Y-58657309D01*
X115749498Y-58657311D01*
X115749500Y-58657314D01*
X115842686Y-58750500D01*
X115842688Y-58750501D01*
X115842690Y-58750503D01*
X115956810Y-58816390D01*
X115956808Y-58816390D01*
X115956812Y-58816391D01*
X115956814Y-58816392D01*
X116084108Y-58850500D01*
X116084110Y-58850500D01*
X116215890Y-58850500D01*
X116215892Y-58850500D01*
X116343186Y-58816392D01*
X116343188Y-58816390D01*
X116343190Y-58816390D01*
X116457309Y-58750503D01*
X116457309Y-58750502D01*
X116457314Y-58750500D01*
X116550500Y-58657314D01*
X116583879Y-58599500D01*
X116616390Y-58543190D01*
X116616390Y-58543188D01*
X116616392Y-58543186D01*
X116650500Y-58415892D01*
X116650500Y-58284108D01*
X116616392Y-58156814D01*
X116616390Y-58156811D01*
X116616390Y-58156809D01*
X116550503Y-58042690D01*
X116550501Y-58042688D01*
X116550500Y-58042686D01*
X116457314Y-57949500D01*
X116457311Y-57949498D01*
X116438011Y-57938355D01*
X116438009Y-57938353D01*
X116343189Y-57883609D01*
X116343191Y-57883609D01*
X116293799Y-57870375D01*
X116251750Y-57859108D01*
X117599500Y-57859108D01*
X117599500Y-57990892D01*
X117613378Y-58042686D01*
X117633609Y-58118190D01*
X117699496Y-58232309D01*
X117699498Y-58232311D01*
X117699500Y-58232314D01*
X117792686Y-58325500D01*
X117792688Y-58325501D01*
X117792690Y-58325503D01*
X117906810Y-58391390D01*
X117906808Y-58391390D01*
X117906812Y-58391391D01*
X117906814Y-58391392D01*
X118034108Y-58425500D01*
X118034110Y-58425500D01*
X118165890Y-58425500D01*
X118165892Y-58425500D01*
X118293186Y-58391392D01*
X118293188Y-58391390D01*
X118293190Y-58391390D01*
X118407309Y-58325503D01*
X118407309Y-58325502D01*
X118407314Y-58325500D01*
X118500500Y-58232314D01*
X118566392Y-58118186D01*
X118600500Y-57990892D01*
X118600500Y-57859108D01*
X118566392Y-57731814D01*
X118566390Y-57731811D01*
X118566390Y-57731809D01*
X118500503Y-57617690D01*
X118500501Y-57617688D01*
X118500500Y-57617686D01*
X118407314Y-57524500D01*
X118407311Y-57524498D01*
X118407309Y-57524496D01*
X118293189Y-57458609D01*
X118293191Y-57458609D01*
X118231487Y-57442076D01*
X118165892Y-57424500D01*
X118034108Y-57424500D01*
X117968513Y-57442076D01*
X117906809Y-57458609D01*
X117792690Y-57524496D01*
X117699496Y-57617690D01*
X117633609Y-57731809D01*
X117633608Y-57731814D01*
X117599500Y-57859108D01*
X116251750Y-57859108D01*
X116215892Y-57849500D01*
X116084108Y-57849500D01*
X116006200Y-57870375D01*
X115956809Y-57883609D01*
X115842690Y-57949496D01*
X115749496Y-58042690D01*
X115683609Y-58156809D01*
X115683608Y-58156814D01*
X115649500Y-58284108D01*
X104169680Y-58284108D01*
X105830146Y-56634108D01*
X128399500Y-56634108D01*
X128399500Y-56765892D01*
X128429579Y-56878151D01*
X128433609Y-56893190D01*
X128499496Y-57007309D01*
X128499498Y-57007311D01*
X128499500Y-57007314D01*
X128592686Y-57100500D01*
X128592688Y-57100501D01*
X128592690Y-57100503D01*
X128706810Y-57166390D01*
X128706808Y-57166390D01*
X128706812Y-57166391D01*
X128706814Y-57166392D01*
X128834108Y-57200500D01*
X128834110Y-57200500D01*
X128965890Y-57200500D01*
X128965892Y-57200500D01*
X129093186Y-57166392D01*
X129093188Y-57166390D01*
X129093190Y-57166390D01*
X129207309Y-57100503D01*
X129207309Y-57100502D01*
X129207314Y-57100500D01*
X129300500Y-57007314D01*
X129350882Y-56920050D01*
X129366390Y-56893190D01*
X129366390Y-56893188D01*
X129366392Y-56893186D01*
X129400500Y-56765892D01*
X129400500Y-56634108D01*
X129366392Y-56506814D01*
X129366390Y-56506811D01*
X129366390Y-56506809D01*
X129300503Y-56392690D01*
X129300501Y-56392688D01*
X129300500Y-56392686D01*
X129207314Y-56299500D01*
X129207311Y-56299498D01*
X129207309Y-56299496D01*
X129093189Y-56233609D01*
X129093191Y-56233609D01*
X129043799Y-56220375D01*
X128965892Y-56199500D01*
X128834108Y-56199500D01*
X128756200Y-56220375D01*
X128706809Y-56233609D01*
X128592690Y-56299496D01*
X128499496Y-56392690D01*
X128433609Y-56506809D01*
X128433608Y-56506814D01*
X128399500Y-56634108D01*
X105830146Y-56634108D01*
X108891308Y-53592240D01*
X108919460Y-53564342D01*
X108919514Y-53564211D01*
X108919616Y-53564111D01*
X108934936Y-53527451D01*
X108950318Y-53490789D01*
X108950318Y-53490646D01*
X108950373Y-53490516D01*
X108950497Y-53451172D01*
X108950497Y-53451170D01*
X108950507Y-53451170D01*
X108950497Y-53451042D01*
X108950679Y-53411025D01*
X108950624Y-53410891D01*
X108950625Y-53410752D01*
X108935672Y-53374328D01*
X108920488Y-53337196D01*
X108920486Y-53337194D01*
X108920486Y-53337193D01*
X108920401Y-53337064D01*
X108920401Y-53337065D01*
X108920335Y-53336966D01*
X108920334Y-53336964D01*
X108892480Y-53308933D01*
X108892416Y-53308807D01*
X108892386Y-53308838D01*
X108002727Y-52411092D01*
X107975198Y-52356451D01*
X107985043Y-52296063D01*
X108003191Y-52271257D01*
X109528543Y-50752396D01*
X110053829Y-50229347D01*
X110108405Y-50201686D01*
X110123683Y-50200500D01*
X133649081Y-50200500D01*
X133707272Y-50219407D01*
G37*
%TD.AperFunction*%
%TD*%
M02*
