M48
; DRILL file KiCad 10.0.3 date 2026-09-20T23:16:09
; FORMAT={-:-/ absolute / inch / decimal}
; #@! TF.CreationDate,2026-09-20T23:16:09+02:00
; #@! TF.GenerationSoftware,Kicad,Pcbnew,10.0.3
; #@! TF.FileFunction,Plated,1,4,PTH
FMAT,2
INCH
; #@! TA.AperFunction,Plated,PTH,ComponentDrill
T1C0.0079
; #@! TA.AperFunction,Plated,PTH,ViaDrill
T2C0.0118
; #@! TA.AperFunction,Plated,PTH,ComponentDrill
T3C0.0157
; #@! TA.AperFunction,Plated,PTH,ComponentDrill
T4C0.0236
; #@! TA.AperFunction,Plated,PTH,ComponentDrill
T5C0.0866
%
G90
G05
T1
X4.092Y-2.5768
X4.092Y-2.6201
X4.1353Y-2.5768
X4.1353Y-2.6201
X4.5701Y-2.6242
X4.5927Y-2.5868
X4.5927Y-2.6616
X4.6154Y-2.6242
T2
X3.9886Y-2.5752
X4.0212Y-2.5781
X4.0246Y-2.4547
X4.0246Y-2.4774
X4.0394Y-2.5413
X4.064Y-2.5197
X4.064Y-2.5423
X4.0965Y-2.8976
X4.1299Y-3.0413
X4.1299Y-3.064
X4.1299Y-3.0984
X4.1299Y-3.1211
X4.1516Y-3.1998
X4.1516Y-3.4055
X4.1703Y-2.5197
X4.1703Y-2.5512
X4.1732Y-2.6703
X4.2008Y-2.6085
X4.2096Y-3.2234
X4.2106Y-2.7904
X4.2126Y-3.3169
X4.2126Y-3.3396
X4.2244Y-2.5335
X4.2274Y-2.7096
X4.2274Y-2.7323
X4.2369Y-3.6247
X4.247Y-2.5335
X4.253Y-3.6407
X4.2638Y-3.4656
X4.2648Y-2.942
X4.2648Y-2.9656
X4.2815Y-2.6427
X4.2953Y-3.1467
X4.314Y-3.0413
X4.314Y-3.064
X4.3236Y-2.4378
X4.3248Y-2.6575
X4.3356Y-2.9564
X4.3356Y-2.9937
X4.3396Y-2.4538
X4.344Y-3.5812
X4.3567Y-3.7902
X4.357Y-2.4712
X4.3709Y-2.3896
X4.373Y-2.4872
X4.3799Y-3.4272
X4.3809Y-3.122
X4.3869Y-2.4056
X4.3875Y-3.7202
X4.3888Y-2.8809
X4.3937Y-2.7539
X4.3937Y-2.7766
X4.4035Y-3.7362
X4.4043Y-2.423
X4.4114Y-2.8809
X4.4203Y-2.439
X4.4301Y-3.2992
X4.438Y-2.3248
X4.4528Y-3.2992
X4.4547Y-2.5098
X4.4636Y-3.5285
X4.4852Y-2.9193
X4.4852Y-3.0364
X4.4862Y-2.9783
X4.4902Y-3.2323
X4.4911Y-2.625
X4.4926Y-3.5517
X4.503Y-2.7795
X4.5049Y-3.6348
X4.5285Y-2.3238
X4.5482Y-2.4567
X4.5728Y-2.2972
X4.5748Y-3.0079
X4.5758Y-2.9488
X4.5768Y-2.8839
X4.5827Y-2.2579
X4.5974Y-3.0079
X4.5984Y-2.9488
X4.5994Y-2.8839
X4.623Y-2.7352
X4.623Y-2.7579
X4.6319Y-3.1506
X4.6476Y-2.5659
X4.6476Y-2.6801
X4.6496Y-2.2805
X4.6693Y-2.188
X4.6772Y-2.8396
X4.685Y-2.5728
X4.685Y-2.5955
X4.685Y-2.6535
X4.685Y-2.6762
X4.6919Y-2.188
X4.7008Y-2.3799
X4.7008Y-2.4026
X4.7008Y-2.4272
X4.7008Y-2.4498
X4.7025Y-2.4869
X4.7185Y-2.503
X4.7451Y-3.2598
X4.749Y-2.8189
X4.7559Y-2.1614
X4.7785Y-2.1614
X4.7904Y-2.9104
X4.797Y-3.0962
X4.7972Y-3.0226
X4.7982Y-2.999
X4.8051Y-2.8917
X4.812Y-2.3484
X4.813Y-3.1122
X4.813Y-2.1604
X4.8327Y-2.7008
X4.8356Y-2.1604
X4.8356Y-2.3494
X4.8386Y-2.5482
X4.8632Y-3.439
X4.8642Y-2.9793
X4.8858Y-3.439
X4.8947Y-2.4621
X4.9055Y-2.9252
X4.9094Y-3.6093
X4.9104Y-2.2953
X4.9109Y-3.1747
X4.9196Y-3.4347
X4.9281Y-2.9252
X4.929Y-2.4618
X4.933Y-3.6093
X4.934Y-2.2953
X4.9341Y-2.3671
X4.9449Y-2.814
X4.9449Y-2.8366
X4.9466Y-3.4185
X4.9902Y-3.0591
X5.001Y-2.6171
X5.0037Y-2.331
X5.0037Y-2.5066
X5.0079Y-3.7539
X5.0108Y-3.5827
X5.0197Y-2.315
X5.0197Y-2.5226
X5.0305Y-3.7539
X5.0315Y-2.8858
X5.0335Y-3.0945
X5.0335Y-3.1191
X5.0335Y-3.5827
X5.0571Y-2.9232
X5.0669Y-3.753
X5.0696Y-2.4781
X5.0748Y-2.2323
X5.0856Y-2.4941
X5.0896Y-3.753
X5.1033Y-2.7579
X5.109Y-2.1863
X5.125Y-2.1703
X5.127Y-3.3248
X5.1289Y-2.5394
X5.1309Y-2.9183
X5.1339Y-2.6693
X5.1398Y-3.2175
X5.1496Y-3.3248
X5.168Y-2.1508
X5.1752Y-2.5876
X5.176Y-3.2175
X5.1841Y-2.1348
X5.19Y-2.9154
X5.1924Y-3.4276
X5.2008Y-2.8317
X5.2057Y-2.6181
X5.2096Y-2.3789
X5.2205Y-3.0984
X5.2263Y-3.4276
X5.2303Y-2.6437
X5.2488Y-2.454
X5.25Y-3.2402
X5.252Y-3.0984
X5.2569Y-2.378
X5.2603Y-3.4276
X5.2648Y-2.438
X5.2687Y-2.3484
X5.2805Y-3.5305
X5.2854Y-2.7087
X5.2884Y-2.3228
X5.2942Y-3.4276
X5.3031Y-2.3996
X5.3192Y-2.3836
X5.3209Y-2.7431
X5.3258Y-3.3661
X5.3258Y-3.3888
X5.3307Y-3.0807
X5.3364Y-2.1617
X5.3415Y-2.4774
X5.3524Y-2.1457
X5.3573Y-2.2461
X5.3799Y-2.2461
X5.3829Y-2.8356
X5.3839Y-2.3238
X5.3878Y-3.1329
X5.3937Y-2.9793
X5.3937Y-3.002
X5.3957Y-2.4222
X5.3967Y-2.5325
X5.4065Y-2.3238
X5.4104Y-3.1329
X5.4104Y-3.5719
X5.4124Y-3.64
X5.419Y-2.6233
X5.4301Y-3.3238
X5.435Y-2.6073
X5.44Y-2.6555
X5.4528Y-2.4774
X5.4591Y-3.4457
X5.4675Y-3.0443
X5.4734Y-2.3848
X5.475Y-3.5831
X5.4833Y-3.4213
X5.4894Y-2.4008
X5.4921Y-3.2215
X5.4941Y-2.5512
X5.4941Y-3.2785
X5.4961Y-3.5305
X5.4994Y-2.7585
X5.5121Y-3.5145
X5.5217Y-2.7362
X5.5276Y-2.44
X5.5354Y-2.6161
X5.5394Y-3.4488
X5.5436Y-2.456
X5.5581Y-2.5935
X5.56Y-2.752
X5.5787Y-2.941
X5.5787Y-2.9646
X5.5817Y-2.8396
X5.5817Y-2.8622
X5.5945Y-3.0384
X5.6053Y-3.4488
X5.6112Y-2.5305
X5.6644Y-2.6319
X5.7126Y-2.7864
X5.7126Y-2.8435
X5.7126Y-2.8661
X5.7136Y-2.811
X5.7143Y-2.5357
X5.7303Y-2.5197
X5.7352Y-3.2746
X5.7579Y-3.2746
X5.7766Y-2.5551
X5.7982Y-3.2451
X5.8209Y-3.2451
X5.8238Y-2.75
X5.8445Y-3.2451
X5.8671Y-3.2451
X5.8701Y-2.5561
T3
X4.502Y-2.0642
X4.502Y-3.8413
X4.521Y-2.0182
X4.521Y-2.1101
X4.521Y-3.7954
X4.521Y-3.8873
X4.5669Y-1.9992
X4.5669Y-2.1291
X4.5669Y-3.7764
X4.5669Y-3.9063
X4.6129Y-2.0182
X4.6129Y-2.1101
X4.6129Y-3.7954
X4.6129Y-3.8873
X4.6319Y-2.0642
X4.6319Y-3.8413
X5.2106Y-2.0642
X5.2106Y-3.8413
X5.2297Y-2.0182
X5.2297Y-2.1101
X5.2297Y-3.7954
X5.2297Y-3.8873
X5.2756Y-1.9992
X5.2756Y-2.1291
X5.2756Y-3.7764
X5.2756Y-3.9063
X5.3215Y-2.0182
X5.3215Y-2.1101
X5.3215Y-3.7954
X5.3215Y-3.8873
X5.3406Y-2.0642
X5.3406Y-3.8413
T5
X4.5669Y-2.0642
X4.5669Y-3.8413
X5.2756Y-2.0642
X5.2756Y-3.8413
T4
G00X5.4587Y-3.7216
M15
G01X5.4281Y-3.6909
M16
G05
G00X5.5706Y-3.8335
M15
G01X5.5484Y-3.8112
M16
G05
G00X5.6992Y-3.481
M15
G01X5.6686Y-3.4504
M16
G05
G00X5.8112Y-3.5929
M15
G01X5.7889Y-3.5707
M16
G05
M30
