%TF.GenerationSoftware,KiCad,Pcbnew,10.0.3*%
%TF.CreationDate,2026-09-20T23:16:09+02:00*%
%TF.ProjectId,stabielator,73746162-6965-46c6-9174-6f722e6b6963,rev?*%
%TF.SameCoordinates,Original*%
%TF.FileFunction,Soldermask,Bot*%
%TF.FilePolarity,Negative*%
%FSLAX46Y46*%
G04 Gerber Fmt 4.6, Leading zero omitted, Abs format (unit mm)*
G04 Created by KiCad (PCBNEW 10.0.3) date 2026-09-20 23:16:09*
%MOMM*%
%LPD*%
G01*
G04 APERTURE LIST*
G04 Aperture macros list*
%AMHorizOval*
0 Thick line with rounded ends*
0 $1 width*
0 $2 $3 position (X,Y) of the first rounded end (center of the circle)*
0 $4 $5 position (X,Y) of the second rounded end (center of the circle)*
0 Add line between two ends*
20,1,$1,$2,$3,$4,$5,0*
0 Add two circle primitives to create the rounded ends*
1,1,$1,$2,$3*
1,1,$1,$4,$5*%
G04 Aperture macros list end*
%ADD10C,0.700000*%
%ADD11C,4.400000*%
%ADD12C,0.900000*%
%ADD13C,0.600000*%
%ADD14HorizOval,0.900000X-0.388909X0.388909X0.388909X-0.388909X0*%
%ADD15HorizOval,0.900000X-0.282843X0.282843X0.282843X-0.282843X0*%
%ADD16C,1.000000*%
G04 APERTURE END LIST*
D10*
%TO.C,H4*%
X132350000Y-97570000D03*
X132833274Y-96403274D03*
X132833274Y-98736726D03*
X134000000Y-95920000D03*
D11*
X134000000Y-97570000D03*
D10*
X134000000Y-99220000D03*
X135166726Y-96403274D03*
X135166726Y-98736726D03*
X135650000Y-97570000D03*
%TD*%
%TO.C,H1*%
X114350000Y-52430000D03*
X114833274Y-51263274D03*
X114833274Y-53596726D03*
X116000000Y-50780000D03*
D11*
X116000000Y-52430000D03*
D10*
X116000000Y-54080000D03*
X117166726Y-51263274D03*
X117166726Y-53596726D03*
X117650000Y-52430000D03*
%TD*%
%TO.C,H3*%
X114350000Y-97570000D03*
X114833274Y-96403274D03*
X114833274Y-98736726D03*
X116000000Y-95920000D03*
D11*
X116000000Y-97570000D03*
D10*
X116000000Y-99220000D03*
X117166726Y-96403274D03*
X117166726Y-98736726D03*
X117650000Y-97570000D03*
%TD*%
D12*
%TO.C,SW2*%
X104804796Y-92307588D03*
X107810000Y-95312792D03*
%TD*%
D13*
%TO.C,J5*%
X139612923Y-93467077D03*
X143700000Y-89380000D03*
D14*
X138262349Y-94138828D03*
D15*
X141210984Y-97087463D03*
D14*
X144371751Y-88029426D03*
D15*
X147320386Y-90978061D03*
%TD*%
D10*
%TO.C,H2*%
X132350000Y-52430000D03*
X132833274Y-51263274D03*
X132833274Y-53596726D03*
X134000000Y-50780000D03*
D11*
X134000000Y-52430000D03*
D10*
X134000000Y-54080000D03*
X135166726Y-51263274D03*
X135166726Y-53596726D03*
X135650000Y-52430000D03*
%TD*%
D16*
%TO.C,TP4*%
X139425000Y-66250000D03*
%TD*%
%TO.C,TP10*%
X115800000Y-91175000D03*
%TD*%
%TO.C,TP11*%
X135225000Y-93475000D03*
%TD*%
%TO.C,TP6*%
X130400000Y-79760000D03*
%TD*%
%TO.C,TP8*%
X127220000Y-81930000D03*
%TD*%
%TO.C,TP12*%
X132950000Y-93425000D03*
%TD*%
%TO.C,TP7*%
X111220000Y-81600000D03*
%TD*%
%TO.C,TP5*%
X125100000Y-77710000D03*
%TD*%
%TO.C,TP3*%
X140931676Y-64793324D03*
%TD*%
%TO.C,TP13*%
X110930000Y-97360000D03*
%TD*%
%TO.C,TP2*%
X101360000Y-64020000D03*
%TD*%
%TO.C,TP1*%
X115050000Y-57300000D03*
%TD*%
%TO.C,TP9*%
X110290000Y-89220000D03*
%TD*%
M02*
