ISO-10303-21;
HEADER;
/* Generated by software containing ST-Developer
 * from STEP Tools, Inc. (www.steptools.com) 
 */

FILE_DESCRIPTION(
/* description */ (''),
/* implementation_level */ '2;1');

FILE_NAME(
/* name */ 'stabilisator_behuizing_onderkant.step',
/* time_stamp */ '2026-09-01T18:18:36+02:00',
/* author */ (''),
/* organization */ (''),
/* preprocessor_version */ 'ST-DEVELOPER v20.1',
/* originating_system */ 'Autodesk Translation Framework v15.8.0.0',
/* authorisation */ '');

FILE_SCHEMA (('AUTOMOTIVE_DESIGN { 1 0 10303 214 3 1 1 }'));
ENDSEC;

DATA;
#10=MECHANICAL_DESIGN_GEOMETRIC_PRESENTATION_REPRESENTATION('',(#13),#1793);
#11=SHAPE_REPRESENTATION_RELATIONSHIP('SRR','None',#1800,#12);
#12=ADVANCED_BREP_SHAPE_REPRESENTATION('',(#14),#1792);
#13=STYLED_ITEM('',(#1810),#14);
#14=MANIFOLD_SOLID_BREP('Body1',#1097);
#15=CONICAL_SURFACE('',#1146,1.6,0.785398163397449);
#16=CONICAL_SURFACE('',#1152,1.6,0.785398163397448);
#17=CONICAL_SURFACE('',#1153,1.6,0.785398163397448);
#18=CONICAL_SURFACE('',#1154,1.6,0.785398163397449);
#19=FACE_BOUND('',#148,.T.);
#20=FACE_BOUND('',#152,.T.);
#21=FACE_BOUND('',#156,.T.);
#22=FACE_BOUND('',#160,.T.);
#23=FACE_BOUND('',#163,.T.);
#24=FACE_BOUND('',#167,.T.);
#25=FACE_BOUND('',#168,.T.);
#26=FACE_BOUND('',#169,.T.);
#27=FACE_BOUND('',#170,.T.);
#28=FACE_BOUND('',#195,.T.);
#29=FACE_BOUND('',#197,.T.);
#30=FACE_BOUND('',#199,.T.);
#31=FACE_BOUND('',#201,.T.);
#32=FACE_BOUND('',#203,.T.);
#33=FACE_BOUND('',#206,.T.);
#34=FACE_BOUND('',#209,.T.);
#35=FACE_BOUND('',#211,.T.);
#36=FACE_BOUND('',#214,.T.);
#37=FACE_BOUND('',#216,.T.);
#38=FACE_BOUND('',#218,.T.);
#39=FACE_BOUND('',#220,.T.);
#40=FACE_BOUND('',#222,.T.);
#41=FACE_BOUND('',#225,.T.);
#42=FACE_BOUND('',#226,.T.);
#43=FACE_BOUND('',#227,.T.);
#44=FACE_BOUND('',#228,.T.);
#45=PLANE('',#1117);
#46=PLANE('',#1124);
#47=PLANE('',#1131);
#48=PLANE('',#1138);
#49=PLANE('',#1142);
#50=PLANE('',#1148);
#51=PLANE('',#1155);
#52=PLANE('',#1156);
#53=PLANE('',#1157);
#54=PLANE('',#1158);
#55=PLANE('',#1159);
#56=PLANE('',#1160);
#57=PLANE('',#1161);
#58=PLANE('',#1162);
#59=PLANE('',#1163);
#60=PLANE('',#1164);
#61=PLANE('',#1165);
#62=PLANE('',#1166);
#63=PLANE('',#1167);
#64=PLANE('',#1168);
#65=PLANE('',#1169);
#66=PLANE('',#1170);
#67=PLANE('',#1171);
#68=PLANE('',#1175);
#69=PLANE('',#1179);
#70=PLANE('',#1180);
#71=PLANE('',#1181);
#72=PLANE('',#1182);
#73=PLANE('',#1183);
#74=PLANE('',#1184);
#75=PLANE('',#1185);
#76=PLANE('',#1186);
#77=PLANE('',#1187);
#78=PLANE('',#1188);
#79=PLANE('',#1189);
#80=PLANE('',#1190);
#81=PLANE('',#1191);
#82=PLANE('',#1192);
#83=PLANE('',#1193);
#84=PLANE('',#1194);
#85=PLANE('',#1195);
#86=PLANE('',#1196);
#87=FACE_OUTER_BOUND('',#145,.T.);
#88=FACE_OUTER_BOUND('',#146,.T.);
#89=FACE_OUTER_BOUND('',#147,.T.);
#90=FACE_OUTER_BOUND('',#149,.T.);
#91=FACE_OUTER_BOUND('',#150,.T.);
#92=FACE_OUTER_BOUND('',#151,.T.);
#93=FACE_OUTER_BOUND('',#153,.T.);
#94=FACE_OUTER_BOUND('',#154,.T.);
#95=FACE_OUTER_BOUND('',#155,.T.);
#96=FACE_OUTER_BOUND('',#157,.T.);
#97=FACE_OUTER_BOUND('',#158,.T.);
#98=FACE_OUTER_BOUND('',#159,.T.);
#99=FACE_OUTER_BOUND('',#161,.T.);
#100=FACE_OUTER_BOUND('',#162,.T.);
#101=FACE_OUTER_BOUND('',#164,.T.);
#102=FACE_OUTER_BOUND('',#165,.T.);
#103=FACE_OUTER_BOUND('',#166,.T.);
#104=FACE_OUTER_BOUND('',#171,.T.);
#105=FACE_OUTER_BOUND('',#172,.T.);
#106=FACE_OUTER_BOUND('',#173,.T.);
#107=FACE_OUTER_BOUND('',#174,.T.);
#108=FACE_OUTER_BOUND('',#175,.T.);
#109=FACE_OUTER_BOUND('',#176,.T.);
#110=FACE_OUTER_BOUND('',#177,.T.);
#111=FACE_OUTER_BOUND('',#178,.T.);
#112=FACE_OUTER_BOUND('',#179,.T.);
#113=FACE_OUTER_BOUND('',#180,.T.);
#114=FACE_OUTER_BOUND('',#181,.T.);
#115=FACE_OUTER_BOUND('',#182,.T.);
#116=FACE_OUTER_BOUND('',#183,.T.);
#117=FACE_OUTER_BOUND('',#184,.T.);
#118=FACE_OUTER_BOUND('',#185,.T.);
#119=FACE_OUTER_BOUND('',#186,.T.);
#120=FACE_OUTER_BOUND('',#187,.T.);
#121=FACE_OUTER_BOUND('',#188,.T.);
#122=FACE_OUTER_BOUND('',#189,.T.);
#123=FACE_OUTER_BOUND('',#190,.T.);
#124=FACE_OUTER_BOUND('',#191,.T.);
#125=FACE_OUTER_BOUND('',#192,.T.);
#126=FACE_OUTER_BOUND('',#193,.T.);
#127=FACE_OUTER_BOUND('',#194,.T.);
#128=FACE_OUTER_BOUND('',#196,.T.);
#129=FACE_OUTER_BOUND('',#198,.T.);
#130=FACE_OUTER_BOUND('',#200,.T.);
#131=FACE_OUTER_BOUND('',#202,.T.);
#132=FACE_OUTER_BOUND('',#204,.T.);
#133=FACE_OUTER_BOUND('',#205,.T.);
#134=FACE_OUTER_BOUND('',#207,.T.);
#135=FACE_OUTER_BOUND('',#208,.T.);
#136=FACE_OUTER_BOUND('',#210,.T.);
#137=FACE_OUTER_BOUND('',#212,.T.);
#138=FACE_OUTER_BOUND('',#213,.T.);
#139=FACE_OUTER_BOUND('',#215,.T.);
#140=FACE_OUTER_BOUND('',#217,.T.);
#141=FACE_OUTER_BOUND('',#219,.T.);
#142=FACE_OUTER_BOUND('',#221,.T.);
#143=FACE_OUTER_BOUND('',#223,.T.);
#144=FACE_OUTER_BOUND('',#224,.T.);
#145=EDGE_LOOP('',(#735,#736,#737,#738));
#146=EDGE_LOOP('',(#739,#740,#741,#742));
#147=EDGE_LOOP('',(#743));
#148=EDGE_LOOP('',(#744));
#149=EDGE_LOOP('',(#745,#746,#747,#748));
#150=EDGE_LOOP('',(#749,#750,#751,#752));
#151=EDGE_LOOP('',(#753));
#152=EDGE_LOOP('',(#754));
#153=EDGE_LOOP('',(#755,#756,#757,#758));
#154=EDGE_LOOP('',(#759,#760,#761,#762));
#155=EDGE_LOOP('',(#763));
#156=EDGE_LOOP('',(#764));
#157=EDGE_LOOP('',(#765,#766,#767,#768));
#158=EDGE_LOOP('',(#769,#770,#771,#772));
#159=EDGE_LOOP('',(#773));
#160=EDGE_LOOP('',(#774));
#161=EDGE_LOOP('',(#775,#776,#777,#778));
#162=EDGE_LOOP('',(#779));
#163=EDGE_LOOP('',(#780));
#164=EDGE_LOOP('',(#781,#782,#783,#784));
#165=EDGE_LOOP('',(#785,#786,#787,#788));
#166=EDGE_LOOP('',(#789,#790,#791,#792,#793,#794,#795,#796));
#167=EDGE_LOOP('',(#797));
#168=EDGE_LOOP('',(#798));
#169=EDGE_LOOP('',(#799));
#170=EDGE_LOOP('',(#800));
#171=EDGE_LOOP('',(#801,#802,#803,#804));
#172=EDGE_LOOP('',(#805,#806,#807,#808));
#173=EDGE_LOOP('',(#809,#810,#811,#812));
#174=EDGE_LOOP('',(#813,#814,#815,#816));
#175=EDGE_LOOP('',(#817,#818,#819,#820));
#176=EDGE_LOOP('',(#821,#822,#823,#824));
#177=EDGE_LOOP('',(#825,#826,#827,#828));
#178=EDGE_LOOP('',(#829,#830,#831,#832));
#179=EDGE_LOOP('',(#833,#834,#835,#836));
#180=EDGE_LOOP('',(#837,#838,#839,#840));
#181=EDGE_LOOP('',(#841,#842,#843,#844));
#182=EDGE_LOOP('',(#845,#846,#847,#848));
#183=EDGE_LOOP('',(#849,#850,#851,#852));
#184=EDGE_LOOP('',(#853,#854,#855,#856));
#185=EDGE_LOOP('',(#857,#858,#859,#860));
#186=EDGE_LOOP('',(#861,#862,#863,#864));
#187=EDGE_LOOP('',(#865,#866,#867,#868));
#188=EDGE_LOOP('',(#869,#870,#871,#872));
#189=EDGE_LOOP('',(#873,#874,#875,#876));
#190=EDGE_LOOP('',(#877,#878,#879,#880));
#191=EDGE_LOOP('',(#881,#882,#883,#884));
#192=EDGE_LOOP('',(#885,#886,#887,#888));
#193=EDGE_LOOP('',(#889,#890,#891,#892));
#194=EDGE_LOOP('',(#893,#894,#895,#896));
#195=EDGE_LOOP('',(#897,#898,#899,#900));
#196=EDGE_LOOP('',(#901,#902,#903,#904));
#197=EDGE_LOOP('',(#905));
#198=EDGE_LOOP('',(#906,#907,#908,#909));
#199=EDGE_LOOP('',(#910,#911,#912,#913));
#200=EDGE_LOOP('',(#914,#915,#916,#917));
#201=EDGE_LOOP('',(#918,#919,#920,#921));
#202=EDGE_LOOP('',(#922,#923,#924,#925));
#203=EDGE_LOOP('',(#926,#927,#928,#929));
#204=EDGE_LOOP('',(#930,#931,#932,#933));
#205=EDGE_LOOP('',(#934,#935,#936,#937));
#206=EDGE_LOOP('',(#938,#939,#940,#941));
#207=EDGE_LOOP('',(#942,#943,#944,#945));
#208=EDGE_LOOP('',(#946,#947,#948,#949,#950,#951,#952,#953));
#209=EDGE_LOOP('',(#954,#955,#956,#957,#958,#959,#960,#961));
#210=EDGE_LOOP('',(#962,#963,#964,#965));
#211=EDGE_LOOP('',(#966,#967,#968,#969));
#212=EDGE_LOOP('',(#970,#971,#972,#973));
#213=EDGE_LOOP('',(#974,#975,#976,#977));
#214=EDGE_LOOP('',(#978,#979,#980,#981));
#215=EDGE_LOOP('',(#982,#983,#984,#985));
#216=EDGE_LOOP('',(#986,#987,#988,#989));
#217=EDGE_LOOP('',(#990,#991,#992,#993));
#218=EDGE_LOOP('',(#994,#995,#996,#997));
#219=EDGE_LOOP('',(#998,#999,#1000,#1001));
#220=EDGE_LOOP('',(#1002));
#221=EDGE_LOOP('',(#1003,#1004,#1005,#1006));
#222=EDGE_LOOP('',(#1007,#1008,#1009,#1010));
#223=EDGE_LOOP('',(#1011,#1012,#1013,#1014));
#224=EDGE_LOOP('',(#1015,#1016,#1017,#1018,#1019,#1020,#1021,#1022));
#225=EDGE_LOOP('',(#1023));
#226=EDGE_LOOP('',(#1024));
#227=EDGE_LOOP('',(#1025));
#228=EDGE_LOOP('',(#1026));
#229=LINE('',#1494,#347);
#230=LINE('',#1500,#348);
#231=LINE('',#1507,#349);
#232=LINE('',#1513,#350);
#233=LINE('',#1520,#351);
#234=LINE('',#1526,#352);
#235=LINE('',#1533,#353);
#236=LINE('',#1539,#354);
#237=LINE('',#1546,#355);
#238=LINE('',#1554,#356);
#239=LINE('',#1558,#357);
#240=LINE('',#1562,#358);
#241=LINE('',#1564,#359);
#242=LINE('',#1566,#360);
#243=LINE('',#1568,#361);
#244=LINE('',#1570,#362);
#245=LINE('',#1572,#363);
#246=LINE('',#1574,#364);
#247=LINE('',#1575,#365);
#248=LINE('',#1583,#366);
#249=LINE('',#1585,#367);
#250=LINE('',#1587,#368);
#251=LINE('',#1591,#369);
#252=LINE('',#1593,#370);
#253=LINE('',#1595,#371);
#254=LINE('',#1596,#372);
#255=LINE('',#1600,#373);
#256=LINE('',#1602,#374);
#257=LINE('',#1604,#375);
#258=LINE('',#1605,#376);
#259=LINE('',#1608,#377);
#260=LINE('',#1610,#378);
#261=LINE('',#1611,#379);
#262=LINE('',#1614,#380);
#263=LINE('',#1616,#381);
#264=LINE('',#1617,#382);
#265=LINE('',#1620,#383);
#266=LINE('',#1622,#384);
#267=LINE('',#1623,#385);
#268=LINE('',#1625,#386);
#269=LINE('',#1626,#387);
#270=LINE('',#1629,#388);
#271=LINE('',#1631,#389);
#272=LINE('',#1632,#390);
#273=LINE('',#1634,#391);
#274=LINE('',#1635,#392);
#275=LINE('',#1639,#393);
#276=LINE('',#1641,#394);
#277=LINE('',#1643,#395);
#278=LINE('',#1644,#396);
#279=LINE('',#1648,#397);
#280=LINE('',#1650,#398);
#281=LINE('',#1652,#399);
#282=LINE('',#1653,#400);
#283=LINE('',#1656,#401);
#284=LINE('',#1658,#402);
#285=LINE('',#1659,#403);
#286=LINE('',#1662,#404);
#287=LINE('',#1664,#405);
#288=LINE('',#1665,#406);
#289=LINE('',#1668,#407);
#290=LINE('',#1670,#408);
#291=LINE('',#1671,#409);
#292=LINE('',#1673,#410);
#293=LINE('',#1674,#411);
#294=LINE('',#1677,#412);
#295=LINE('',#1679,#413);
#296=LINE('',#1680,#414);
#297=LINE('',#1682,#415);
#298=LINE('',#1683,#416);
#299=LINE('',#1687,#417);
#300=LINE('',#1689,#418);
#301=LINE('',#1691,#419);
#302=LINE('',#1692,#420);
#303=LINE('',#1698,#421);
#304=LINE('',#1701,#422);
#305=LINE('',#1703,#423);
#306=LINE('',#1704,#424);
#307=LINE('',#1711,#425);
#308=LINE('',#1713,#426);
#309=LINE('',#1715,#427);
#310=LINE('',#1716,#428);
#311=LINE('',#1719,#429);
#312=LINE('',#1721,#430);
#313=LINE('',#1722,#431);
#314=LINE('',#1725,#432);
#315=LINE('',#1727,#433);
#316=LINE('',#1728,#434);
#317=LINE('',#1731,#435);
#318=LINE('',#1733,#436);
#319=LINE('',#1734,#437);
#320=LINE('',#1737,#438);
#321=LINE('',#1739,#439);
#322=LINE('',#1740,#440);
#323=LINE('',#1743,#441);
#324=LINE('',#1745,#442);
#325=LINE('',#1746,#443);
#326=LINE('',#1749,#444);
#327=LINE('',#1751,#445);
#328=LINE('',#1752,#446);
#329=LINE('',#1754,#447);
#330=LINE('',#1755,#448);
#331=LINE('',#1759,#449);
#332=LINE('',#1761,#450);
#333=LINE('',#1763,#451);
#334=LINE('',#1765,#452);
#335=LINE('',#1767,#453);
#336=LINE('',#1769,#454);
#337=LINE('',#1771,#455);
#338=LINE('',#1772,#456);
#339=LINE('',#1774,#457);
#340=LINE('',#1775,#458);
#341=LINE('',#1777,#459);
#342=LINE('',#1779,#460);
#343=LINE('',#1781,#461);
#344=LINE('',#1783,#462);
#345=LINE('',#1785,#463);
#346=LINE('',#1787,#464);
#347=VECTOR('',#1203,1.1);
#348=VECTOR('',#1210,2.75);
#349=VECTOR('',#1219,1.1);
#350=VECTOR('',#1226,2.75);
#351=VECTOR('',#1235,1.1);
#352=VECTOR('',#1242,2.75);
#353=VECTOR('',#1251,1.1);
#354=VECTOR('',#1258,2.75);
#355=VECTOR('',#1267,2.);
#356=VECTOR('',#1278,1.5);
#357=VECTOR('',#1283,1.6);
#358=VECTOR('',#1286,10.);
#359=VECTOR('',#1287,10.);
#360=VECTOR('',#1288,10.);
#361=VECTOR('',#1289,10.);
#362=VECTOR('',#1290,10.);
#363=VECTOR('',#1291,10.);
#364=VECTOR('',#1292,10.);
#365=VECTOR('',#1293,10.);
#366=VECTOR('',#1302,1.6);
#367=VECTOR('',#1305,1.6);
#368=VECTOR('',#1308,1.6);
#369=VECTOR('',#1311,10.);
#370=VECTOR('',#1312,10.);
#371=VECTOR('',#1313,10.);
#372=VECTOR('',#1314,10.);
#373=VECTOR('',#1317,10.);
#374=VECTOR('',#1318,10.);
#375=VECTOR('',#1319,10.);
#376=VECTOR('',#1320,10.);
#377=VECTOR('',#1323,10.);
#378=VECTOR('',#1324,10.);
#379=VECTOR('',#1325,10.);
#380=VECTOR('',#1328,10.);
#381=VECTOR('',#1329,10.);
#382=VECTOR('',#1330,10.);
#383=VECTOR('',#1333,10.);
#384=VECTOR('',#1334,10.);
#385=VECTOR('',#1335,10.);
#386=VECTOR('',#1338,10.);
#387=VECTOR('',#1339,10.);
#388=VECTOR('',#1342,10.);
#389=VECTOR('',#1343,10.);
#390=VECTOR('',#1344,10.);
#391=VECTOR('',#1347,10.);
#392=VECTOR('',#1348,10.);
#393=VECTOR('',#1351,10.);
#394=VECTOR('',#1352,10.);
#395=VECTOR('',#1353,10.);
#396=VECTOR('',#1354,10.);
#397=VECTOR('',#1357,10.);
#398=VECTOR('',#1358,10.);
#399=VECTOR('',#1359,10.);
#400=VECTOR('',#1360,10.);
#401=VECTOR('',#1363,10.);
#402=VECTOR('',#1364,10.);
#403=VECTOR('',#1365,10.);
#404=VECTOR('',#1368,10.);
#405=VECTOR('',#1369,10.);
#406=VECTOR('',#1370,10.);
#407=VECTOR('',#1373,10.);
#408=VECTOR('',#1374,10.);
#409=VECTOR('',#1375,10.);
#410=VECTOR('',#1378,10.);
#411=VECTOR('',#1379,10.);
#412=VECTOR('',#1382,10.);
#413=VECTOR('',#1383,10.);
#414=VECTOR('',#1384,10.);
#415=VECTOR('',#1387,10.);
#416=VECTOR('',#1388,10.);
#417=VECTOR('',#1391,10.);
#418=VECTOR('',#1392,10.);
#419=VECTOR('',#1393,10.);
#420=VECTOR('',#1394,10.);
#421=VECTOR('',#1401,10.);
#422=VECTOR('',#1404,10.);
#423=VECTOR('',#1405,10.);
#424=VECTOR('',#1406,10.);
#425=VECTOR('',#1415,10.);
#426=VECTOR('',#1416,10.);
#427=VECTOR('',#1417,10.);
#428=VECTOR('',#1418,10.);
#429=VECTOR('',#1421,10.);
#430=VECTOR('',#1422,10.);
#431=VECTOR('',#1423,10.);
#432=VECTOR('',#1426,10.);
#433=VECTOR('',#1427,10.);
#434=VECTOR('',#1428,10.);
#435=VECTOR('',#1431,10.);
#436=VECTOR('',#1432,10.);
#437=VECTOR('',#1433,10.);
#438=VECTOR('',#1436,10.);
#439=VECTOR('',#1437,10.);
#440=VECTOR('',#1438,10.);
#441=VECTOR('',#1441,10.);
#442=VECTOR('',#1442,10.);
#443=VECTOR('',#1443,10.);
#444=VECTOR('',#1446,10.);
#445=VECTOR('',#1447,10.);
#446=VECTOR('',#1448,10.);
#447=VECTOR('',#1451,10.);
#448=VECTOR('',#1452,10.);
#449=VECTOR('',#1455,10.);
#450=VECTOR('',#1456,10.);
#451=VECTOR('',#1457,10.);
#452=VECTOR('',#1458,10.);
#453=VECTOR('',#1459,10.);
#454=VECTOR('',#1460,10.);
#455=VECTOR('',#1461,10.);
#456=VECTOR('',#1462,10.);
#457=VECTOR('',#1465,10.);
#458=VECTOR('',#1466,10.);
#459=VECTOR('',#1469,10.);
#460=VECTOR('',#1472,10.);
#461=VECTOR('',#1475,10.);
#462=VECTOR('',#1478,10.);
#463=VECTOR('',#1481,10.);
#464=VECTOR('',#1484,10.);
#465=CIRCLE('',#1112,1.1);
#466=CIRCLE('',#1113,1.1);
#467=CIRCLE('',#1115,2.75);
#468=CIRCLE('',#1116,2.75);
#469=CIRCLE('',#1119,1.1);
#470=CIRCLE('',#1120,1.1);
#471=CIRCLE('',#1122,2.75);
#472=CIRCLE('',#1123,2.75);
#473=CIRCLE('',#1126,1.1);
#474=CIRCLE('',#1127,1.1);
#475=CIRCLE('',#1129,2.75);
#476=CIRCLE('',#1130,2.75);
#477=CIRCLE('',#1133,1.1);
#478=CIRCLE('',#1134,1.1);
#479=CIRCLE('',#1136,2.75);
#480=CIRCLE('',#1137,2.75);
#481=CIRCLE('',#1140,2.);
#482=CIRCLE('',#1141,2.);
#483=CIRCLE('',#1143,1.5);
#484=CIRCLE('',#1145,1.5);
#485=CIRCLE('',#1147,2.1);
#486=CIRCLE('',#1149,2.1);
#487=CIRCLE('',#1150,2.1);
#488=CIRCLE('',#1151,2.1);
#489=CIRCLE('',#1173,1.75);
#490=CIRCLE('',#1174,1.75);
#491=CIRCLE('',#1177,1.75);
#492=CIRCLE('',#1178,1.75);
#493=VERTEX_POINT('',#1491);
#494=VERTEX_POINT('',#1493);
#495=VERTEX_POINT('',#1497);
#496=VERTEX_POINT('',#1499);
#497=VERTEX_POINT('',#1504);
#498=VERTEX_POINT('',#1506);
#499=VERTEX_POINT('',#1510);
#500=VERTEX_POINT('',#1512);
#501=VERTEX_POINT('',#1517);
#502=VERTEX_POINT('',#1519);
#503=VERTEX_POINT('',#1523);
#504=VERTEX_POINT('',#1525);
#505=VERTEX_POINT('',#1530);
#506=VERTEX_POINT('',#1532);
#507=VERTEX_POINT('',#1536);
#508=VERTEX_POINT('',#1538);
#509=VERTEX_POINT('',#1543);
#510=VERTEX_POINT('',#1545);
#511=VERTEX_POINT('',#1549);
#512=VERTEX_POINT('',#1552);
#513=VERTEX_POINT('',#1556);
#514=VERTEX_POINT('',#1560);
#515=VERTEX_POINT('',#1561);
#516=VERTEX_POINT('',#1563);
#517=VERTEX_POINT('',#1565);
#518=VERTEX_POINT('',#1567);
#519=VERTEX_POINT('',#1569);
#520=VERTEX_POINT('',#1571);
#521=VERTEX_POINT('',#1573);
#522=VERTEX_POINT('',#1576);
#523=VERTEX_POINT('',#1578);
#524=VERTEX_POINT('',#1580);
#525=VERTEX_POINT('',#1589);
#526=VERTEX_POINT('',#1590);
#527=VERTEX_POINT('',#1592);
#528=VERTEX_POINT('',#1594);
#529=VERTEX_POINT('',#1598);
#530=VERTEX_POINT('',#1599);
#531=VERTEX_POINT('',#1601);
#532=VERTEX_POINT('',#1603);
#533=VERTEX_POINT('',#1607);
#534=VERTEX_POINT('',#1609);
#535=VERTEX_POINT('',#1613);
#536=VERTEX_POINT('',#1615);
#537=VERTEX_POINT('',#1619);
#538=VERTEX_POINT('',#1621);
#539=VERTEX_POINT('',#1628);
#540=VERTEX_POINT('',#1630);
#541=VERTEX_POINT('',#1637);
#542=VERTEX_POINT('',#1638);
#543=VERTEX_POINT('',#1640);
#544=VERTEX_POINT('',#1642);
#545=VERTEX_POINT('',#1646);
#546=VERTEX_POINT('',#1647);
#547=VERTEX_POINT('',#1649);
#548=VERTEX_POINT('',#1651);
#549=VERTEX_POINT('',#1655);
#550=VERTEX_POINT('',#1657);
#551=VERTEX_POINT('',#1661);
#552=VERTEX_POINT('',#1663);
#553=VERTEX_POINT('',#1667);
#554=VERTEX_POINT('',#1669);
#555=VERTEX_POINT('',#1676);
#556=VERTEX_POINT('',#1678);
#557=VERTEX_POINT('',#1685);
#558=VERTEX_POINT('',#1686);
#559=VERTEX_POINT('',#1688);
#560=VERTEX_POINT('',#1690);
#561=VERTEX_POINT('',#1694);
#562=VERTEX_POINT('',#1696);
#563=VERTEX_POINT('',#1700);
#564=VERTEX_POINT('',#1702);
#565=VERTEX_POINT('',#1709);
#566=VERTEX_POINT('',#1710);
#567=VERTEX_POINT('',#1712);
#568=VERTEX_POINT('',#1714);
#569=VERTEX_POINT('',#1718);
#570=VERTEX_POINT('',#1720);
#571=VERTEX_POINT('',#1724);
#572=VERTEX_POINT('',#1726);
#573=VERTEX_POINT('',#1730);
#574=VERTEX_POINT('',#1732);
#575=VERTEX_POINT('',#1736);
#576=VERTEX_POINT('',#1738);
#577=VERTEX_POINT('',#1742);
#578=VERTEX_POINT('',#1744);
#579=VERTEX_POINT('',#1748);
#580=VERTEX_POINT('',#1750);
#581=VERTEX_POINT('',#1757);
#582=VERTEX_POINT('',#1758);
#583=VERTEX_POINT('',#1760);
#584=VERTEX_POINT('',#1762);
#585=VERTEX_POINT('',#1764);
#586=VERTEX_POINT('',#1766);
#587=VERTEX_POINT('',#1768);
#588=VERTEX_POINT('',#1770);
#589=EDGE_CURVE('',#493,#493,#465,.T.);
#590=EDGE_CURVE('',#493,#494,#229,.T.);
#591=EDGE_CURVE('',#494,#494,#466,.T.);
#592=EDGE_CURVE('',#495,#495,#467,.T.);
#593=EDGE_CURVE('',#495,#496,#230,.T.);
#594=EDGE_CURVE('',#496,#496,#468,.T.);
#595=EDGE_CURVE('',#497,#497,#469,.T.);
#596=EDGE_CURVE('',#497,#498,#231,.T.);
#597=EDGE_CURVE('',#498,#498,#470,.T.);
#598=EDGE_CURVE('',#499,#499,#471,.T.);
#599=EDGE_CURVE('',#499,#500,#232,.T.);
#600=EDGE_CURVE('',#500,#500,#472,.T.);
#601=EDGE_CURVE('',#501,#501,#473,.T.);
#602=EDGE_CURVE('',#501,#502,#233,.T.);
#603=EDGE_CURVE('',#502,#502,#474,.T.);
#604=EDGE_CURVE('',#503,#503,#475,.T.);
#605=EDGE_CURVE('',#503,#504,#234,.T.);
#606=EDGE_CURVE('',#504,#504,#476,.T.);
#607=EDGE_CURVE('',#505,#505,#477,.T.);
#608=EDGE_CURVE('',#505,#506,#235,.T.);
#609=EDGE_CURVE('',#506,#506,#478,.T.);
#610=EDGE_CURVE('',#507,#507,#479,.T.);
#611=EDGE_CURVE('',#507,#508,#236,.T.);
#612=EDGE_CURVE('',#508,#508,#480,.T.);
#613=EDGE_CURVE('',#509,#509,#481,.T.);
#614=EDGE_CURVE('',#509,#510,#237,.T.);
#615=EDGE_CURVE('',#510,#510,#482,.T.);
#616=EDGE_CURVE('',#511,#511,#483,.T.);
#617=EDGE_CURVE('',#512,#512,#484,.T.);
#618=EDGE_CURVE('',#512,#511,#238,.T.);
#619=EDGE_CURVE('',#513,#513,#485,.T.);
#620=EDGE_CURVE('',#513,#502,#239,.T.);
#621=EDGE_CURVE('',#514,#515,#240,.T.);
#622=EDGE_CURVE('',#514,#516,#241,.T.);
#623=EDGE_CURVE('',#516,#517,#242,.T.);
#624=EDGE_CURVE('',#517,#518,#243,.T.);
#625=EDGE_CURVE('',#518,#519,#244,.T.);
#626=EDGE_CURVE('',#519,#520,#245,.T.);
#627=EDGE_CURVE('',#521,#520,#246,.T.);
#628=EDGE_CURVE('',#521,#515,#247,.T.);
#629=EDGE_CURVE('',#522,#522,#486,.T.);
#630=EDGE_CURVE('',#523,#523,#487,.T.);
#631=EDGE_CURVE('',#524,#524,#488,.T.);
#632=EDGE_CURVE('',#522,#494,#248,.T.);
#633=EDGE_CURVE('',#524,#506,#249,.T.);
#634=EDGE_CURVE('',#523,#498,#250,.T.);
#635=EDGE_CURVE('',#525,#526,#251,.T.);
#636=EDGE_CURVE('',#525,#527,#252,.T.);
#637=EDGE_CURVE('',#528,#527,#253,.T.);
#638=EDGE_CURVE('',#526,#528,#254,.T.);
#639=EDGE_CURVE('',#529,#530,#255,.T.);
#640=EDGE_CURVE('',#531,#529,#256,.T.);
#641=EDGE_CURVE('',#532,#531,#257,.T.);
#642=EDGE_CURVE('',#532,#530,#258,.T.);
#643=EDGE_CURVE('',#533,#525,#259,.T.);
#644=EDGE_CURVE('',#533,#534,#260,.T.);
#645=EDGE_CURVE('',#527,#534,#261,.T.);
#646=EDGE_CURVE('',#530,#535,#262,.T.);
#647=EDGE_CURVE('',#536,#532,#263,.T.);
#648=EDGE_CURVE('',#536,#535,#264,.T.);
#649=EDGE_CURVE('',#526,#537,#265,.T.);
#650=EDGE_CURVE('',#538,#528,#266,.T.);
#651=EDGE_CURVE('',#537,#538,#267,.T.);
#652=EDGE_CURVE('',#537,#533,#268,.T.);
#653=EDGE_CURVE('',#534,#538,#269,.T.);
#654=EDGE_CURVE('',#535,#539,#270,.T.);
#655=EDGE_CURVE('',#540,#536,#271,.T.);
#656=EDGE_CURVE('',#540,#539,#272,.T.);
#657=EDGE_CURVE('',#539,#529,#273,.T.);
#658=EDGE_CURVE('',#531,#540,#274,.T.);
#659=EDGE_CURVE('',#541,#542,#275,.T.);
#660=EDGE_CURVE('',#543,#541,#276,.T.);
#661=EDGE_CURVE('',#544,#543,#277,.T.);
#662=EDGE_CURVE('',#544,#542,#278,.T.);
#663=EDGE_CURVE('',#545,#546,#279,.T.);
#664=EDGE_CURVE('',#545,#547,#280,.T.);
#665=EDGE_CURVE('',#548,#547,#281,.T.);
#666=EDGE_CURVE('',#546,#548,#282,.T.);
#667=EDGE_CURVE('',#549,#541,#283,.T.);
#668=EDGE_CURVE('',#550,#549,#284,.T.);
#669=EDGE_CURVE('',#543,#550,#285,.T.);
#670=EDGE_CURVE('',#546,#551,#286,.T.);
#671=EDGE_CURVE('',#552,#548,#287,.T.);
#672=EDGE_CURVE('',#551,#552,#288,.T.);
#673=EDGE_CURVE('',#542,#553,#289,.T.);
#674=EDGE_CURVE('',#554,#544,#290,.T.);
#675=EDGE_CURVE('',#554,#553,#291,.T.);
#676=EDGE_CURVE('',#553,#549,#292,.T.);
#677=EDGE_CURVE('',#550,#554,#293,.T.);
#678=EDGE_CURVE('',#551,#555,#294,.T.);
#679=EDGE_CURVE('',#556,#552,#295,.T.);
#680=EDGE_CURVE('',#555,#556,#296,.T.);
#681=EDGE_CURVE('',#555,#545,#297,.T.);
#682=EDGE_CURVE('',#547,#556,#298,.T.);
#683=EDGE_CURVE('',#557,#558,#299,.T.);
#684=EDGE_CURVE('',#559,#557,#300,.T.);
#685=EDGE_CURVE('',#560,#559,#301,.T.);
#686=EDGE_CURVE('',#560,#558,#302,.T.);
#687=EDGE_CURVE('',#558,#561,#489,.T.);
#688=EDGE_CURVE('',#562,#560,#490,.T.);
#689=EDGE_CURVE('',#562,#561,#303,.T.);
#690=EDGE_CURVE('',#561,#563,#304,.T.);
#691=EDGE_CURVE('',#564,#562,#305,.T.);
#692=EDGE_CURVE('',#564,#563,#306,.T.);
#693=EDGE_CURVE('',#563,#557,#491,.T.);
#694=EDGE_CURVE('',#559,#564,#492,.T.);
#695=EDGE_CURVE('',#565,#566,#307,.T.);
#696=EDGE_CURVE('',#565,#567,#308,.T.);
#697=EDGE_CURVE('',#568,#567,#309,.T.);
#698=EDGE_CURVE('',#566,#568,#310,.T.);
#699=EDGE_CURVE('',#566,#569,#311,.T.);
#700=EDGE_CURVE('',#570,#568,#312,.T.);
#701=EDGE_CURVE('',#569,#570,#313,.T.);
#702=EDGE_CURVE('',#569,#571,#314,.T.);
#703=EDGE_CURVE('',#572,#570,#315,.T.);
#704=EDGE_CURVE('',#571,#572,#316,.T.);
#705=EDGE_CURVE('',#571,#573,#317,.T.);
#706=EDGE_CURVE('',#574,#572,#318,.T.);
#707=EDGE_CURVE('',#573,#574,#319,.T.);
#708=EDGE_CURVE('',#573,#575,#320,.T.);
#709=EDGE_CURVE('',#576,#574,#321,.T.);
#710=EDGE_CURVE('',#575,#576,#322,.T.);
#711=EDGE_CURVE('',#575,#577,#323,.T.);
#712=EDGE_CURVE('',#578,#576,#324,.T.);
#713=EDGE_CURVE('',#577,#578,#325,.T.);
#714=EDGE_CURVE('',#577,#579,#326,.T.);
#715=EDGE_CURVE('',#580,#578,#327,.T.);
#716=EDGE_CURVE('',#579,#580,#328,.T.);
#717=EDGE_CURVE('',#579,#565,#329,.T.);
#718=EDGE_CURVE('',#567,#580,#330,.T.);
#719=EDGE_CURVE('',#581,#582,#331,.T.);
#720=EDGE_CURVE('',#582,#583,#332,.T.);
#721=EDGE_CURVE('',#583,#584,#333,.T.);
#722=EDGE_CURVE('',#584,#585,#334,.T.);
#723=EDGE_CURVE('',#585,#586,#335,.T.);
#724=EDGE_CURVE('',#586,#587,#336,.T.);
#725=EDGE_CURVE('',#587,#588,#337,.T.);
#726=EDGE_CURVE('',#588,#581,#338,.T.);
#727=EDGE_CURVE('',#514,#582,#339,.T.);
#728=EDGE_CURVE('',#516,#581,#340,.T.);
#729=EDGE_CURVE('',#517,#588,#341,.T.);
#730=EDGE_CURVE('',#518,#587,#342,.T.);
#731=EDGE_CURVE('',#519,#586,#343,.T.);
#732=EDGE_CURVE('',#520,#585,#344,.T.);
#733=EDGE_CURVE('',#521,#584,#345,.T.);
#734=EDGE_CURVE('',#515,#583,#346,.T.);
#735=ORIENTED_EDGE('',*,*,#589,.F.);
#736=ORIENTED_EDGE('',*,*,#590,.T.);
#737=ORIENTED_EDGE('',*,*,#591,.T.);
#738=ORIENTED_EDGE('',*,*,#590,.F.);
#739=ORIENTED_EDGE('',*,*,#592,.F.);
#740=ORIENTED_EDGE('',*,*,#593,.T.);
#741=ORIENTED_EDGE('',*,*,#594,.F.);
#742=ORIENTED_EDGE('',*,*,#593,.F.);
#743=ORIENTED_EDGE('',*,*,#592,.T.);
#744=ORIENTED_EDGE('',*,*,#589,.T.);
#745=ORIENTED_EDGE('',*,*,#595,.F.);
#746=ORIENTED_EDGE('',*,*,#596,.T.);
#747=ORIENTED_EDGE('',*,*,#597,.T.);
#748=ORIENTED_EDGE('',*,*,#596,.F.);
#749=ORIENTED_EDGE('',*,*,#598,.F.);
#750=ORIENTED_EDGE('',*,*,#599,.T.);
#751=ORIENTED_EDGE('',*,*,#600,.F.);
#752=ORIENTED_EDGE('',*,*,#599,.F.);
#753=ORIENTED_EDGE('',*,*,#598,.T.);
#754=ORIENTED_EDGE('',*,*,#595,.T.);
#755=ORIENTED_EDGE('',*,*,#601,.F.);
#756=ORIENTED_EDGE('',*,*,#602,.T.);
#757=ORIENTED_EDGE('',*,*,#603,.T.);
#758=ORIENTED_EDGE('',*,*,#602,.F.);
#759=ORIENTED_EDGE('',*,*,#604,.F.);
#760=ORIENTED_EDGE('',*,*,#605,.T.);
#761=ORIENTED_EDGE('',*,*,#606,.F.);
#762=ORIENTED_EDGE('',*,*,#605,.F.);
#763=ORIENTED_EDGE('',*,*,#604,.T.);
#764=ORIENTED_EDGE('',*,*,#601,.T.);
#765=ORIENTED_EDGE('',*,*,#607,.F.);
#766=ORIENTED_EDGE('',*,*,#608,.T.);
#767=ORIENTED_EDGE('',*,*,#609,.T.);
#768=ORIENTED_EDGE('',*,*,#608,.F.);
#769=ORIENTED_EDGE('',*,*,#610,.F.);
#770=ORIENTED_EDGE('',*,*,#611,.T.);
#771=ORIENTED_EDGE('',*,*,#612,.F.);
#772=ORIENTED_EDGE('',*,*,#611,.F.);
#773=ORIENTED_EDGE('',*,*,#610,.T.);
#774=ORIENTED_EDGE('',*,*,#607,.T.);
#775=ORIENTED_EDGE('',*,*,#613,.F.);
#776=ORIENTED_EDGE('',*,*,#614,.T.);
#777=ORIENTED_EDGE('',*,*,#615,.T.);
#778=ORIENTED_EDGE('',*,*,#614,.F.);
#779=ORIENTED_EDGE('',*,*,#615,.F.);
#780=ORIENTED_EDGE('',*,*,#616,.F.);
#781=ORIENTED_EDGE('',*,*,#617,.F.);
#782=ORIENTED_EDGE('',*,*,#618,.T.);
#783=ORIENTED_EDGE('',*,*,#616,.T.);
#784=ORIENTED_EDGE('',*,*,#618,.F.);
#785=ORIENTED_EDGE('',*,*,#619,.T.);
#786=ORIENTED_EDGE('',*,*,#620,.T.);
#787=ORIENTED_EDGE('',*,*,#603,.F.);
#788=ORIENTED_EDGE('',*,*,#620,.F.);
#789=ORIENTED_EDGE('',*,*,#621,.F.);
#790=ORIENTED_EDGE('',*,*,#622,.T.);
#791=ORIENTED_EDGE('',*,*,#623,.T.);
#792=ORIENTED_EDGE('',*,*,#624,.T.);
#793=ORIENTED_EDGE('',*,*,#625,.T.);
#794=ORIENTED_EDGE('',*,*,#626,.T.);
#795=ORIENTED_EDGE('',*,*,#627,.F.);
#796=ORIENTED_EDGE('',*,*,#628,.T.);
#797=ORIENTED_EDGE('',*,*,#629,.F.);
#798=ORIENTED_EDGE('',*,*,#630,.F.);
#799=ORIENTED_EDGE('',*,*,#631,.F.);
#800=ORIENTED_EDGE('',*,*,#619,.F.);
#801=ORIENTED_EDGE('',*,*,#629,.T.);
#802=ORIENTED_EDGE('',*,*,#632,.T.);
#803=ORIENTED_EDGE('',*,*,#591,.F.);
#804=ORIENTED_EDGE('',*,*,#632,.F.);
#805=ORIENTED_EDGE('',*,*,#631,.T.);
#806=ORIENTED_EDGE('',*,*,#633,.T.);
#807=ORIENTED_EDGE('',*,*,#609,.F.);
#808=ORIENTED_EDGE('',*,*,#633,.F.);
#809=ORIENTED_EDGE('',*,*,#630,.T.);
#810=ORIENTED_EDGE('',*,*,#634,.T.);
#811=ORIENTED_EDGE('',*,*,#597,.F.);
#812=ORIENTED_EDGE('',*,*,#634,.F.);
#813=ORIENTED_EDGE('',*,*,#635,.F.);
#814=ORIENTED_EDGE('',*,*,#636,.T.);
#815=ORIENTED_EDGE('',*,*,#637,.F.);
#816=ORIENTED_EDGE('',*,*,#638,.F.);
#817=ORIENTED_EDGE('',*,*,#639,.F.);
#818=ORIENTED_EDGE('',*,*,#640,.F.);
#819=ORIENTED_EDGE('',*,*,#641,.F.);
#820=ORIENTED_EDGE('',*,*,#642,.T.);
#821=ORIENTED_EDGE('',*,*,#643,.F.);
#822=ORIENTED_EDGE('',*,*,#644,.T.);
#823=ORIENTED_EDGE('',*,*,#645,.F.);
#824=ORIENTED_EDGE('',*,*,#636,.F.);
#825=ORIENTED_EDGE('',*,*,#646,.F.);
#826=ORIENTED_EDGE('',*,*,#642,.F.);
#827=ORIENTED_EDGE('',*,*,#647,.F.);
#828=ORIENTED_EDGE('',*,*,#648,.T.);
#829=ORIENTED_EDGE('',*,*,#649,.F.);
#830=ORIENTED_EDGE('',*,*,#638,.T.);
#831=ORIENTED_EDGE('',*,*,#650,.F.);
#832=ORIENTED_EDGE('',*,*,#651,.F.);
#833=ORIENTED_EDGE('',*,*,#652,.F.);
#834=ORIENTED_EDGE('',*,*,#651,.T.);
#835=ORIENTED_EDGE('',*,*,#653,.F.);
#836=ORIENTED_EDGE('',*,*,#644,.F.);
#837=ORIENTED_EDGE('',*,*,#654,.F.);
#838=ORIENTED_EDGE('',*,*,#648,.F.);
#839=ORIENTED_EDGE('',*,*,#655,.F.);
#840=ORIENTED_EDGE('',*,*,#656,.T.);
#841=ORIENTED_EDGE('',*,*,#657,.F.);
#842=ORIENTED_EDGE('',*,*,#656,.F.);
#843=ORIENTED_EDGE('',*,*,#658,.F.);
#844=ORIENTED_EDGE('',*,*,#640,.T.);
#845=ORIENTED_EDGE('',*,*,#659,.F.);
#846=ORIENTED_EDGE('',*,*,#660,.F.);
#847=ORIENTED_EDGE('',*,*,#661,.F.);
#848=ORIENTED_EDGE('',*,*,#662,.T.);
#849=ORIENTED_EDGE('',*,*,#663,.F.);
#850=ORIENTED_EDGE('',*,*,#664,.T.);
#851=ORIENTED_EDGE('',*,*,#665,.F.);
#852=ORIENTED_EDGE('',*,*,#666,.F.);
#853=ORIENTED_EDGE('',*,*,#667,.F.);
#854=ORIENTED_EDGE('',*,*,#668,.F.);
#855=ORIENTED_EDGE('',*,*,#669,.F.);
#856=ORIENTED_EDGE('',*,*,#660,.T.);
#857=ORIENTED_EDGE('',*,*,#670,.F.);
#858=ORIENTED_EDGE('',*,*,#666,.T.);
#859=ORIENTED_EDGE('',*,*,#671,.F.);
#860=ORIENTED_EDGE('',*,*,#672,.F.);
#861=ORIENTED_EDGE('',*,*,#673,.F.);
#862=ORIENTED_EDGE('',*,*,#662,.F.);
#863=ORIENTED_EDGE('',*,*,#674,.F.);
#864=ORIENTED_EDGE('',*,*,#675,.T.);
#865=ORIENTED_EDGE('',*,*,#676,.F.);
#866=ORIENTED_EDGE('',*,*,#675,.F.);
#867=ORIENTED_EDGE('',*,*,#677,.F.);
#868=ORIENTED_EDGE('',*,*,#668,.T.);
#869=ORIENTED_EDGE('',*,*,#678,.F.);
#870=ORIENTED_EDGE('',*,*,#672,.T.);
#871=ORIENTED_EDGE('',*,*,#679,.F.);
#872=ORIENTED_EDGE('',*,*,#680,.F.);
#873=ORIENTED_EDGE('',*,*,#681,.F.);
#874=ORIENTED_EDGE('',*,*,#680,.T.);
#875=ORIENTED_EDGE('',*,*,#682,.F.);
#876=ORIENTED_EDGE('',*,*,#664,.F.);
#877=ORIENTED_EDGE('',*,*,#683,.F.);
#878=ORIENTED_EDGE('',*,*,#684,.F.);
#879=ORIENTED_EDGE('',*,*,#685,.F.);
#880=ORIENTED_EDGE('',*,*,#686,.T.);
#881=ORIENTED_EDGE('',*,*,#687,.F.);
#882=ORIENTED_EDGE('',*,*,#686,.F.);
#883=ORIENTED_EDGE('',*,*,#688,.F.);
#884=ORIENTED_EDGE('',*,*,#689,.T.);
#885=ORIENTED_EDGE('',*,*,#690,.F.);
#886=ORIENTED_EDGE('',*,*,#689,.F.);
#887=ORIENTED_EDGE('',*,*,#691,.F.);
#888=ORIENTED_EDGE('',*,*,#692,.T.);
#889=ORIENTED_EDGE('',*,*,#693,.F.);
#890=ORIENTED_EDGE('',*,*,#692,.F.);
#891=ORIENTED_EDGE('',*,*,#694,.F.);
#892=ORIENTED_EDGE('',*,*,#684,.T.);
#893=ORIENTED_EDGE('',*,*,#695,.F.);
#894=ORIENTED_EDGE('',*,*,#696,.T.);
#895=ORIENTED_EDGE('',*,*,#697,.F.);
#896=ORIENTED_EDGE('',*,*,#698,.F.);
#897=ORIENTED_EDGE('',*,*,#654,.T.);
#898=ORIENTED_EDGE('',*,*,#657,.T.);
#899=ORIENTED_EDGE('',*,*,#639,.T.);
#900=ORIENTED_EDGE('',*,*,#646,.T.);
#901=ORIENTED_EDGE('',*,*,#699,.F.);
#902=ORIENTED_EDGE('',*,*,#698,.T.);
#903=ORIENTED_EDGE('',*,*,#700,.F.);
#904=ORIENTED_EDGE('',*,*,#701,.F.);
#905=ORIENTED_EDGE('',*,*,#613,.T.);
#906=ORIENTED_EDGE('',*,*,#702,.F.);
#907=ORIENTED_EDGE('',*,*,#701,.T.);
#908=ORIENTED_EDGE('',*,*,#703,.F.);
#909=ORIENTED_EDGE('',*,*,#704,.F.);
#910=ORIENTED_EDGE('',*,*,#678,.T.);
#911=ORIENTED_EDGE('',*,*,#681,.T.);
#912=ORIENTED_EDGE('',*,*,#663,.T.);
#913=ORIENTED_EDGE('',*,*,#670,.T.);
#914=ORIENTED_EDGE('',*,*,#705,.F.);
#915=ORIENTED_EDGE('',*,*,#704,.T.);
#916=ORIENTED_EDGE('',*,*,#706,.F.);
#917=ORIENTED_EDGE('',*,*,#707,.F.);
#918=ORIENTED_EDGE('',*,*,#690,.T.);
#919=ORIENTED_EDGE('',*,*,#693,.T.);
#920=ORIENTED_EDGE('',*,*,#683,.T.);
#921=ORIENTED_EDGE('',*,*,#687,.T.);
#922=ORIENTED_EDGE('',*,*,#708,.F.);
#923=ORIENTED_EDGE('',*,*,#707,.T.);
#924=ORIENTED_EDGE('',*,*,#709,.F.);
#925=ORIENTED_EDGE('',*,*,#710,.F.);
#926=ORIENTED_EDGE('',*,*,#652,.T.);
#927=ORIENTED_EDGE('',*,*,#643,.T.);
#928=ORIENTED_EDGE('',*,*,#635,.T.);
#929=ORIENTED_EDGE('',*,*,#649,.T.);
#930=ORIENTED_EDGE('',*,*,#711,.F.);
#931=ORIENTED_EDGE('',*,*,#710,.T.);
#932=ORIENTED_EDGE('',*,*,#712,.F.);
#933=ORIENTED_EDGE('',*,*,#713,.F.);
#934=ORIENTED_EDGE('',*,*,#714,.F.);
#935=ORIENTED_EDGE('',*,*,#713,.T.);
#936=ORIENTED_EDGE('',*,*,#715,.F.);
#937=ORIENTED_EDGE('',*,*,#716,.F.);
#938=ORIENTED_EDGE('',*,*,#676,.T.);
#939=ORIENTED_EDGE('',*,*,#667,.T.);
#940=ORIENTED_EDGE('',*,*,#659,.T.);
#941=ORIENTED_EDGE('',*,*,#673,.T.);
#942=ORIENTED_EDGE('',*,*,#717,.F.);
#943=ORIENTED_EDGE('',*,*,#716,.T.);
#944=ORIENTED_EDGE('',*,*,#718,.F.);
#945=ORIENTED_EDGE('',*,*,#696,.F.);
#946=ORIENTED_EDGE('',*,*,#719,.T.);
#947=ORIENTED_EDGE('',*,*,#720,.T.);
#948=ORIENTED_EDGE('',*,*,#721,.T.);
#949=ORIENTED_EDGE('',*,*,#722,.T.);
#950=ORIENTED_EDGE('',*,*,#723,.T.);
#951=ORIENTED_EDGE('',*,*,#724,.T.);
#952=ORIENTED_EDGE('',*,*,#725,.T.);
#953=ORIENTED_EDGE('',*,*,#726,.T.);
#954=ORIENTED_EDGE('',*,*,#718,.T.);
#955=ORIENTED_EDGE('',*,*,#715,.T.);
#956=ORIENTED_EDGE('',*,*,#712,.T.);
#957=ORIENTED_EDGE('',*,*,#709,.T.);
#958=ORIENTED_EDGE('',*,*,#706,.T.);
#959=ORIENTED_EDGE('',*,*,#703,.T.);
#960=ORIENTED_EDGE('',*,*,#700,.T.);
#961=ORIENTED_EDGE('',*,*,#697,.T.);
#962=ORIENTED_EDGE('',*,*,#622,.F.);
#963=ORIENTED_EDGE('',*,*,#727,.T.);
#964=ORIENTED_EDGE('',*,*,#719,.F.);
#965=ORIENTED_EDGE('',*,*,#728,.F.);
#966=ORIENTED_EDGE('',*,*,#677,.T.);
#967=ORIENTED_EDGE('',*,*,#674,.T.);
#968=ORIENTED_EDGE('',*,*,#661,.T.);
#969=ORIENTED_EDGE('',*,*,#669,.T.);
#970=ORIENTED_EDGE('',*,*,#623,.F.);
#971=ORIENTED_EDGE('',*,*,#728,.T.);
#972=ORIENTED_EDGE('',*,*,#726,.F.);
#973=ORIENTED_EDGE('',*,*,#729,.F.);
#974=ORIENTED_EDGE('',*,*,#624,.F.);
#975=ORIENTED_EDGE('',*,*,#729,.T.);
#976=ORIENTED_EDGE('',*,*,#725,.F.);
#977=ORIENTED_EDGE('',*,*,#730,.F.);
#978=ORIENTED_EDGE('',*,*,#653,.T.);
#979=ORIENTED_EDGE('',*,*,#650,.T.);
#980=ORIENTED_EDGE('',*,*,#637,.T.);
#981=ORIENTED_EDGE('',*,*,#645,.T.);
#982=ORIENTED_EDGE('',*,*,#625,.F.);
#983=ORIENTED_EDGE('',*,*,#730,.T.);
#984=ORIENTED_EDGE('',*,*,#724,.F.);
#985=ORIENTED_EDGE('',*,*,#731,.F.);
#986=ORIENTED_EDGE('',*,*,#691,.T.);
#987=ORIENTED_EDGE('',*,*,#688,.T.);
#988=ORIENTED_EDGE('',*,*,#685,.T.);
#989=ORIENTED_EDGE('',*,*,#694,.T.);
#990=ORIENTED_EDGE('',*,*,#626,.F.);
#991=ORIENTED_EDGE('',*,*,#731,.T.);
#992=ORIENTED_EDGE('',*,*,#723,.F.);
#993=ORIENTED_EDGE('',*,*,#732,.F.);
#994=ORIENTED_EDGE('',*,*,#679,.T.);
#995=ORIENTED_EDGE('',*,*,#671,.T.);
#996=ORIENTED_EDGE('',*,*,#665,.T.);
#997=ORIENTED_EDGE('',*,*,#682,.T.);
#998=ORIENTED_EDGE('',*,*,#627,.T.);
#999=ORIENTED_EDGE('',*,*,#732,.T.);
#1000=ORIENTED_EDGE('',*,*,#722,.F.);
#1001=ORIENTED_EDGE('',*,*,#733,.F.);
#1002=ORIENTED_EDGE('',*,*,#617,.T.);
#1003=ORIENTED_EDGE('',*,*,#628,.F.);
#1004=ORIENTED_EDGE('',*,*,#733,.T.);
#1005=ORIENTED_EDGE('',*,*,#721,.F.);
#1006=ORIENTED_EDGE('',*,*,#734,.F.);
#1007=ORIENTED_EDGE('',*,*,#655,.T.);
#1008=ORIENTED_EDGE('',*,*,#647,.T.);
#1009=ORIENTED_EDGE('',*,*,#641,.T.);
#1010=ORIENTED_EDGE('',*,*,#658,.T.);
#1011=ORIENTED_EDGE('',*,*,#621,.T.);
#1012=ORIENTED_EDGE('',*,*,#734,.T.);
#1013=ORIENTED_EDGE('',*,*,#720,.F.);
#1014=ORIENTED_EDGE('',*,*,#727,.F.);
#1015=ORIENTED_EDGE('',*,*,#695,.T.);
#1016=ORIENTED_EDGE('',*,*,#699,.T.);
#1017=ORIENTED_EDGE('',*,*,#702,.T.);
#1018=ORIENTED_EDGE('',*,*,#705,.T.);
#1019=ORIENTED_EDGE('',*,*,#708,.T.);
#1020=ORIENTED_EDGE('',*,*,#711,.T.);
#1021=ORIENTED_EDGE('',*,*,#714,.T.);
#1022=ORIENTED_EDGE('',*,*,#717,.T.);
#1023=ORIENTED_EDGE('',*,*,#594,.T.);
#1024=ORIENTED_EDGE('',*,*,#600,.T.);
#1025=ORIENTED_EDGE('',*,*,#606,.T.);
#1026=ORIENTED_EDGE('',*,*,#612,.T.);
#1027=CYLINDRICAL_SURFACE('',#1111,1.1);
#1028=CYLINDRICAL_SURFACE('',#1114,2.75);
#1029=CYLINDRICAL_SURFACE('',#1118,1.1);
#1030=CYLINDRICAL_SURFACE('',#1121,2.75);
#1031=CYLINDRICAL_SURFACE('',#1125,1.1);
#1032=CYLINDRICAL_SURFACE('',#1128,2.75);
#1033=CYLINDRICAL_SURFACE('',#1132,1.1);
#1034=CYLINDRICAL_SURFACE('',#1135,2.75);
#1035=CYLINDRICAL_SURFACE('',#1139,2.);
#1036=CYLINDRICAL_SURFACE('',#1144,1.5);
#1037=CYLINDRICAL_SURFACE('',#1172,1.75);
#1038=CYLINDRICAL_SURFACE('',#1176,1.75);
#1039=ADVANCED_FACE('',(#87),#1027,.F.);
#1040=ADVANCED_FACE('',(#88),#1028,.T.);
#1041=ADVANCED_FACE('',(#89,#19),#45,.T.);
#1042=ADVANCED_FACE('',(#90),#1029,.F.);
#1043=ADVANCED_FACE('',(#91),#1030,.T.);
#1044=ADVANCED_FACE('',(#92,#20),#46,.T.);
#1045=ADVANCED_FACE('',(#93),#1031,.F.);
#1046=ADVANCED_FACE('',(#94),#1032,.T.);
#1047=ADVANCED_FACE('',(#95,#21),#47,.T.);
#1048=ADVANCED_FACE('',(#96),#1033,.F.);
#1049=ADVANCED_FACE('',(#97),#1034,.T.);
#1050=ADVANCED_FACE('',(#98,#22),#48,.T.);
#1051=ADVANCED_FACE('',(#99),#1035,.F.);
#1052=ADVANCED_FACE('',(#100,#23),#49,.T.);
#1053=ADVANCED_FACE('',(#101),#1036,.F.);
#1054=ADVANCED_FACE('',(#102),#15,.F.);
#1055=ADVANCED_FACE('',(#103,#24,#25,#26,#27),#50,.F.);
#1056=ADVANCED_FACE('',(#104),#16,.F.);
#1057=ADVANCED_FACE('',(#105),#17,.F.);
#1058=ADVANCED_FACE('',(#106),#18,.F.);
#1059=ADVANCED_FACE('',(#107),#51,.F.);
#1060=ADVANCED_FACE('',(#108),#52,.F.);
#1061=ADVANCED_FACE('',(#109),#53,.F.);
#1062=ADVANCED_FACE('',(#110),#54,.F.);
#1063=ADVANCED_FACE('',(#111),#55,.F.);
#1064=ADVANCED_FACE('',(#112),#56,.F.);
#1065=ADVANCED_FACE('',(#113),#57,.F.);
#1066=ADVANCED_FACE('',(#114),#58,.F.);
#1067=ADVANCED_FACE('',(#115),#59,.F.);
#1068=ADVANCED_FACE('',(#116),#60,.F.);
#1069=ADVANCED_FACE('',(#117),#61,.F.);
#1070=ADVANCED_FACE('',(#118),#62,.F.);
#1071=ADVANCED_FACE('',(#119),#63,.F.);
#1072=ADVANCED_FACE('',(#120),#64,.F.);
#1073=ADVANCED_FACE('',(#121),#65,.F.);
#1074=ADVANCED_FACE('',(#122),#66,.F.);
#1075=ADVANCED_FACE('',(#123),#67,.F.);
#1076=ADVANCED_FACE('',(#124),#1037,.F.);
#1077=ADVANCED_FACE('',(#125),#68,.F.);
#1078=ADVANCED_FACE('',(#126),#1038,.F.);
#1079=ADVANCED_FACE('',(#127,#28),#69,.T.);
#1080=ADVANCED_FACE('',(#128,#29),#70,.T.);
#1081=ADVANCED_FACE('',(#129,#30),#71,.T.);
#1082=ADVANCED_FACE('',(#130,#31),#72,.T.);
#1083=ADVANCED_FACE('',(#131,#32),#73,.T.);
#1084=ADVANCED_FACE('',(#132),#74,.T.);
#1085=ADVANCED_FACE('',(#133,#33),#75,.T.);
#1086=ADVANCED_FACE('',(#134),#76,.T.);
#1087=ADVANCED_FACE('',(#135,#34),#77,.T.);
#1088=ADVANCED_FACE('',(#136,#35),#78,.T.);
#1089=ADVANCED_FACE('',(#137),#79,.T.);
#1090=ADVANCED_FACE('',(#138,#36),#80,.T.);
#1091=ADVANCED_FACE('',(#139,#37),#81,.T.);
#1092=ADVANCED_FACE('',(#140,#38),#82,.T.);
#1093=ADVANCED_FACE('',(#141,#39),#83,.T.);
#1094=ADVANCED_FACE('',(#142,#40),#84,.T.);
#1095=ADVANCED_FACE('',(#143),#85,.T.);
#1096=ADVANCED_FACE('',(#144,#41,#42,#43,#44),#86,.T.);
#1097=CLOSED_SHELL('',(#1039,#1040,#1041,#1042,#1043,#1044,#1045,#1046,
#1047,#1048,#1049,#1050,#1051,#1052,#1053,#1054,#1055,#1056,#1057,#1058,
#1059,#1060,#1061,#1062,#1063,#1064,#1065,#1066,#1067,#1068,#1069,#1070,
#1071,#1072,#1073,#1074,#1075,#1076,#1077,#1078,#1079,#1080,#1081,#1082,
#1083,#1084,#1085,#1086,#1087,#1088,#1089,#1090,#1091,#1092,#1093,#1094,
#1095,#1096));
#1098=DERIVED_UNIT_ELEMENT(#1100,1.);
#1099=DERIVED_UNIT_ELEMENT(#1795,-3.);
#1100=(
MASS_UNIT()
NAMED_UNIT(*)
SI_UNIT(.KILO.,.GRAM.)
);
#1101=DERIVED_UNIT((#1098,#1099));
#1102=MEASURE_REPRESENTATION_ITEM('density measure',
POSITIVE_RATIO_MEASURE(7850.),#1101);
#1103=PROPERTY_DEFINITION_REPRESENTATION(#1108,#1105);
#1104=PROPERTY_DEFINITION_REPRESENTATION(#1109,#1106);
#1105=REPRESENTATION('material name',(#1107),#1792);
#1106=REPRESENTATION('density',(#1102),#1792);
#1107=DESCRIPTIVE_REPRESENTATION_ITEM('Steel','Steel');
#1108=PROPERTY_DEFINITION('material property','material name',#1802);
#1109=PROPERTY_DEFINITION('material property','density of part',#1802);
#1110=AXIS2_PLACEMENT_3D('',#1489,#1197,#1198);
#1111=AXIS2_PLACEMENT_3D('',#1490,#1199,#1200);
#1112=AXIS2_PLACEMENT_3D('',#1492,#1201,#1202);
#1113=AXIS2_PLACEMENT_3D('',#1495,#1204,#1205);
#1114=AXIS2_PLACEMENT_3D('',#1496,#1206,#1207);
#1115=AXIS2_PLACEMENT_3D('',#1498,#1208,#1209);
#1116=AXIS2_PLACEMENT_3D('',#1501,#1211,#1212);
#1117=AXIS2_PLACEMENT_3D('',#1502,#1213,#1214);
#1118=AXIS2_PLACEMENT_3D('',#1503,#1215,#1216);
#1119=AXIS2_PLACEMENT_3D('',#1505,#1217,#1218);
#1120=AXIS2_PLACEMENT_3D('',#1508,#1220,#1221);
#1121=AXIS2_PLACEMENT_3D('',#1509,#1222,#1223);
#1122=AXIS2_PLACEMENT_3D('',#1511,#1224,#1225);
#1123=AXIS2_PLACEMENT_3D('',#1514,#1227,#1228);
#1124=AXIS2_PLACEMENT_3D('',#1515,#1229,#1230);
#1125=AXIS2_PLACEMENT_3D('',#1516,#1231,#1232);
#1126=AXIS2_PLACEMENT_3D('',#1518,#1233,#1234);
#1127=AXIS2_PLACEMENT_3D('',#1521,#1236,#1237);
#1128=AXIS2_PLACEMENT_3D('',#1522,#1238,#1239);
#1129=AXIS2_PLACEMENT_3D('',#1524,#1240,#1241);
#1130=AXIS2_PLACEMENT_3D('',#1527,#1243,#1244);
#1131=AXIS2_PLACEMENT_3D('',#1528,#1245,#1246);
#1132=AXIS2_PLACEMENT_3D('',#1529,#1247,#1248);
#1133=AXIS2_PLACEMENT_3D('',#1531,#1249,#1250);
#1134=AXIS2_PLACEMENT_3D('',#1534,#1252,#1253);
#1135=AXIS2_PLACEMENT_3D('',#1535,#1254,#1255);
#1136=AXIS2_PLACEMENT_3D('',#1537,#1256,#1257);
#1137=AXIS2_PLACEMENT_3D('',#1540,#1259,#1260);
#1138=AXIS2_PLACEMENT_3D('',#1541,#1261,#1262);
#1139=AXIS2_PLACEMENT_3D('',#1542,#1263,#1264);
#1140=AXIS2_PLACEMENT_3D('',#1544,#1265,#1266);
#1141=AXIS2_PLACEMENT_3D('',#1547,#1268,#1269);
#1142=AXIS2_PLACEMENT_3D('',#1548,#1270,#1271);
#1143=AXIS2_PLACEMENT_3D('',#1550,#1272,#1273);
#1144=AXIS2_PLACEMENT_3D('',#1551,#1274,#1275);
#1145=AXIS2_PLACEMENT_3D('',#1553,#1276,#1277);
#1146=AXIS2_PLACEMENT_3D('',#1555,#1279,#1280);
#1147=AXIS2_PLACEMENT_3D('',#1557,#1281,#1282);
#1148=AXIS2_PLACEMENT_3D('',#1559,#1284,#1285);
#1149=AXIS2_PLACEMENT_3D('',#1577,#1294,#1295);
#1150=AXIS2_PLACEMENT_3D('',#1579,#1296,#1297);
#1151=AXIS2_PLACEMENT_3D('',#1581,#1298,#1299);
#1152=AXIS2_PLACEMENT_3D('',#1582,#1300,#1301);
#1153=AXIS2_PLACEMENT_3D('',#1584,#1303,#1304);
#1154=AXIS2_PLACEMENT_3D('',#1586,#1306,#1307);
#1155=AXIS2_PLACEMENT_3D('',#1588,#1309,#1310);
#1156=AXIS2_PLACEMENT_3D('',#1597,#1315,#1316);
#1157=AXIS2_PLACEMENT_3D('',#1606,#1321,#1322);
#1158=AXIS2_PLACEMENT_3D('',#1612,#1326,#1327);
#1159=AXIS2_PLACEMENT_3D('',#1618,#1331,#1332);
#1160=AXIS2_PLACEMENT_3D('',#1624,#1336,#1337);
#1161=AXIS2_PLACEMENT_3D('',#1627,#1340,#1341);
#1162=AXIS2_PLACEMENT_3D('',#1633,#1345,#1346);
#1163=AXIS2_PLACEMENT_3D('',#1636,#1349,#1350);
#1164=AXIS2_PLACEMENT_3D('',#1645,#1355,#1356);
#1165=AXIS2_PLACEMENT_3D('',#1654,#1361,#1362);
#1166=AXIS2_PLACEMENT_3D('',#1660,#1366,#1367);
#1167=AXIS2_PLACEMENT_3D('',#1666,#1371,#1372);
#1168=AXIS2_PLACEMENT_3D('',#1672,#1376,#1377);
#1169=AXIS2_PLACEMENT_3D('',#1675,#1380,#1381);
#1170=AXIS2_PLACEMENT_3D('',#1681,#1385,#1386);
#1171=AXIS2_PLACEMENT_3D('',#1684,#1389,#1390);
#1172=AXIS2_PLACEMENT_3D('',#1693,#1395,#1396);
#1173=AXIS2_PLACEMENT_3D('',#1695,#1397,#1398);
#1174=AXIS2_PLACEMENT_3D('',#1697,#1399,#1400);
#1175=AXIS2_PLACEMENT_3D('',#1699,#1402,#1403);
#1176=AXIS2_PLACEMENT_3D('',#1705,#1407,#1408);
#1177=AXIS2_PLACEMENT_3D('',#1706,#1409,#1410);
#1178=AXIS2_PLACEMENT_3D('',#1707,#1411,#1412);
#1179=AXIS2_PLACEMENT_3D('',#1708,#1413,#1414);
#1180=AXIS2_PLACEMENT_3D('',#1717,#1419,#1420);
#1181=AXIS2_PLACEMENT_3D('',#1723,#1424,#1425);
#1182=AXIS2_PLACEMENT_3D('',#1729,#1429,#1430);
#1183=AXIS2_PLACEMENT_3D('',#1735,#1434,#1435);
#1184=AXIS2_PLACEMENT_3D('',#1741,#1439,#1440);
#1185=AXIS2_PLACEMENT_3D('',#1747,#1444,#1445);
#1186=AXIS2_PLACEMENT_3D('',#1753,#1449,#1450);
#1187=AXIS2_PLACEMENT_3D('',#1756,#1453,#1454);
#1188=AXIS2_PLACEMENT_3D('',#1773,#1463,#1464);
#1189=AXIS2_PLACEMENT_3D('',#1776,#1467,#1468);
#1190=AXIS2_PLACEMENT_3D('',#1778,#1470,#1471);
#1191=AXIS2_PLACEMENT_3D('',#1780,#1473,#1474);
#1192=AXIS2_PLACEMENT_3D('',#1782,#1476,#1477);
#1193=AXIS2_PLACEMENT_3D('',#1784,#1479,#1480);
#1194=AXIS2_PLACEMENT_3D('',#1786,#1482,#1483);
#1195=AXIS2_PLACEMENT_3D('',#1788,#1485,#1486);
#1196=AXIS2_PLACEMENT_3D('',#1789,#1487,#1488);
#1197=DIRECTION('axis',(0.,0.,1.));
#1198=DIRECTION('refdir',(1.,0.,0.));
#1199=DIRECTION('center_axis',(0.,0.,1.));
#1200=DIRECTION('ref_axis',(-1.,0.,0.));
#1201=DIRECTION('center_axis',(0.,0.,-1.));
#1202=DIRECTION('ref_axis',(-1.,0.,0.));
#1203=DIRECTION('',(0.,0.,-1.));
#1204=DIRECTION('center_axis',(0.,0.,-1.));
#1205=DIRECTION('ref_axis',(-1.,0.,0.));
#1206=DIRECTION('center_axis',(0.,0.,1.));
#1207=DIRECTION('ref_axis',(-1.,0.,0.));
#1208=DIRECTION('center_axis',(0.,0.,1.));
#1209=DIRECTION('ref_axis',(-1.,0.,0.));
#1210=DIRECTION('',(0.,0.,-1.));
#1211=DIRECTION('center_axis',(0.,0.,-1.));
#1212=DIRECTION('ref_axis',(-1.,0.,0.));
#1213=DIRECTION('center_axis',(0.,0.,1.));
#1214=DIRECTION('ref_axis',(-1.,0.,0.));
#1215=DIRECTION('center_axis',(0.,0.,1.));
#1216=DIRECTION('ref_axis',(-1.,0.,0.));
#1217=DIRECTION('center_axis',(0.,0.,-1.));
#1218=DIRECTION('ref_axis',(-1.,0.,0.));
#1219=DIRECTION('',(0.,0.,-1.));
#1220=DIRECTION('center_axis',(0.,0.,-1.));
#1221=DIRECTION('ref_axis',(-1.,0.,0.));
#1222=DIRECTION('center_axis',(0.,0.,1.));
#1223=DIRECTION('ref_axis',(-1.,0.,0.));
#1224=DIRECTION('center_axis',(0.,0.,1.));
#1225=DIRECTION('ref_axis',(-1.,0.,0.));
#1226=DIRECTION('',(0.,0.,-1.));
#1227=DIRECTION('center_axis',(0.,0.,-1.));
#1228=DIRECTION('ref_axis',(-1.,0.,0.));
#1229=DIRECTION('center_axis',(0.,0.,1.));
#1230=DIRECTION('ref_axis',(-1.,0.,0.));
#1231=DIRECTION('center_axis',(0.,0.,1.));
#1232=DIRECTION('ref_axis',(-1.,0.,0.));
#1233=DIRECTION('center_axis',(0.,0.,-1.));
#1234=DIRECTION('ref_axis',(-1.,0.,0.));
#1235=DIRECTION('',(0.,0.,-1.));
#1236=DIRECTION('center_axis',(0.,0.,-1.));
#1237=DIRECTION('ref_axis',(-1.,0.,0.));
#1238=DIRECTION('center_axis',(0.,0.,1.));
#1239=DIRECTION('ref_axis',(-1.,0.,0.));
#1240=DIRECTION('center_axis',(0.,0.,1.));
#1241=DIRECTION('ref_axis',(-1.,0.,0.));
#1242=DIRECTION('',(0.,0.,-1.));
#1243=DIRECTION('center_axis',(0.,0.,-1.));
#1244=DIRECTION('ref_axis',(-1.,0.,0.));
#1245=DIRECTION('center_axis',(0.,0.,1.));
#1246=DIRECTION('ref_axis',(-1.,0.,0.));
#1247=DIRECTION('center_axis',(0.,0.,1.));
#1248=DIRECTION('ref_axis',(-1.,0.,0.));
#1249=DIRECTION('center_axis',(0.,0.,-1.));
#1250=DIRECTION('ref_axis',(-1.,0.,0.));
#1251=DIRECTION('',(0.,0.,-1.));
#1252=DIRECTION('center_axis',(0.,0.,-1.));
#1253=DIRECTION('ref_axis',(-1.,0.,0.));
#1254=DIRECTION('center_axis',(0.,0.,1.));
#1255=DIRECTION('ref_axis',(-1.,0.,0.));
#1256=DIRECTION('center_axis',(0.,0.,1.));
#1257=DIRECTION('ref_axis',(-1.,0.,0.));
#1258=DIRECTION('',(0.,0.,-1.));
#1259=DIRECTION('center_axis',(0.,0.,-1.));
#1260=DIRECTION('ref_axis',(-1.,0.,0.));
#1261=DIRECTION('center_axis',(0.,0.,1.));
#1262=DIRECTION('ref_axis',(-1.,0.,0.));
#1263=DIRECTION('center_axis',(-0.707106781186548,-0.707106781186548,0.));
#1264=DIRECTION('ref_axis',(-0.707106781186547,0.707106781186548,0.));
#1265=DIRECTION('center_axis',(-0.707106781186548,-0.707106781186547,0.));
#1266=DIRECTION('ref_axis',(-0.707106781186547,0.707106781186548,0.));
#1267=DIRECTION('',(-0.707106781186548,-0.707106781186548,0.));
#1268=DIRECTION('center_axis',(-0.707106781186548,-0.707106781186547,0.));
#1269=DIRECTION('ref_axis',(-0.707106781186548,0.707106781186548,0.));
#1270=DIRECTION('center_axis',(0.707106781186548,0.707106781186547,0.));
#1271=DIRECTION('ref_axis',(-0.707106781186547,0.707106781186548,0.));
#1272=DIRECTION('center_axis',(0.707106781186548,0.707106781186547,0.));
#1273=DIRECTION('ref_axis',(0.707106781186548,-0.707106781186547,0.));
#1274=DIRECTION('center_axis',(0.707106781186548,0.707106781186548,0.));
#1275=DIRECTION('ref_axis',(0.707106781186548,-0.707106781186547,0.));
#1276=DIRECTION('center_axis',(0.707106781186548,0.707106781186547,0.));
#1277=DIRECTION('ref_axis',(0.707106781186548,-0.707106781186547,0.));
#1278=DIRECTION('',(0.707106781186548,0.707106781186548,0.));
#1279=DIRECTION('center_axis',(0.,0.,-1.));
#1280=DIRECTION('ref_axis',(-1.,0.,0.));
#1281=DIRECTION('center_axis',(0.,0.,-1.));
#1282=DIRECTION('ref_axis',(-1.,0.,0.));
#1283=DIRECTION('',(-0.707106781186548,8.65956056235494E-17,0.707106781186547));
#1284=DIRECTION('center_axis',(0.,0.,1.));
#1285=DIRECTION('ref_axis',(1.,0.,0.));
#1286=DIRECTION('',(-0.70710678118655,-0.707106781186545,0.));
#1287=DIRECTION('',(1.,8.3790416952842E-17,0.));
#1288=DIRECTION('',(0.707106781186547,-0.707106781186548,0.));
#1289=DIRECTION('',(8.3790416952842E-17,-1.,0.));
#1290=DIRECTION('',(-0.70710678118655,-0.707106781186545,0.));
#1291=DIRECTION('',(-1.,0.,0.));
#1292=DIRECTION('',(0.707106781186547,-0.707106781186548,0.));
#1293=DIRECTION('',(8.3790416952842E-17,1.,0.));
#1294=DIRECTION('center_axis',(0.,0.,-1.));
#1295=DIRECTION('ref_axis',(-1.,0.,0.));
#1296=DIRECTION('center_axis',(0.,0.,-1.));
#1297=DIRECTION('ref_axis',(-1.,0.,0.));
#1298=DIRECTION('center_axis',(0.,0.,-1.));
#1299=DIRECTION('ref_axis',(-1.,0.,0.));
#1300=DIRECTION('center_axis',(0.,0.,-1.));
#1301=DIRECTION('ref_axis',(-1.,0.,0.));
#1302=DIRECTION('',(-0.707106781186547,8.65956056235493E-17,0.707106781186548));
#1303=DIRECTION('center_axis',(0.,0.,-1.));
#1304=DIRECTION('ref_axis',(-1.,0.,0.));
#1305=DIRECTION('',(-0.707106781186547,8.65956056235493E-17,0.707106781186548));
#1306=DIRECTION('center_axis',(0.,0.,-1.));
#1307=DIRECTION('ref_axis',(-1.,0.,0.));
#1308=DIRECTION('',(-0.707106781186548,8.65956056235494E-17,0.707106781186547));
#1309=DIRECTION('center_axis',(0.,-1.,0.));
#1310=DIRECTION('ref_axis',(0.,0.,-1.));
#1311=DIRECTION('',(0.,0.,-1.));
#1312=DIRECTION('',(1.,0.,0.));
#1313=DIRECTION('',(0.,0.,1.));
#1314=DIRECTION('',(1.,0.,0.));
#1315=DIRECTION('center_axis',(0.,-1.,0.));
#1316=DIRECTION('ref_axis',(0.,0.,-1.));
#1317=DIRECTION('',(0.,0.,1.));
#1318=DIRECTION('',(1.,0.,0.));
#1319=DIRECTION('',(0.,0.,-1.));
#1320=DIRECTION('',(1.,0.,0.));
#1321=DIRECTION('center_axis',(0.,0.,1.));
#1322=DIRECTION('ref_axis',(0.,-1.,0.));
#1323=DIRECTION('',(0.,-1.,0.));
#1324=DIRECTION('',(1.,0.,0.));
#1325=DIRECTION('',(-8.3790416952842E-17,1.,0.));
#1326=DIRECTION('center_axis',(0.,0.,1.));
#1327=DIRECTION('ref_axis',(0.,-1.,0.));
#1328=DIRECTION('',(0.,1.,0.));
#1329=DIRECTION('',(-8.3790416952842E-17,-1.,0.));
#1330=DIRECTION('',(1.,0.,0.));
#1331=DIRECTION('center_axis',(0.,0.,-1.));
#1332=DIRECTION('ref_axis',(0.,1.,0.));
#1333=DIRECTION('',(0.,1.,0.));
#1334=DIRECTION('',(8.3790416952842E-17,-1.,0.));
#1335=DIRECTION('',(1.,0.,0.));
#1336=DIRECTION('center_axis',(0.,1.,0.));
#1337=DIRECTION('ref_axis',(0.,0.,1.));
#1338=DIRECTION('',(0.,0.,1.));
#1339=DIRECTION('',(0.,0.,-1.));
#1340=DIRECTION('center_axis',(0.,1.,0.));
#1341=DIRECTION('ref_axis',(0.,0.,1.));
#1342=DIRECTION('',(0.,0.,-1.));
#1343=DIRECTION('',(0.,0.,1.));
#1344=DIRECTION('',(1.,0.,0.));
#1345=DIRECTION('center_axis',(0.,0.,-1.));
#1346=DIRECTION('ref_axis',(0.,1.,0.));
#1347=DIRECTION('',(0.,-1.,0.));
#1348=DIRECTION('',(8.3790416952842E-17,1.,0.));
#1349=DIRECTION('center_axis',(-1.,0.,0.));
#1350=DIRECTION('ref_axis',(0.,0.,-1.));
#1351=DIRECTION('',(0.,0.,1.));
#1352=DIRECTION('',(0.,-1.,0.));
#1353=DIRECTION('',(0.,0.,-1.));
#1354=DIRECTION('',(0.,-1.,0.));
#1355=DIRECTION('center_axis',(-1.,0.,0.));
#1356=DIRECTION('ref_axis',(0.,0.,-1.));
#1357=DIRECTION('',(0.,0.,-1.));
#1358=DIRECTION('',(0.,-1.,0.));
#1359=DIRECTION('',(0.,0.,1.));
#1360=DIRECTION('',(0.,-1.,0.));
#1361=DIRECTION('center_axis',(0.,0.,-1.));
#1362=DIRECTION('ref_axis',(1.,0.,0.));
#1363=DIRECTION('',(-1.,0.,0.));
#1364=DIRECTION('',(0.,-1.,0.));
#1365=DIRECTION('',(1.,8.3790416952842E-17,0.));
#1366=DIRECTION('center_axis',(0.,0.,-1.));
#1367=DIRECTION('ref_axis',(1.,0.,0.));
#1368=DIRECTION('',(1.,0.,0.));
#1369=DIRECTION('',(-1.,0.,0.));
#1370=DIRECTION('',(0.,-1.,0.));
#1371=DIRECTION('center_axis',(0.,0.,1.));
#1372=DIRECTION('ref_axis',(-1.,0.,0.));
#1373=DIRECTION('',(1.,0.,0.));
#1374=DIRECTION('',(-1.,-8.3790416952842E-17,0.));
#1375=DIRECTION('',(0.,-1.,0.));
#1376=DIRECTION('center_axis',(1.,0.,0.));
#1377=DIRECTION('ref_axis',(0.,0.,1.));
#1378=DIRECTION('',(0.,0.,-1.));
#1379=DIRECTION('',(0.,0.,1.));
#1380=DIRECTION('center_axis',(1.,0.,0.));
#1381=DIRECTION('ref_axis',(0.,0.,1.));
#1382=DIRECTION('',(0.,0.,1.));
#1383=DIRECTION('',(0.,0.,-1.));
#1384=DIRECTION('',(0.,-1.,0.));
#1385=DIRECTION('center_axis',(0.,0.,1.));
#1386=DIRECTION('ref_axis',(-1.,0.,0.));
#1387=DIRECTION('',(-1.,0.,0.));
#1388=DIRECTION('',(1.,0.,0.));
#1389=DIRECTION('center_axis',(-0.0026683478409895,-0.00266834784098948,
0.999992879894452));
#1390=DIRECTION('ref_axis',(0.707101746511634,0.707101746511629,0.0037736137058563));
#1391=DIRECTION('',(-0.707101746511631,-0.707101746511631,-0.0037736137058563));
#1392=DIRECTION('',(-0.707106781186545,0.70710678118655,0.));
#1393=DIRECTION('',(0.707101746511634,0.707101746511629,0.0037736137058563));
#1394=DIRECTION('',(-0.707106781186545,0.70710678118655,0.));
#1395=DIRECTION('center_axis',(-0.707106781186545,0.70710678118655,0.));
#1396=DIRECTION('ref_axis',(-0.00266834784098989,-0.00266834784098987,0.999992879894452));
#1397=DIRECTION('center_axis',(0.707106781186548,-0.707106781186548,0.));
#1398=DIRECTION('ref_axis',(-0.00266834784098989,-0.00266834784098987,0.999992879894452));
#1399=DIRECTION('center_axis',(-0.707106781186545,0.70710678118655,0.));
#1400=DIRECTION('ref_axis',(-0.00266834784098989,-0.00266834784098987,0.999992879894452));
#1401=DIRECTION('',(-0.707106781186545,0.70710678118655,0.));
#1402=DIRECTION('center_axis',(0.0026683478409895,0.00266834784098948,-0.999992879894452));
#1403=DIRECTION('ref_axis',(-0.707101746511634,-0.707101746511629,-0.0037736137058563));
#1404=DIRECTION('',(0.707101746511631,0.707101746511631,0.0037736137058563));
#1405=DIRECTION('',(-0.707101746511634,-0.707101746511629,-0.0037736137058563));
#1406=DIRECTION('',(-0.707106781186545,0.70710678118655,0.));
#1407=DIRECTION('center_axis',(-0.707106781186545,0.70710678118655,0.));
#1408=DIRECTION('ref_axis',(0.00266834784098989,0.00266834784098987,-0.999992879894452));
#1409=DIRECTION('center_axis',(0.707106781186548,-0.707106781186548,0.));
#1410=DIRECTION('ref_axis',(0.00266834784098989,0.00266834784098987,-0.999992879894452));
#1411=DIRECTION('center_axis',(-0.707106781186545,0.70710678118655,0.));
#1412=DIRECTION('ref_axis',(0.00266834784098989,0.00266834784098987,-0.999992879894452));
#1413=DIRECTION('center_axis',(1.,0.,0.));
#1414=DIRECTION('ref_axis',(0.,1.,0.));
#1415=DIRECTION('',(0.,-1.,0.));
#1416=DIRECTION('',(0.,0.,1.));
#1417=DIRECTION('',(0.,1.,0.));
#1418=DIRECTION('',(0.,0.,1.));
#1419=DIRECTION('center_axis',(0.707106781186548,0.707106781186547,0.));
#1420=DIRECTION('ref_axis',(-0.707106781186547,0.707106781186548,0.));
#1421=DIRECTION('',(0.707106781186547,-0.707106781186548,0.));
#1422=DIRECTION('',(-0.707106781186547,0.707106781186548,0.));
#1423=DIRECTION('',(0.,0.,1.));
#1424=DIRECTION('center_axis',(0.,1.,0.));
#1425=DIRECTION('ref_axis',(-1.,0.,0.));
#1426=DIRECTION('',(1.,0.,0.));
#1427=DIRECTION('',(-1.,0.,0.));
#1428=DIRECTION('',(0.,0.,1.));
#1429=DIRECTION('center_axis',(-0.707106781186548,0.707106781186548,0.));
#1430=DIRECTION('ref_axis',(-0.707106781186548,-0.707106781186548,0.));
#1431=DIRECTION('',(0.707106781186548,0.707106781186548,0.));
#1432=DIRECTION('',(-0.707106781186547,-0.707106781186547,0.));
#1433=DIRECTION('',(0.,0.,1.));
#1434=DIRECTION('center_axis',(-1.,0.,0.));
#1435=DIRECTION('ref_axis',(0.,-1.,0.));
#1436=DIRECTION('',(0.,1.,0.));
#1437=DIRECTION('',(0.,-1.,0.));
#1438=DIRECTION('',(0.,0.,1.));
#1439=DIRECTION('center_axis',(-0.70710678118655,-0.707106781186545,0.));
#1440=DIRECTION('ref_axis',(0.707106781186545,-0.70710678118655,0.));
#1441=DIRECTION('',(-0.707106781186545,0.70710678118655,0.));
#1442=DIRECTION('',(0.707106781186545,-0.70710678118655,0.));
#1443=DIRECTION('',(0.,0.,1.));
#1444=DIRECTION('center_axis',(0.,-1.,0.));
#1445=DIRECTION('ref_axis',(1.,0.,0.));
#1446=DIRECTION('',(-1.,0.,0.));
#1447=DIRECTION('',(1.,0.,0.));
#1448=DIRECTION('',(0.,0.,1.));
#1449=DIRECTION('center_axis',(0.707106781186545,-0.70710678118655,0.));
#1450=DIRECTION('ref_axis',(0.70710678118655,0.707106781186545,0.));
#1451=DIRECTION('',(-0.70710678118655,-0.707106781186545,0.));
#1452=DIRECTION('',(0.70710678118655,0.707106781186545,0.));
#1453=DIRECTION('center_axis',(0.,0.,1.));
#1454=DIRECTION('ref_axis',(1.,0.,0.));
#1455=DIRECTION('',(-1.,0.,0.));
#1456=DIRECTION('',(-0.70710678118655,-0.707106781186545,0.));
#1457=DIRECTION('',(0.,-1.,0.));
#1458=DIRECTION('',(0.707106781186548,-0.707106781186547,0.));
#1459=DIRECTION('',(1.,0.,0.));
#1460=DIRECTION('',(0.707106781186549,0.707106781186545,0.));
#1461=DIRECTION('',(0.,1.,0.));
#1462=DIRECTION('',(-0.707106781186547,0.707106781186548,0.));
#1463=DIRECTION('center_axis',(-8.3790416952842E-17,1.,0.));
#1464=DIRECTION('ref_axis',(-1.,-8.3790416952842E-17,0.));
#1465=DIRECTION('',(0.,0.,1.));
#1466=DIRECTION('',(0.,0.,1.));
#1467=DIRECTION('center_axis',(0.707106781186548,0.707106781186547,0.));
#1468=DIRECTION('ref_axis',(-0.707106781186547,0.707106781186548,0.));
#1469=DIRECTION('',(0.,0.,1.));
#1470=DIRECTION('center_axis',(1.,8.3790416952842E-17,0.));
#1471=DIRECTION('ref_axis',(-8.3790416952842E-17,1.,0.));
#1472=DIRECTION('',(0.,0.,1.));
#1473=DIRECTION('center_axis',(0.707106781186545,-0.70710678118655,0.));
#1474=DIRECTION('ref_axis',(0.70710678118655,0.707106781186545,0.));
#1475=DIRECTION('',(0.,0.,1.));
#1476=DIRECTION('center_axis',(0.,-1.,0.));
#1477=DIRECTION('ref_axis',(1.,0.,0.));
#1478=DIRECTION('',(0.,0.,1.));
#1479=DIRECTION('center_axis',(-0.707106781186548,-0.707106781186547,0.));
#1480=DIRECTION('ref_axis',(0.707106781186547,-0.707106781186548,0.));
#1481=DIRECTION('',(0.,0.,1.));
#1482=DIRECTION('center_axis',(-1.,8.3790416952842E-17,0.));
#1483=DIRECTION('ref_axis',(-8.3790416952842E-17,-1.,0.));
#1484=DIRECTION('',(0.,0.,1.));
#1485=DIRECTION('center_axis',(-0.707106781186545,0.70710678118655,0.));
#1486=DIRECTION('ref_axis',(-0.70710678118655,-0.707106781186545,0.));
#1487=DIRECTION('center_axis',(0.,0.,1.));
#1488=DIRECTION('ref_axis',(1.,0.,0.));
#1489=CARTESIAN_POINT('',(0.,0.,0.));
#1490=CARTESIAN_POINT('Origin',(9.00898450504961,-22.5618105100917,1.));
#1491=CARTESIAN_POINT('',(10.1089845050496,-22.5618105100917,6.5));
#1492=CARTESIAN_POINT('Origin',(9.00898450504961,-22.5618105100917,6.5));
#1493=CARTESIAN_POINT('',(10.1089845050496,-22.5618105100917,1.));
#1494=CARTESIAN_POINT('',(10.1089845050496,-22.5618105100917,1.));
#1495=CARTESIAN_POINT('Origin',(9.00898450504961,-22.5618105100917,1.));
#1496=CARTESIAN_POINT('Origin',(9.00898450504961,-22.5618105100917,1.));
#1497=CARTESIAN_POINT('',(11.7589845050496,-22.5618105100917,6.5));
#1498=CARTESIAN_POINT('Origin',(9.00898450504961,-22.5618105100917,6.5));
#1499=CARTESIAN_POINT('',(11.7589845050496,-22.5618105100917,1.));
#1500=CARTESIAN_POINT('',(11.7589845050496,-22.5618105100917,1.));
#1501=CARTESIAN_POINT('Origin',(9.00898450504961,-22.5618105100917,1.));
#1502=CARTESIAN_POINT('Origin',(9.00898450504961,-22.5618105100917,6.5));
#1503=CARTESIAN_POINT('Origin',(-9.0089391232662,22.5546797829545,1.));
#1504=CARTESIAN_POINT('',(-7.9089391232662,22.5546797829545,6.5));
#1505=CARTESIAN_POINT('Origin',(-9.0089391232662,22.5546797829545,6.5));
#1506=CARTESIAN_POINT('',(-7.9089391232662,22.5546797829545,1.));
#1507=CARTESIAN_POINT('',(-7.9089391232662,22.5546797829545,1.));
#1508=CARTESIAN_POINT('Origin',(-9.0089391232662,22.5546797829545,1.));
#1509=CARTESIAN_POINT('Origin',(-9.0089391232662,22.5546797829545,1.));
#1510=CARTESIAN_POINT('',(-6.2589391232662,22.5546797829545,6.5));
#1511=CARTESIAN_POINT('Origin',(-9.0089391232662,22.5546797829545,6.5));
#1512=CARTESIAN_POINT('',(-6.2589391232662,22.5546797829545,1.));
#1513=CARTESIAN_POINT('',(-6.2589391232662,22.5546797829545,1.));
#1514=CARTESIAN_POINT('Origin',(-9.0089391232662,22.5546797829545,1.));
#1515=CARTESIAN_POINT('Origin',(-9.0089391232662,22.5546797829545,6.5));
#1516=CARTESIAN_POINT('Origin',(-9.0089391232662,-22.5618105100917,1.));
#1517=CARTESIAN_POINT('',(-7.9089391232662,-22.5618105100917,6.5));
#1518=CARTESIAN_POINT('Origin',(-9.0089391232662,-22.5618105100917,6.5));
#1519=CARTESIAN_POINT('',(-7.9089391232662,-22.5618105100917,1.));
#1520=CARTESIAN_POINT('',(-7.9089391232662,-22.5618105100917,1.));
#1521=CARTESIAN_POINT('Origin',(-9.0089391232662,-22.5618105100917,1.));
#1522=CARTESIAN_POINT('Origin',(-9.0089391232662,-22.5618105100917,1.));
#1523=CARTESIAN_POINT('',(-6.2589391232662,-22.5618105100917,6.5));
#1524=CARTESIAN_POINT('Origin',(-9.0089391232662,-22.5618105100917,6.5));
#1525=CARTESIAN_POINT('',(-6.2589391232662,-22.5618105100917,1.));
#1526=CARTESIAN_POINT('',(-6.2589391232662,-22.5618105100917,1.));
#1527=CARTESIAN_POINT('Origin',(-9.0089391232662,-22.5618105100917,1.));
#1528=CARTESIAN_POINT('Origin',(-9.0089391232662,-22.5618105100917,6.5));
#1529=CARTESIAN_POINT('Origin',(9.00898450504961,22.5546797829545,1.));
#1530=CARTESIAN_POINT('',(10.1089845050496,22.5546797829545,6.5));
#1531=CARTESIAN_POINT('Origin',(9.00898450504961,22.5546797829545,6.5));
#1532=CARTESIAN_POINT('',(10.1089845050496,22.5546797829545,1.));
#1533=CARTESIAN_POINT('',(10.1089845050496,22.5546797829545,1.));
#1534=CARTESIAN_POINT('Origin',(9.00898450504961,22.5546797829545,1.));
#1535=CARTESIAN_POINT('Origin',(9.00898450504961,22.5546797829545,1.));
#1536=CARTESIAN_POINT('',(11.7589845050496,22.5546797829545,6.5));
#1537=CARTESIAN_POINT('Origin',(9.00898450504961,22.5546797829545,6.5));
#1538=CARTESIAN_POINT('',(11.7589845050496,22.5546797829545,1.));
#1539=CARTESIAN_POINT('',(11.7589845050496,22.5546797829545,1.));
#1540=CARTESIAN_POINT('Origin',(9.00898450504961,22.5546797829545,1.));
#1541=CARTESIAN_POINT('Origin',(9.00898450504961,22.5546797829545,6.5));
#1542=CARTESIAN_POINT('Origin',(-20.4305580242798,-20.5486266955489,9.893));
#1543=CARTESIAN_POINT('',(-19.0163444619067,-21.962840257922,9.893));
#1544=CARTESIAN_POINT('Origin',(-20.4305580242798,-20.5486266955489,9.893));
#1545=CARTESIAN_POINT('',(-19.3698978525,-22.3163936485152,9.893));
#1546=CARTESIAN_POINT('',(-19.0163444619067,-21.962840257922,9.893));
#1547=CARTESIAN_POINT('Origin',(-20.7841114148731,-20.9021800861421,9.893));
#1548=CARTESIAN_POINT('Origin',(-20.7841114148731,-20.9021800861421,9.893));
#1549=CARTESIAN_POINT('',(-21.8447715866529,-19.8415199143623,9.893));
#1550=CARTESIAN_POINT('Origin',(-20.7841114148731,-20.9021800861421,9.893));
#1551=CARTESIAN_POINT('Origin',(-21.1376648054664,-21.2557334767354,9.893));
#1552=CARTESIAN_POINT('',(-22.1983249772462,-20.1950733049556,9.893));
#1553=CARTESIAN_POINT('Origin',(-21.1376648054664,-21.2557334767354,9.893));
#1554=CARTESIAN_POINT('',(-22.1983249772462,-20.1950733049556,9.893));
#1555=CARTESIAN_POINT('Origin',(-9.0089391232662,-22.5618105100917,0.5));
#1556=CARTESIAN_POINT('',(-6.9089391232662,-22.5618105100917,0.));
#1557=CARTESIAN_POINT('Origin',(-9.0089391232662,-22.5618105100917,0.));
#1558=CARTESIAN_POINT('',(-7.4089391232662,-22.5618105100917,0.5));
#1559=CARTESIAN_POINT('Origin',(4.44089209850063E-15,0.,0.));
#1560=CARTESIAN_POINT('',(-15.8933982822017,26.5,0.));
#1561=CARTESIAN_POINT('',(-26.5,15.8933982822018,0.));
#1562=CARTESIAN_POINT('',(-15.8933982822017,26.5,0.));
#1563=CARTESIAN_POINT('',(15.8933982822018,26.5,0.));
#1564=CARTESIAN_POINT('',(-26.5,26.5,0.));
#1565=CARTESIAN_POINT('',(26.5,15.8933982822018,0.));
#1566=CARTESIAN_POINT('',(15.8933982822018,26.5,0.));
#1567=CARTESIAN_POINT('',(26.5,-15.8933982822019,0.));
#1568=CARTESIAN_POINT('',(26.5,26.5,0.));
#1569=CARTESIAN_POINT('',(15.8933982822018,-26.5,0.));
#1570=CARTESIAN_POINT('',(26.5,-15.8933982822019,0.));
#1571=CARTESIAN_POINT('',(-15.8933982822018,-26.5,0.));
#1572=CARTESIAN_POINT('',(26.5,-26.5,0.));
#1573=CARTESIAN_POINT('',(-26.5,-15.8933982822018,0.));
#1574=CARTESIAN_POINT('',(-26.5,-15.8933982822018,0.));
#1575=CARTESIAN_POINT('',(-26.5,-26.5,0.));
#1576=CARTESIAN_POINT('',(11.1089845050496,-22.5618105100917,0.));
#1577=CARTESIAN_POINT('Origin',(9.00898450504961,-22.5618105100917,0.));
#1578=CARTESIAN_POINT('',(-6.9089391232662,22.5546797829545,0.));
#1579=CARTESIAN_POINT('Origin',(-9.0089391232662,22.5546797829545,0.));
#1580=CARTESIAN_POINT('',(11.1089845050496,22.5546797829545,0.));
#1581=CARTESIAN_POINT('Origin',(9.00898450504961,22.5546797829545,0.));
#1582=CARTESIAN_POINT('Origin',(9.00898450504961,-22.5618105100917,0.5));
#1583=CARTESIAN_POINT('',(10.6089845050496,-22.5618105100917,0.5));
#1584=CARTESIAN_POINT('Origin',(9.00898450504961,22.5546797829545,0.5));
#1585=CARTESIAN_POINT('',(10.6089845050496,22.5546797829545,0.5));
#1586=CARTESIAN_POINT('Origin',(-9.0089391232662,22.5546797829545,0.5));
#1587=CARTESIAN_POINT('',(-7.4089391232662,22.5546797829545,0.5));
#1588=CARTESIAN_POINT('Origin',(-26.5,-2.01905079371234,11.1756655542));
#1589=CARTESIAN_POINT('',(25.5,-2.01905079371234,11.1756655542));
#1590=CARTESIAN_POINT('',(25.5,-2.01905079371234,8.23125442155282));
#1591=CARTESIAN_POINT('',(25.5,-2.01905079371234,6.0878327771));
#1592=CARTESIAN_POINT('',(26.5,-2.01905079371234,11.1756655542));
#1593=CARTESIAN_POINT('',(-26.5,-2.01905079371234,11.1756655542));
#1594=CARTESIAN_POINT('',(26.5,-2.01905079371234,8.23125442155282));
#1595=CARTESIAN_POINT('',(26.5,-2.01905079371234,5.5878327771));
#1596=CARTESIAN_POINT('',(-26.5,-2.01905079371234,8.23125442155282));
#1597=CARTESIAN_POINT('Origin',(-26.5,-2.01905079371234,11.1756655542));
#1598=CARTESIAN_POINT('',(-25.5,-2.01905079371234,8.23125442155282));
#1599=CARTESIAN_POINT('',(-25.5,-2.01905079371234,11.1756655542));
#1600=CARTESIAN_POINT('',(-25.5,-2.01905079371234,6.0878327771));
#1601=CARTESIAN_POINT('',(-26.5,-2.01905079371234,8.23125442155282));
#1602=CARTESIAN_POINT('',(-26.5,-2.01905079371234,8.23125442155282));
#1603=CARTESIAN_POINT('',(-26.5,-2.01905079371234,11.1756655542));
#1604=CARTESIAN_POINT('',(-26.5,-2.01905079371234,5.5878327771));
#1605=CARTESIAN_POINT('',(-26.5,-2.01905079371234,11.1756655542));
#1606=CARTESIAN_POINT('Origin',(-26.5,2.01517488470179,11.1756655542));
#1607=CARTESIAN_POINT('',(25.5,2.01517488470179,11.1756655542));
#1608=CARTESIAN_POINT('',(25.5,8.74717980226522,11.1756655542));
#1609=CARTESIAN_POINT('',(26.5,2.01517488470179,11.1756655542));
#1610=CARTESIAN_POINT('',(-26.5,2.01517488470179,11.1756655542));
#1611=CARTESIAN_POINT('',(26.5,-6.93911169875003,11.1756655542));
#1612=CARTESIAN_POINT('Origin',(-26.5,2.01517488470179,11.1756655542));
#1613=CARTESIAN_POINT('',(-25.5,2.01517488470179,11.1756655542));
#1614=CARTESIAN_POINT('',(-25.5,-6.73200491756345,11.1756655542));
#1615=CARTESIAN_POINT('',(-26.5,2.01517488470179,11.1756655542));
#1616=CARTESIAN_POINT('',(-26.5,8.95428658345179,11.1756655542));
#1617=CARTESIAN_POINT('',(-26.5,2.01517488470179,11.1756655542));
#1618=CARTESIAN_POINT('Origin',(-26.5,-2.01905079371234,8.23125442155282));
#1619=CARTESIAN_POINT('',(25.5,2.01517488470179,8.23125442155282));
#1620=CARTESIAN_POINT('',(25.5,6.73006696305816,8.23125442155282));
#1621=CARTESIAN_POINT('',(26.5,2.01517488470179,8.23125442155282));
#1622=CARTESIAN_POINT('',(26.5,-8.9562245379571,8.23125442155282));
#1623=CARTESIAN_POINT('',(-26.5,2.01517488470179,8.23125442155282));
#1624=CARTESIAN_POINT('Origin',(-26.5,2.01517488470179,8.23125442155282));
#1625=CARTESIAN_POINT('',(25.5,2.01517488470179,4.61562721077641));
#1626=CARTESIAN_POINT('',(26.5,2.01517488470179,4.11562721077641));
#1627=CARTESIAN_POINT('Origin',(-26.5,2.01517488470179,8.23125442155282));
#1628=CARTESIAN_POINT('',(-25.5,2.01517488470179,8.23125442155282));
#1629=CARTESIAN_POINT('',(-25.5,2.01517488470179,4.61562721077641));
#1630=CARTESIAN_POINT('',(-26.5,2.01517488470179,8.23125442155282));
#1631=CARTESIAN_POINT('',(-26.5,2.01517488470179,4.11562721077641));
#1632=CARTESIAN_POINT('',(-26.5,2.01517488470179,8.23125442155282));
#1633=CARTESIAN_POINT('Origin',(-26.5,-2.01905079371234,8.23125442155282));
#1634=CARTESIAN_POINT('',(-25.5,-8.74911775677052,8.23125442155282));
#1635=CARTESIAN_POINT('',(-26.5,6.93717374424473,8.23125442155282));
#1636=CARTESIAN_POINT('Origin',(-2.02927099882965,26.5,11.1710194118));
#1637=CARTESIAN_POINT('',(-2.02927099882965,25.5,8.14211711155689));
#1638=CARTESIAN_POINT('',(-2.02927099882965,25.5,11.1710194118));
#1639=CARTESIAN_POINT('',(-2.02927099882965,25.5,6.0855097059));
#1640=CARTESIAN_POINT('',(-2.02927099882965,26.5,8.14211711155689));
#1641=CARTESIAN_POINT('',(-2.02927099882965,26.5,8.14211711155689));
#1642=CARTESIAN_POINT('',(-2.02927099882965,26.5,11.1710194118));
#1643=CARTESIAN_POINT('',(-2.02927099882965,26.5,5.5855097059));
#1644=CARTESIAN_POINT('',(-2.02927099882965,26.5,11.1710194118));
#1645=CARTESIAN_POINT('Origin',(-2.02927099882965,26.5,11.1710194118));
#1646=CARTESIAN_POINT('',(-2.02927099882965,-25.5,11.1710194118));
#1647=CARTESIAN_POINT('',(-2.02927099882965,-25.5,8.14211711155689));
#1648=CARTESIAN_POINT('',(-2.02927099882965,-25.5,6.0855097059));
#1649=CARTESIAN_POINT('',(-2.02927099882965,-26.5,11.1710194118));
#1650=CARTESIAN_POINT('',(-2.02927099882965,26.5,11.1710194118));
#1651=CARTESIAN_POINT('',(-2.02927099882965,-26.5,8.14211711155689));
#1652=CARTESIAN_POINT('',(-2.02927099882965,-26.5,5.5855097059));
#1653=CARTESIAN_POINT('',(-2.02927099882965,26.5,8.14211711155689));
#1654=CARTESIAN_POINT('Origin',(-2.02927099882965,26.5,8.14211711155689));
#1655=CARTESIAN_POINT('',(2.01653793930179,25.5,8.14211711155689));
#1656=CARTESIAN_POINT('',(-8.75422785932914,25.5,8.14211711155689));
#1657=CARTESIAN_POINT('',(2.01653793930179,26.5,8.14211711155689));
#1658=CARTESIAN_POINT('',(2.01653793930179,26.5,8.14211711155689));
#1659=CARTESIAN_POINT('',(6.93206364168607,26.5,8.14211711155689));
#1660=CARTESIAN_POINT('Origin',(-2.02927099882965,26.5,8.14211711155689));
#1661=CARTESIAN_POINT('',(2.01653793930179,-25.5,8.14211711155689));
#1662=CARTESIAN_POINT('',(6.72495686049954,-25.5,8.14211711155689));
#1663=CARTESIAN_POINT('',(2.01653793930179,-26.5,8.14211711155689));
#1664=CARTESIAN_POINT('',(-8.96133464051572,-26.5,8.14211711155689));
#1665=CARTESIAN_POINT('',(2.01653793930179,26.5,8.14211711155689));
#1666=CARTESIAN_POINT('Origin',(2.01653793930179,26.5,11.1710194118));
#1667=CARTESIAN_POINT('',(2.01653793930179,25.5,11.1710194118));
#1668=CARTESIAN_POINT('',(-6.73132339026342,25.5,11.1710194118));
#1669=CARTESIAN_POINT('',(2.01653793930179,26.5,11.1710194118));
#1670=CARTESIAN_POINT('',(8.95496811075179,26.5,11.1710194118));
#1671=CARTESIAN_POINT('',(2.01653793930179,26.5,11.1710194118));
#1672=CARTESIAN_POINT('Origin',(2.01653793930179,26.5,8.14211711155689));
#1673=CARTESIAN_POINT('',(2.01653793930179,25.5,4.57105855577845));
#1674=CARTESIAN_POINT('',(2.01653793930179,26.5,4.07105855577845));
#1675=CARTESIAN_POINT('Origin',(2.01653793930179,26.5,8.14211711155689));
#1676=CARTESIAN_POINT('',(2.01653793930179,-25.5,11.1710194118));
#1677=CARTESIAN_POINT('',(2.01653793930179,-25.5,4.57105855577845));
#1678=CARTESIAN_POINT('',(2.01653793930179,-26.5,11.1710194118));
#1679=CARTESIAN_POINT('',(2.01653793930179,-26.5,4.07105855577845));
#1680=CARTESIAN_POINT('',(2.01653793930179,26.5,11.1710194118));
#1681=CARTESIAN_POINT('Origin',(2.01653793930179,26.5,11.1710194118));
#1682=CARTESIAN_POINT('',(8.74786132956526,-25.5,11.1710194118));
#1683=CARTESIAN_POINT('',(-6.93843017144999,-26.5,11.1710194118));
#1684=CARTESIAN_POINT('Origin',(19.2456237664205,-23.1477745157814,11.6279017067153));
#1685=CARTESIAN_POINT('',(22.6769537238505,-18.3022309959782,11.6499874414412));
#1686=CARTESIAN_POINT('',(18.5385169852339,-22.4406677345948,11.6279017067153));
#1687=CARTESIAN_POINT('',(22.0050295579722,-18.9741551618565,11.6464015611147));
#1688=CARTESIAN_POINT('',(23.3840605050371,-19.0093377771648,11.6499874414412));
#1689=CARTESIAN_POINT('',(23.3840605050371,-19.0093377771648,11.6499874414412));
#1690=CARTESIAN_POINT('',(19.2456237664205,-23.1477745157814,11.6279017067153));
#1691=CARTESIAN_POINT('',(17.554021359677,-24.8393769225248,11.6188740751779));
#1692=CARTESIAN_POINT('',(19.2456237664205,-23.1477745157814,11.6279017067153));
#1693=CARTESIAN_POINT('Origin',(19.2502933751422,-23.1431049070596,9.8779141669));
#1694=CARTESIAN_POINT('',(18.5478562026774,-22.4313285171513,8.12792662708471));
#1695=CARTESIAN_POINT('Origin',(18.5431865939556,-22.435998125873,9.8779141669));
#1696=CARTESIAN_POINT('',(19.2549629838639,-23.1384352983379,8.12792662708471));
#1697=CARTESIAN_POINT('Origin',(19.2502933751422,-23.1431049070596,9.8779141669));
#1698=CARTESIAN_POINT('',(19.2549629838639,-23.1384352983379,8.12792662708471));
#1699=CARTESIAN_POINT('Origin',(23.3933997224805,-18.9999985597213,8.15001236181059));
#1700=CARTESIAN_POINT('',(22.686292941294,-18.2928917785347,8.15001236181059));
#1701=CARTESIAN_POINT('',(24.083587144724,-16.8955975751047,8.15746934884703));
#1702=CARTESIAN_POINT('',(23.3933997224805,-18.9999985597213,8.15001236181059));
#1703=CARTESIAN_POINT('',(19.6325789464288,-22.760819335773,8.12994186291027));
#1704=CARTESIAN_POINT('',(23.3933997224805,-18.9999985597213,8.15001236181059));
#1705=CARTESIAN_POINT('Origin',(23.3887301137588,-19.004668168443,9.89999990162588));
#1706=CARTESIAN_POINT('Origin',(22.6816233325722,-18.2975613872565,9.89999990162588));
#1707=CARTESIAN_POINT('Origin',(23.3887301137588,-19.004668168443,9.89999990162588));
#1708=CARTESIAN_POINT('Origin',(-25.5,-15.4791847198287,1.));
#1709=CARTESIAN_POINT('',(-25.5,15.4791847198287,1.));
#1710=CARTESIAN_POINT('',(-25.5,-15.4791847198287,1.));
#1711=CARTESIAN_POINT('',(-25.5,-7.73959235991435,1.));
#1712=CARTESIAN_POINT('',(-25.5,15.4791847198287,14.));
#1713=CARTESIAN_POINT('',(-25.5,15.4791847198287,1.));
#1714=CARTESIAN_POINT('',(-25.5,-15.4791847198287,14.));
#1715=CARTESIAN_POINT('',(-25.5,-25.5,14.));
#1716=CARTESIAN_POINT('',(-25.5,-15.4791847198287,1.));
#1717=CARTESIAN_POINT('Origin',(-15.4791847198287,-25.5,1.));
#1718=CARTESIAN_POINT('',(-15.4791847198287,-25.5,1.));
#1719=CARTESIAN_POINT('',(-17.9843885398715,-22.9947961799572,1.));
#1720=CARTESIAN_POINT('',(-15.4791847198287,-25.5,14.));
#1721=CARTESIAN_POINT('',(-15.4791847198287,-25.5,14.));
#1722=CARTESIAN_POINT('',(-15.4791847198287,-25.5,1.));
#1723=CARTESIAN_POINT('Origin',(15.4791847198287,-25.5,1.));
#1724=CARTESIAN_POINT('',(15.4791847198287,-25.5,1.));
#1725=CARTESIAN_POINT('',(7.73959235991437,-25.5,1.));
#1726=CARTESIAN_POINT('',(15.4791847198287,-25.5,14.));
#1727=CARTESIAN_POINT('',(25.5,-25.5,14.));
#1728=CARTESIAN_POINT('',(15.4791847198287,-25.5,1.));
#1729=CARTESIAN_POINT('Origin',(25.5,-15.4791847198287,1.));
#1730=CARTESIAN_POINT('',(25.5,-15.4791847198287,1.));
#1731=CARTESIAN_POINT('',(22.9947961799572,-17.9843885398715,1.));
#1732=CARTESIAN_POINT('',(25.5,-15.4791847198287,14.));
#1733=CARTESIAN_POINT('',(25.5,-15.4791847198287,14.));
#1734=CARTESIAN_POINT('',(25.5,-15.4791847198287,1.));
#1735=CARTESIAN_POINT('Origin',(25.5,15.4791847198287,1.));
#1736=CARTESIAN_POINT('',(25.5,15.4791847198287,1.));
#1737=CARTESIAN_POINT('',(25.5,7.73959235991433,1.));
#1738=CARTESIAN_POINT('',(25.5,15.4791847198287,14.));
#1739=CARTESIAN_POINT('',(25.5,25.5,14.));
#1740=CARTESIAN_POINT('',(25.5,15.4791847198287,1.));
#1741=CARTESIAN_POINT('Origin',(15.4791847198287,25.5,1.));
#1742=CARTESIAN_POINT('',(15.4791847198287,25.5,1.));
#1743=CARTESIAN_POINT('',(17.9843885398716,22.9947961799571,1.));
#1744=CARTESIAN_POINT('',(15.4791847198287,25.5,14.));
#1745=CARTESIAN_POINT('',(15.4791847198287,25.5,14.));
#1746=CARTESIAN_POINT('',(15.4791847198287,25.5,1.));
#1747=CARTESIAN_POINT('Origin',(-15.4791847198286,25.5,1.));
#1748=CARTESIAN_POINT('',(-15.4791847198286,25.5,1.));
#1749=CARTESIAN_POINT('',(-7.73959235991431,25.5,1.));
#1750=CARTESIAN_POINT('',(-15.4791847198286,25.5,14.));
#1751=CARTESIAN_POINT('',(-25.5,25.5,14.));
#1752=CARTESIAN_POINT('',(-15.4791847198286,25.5,1.));
#1753=CARTESIAN_POINT('Origin',(-25.5,15.4791847198287,1.));
#1754=CARTESIAN_POINT('',(-22.9947961799571,17.9843885398715,1.));
#1755=CARTESIAN_POINT('',(-15.4791847198286,25.5,14.));
#1756=CARTESIAN_POINT('Origin',(4.44089209850063E-15,0.,14.));
#1757=CARTESIAN_POINT('',(15.8933982822018,26.5,14.));
#1758=CARTESIAN_POINT('',(-15.8933982822017,26.5,14.));
#1759=CARTESIAN_POINT('',(15.8933982822018,26.5,14.));
#1760=CARTESIAN_POINT('',(-26.5,15.8933982822018,14.));
#1761=CARTESIAN_POINT('',(-15.8933982822017,26.5,14.));
#1762=CARTESIAN_POINT('',(-26.5,-15.8933982822018,14.));
#1763=CARTESIAN_POINT('',(-26.5,15.8933982822018,14.));
#1764=CARTESIAN_POINT('',(-15.8933982822018,-26.5,14.));
#1765=CARTESIAN_POINT('',(-26.5,-15.8933982822018,14.));
#1766=CARTESIAN_POINT('',(15.8933982822018,-26.5,14.));
#1767=CARTESIAN_POINT('',(-15.8933982822018,-26.5,14.));
#1768=CARTESIAN_POINT('',(26.5,-15.8933982822019,14.));
#1769=CARTESIAN_POINT('',(15.8933982822018,-26.5,14.));
#1770=CARTESIAN_POINT('',(26.5,15.8933982822018,14.));
#1771=CARTESIAN_POINT('',(26.5,-15.8933982822019,14.));
#1772=CARTESIAN_POINT('',(26.5,15.8933982822018,14.));
#1773=CARTESIAN_POINT('Origin',(15.8933982822018,26.5,0.));
#1774=CARTESIAN_POINT('',(-15.8933982822017,26.5,0.));
#1775=CARTESIAN_POINT('',(15.8933982822018,26.5,0.));
#1776=CARTESIAN_POINT('Origin',(26.5,15.8933982822018,0.));
#1777=CARTESIAN_POINT('',(26.5,15.8933982822018,0.));
#1778=CARTESIAN_POINT('Origin',(26.5,-15.8933982822019,0.));
#1779=CARTESIAN_POINT('',(26.5,-15.8933982822019,0.));
#1780=CARTESIAN_POINT('Origin',(15.8933982822018,-26.5,0.));
#1781=CARTESIAN_POINT('',(15.8933982822018,-26.5,0.));
#1782=CARTESIAN_POINT('Origin',(-15.8933982822018,-26.5,0.));
#1783=CARTESIAN_POINT('',(-15.8933982822018,-26.5,0.));
#1784=CARTESIAN_POINT('Origin',(-26.5,-15.8933982822018,0.));
#1785=CARTESIAN_POINT('',(-26.5,-15.8933982822018,0.));
#1786=CARTESIAN_POINT('Origin',(-26.5,15.8933982822018,0.));
#1787=CARTESIAN_POINT('',(-26.5,15.8933982822018,0.));
#1788=CARTESIAN_POINT('Origin',(-15.8933982822017,26.5,0.));
#1789=CARTESIAN_POINT('Origin',(4.44089209850063E-15,0.,1.));
#1790=UNCERTAINTY_MEASURE_WITH_UNIT(LENGTH_MEASURE(0.01),#1794,
'DISTANCE_ACCURACY_VALUE',
'Maximum model space distance between geometric entities at asserted c
onnectivities');
#1791=UNCERTAINTY_MEASURE_WITH_UNIT(LENGTH_MEASURE(0.01),#1794,
'DISTANCE_ACCURACY_VALUE',
'Maximum model space distance between geometric entities at asserted c
onnectivities');
#1792=(
GEOMETRIC_REPRESENTATION_CONTEXT(3)
GLOBAL_UNCERTAINTY_ASSIGNED_CONTEXT((#1790))
GLOBAL_UNIT_ASSIGNED_CONTEXT((#1794,#1796,#1797))
REPRESENTATION_CONTEXT('','3D')
);
#1793=(
GEOMETRIC_REPRESENTATION_CONTEXT(3)
GLOBAL_UNCERTAINTY_ASSIGNED_CONTEXT((#1791))
GLOBAL_UNIT_ASSIGNED_CONTEXT((#1794,#1796,#1797))
REPRESENTATION_CONTEXT('','3D')
);
#1794=(
LENGTH_UNIT()
NAMED_UNIT(*)
SI_UNIT(.MILLI.,.METRE.)
);
#1795=(
LENGTH_UNIT()
NAMED_UNIT(*)
SI_UNIT($,.METRE.)
);
#1796=(
NAMED_UNIT(*)
PLANE_ANGLE_UNIT()
SI_UNIT($,.RADIAN.)
);
#1797=(
NAMED_UNIT(*)
SI_UNIT($,.STERADIAN.)
SOLID_ANGLE_UNIT()
);
#1798=SHAPE_DEFINITION_REPRESENTATION(#1799,#1800);
#1799=PRODUCT_DEFINITION_SHAPE('',$,#1802);
#1800=SHAPE_REPRESENTATION('',(#1110),#1792);
#1801=PRODUCT_DEFINITION_CONTEXT('part definition',#1806,'design');
#1802=PRODUCT_DEFINITION('stabilisator_behuizing_onderkant',
'stabilisator_behuizing_onderkant v17',#1803,#1801);
#1803=PRODUCT_DEFINITION_FORMATION('',$,#1808);
#1804=PRODUCT_RELATED_PRODUCT_CATEGORY(
'stabilisator_behuizing_onderkant v17',
'stabilisator_behuizing_onderkant v17',(#1808));
#1805=APPLICATION_PROTOCOL_DEFINITION('international standard',
'automotive_design',2009,#1806);
#1806=APPLICATION_CONTEXT(
'Core Data for Automotive Mechanical Design Process');
#1807=PRODUCT_CONTEXT('part definition',#1806,'mechanical');
#1808=PRODUCT('stabilisator_behuizing_onderkant',
'stabilisator_behuizing_onderkant v17',$,(#1807));
#1809=PRESENTATION_STYLE_ASSIGNMENT((#1811));
#1810=PRESENTATION_STYLE_ASSIGNMENT((#1812));
#1811=SURFACE_STYLE_USAGE(.BOTH.,#1813);
#1812=SURFACE_STYLE_USAGE(.BOTH.,#1814);
#1813=SURFACE_SIDE_STYLE('',(#1815));
#1814=SURFACE_SIDE_STYLE('',(#1816));
#1815=SURFACE_STYLE_FILL_AREA(#1817);
#1816=SURFACE_STYLE_FILL_AREA(#1818);
#1817=FILL_AREA_STYLE('Steel - Satin',(#1819));
#1818=FILL_AREA_STYLE('ABS (White)',(#1820));
#1819=FILL_AREA_STYLE_COLOUR('Steel - Satin',#1821);
#1820=FILL_AREA_STYLE_COLOUR('ABS (White)',#1822);
#1821=COLOUR_RGB('Steel - Satin',0.627450980392157,0.627450980392157,0.627450980392157);
#1822=COLOUR_RGB('ABS (White)',0.,0.,0.);
ENDSEC;
END-ISO-10303-21;
